<svg width="219" height="60" viewBox="0 0 219 60" fill="none" xmlns="http://www.w3.org/2000/svg">
<g clip-path="url(#clip0_321_74)">
<rect width="219" height="60" fill="#316033"/>
<path d="M21.1378 17.6098V18.5854H20.1622V17.6098H21.1378ZM21.1378 18.5854V19.561H20.1622V18.5854H21.1378ZM21.1378 19.561V20.5366H20.1622V19.561H21.1378ZM24.0646 17.6098V18.5854H23.089V17.6098H24.0646ZM24.0646 18.5854V19.561H23.089V18.5854H24.0646ZM24.0646 19.561V20.5366H23.089V19.561H24.0646ZM25.0402 19.561V20.5366H24.0646V19.561H25.0402ZM25.0402 18.5854V19.561H24.0646V18.5854H25.0402ZM25.0402 17.6098V18.5854H24.0646V17.6098H25.0402ZM23.089 17.6098V18.5854H22.1134V17.6098H23.089ZM22.1134 17.6098V18.5854H21.1378V17.6098H22.1134ZM22.1134 18.5854V19.561H21.1378V18.5854H22.1134ZM23.089 18.5854V19.561H22.1134V18.5854H23.089ZM23.089 19.561V20.5366H22.1134V19.561H23.089ZM22.1134 19.561V20.5366H21.1378V19.561H22.1134ZM21.1378 20.5366V21.5122H20.1622V20.5366H21.1378ZM22.1134 20.5366V21.5122H21.1378V20.5366H22.1134ZM23.089 20.5366V21.5122H22.1134V20.5366H23.089ZM24.0646 20.5366V21.5122H23.089V20.5366H24.0646ZM25.0402 20.5366V21.5122H24.0646V20.5366H25.0402ZM21.1378 41.0244V42H20.1622V41.0244H21.1378ZM21.1378 40.0488V41.0244H20.1622V40.0488H21.1378ZM21.1378 39.0732V40.0488H20.1622V39.0732H21.1378ZM21.1378 38.0976V39.0732H20.1622V38.0976H21.1378ZM21.1378 37.122V38.0976H20.1622V37.122H21.1378ZM21.1378 36.1463V37.122H20.1622V36.1463H21.1378ZM21.1378 35.1707V36.1463H20.1622V35.1707H21.1378ZM21.1378 34.1951V35.1707H20.1622V34.1951H21.1378ZM21.1378 33.2195V34.1951H20.1622V33.2195H21.1378ZM21.1378 32.2439V33.2195H20.1622V32.2439H21.1378ZM21.1378 31.2683V32.2439H20.1622V31.2683H21.1378ZM21.1378 30.2927V31.2683H20.1622V30.2927H21.1378ZM21.1378 29.3171V30.2927H20.1622V29.3171H21.1378ZM21.1378 28.3415V29.3171H20.1622V28.3415H21.1378ZM21.1378 27.3659V28.3415H20.1622V27.3659H21.1378ZM22.1134 27.3659V28.3415H21.1378V27.3659H22.1134ZM22.1134 28.3415V29.3171H21.1378V28.3415H22.1134ZM22.1134 29.3171V30.2927H21.1378V29.3171H22.1134ZM22.1134 30.2927V31.2683H21.1378V30.2927H22.1134ZM22.1134 31.2683V32.2439H21.1378V31.2683H22.1134ZM22.1134 32.2439V33.2195H21.1378V32.2439H22.1134ZM22.1134 33.2195V34.1951H21.1378V33.2195H22.1134ZM23.089 34.1951V35.1707H22.1134V34.1951H23.089ZM23.089 35.1707V36.1463H22.1134V35.1707H23.089ZM23.089 36.1463V37.122H22.1134V36.1463H23.089ZM23.089 37.122V38.0976H22.1134V37.122H23.089ZM23.089 38.0976V39.0732H22.1134V38.0976H23.089ZM23.089 39.0732V40.0488H22.1134V39.0732H23.089ZM23.089 40.0488V41.0244H22.1134V40.0488H23.089ZM23.089 41.0244V42H22.1134V41.0244H23.089ZM24.0646 41.0244V42H23.089V41.0244H24.0646ZM25.0402 41.0244V42H24.0646V41.0244H25.0402ZM25.0402 40.0488V41.0244H24.0646V40.0488H25.0402ZM25.0402 39.0732V40.0488H24.0646V39.0732H25.0402ZM25.0402 38.0976V39.0732H24.0646V38.0976H25.0402ZM25.0402 37.122V38.0976H24.0646V37.122H25.0402ZM25.0402 36.1463V37.122H24.0646V36.1463H25.0402ZM25.0402 35.1707V36.1463H24.0646V35.1707H25.0402ZM25.0402 34.1951V35.1707H24.0646V34.1951H25.0402ZM24.0646 34.1951V35.1707H23.089V34.1951H24.0646ZM24.0646 33.2195V34.1951H23.089V33.2195H24.0646ZM24.0646 35.1707V36.1463H23.089V35.1707H24.0646ZM24.0646 36.1463V37.122H23.089V36.1463H24.0646ZM24.0646 37.122V38.0976H23.089V37.122H24.0646ZM24.0646 38.0976V39.0732H23.089V38.0976H24.0646ZM24.0646 39.0732V40.0488H23.089V39.0732H24.0646ZM24.0646 40.0488V41.0244H23.089V40.0488H24.0646ZM22.1134 41.0244V42H21.1378V41.0244H22.1134ZM22.1134 40.0488V41.0244H21.1378V40.0488H22.1134ZM22.1134 39.0732V40.0488H21.1378V39.0732H22.1134ZM22.1134 38.0976V39.0732H21.1378V38.0976H22.1134ZM22.1134 37.122V38.0976H21.1378V37.122H22.1134ZM22.1134 36.1463V37.122H21.1378V36.1463H22.1134ZM22.1134 35.1707V36.1463H21.1378V35.1707H22.1134ZM22.1134 34.1951V35.1707H21.1378V34.1951H22.1134ZM21.1378 25.4146V26.3902H20.1622V25.4146H21.1378ZM21.1378 26.3902V27.3659H20.1622V26.3902H21.1378ZM24.0646 25.4146V26.3902H23.089V25.4146H24.0646ZM24.0646 26.3902V27.3659H23.089V26.3902H24.0646ZM24.0646 27.3659V28.3415H23.089V27.3659H24.0646ZM24.0646 28.3415V29.3171H23.089V28.3415H24.0646ZM24.0646 29.3171V30.2927H23.089V29.3171H24.0646ZM24.0646 30.2927V31.2683H23.089V30.2927H24.0646ZM25.0402 31.2683V32.2439H24.0646V31.2683H25.0402ZM25.0402 32.2439V33.2195H24.0646V32.2439H25.0402ZM25.0402 33.2195V34.1951H24.0646V33.2195H25.0402ZM25.0402 30.2927V31.2683H24.0646V30.2927H25.0402ZM25.0402 29.3171V30.2927H24.0646V29.3171H25.0402ZM25.0402 28.3415V29.3171H24.0646V28.3415H25.0402ZM25.0402 27.3659V28.3415H24.0646V27.3659H25.0402ZM25.0402 26.3902V27.3659H24.0646V26.3902H25.0402ZM25.0402 25.4146V26.3902H24.0646V25.4146H25.0402ZM22.1134 25.4146V26.3902H21.1378V25.4146H22.1134ZM22.1134 26.3902V27.3659H21.1378V26.3902H22.1134ZM23.089 25.4146V26.3902H22.1134V25.4146H23.089ZM23.089 26.3902V27.3659H22.1134V26.3902H23.089ZM23.089 27.3659V28.3415H22.1134V27.3659H23.089ZM23.089 28.3415V29.3171H22.1134V28.3415H23.089ZM23.089 29.3171V30.2927H22.1134V29.3171H23.089ZM23.089 30.2927V31.2683H22.1134V30.2927H23.089ZM23.089 31.2683V32.2439H22.1134V31.2683H23.089ZM23.089 32.2439V33.2195H22.1134V32.2439H23.089ZM23.089 33.2195V34.1951H22.1134V33.2195H23.089ZM24.0646 32.2439V33.2195H23.089V32.2439H24.0646ZM24.0646 31.2683V32.2439H23.089V31.2683H24.0646ZM24.0646 24.439V25.4146H23.089V24.439H24.0646ZM25.0402 24.439V25.4146H24.0646V24.439H25.0402ZM23.089 24.439V25.4146H22.1134V24.439H23.089ZM22.1134 24.439V25.4146H21.1378V24.439H22.1134ZM21.1378 24.439V25.4146H20.1622V24.439H21.1378ZM29.9268 41.0244V42H28.9512V41.0244H29.9268ZM29.9268 40.0488V41.0244H28.9512V40.0488H29.9268ZM29.9268 39.0732V40.0488H28.9512V39.0732H29.9268ZM29.9268 38.0976V39.0732H28.9512V38.0976H29.9268ZM29.9268 37.122V38.0976H28.9512V37.122H29.9268ZM29.9268 36.1463V37.122H28.9512V36.1463H29.9268ZM29.9268 35.1707V36.1463H28.9512V35.1707H29.9268ZM29.9268 34.1951V35.1707H28.9512V34.1951H29.9268ZM29.9268 33.2195V34.1951H28.9512V33.2195H29.9268ZM29.9268 32.2439V33.2195H28.9512V32.2439H29.9268ZM29.9268 31.2683V32.2439H28.9512V31.2683H29.9268ZM29.9268 30.2927V31.2683H28.9512V30.2927H29.9268ZM29.9268 29.3171V30.2927H28.9512V29.3171H29.9268ZM29.9268 28.3415V29.3171H28.9512V28.3415H29.9268ZM29.9268 27.3659V28.3415H28.9512V27.3659H29.9268ZM30.9024 27.3659V28.3415H29.9268V27.3659H30.9024ZM30.9024 28.3415V29.3171H29.9268V28.3415H30.9024ZM30.9024 29.3171V30.2927H29.9268V29.3171H30.9024ZM30.9024 30.2927V31.2683H29.9268V30.2927H30.9024ZM30.9024 31.2683V32.2439H29.9268V31.2683H30.9024ZM30.9024 32.2439V33.2195H29.9268V32.2439H30.9024ZM30.9024 33.2195V34.1951H29.9268V33.2195H30.9024ZM31.878 34.1951V35.1707H30.9024V34.1951H31.878ZM31.878 35.1707V36.1463H30.9024V35.1707H31.878ZM31.878 36.1463V37.122H30.9024V36.1463H31.878ZM31.878 37.122V38.0976H30.9024V37.122H31.878ZM31.878 38.0976V39.0732H30.9024V38.0976H31.878ZM31.878 39.0732V40.0488H30.9024V39.0732H31.878ZM31.878 40.0488V41.0244H30.9024V40.0488H31.878ZM31.878 41.0244V42H30.9024V41.0244H31.878ZM32.8537 41.0244V42H31.878V41.0244H32.8537ZM33.8293 41.0244V42H32.8537V41.0244H33.8293ZM33.8293 40.0488V41.0244H32.8537V40.0488H33.8293ZM33.8293 39.0732V40.0488H32.8537V39.0732H33.8293ZM33.8293 38.0976V39.0732H32.8537V38.0976H33.8293ZM33.8293 37.122V38.0976H32.8537V37.122H33.8293ZM33.8293 36.1463V37.122H32.8537V36.1463H33.8293ZM33.8293 35.1707V36.1463H32.8537V35.1707H33.8293ZM33.8293 34.1951V35.1707H32.8537V34.1951H33.8293ZM32.8537 34.1951V35.1707H31.878V34.1951H32.8537ZM32.8537 33.2195V34.1951H31.878V33.2195H32.8537ZM32.8537 35.1707V36.1463H31.878V35.1707H32.8537ZM32.8537 36.1463V37.122H31.878V36.1463H32.8537ZM32.8537 37.122V38.0976H31.878V37.122H32.8537ZM32.8537 38.0976V39.0732H31.878V38.0976H32.8537ZM32.8537 39.0732V40.0488H31.878V39.0732H32.8537ZM32.8537 40.0488V41.0244H31.878V40.0488H32.8537ZM30.9024 41.0244V42H29.9268V41.0244H30.9024ZM30.9024 40.0488V41.0244H29.9268V40.0488H30.9024ZM30.9024 39.0732V40.0488H29.9268V39.0732H30.9024ZM30.9024 38.0976V39.0732H29.9268V38.0976H30.9024ZM30.9024 37.122V38.0976H29.9268V37.122H30.9024ZM30.9024 36.1463V37.122H29.9268V36.1463H30.9024ZM30.9024 35.1707V36.1463H29.9268V35.1707H30.9024ZM30.9024 34.1951V35.1707H29.9268V34.1951H30.9024ZM29.9268 17.6098V18.5854H28.9512V17.6098H29.9268ZM29.9268 18.5854V19.561H28.9512V18.5854H29.9268ZM29.9268 19.561V20.5366H28.9512V19.561H29.9268ZM29.9268 20.5366V21.5122H28.9512V20.5366H29.9268ZM29.9268 21.5122V22.4878H28.9512V21.5122H29.9268ZM29.9268 22.4878V23.4634H28.9512V22.4878H29.9268ZM29.9268 23.4634V24.439H28.9512V23.4634H29.9268ZM29.9268 24.439V25.4146H28.9512V24.439H29.9268ZM29.9268 25.4146V26.3902H28.9512V25.4146H29.9268ZM29.9268 26.3902V27.3659H28.9512V26.3902H29.9268ZM32.8537 17.6098V18.5854H31.878V17.6098H32.8537ZM32.8537 18.5854V19.561H31.878V18.5854H32.8537ZM32.8537 19.561V20.5366H31.878V19.561H32.8537ZM32.8537 20.5366V21.5122H31.878V20.5366H32.8537ZM32.8537 21.5122V22.4878H31.878V21.5122H32.8537ZM32.8537 22.4878V23.4634H31.878V22.4878H32.8537ZM32.8537 24.439V25.4146H31.878V24.439H32.8537ZM32.8537 25.4146V26.3902H31.878V25.4146H32.8537ZM32.8537 26.3902V27.3659H31.878V26.3902H32.8537ZM32.8537 27.3659V28.3415H31.878V27.3659H32.8537ZM32.8537 28.3415V29.3171H31.878V28.3415H32.8537ZM32.8537 29.3171V30.2927H31.878V29.3171H32.8537ZM32.8537 30.2927V31.2683H31.878V30.2927H32.8537ZM33.8293 31.2683V32.2439H32.8537V31.2683H33.8293ZM33.8293 32.2439V33.2195H32.8537V32.2439H33.8293ZM33.8293 33.2195V34.1951H32.8537V33.2195H33.8293ZM33.8293 30.2927V31.2683H32.8537V30.2927H33.8293ZM33.8293 29.3171V30.2927H32.8537V29.3171H33.8293ZM33.8293 28.3415V29.3171H32.8537V28.3415H33.8293ZM33.8293 27.3659V28.3415H32.8537V27.3659H33.8293ZM33.8293 26.3902V27.3659H32.8537V26.3902H33.8293ZM33.8293 25.4146V26.3902H32.8537V25.4146H33.8293ZM33.8293 24.439V25.4146H32.8537V24.439H33.8293ZM33.8293 23.4634V24.439H32.8537V23.4634H33.8293ZM33.8293 22.4878V23.4634H32.8537V22.4878H33.8293ZM33.8293 21.5122V22.4878H32.8537V21.5122H33.8293ZM32.8537 23.4634V24.439H31.878V23.4634H32.8537ZM33.8293 20.5366V21.5122H32.8537V20.5366H33.8293ZM33.8293 19.561V20.5366H32.8537V19.561H33.8293ZM33.8293 18.5854V19.561H32.8537V18.5854H33.8293ZM33.8293 17.6098V18.5854H32.8537V17.6098H33.8293ZM31.878 17.6098V18.5854H30.9024V17.6098H31.878ZM30.9024 17.6098V18.5854H29.9268V17.6098H30.9024ZM30.9024 18.5854V19.561H29.9268V18.5854H30.9024ZM31.878 18.5854V19.561H30.9024V18.5854H31.878ZM31.878 19.561V20.5366H30.9024V19.561H31.878ZM31.878 20.5366V21.5122H30.9024V20.5366H31.878ZM31.878 21.5122V22.4878H30.9024V21.5122H31.878ZM31.878 22.4878V23.4634H30.9024V22.4878H31.878ZM31.878 23.4634V24.439H30.9024V23.4634H31.878ZM31.878 24.439V25.4146H30.9024V24.439H31.878ZM30.9024 25.4146V26.3902H29.9268V25.4146H30.9024ZM30.9024 26.3902V27.3659H29.9268V26.3902H30.9024ZM30.9024 24.439V25.4146H29.9268V24.439H30.9024ZM30.9024 23.4634V24.439H29.9268V23.4634H30.9024ZM30.9024 22.4878V23.4634H29.9268V22.4878H30.9024ZM30.9024 21.5122V22.4878H29.9268V21.5122H30.9024ZM30.9024 20.5366V21.5122H29.9268V20.5366H30.9024ZM30.9024 19.561V20.5366H29.9268V19.561H30.9024ZM31.878 25.4146V26.3902H30.9024V25.4146H31.878ZM31.878 26.3902V27.3659H30.9024V26.3902H31.878ZM31.878 27.3659V28.3415H30.9024V27.3659H31.878ZM31.878 28.3415V29.3171H30.9024V28.3415H31.878ZM31.878 29.3171V30.2927H30.9024V29.3171H31.878ZM31.878 30.2927V31.2683H30.9024V30.2927H31.878ZM31.878 31.2683V32.2439H30.9024V31.2683H31.878ZM31.878 32.2439V33.2195H30.9024V32.2439H31.878ZM31.878 33.2195V34.1951H30.9024V33.2195H31.878ZM32.8537 32.2439V33.2195H31.878V32.2439H32.8537ZM32.8537 31.2683V32.2439H31.878V31.2683H32.8537ZM34.8049 29.3171V30.2927H33.8293V29.3171H34.8049ZM35.7805 29.3171V30.2927H34.8049V29.3171H35.7805ZM35.7805 30.2927V31.2683H34.8049V30.2927H35.7805ZM34.8049 30.2927V31.2683H33.8293V30.2927H34.8049ZM34.8049 27.3659V28.3415H33.8293V27.3659H34.8049ZM35.7805 27.3659V28.3415H34.8049V27.3659H35.7805ZM34.8049 31.2683V32.2439H33.8293V31.2683H34.8049ZM35.7805 31.2683V32.2439H34.8049V31.2683H35.7805ZM35.7805 28.3415V29.3171H34.8049V28.3415H35.7805ZM34.8049 28.3415V29.3171H33.8293V28.3415H34.8049ZM34.8049 17.6098V18.5854H33.8293V17.6098H34.8049ZM35.7805 17.6098V18.5854H34.8049V17.6098H35.7805ZM35.7805 18.5854V19.561H34.8049V18.5854H35.7805ZM34.8049 18.5854V19.561H33.8293V18.5854H34.8049ZM34.8049 19.561V20.5366H33.8293V19.561H34.8049ZM35.7805 19.561V20.5366H34.8049V19.561H35.7805ZM35.7805 20.5366V21.5122H34.8049V20.5366H35.7805ZM34.8049 20.5366V21.5122H33.8293V20.5366H34.8049ZM34.8049 21.5122V22.4878H33.8293V21.5122H34.8049ZM35.7805 21.5122V22.4878H34.8049V21.5122H35.7805ZM36.7561 27.3659V28.3415H35.7805V27.3659H36.7561ZM37.7317 27.3659V28.3415H36.7561V27.3659H37.7317ZM38.7073 27.3659V28.3415H37.7317V27.3659H38.7073ZM38.7073 21.5122V22.4878H37.7317V21.5122H38.7073ZM37.7317 21.5122V22.4878H36.7561V21.5122H37.7317ZM36.7561 21.5122V22.4878H35.7805V21.5122H36.7561ZM36.7561 17.6098V18.5854H35.7805V17.6098H36.7561ZM37.7317 17.6098V18.5854H36.7561V17.6098H37.7317ZM38.7073 17.6098V18.5854H37.7317V17.6098H38.7073ZM38.7073 20.5366V21.5122H37.7317V20.5366H38.7073ZM38.7073 19.561V20.5366H37.7317V19.561H38.7073ZM37.7317 19.561V20.5366H36.7561V19.561H37.7317ZM36.7561 19.561V20.5366H35.7805V19.561H36.7561ZM36.7561 18.5854V19.561H35.7805V18.5854H36.7561ZM37.7317 18.5854V19.561H36.7561V18.5854H37.7317ZM38.7073 18.5854V19.561H37.7317V18.5854H38.7073ZM36.7561 20.5366V21.5122H35.7805V20.5366H36.7561ZM37.7317 20.5366V21.5122H36.7561V20.5366H37.7317ZM38.7073 29.3171V30.2927H37.7317V29.3171H38.7073ZM37.7317 29.3171V30.2927H36.7561V29.3171H37.7317ZM36.7561 29.3171V30.2927H35.7805V29.3171H36.7561ZM36.7561 28.3415V29.3171H35.7805V28.3415H36.7561ZM37.7317 28.3415V29.3171H36.7561V28.3415H37.7317ZM38.7073 28.3415V29.3171H37.7317V28.3415H38.7073ZM36.7561 30.2927V31.2683H35.7805V30.2927H36.7561ZM37.7317 30.2927V31.2683H36.7561V30.2927H37.7317ZM38.7073 30.2927V31.2683H37.7317V30.2927H38.7073ZM38.7073 31.2683V32.2439H37.7317V31.2683H38.7073ZM37.7317 31.2683V32.2439H36.7561V31.2683H37.7317ZM36.7561 31.2683V32.2439H35.7805V31.2683H36.7561ZM44.561 21.5122V22.4878H43.5854V21.5122H44.561ZM39.6829 17.6098V18.5854H38.7073V17.6098H39.6829ZM40.6585 17.6098V18.5854H39.6829V17.6098H40.6585ZM41.6341 17.6098V18.5854H40.6585V17.6098H41.6341ZM42.6098 17.6098V18.5854H41.6341V17.6098H42.6098ZM43.5854 17.6098V18.5854H42.6098V17.6098H43.5854ZM43.5854 18.5854V19.561H42.6098V18.5854H43.5854ZM44.561 18.5854V19.561H43.5854V18.5854H44.561ZM44.561 19.561V20.5366H43.5854V19.561H44.561ZM44.561 17.6098V18.5854H43.5854V17.6098H44.561ZM44.561 20.5366V21.5122H43.5854V20.5366H44.561ZM43.5854 20.5366V21.5122H42.6098V20.5366H43.5854ZM42.6098 20.5366V21.5122H41.6341V20.5366H42.6098ZM41.6341 20.5366V21.5122H40.6585V20.5366H41.6341ZM40.6585 20.5366V21.5122H39.6829V20.5366H40.6585ZM39.6829 20.5366V21.5122H38.7073V20.5366H39.6829ZM39.6829 19.561V20.5366H38.7073V19.561H39.6829ZM39.6829 18.5854V19.561H38.7073V18.5854H39.6829ZM40.6585 18.5854V19.561H39.6829V18.5854H40.6585ZM41.6341 18.5854V19.561H40.6585V18.5854H41.6341ZM42.6098 18.5854V19.561H41.6341V18.5854H42.6098ZM42.6098 19.561V20.5366H41.6341V19.561H42.6098ZM43.5854 19.561V20.5366H42.6098V19.561H43.5854ZM41.6341 19.561V20.5366H40.6585V19.561H41.6341ZM40.6585 19.561V20.5366H39.6829V19.561H40.6585ZM39.6829 21.5122V22.4878H38.7073V21.5122H39.6829ZM40.6585 21.5122V22.4878H39.6829V21.5122H40.6585ZM41.6341 21.5122V22.4878H40.6585V21.5122H41.6341ZM42.6098 21.5122V22.4878H41.6341V21.5122H42.6098ZM43.5854 21.5122V22.4878H42.6098V21.5122H43.5854ZM39.6829 27.3659V28.3415H38.7073V27.3659H39.6829ZM39.6829 28.3415V29.3171H38.7073V28.3415H39.6829ZM39.6829 29.3171V30.2927H38.7073V29.3171H39.6829ZM39.6829 30.2927V31.2683H38.7073V30.2927H39.6829ZM40.6585 30.2927V31.2683H39.6829V30.2927H40.6585ZM40.6585 31.2683V32.2439H39.6829V31.2683H40.6585ZM39.6829 31.2683V32.2439H38.7073V31.2683H39.6829ZM40.6585 27.3659V28.3415H39.6829V27.3659H40.6585ZM40.6585 28.3415V29.3171H39.6829V28.3415H40.6585ZM40.6585 29.3171V30.2927H39.6829V29.3171H40.6585ZM41.6341 29.3171V30.2927H40.6585V29.3171H41.6341ZM42.6098 29.3171V30.2927H41.6341V29.3171H42.6098ZM42.6098 28.3415V29.3171H41.6341V28.3415H42.6098ZM42.6098 27.3659V28.3415H41.6341V27.3659H42.6098ZM41.6341 27.3659V28.3415H40.6585V27.3659H41.6341ZM41.6341 28.3415V29.3171H40.6585V28.3415H41.6341ZM41.6341 30.2927V31.2683H40.6585V30.2927H41.6341ZM41.6341 31.2683V32.2439H40.6585V31.2683H41.6341ZM42.6098 31.2683V32.2439H41.6341V31.2683H42.6098ZM42.6098 30.2927V31.2683H41.6341V30.2927H42.6098ZM52.383 41.0244V42H51.4074V41.0244H52.383ZM52.383 40.0488V41.0244H51.4074V40.0488H52.383ZM52.383 39.0732V40.0488H51.4074V39.0732H52.383ZM52.383 38.0976V39.0732H51.4074V38.0976H52.383ZM52.383 37.122V38.0976H51.4074V37.122H52.383ZM52.383 36.1463V37.122H51.4074V36.1463H52.383ZM52.383 35.1707V36.1463H51.4074V35.1707H52.383ZM52.383 34.1951V35.1707H51.4074V34.1951H52.383ZM52.383 33.2195V34.1951H51.4074V33.2195H52.383ZM52.383 32.2439V33.2195H51.4074V32.2439H52.383ZM52.383 31.2683V32.2439H51.4074V31.2683H52.383ZM52.383 30.2927V31.2683H51.4074V30.2927H52.383ZM52.383 29.3171V30.2927H51.4074V29.3171H52.383ZM52.383 28.3415V29.3171H51.4074V28.3415H52.383ZM52.383 27.3659V28.3415H51.4074V27.3659H52.383ZM53.3586 27.3659V28.3415H52.383V27.3659H53.3586ZM53.3586 28.3415V29.3171H52.383V28.3415H53.3586ZM53.3586 29.3171V30.2927H52.383V29.3171H53.3586ZM53.3586 30.2927V31.2683H52.383V30.2927H53.3586ZM53.3586 31.2683V32.2439H52.383V31.2683H53.3586ZM53.3586 32.2439V33.2195H52.383V32.2439H53.3586ZM53.3586 33.2195V34.1951H52.383V33.2195H53.3586ZM54.3342 34.1951V35.1707H53.3586V34.1951H54.3342ZM54.3342 35.1707V36.1463H53.3586V35.1707H54.3342ZM54.3342 36.1463V37.122H53.3586V36.1463H54.3342ZM54.3342 37.122V38.0976H53.3586V37.122H54.3342ZM54.3342 38.0976V39.0732H53.3586V38.0976H54.3342ZM54.3342 39.0732V40.0488H53.3586V39.0732H54.3342ZM54.3342 40.0488V41.0244H53.3586V40.0488H54.3342ZM54.3342 41.0244V42H53.3586V41.0244H54.3342ZM55.3098 41.0244V42H54.3342V41.0244H55.3098ZM56.2854 41.0244V42H55.3098V41.0244H56.2854ZM56.2854 40.0488V41.0244H55.3098V40.0488H56.2854ZM56.2854 39.0732V40.0488H55.3098V39.0732H56.2854ZM56.2854 38.0976V39.0732H55.3098V38.0976H56.2854ZM56.2854 37.122V38.0976H55.3098V37.122H56.2854ZM56.2854 36.1463V37.122H55.3098V36.1463H56.2854ZM56.2854 35.1707V36.1463H55.3098V35.1707H56.2854ZM56.2854 34.1951V35.1707H55.3098V34.1951H56.2854ZM55.3098 34.1951V35.1707H54.3342V34.1951H55.3098ZM55.3098 33.2195V34.1951H54.3342V33.2195H55.3098ZM55.3098 35.1707V36.1463H54.3342V35.1707H55.3098ZM55.3098 36.1463V37.122H54.3342V36.1463H55.3098ZM55.3098 37.122V38.0976H54.3342V37.122H55.3098ZM55.3098 38.0976V39.0732H54.3342V38.0976H55.3098ZM55.3098 39.0732V40.0488H54.3342V39.0732H55.3098ZM55.3098 40.0488V41.0244H54.3342V40.0488H55.3098ZM53.3586 41.0244V42H52.383V41.0244H53.3586ZM53.3586 40.0488V41.0244H52.383V40.0488H53.3586ZM53.3586 39.0732V40.0488H52.383V39.0732H53.3586ZM53.3586 38.0976V39.0732H52.383V38.0976H53.3586ZM53.3586 37.122V38.0976H52.383V37.122H53.3586ZM53.3586 36.1463V37.122H52.383V36.1463H53.3586ZM53.3586 35.1707V36.1463H52.383V35.1707H53.3586ZM53.3586 34.1951V35.1707H52.383V34.1951H53.3586ZM52.383 17.6098V18.5854H51.4074V17.6098H52.383ZM52.383 18.5854V19.561H51.4074V18.5854H52.383ZM52.383 19.561V20.5366H51.4074V19.561H52.383ZM52.383 20.5366V21.5122H51.4074V20.5366H52.383ZM52.383 21.5122V22.4878H51.4074V21.5122H52.383ZM52.383 22.4878V23.4634H51.4074V22.4878H52.383ZM52.383 23.4634V24.439H51.4074V23.4634H52.383ZM52.383 24.439V25.4146H51.4074V24.439H52.383ZM52.383 25.4146V26.3902H51.4074V25.4146H52.383ZM52.383 26.3902V27.3659H51.4074V26.3902H52.383ZM55.3098 17.6098V18.5854H54.3342V17.6098H55.3098ZM55.3098 18.5854V19.561H54.3342V18.5854H55.3098ZM55.3098 19.561V20.5366H54.3342V19.561H55.3098ZM55.3098 20.5366V21.5122H54.3342V20.5366H55.3098ZM55.3098 21.5122V22.4878H54.3342V21.5122H55.3098ZM55.3098 22.4878V23.4634H54.3342V22.4878H55.3098ZM55.3098 24.439V25.4146H54.3342V24.439H55.3098ZM55.3098 25.4146V26.3902H54.3342V25.4146H55.3098ZM55.3098 26.3902V27.3659H54.3342V26.3902H55.3098ZM55.3098 27.3659V28.3415H54.3342V27.3659H55.3098ZM55.3098 28.3415V29.3171H54.3342V28.3415H55.3098ZM55.3098 29.3171V30.2927H54.3342V29.3171H55.3098ZM55.3098 30.2927V31.2683H54.3342V30.2927H55.3098ZM56.2854 31.2683V32.2439H55.3098V31.2683H56.2854ZM56.2854 32.2439V33.2195H55.3098V32.2439H56.2854ZM56.2854 33.2195V34.1951H55.3098V33.2195H56.2854ZM56.2854 30.2927V31.2683H55.3098V30.2927H56.2854ZM56.2854 29.3171V30.2927H55.3098V29.3171H56.2854ZM56.2854 28.3415V29.3171H55.3098V28.3415H56.2854ZM56.2854 27.3659V28.3415H55.3098V27.3659H56.2854ZM56.2854 26.3902V27.3659H55.3098V26.3902H56.2854ZM56.2854 25.4146V26.3902H55.3098V25.4146H56.2854ZM56.2854 24.439V25.4146H55.3098V24.439H56.2854ZM56.2854 23.4634V24.439H55.3098V23.4634H56.2854ZM56.2854 22.4878V23.4634H55.3098V22.4878H56.2854ZM56.2854 21.5122V22.4878H55.3098V21.5122H56.2854ZM55.3098 23.4634V24.439H54.3342V23.4634H55.3098ZM56.2854 20.5366V21.5122H55.3098V20.5366H56.2854ZM56.2854 19.561V20.5366H55.3098V19.561H56.2854ZM56.2854 18.5854V19.561H55.3098V18.5854H56.2854ZM56.2854 17.6098V18.5854H55.3098V17.6098H56.2854ZM54.3342 17.6098V18.5854H53.3586V17.6098H54.3342ZM53.3586 17.6098V18.5854H52.383V17.6098H53.3586ZM53.3586 18.5854V19.561H52.383V18.5854H53.3586ZM54.3342 18.5854V19.561H53.3586V18.5854H54.3342ZM54.3342 19.561V20.5366H53.3586V19.561H54.3342ZM54.3342 20.5366V21.5122H53.3586V20.5366H54.3342ZM54.3342 21.5122V22.4878H53.3586V21.5122H54.3342ZM54.3342 22.4878V23.4634H53.3586V22.4878H54.3342ZM54.3342 23.4634V24.439H53.3586V23.4634H54.3342ZM54.3342 24.439V25.4146H53.3586V24.439H54.3342ZM53.3586 25.4146V26.3902H52.383V25.4146H53.3586ZM53.3586 26.3902V27.3659H52.383V26.3902H53.3586ZM53.3586 24.439V25.4146H52.383V24.439H53.3586ZM53.3586 23.4634V24.439H52.383V23.4634H53.3586ZM53.3586 22.4878V23.4634H52.383V22.4878H53.3586ZM53.3586 21.5122V22.4878H52.383V21.5122H53.3586ZM53.3586 20.5366V21.5122H52.383V20.5366H53.3586ZM53.3586 19.561V20.5366H52.383V19.561H53.3586ZM54.3342 25.4146V26.3902H53.3586V25.4146H54.3342ZM54.3342 26.3902V27.3659H53.3586V26.3902H54.3342ZM54.3342 27.3659V28.3415H53.3586V27.3659H54.3342ZM54.3342 28.3415V29.3171H53.3586V28.3415H54.3342ZM54.3342 29.3171V30.2927H53.3586V29.3171H54.3342ZM54.3342 30.2927V31.2683H53.3586V30.2927H54.3342ZM54.3342 31.2683V32.2439H53.3586V31.2683H54.3342ZM54.3342 32.2439V33.2195H53.3586V32.2439H54.3342ZM54.3342 33.2195V34.1951H53.3586V33.2195H54.3342ZM55.3098 32.2439V33.2195H54.3342V32.2439H55.3098ZM55.3098 31.2683V32.2439H54.3342V31.2683H55.3098ZM51.4074 17.6098V18.5854H50.4318V17.6098H51.4074ZM50.4318 17.6098V18.5854H49.4562V17.6098H50.4318ZM49.4562 17.6098V18.5854H48.4806V17.6098H49.4562ZM48.4806 17.6098V18.5854H47.505V17.6098H48.4806ZM47.505 17.6098V18.5854H46.5293V17.6098H47.505ZM47.505 18.5854V19.561H46.5293V18.5854H47.505ZM47.505 19.561V20.5366H46.5293V19.561H47.505ZM48.4806 18.5854V19.561H47.505V18.5854H48.4806ZM49.4562 18.5854V19.561H48.4806V18.5854H49.4562ZM50.4318 18.5854V19.561H49.4562V18.5854H50.4318ZM51.4074 19.561V20.5366H50.4318V19.561H51.4074ZM51.4074 18.5854V19.561H50.4318V18.5854H51.4074ZM50.4318 19.561V20.5366H49.4562V19.561H50.4318ZM49.4562 19.561V20.5366H48.4806V19.561H49.4562ZM48.4806 19.561V20.5366H47.505V19.561H48.4806ZM57.2611 17.6098V18.5854H56.2854V17.6098H57.2611ZM58.2367 17.6098V18.5854H57.2611V17.6098H58.2367ZM59.2123 17.6098V18.5854H58.2367V17.6098H59.2123ZM60.1879 17.6098V18.5854H59.2123V17.6098H60.1879ZM61.1635 17.6098V18.5854H60.1879V17.6098H61.1635ZM61.1635 18.5854V19.561H60.1879V18.5854H61.1635ZM60.1879 18.5854V19.561H59.2123V18.5854H60.1879ZM59.2123 18.5854V19.561H58.2367V18.5854H59.2123ZM58.2367 18.5854V19.561H57.2611V18.5854H58.2367ZM57.2611 18.5854V19.561H56.2854V18.5854H57.2611ZM57.2611 19.561V20.5366H56.2854V19.561H57.2611ZM58.2367 19.561V20.5366H57.2611V19.561H58.2367ZM59.2123 19.561V20.5366H58.2367V19.561H59.2123ZM60.1879 19.561V20.5366H59.2123V19.561H60.1879ZM61.1635 19.561V20.5366H60.1879V19.561H61.1635ZM47.505 20.5366V21.5122H46.5293V20.5366H47.505ZM47.505 21.5122V22.4878H46.5293V21.5122H47.505ZM48.4806 21.5122V22.4878H47.505V21.5122H48.4806ZM49.4562 21.5122V22.4878H48.4806V21.5122H49.4562ZM50.4318 21.5122V22.4878H49.4562V21.5122H50.4318ZM51.4074 21.5122V22.4878H50.4318V21.5122H51.4074ZM51.4074 20.5366V21.5122H50.4318V20.5366H51.4074ZM50.4318 20.5366V21.5122H49.4562V20.5366H50.4318ZM49.4562 20.5366V21.5122H48.4806V20.5366H49.4562ZM48.4806 20.5366V21.5122H47.505V20.5366H48.4806ZM61.1635 20.5366V21.5122H60.1879V20.5366H61.1635ZM61.1635 21.5122V22.4878H60.1879V21.5122H61.1635ZM60.1879 21.5122V22.4878H59.2123V21.5122H60.1879ZM59.2123 21.5122V22.4878H58.2367V21.5122H59.2123ZM58.2367 21.5122V22.4878H57.2611V21.5122H58.2367ZM57.2611 21.5122V22.4878H56.2854V21.5122H57.2611ZM57.2611 20.5366V21.5122H56.2854V20.5366H57.2611ZM58.2367 20.5366V21.5122H57.2611V20.5366H58.2367ZM59.2123 20.5366V21.5122H58.2367V20.5366H59.2123ZM60.1879 20.5366V21.5122H59.2123V20.5366H60.1879ZM66.0596 37.122V38.0976H65.084V37.122H66.0596ZM66.0596 36.1463V37.122H65.084V36.1463H66.0596ZM66.0596 35.1707V36.1463H65.084V35.1707H66.0596ZM66.0596 34.1951V35.1707H65.084V34.1951H66.0596ZM66.0596 33.2195V34.1951H65.084V33.2195H66.0596ZM66.0596 32.2439V33.2195H65.084V32.2439H66.0596ZM66.0596 31.2683V32.2439H65.084V31.2683H66.0596ZM66.0596 30.2927V31.2683H65.084V30.2927H66.0596ZM66.0596 29.3171V30.2927H65.084V29.3171H66.0596ZM66.0596 28.3415V29.3171H65.084V28.3415H66.0596ZM66.0596 27.3659V28.3415H65.084V27.3659H66.0596ZM67.0353 27.3659V28.3415H66.0596V27.3659H67.0353ZM67.0353 28.3415V29.3171H66.0596V28.3415H67.0353ZM67.0353 29.3171V30.2927H66.0596V29.3171H67.0353ZM67.0353 30.2927V31.2683H66.0596V30.2927H67.0353ZM67.0353 31.2683V32.2439H66.0596V31.2683H67.0353ZM67.0353 32.2439V33.2195H66.0596V32.2439H67.0353ZM67.0353 33.2195V34.1951H66.0596V33.2195H67.0353ZM68.0109 34.1951V35.1707H67.0353V34.1951H68.0109ZM68.0109 35.1707V36.1463H67.0353V35.1707H68.0109ZM68.0109 36.1463V37.122H67.0353V36.1463H68.0109ZM68.0109 37.122V38.0976H67.0353V37.122H68.0109ZM68.0109 38.0976V39.0732H67.0353V38.0976H68.0109ZM68.0109 39.0732V40.0488H67.0353V39.0732H68.0109ZM68.0109 40.0488V41.0244H67.0353V40.0488H68.0109ZM69.9621 41.0244V42H68.9865V41.0244H69.9621ZM69.9621 40.0488V41.0244H68.9865V40.0488H69.9621ZM69.9621 39.0732V40.0488H68.9865V39.0732H69.9621ZM69.9621 38.0976V39.0732H68.9865V38.0976H69.9621ZM69.9621 37.122V38.0976H68.9865V37.122H69.9621ZM69.9621 36.1463V37.122H68.9865V36.1463H69.9621ZM69.9621 35.1707V36.1463H68.9865V35.1707H69.9621ZM69.9621 34.1951V35.1707H68.9865V34.1951H69.9621ZM68.9865 34.1951V35.1707H68.0109V34.1951H68.9865ZM68.9865 33.2195V34.1951H68.0109V33.2195H68.9865ZM68.9865 35.1707V36.1463H68.0109V35.1707H68.9865ZM68.9865 36.1463V37.122H68.0109V36.1463H68.9865ZM68.9865 37.122V38.0976H68.0109V37.122H68.9865ZM68.9865 38.0976V39.0732H68.0109V38.0976H68.9865ZM68.9865 39.0732V40.0488H68.0109V39.0732H68.9865ZM68.9865 40.0488V41.0244H68.0109V40.0488H68.9865ZM67.0353 39.0732V40.0488H66.0596V39.0732H67.0353ZM67.0353 38.0976V39.0732H66.0596V38.0976H67.0353ZM67.0353 37.122V38.0976H66.0596V37.122H67.0353ZM67.0353 36.1463V37.122H66.0596V36.1463H67.0353ZM67.0353 35.1707V36.1463H66.0596V35.1707H67.0353ZM67.0353 34.1951V35.1707H66.0596V34.1951H67.0353ZM66.0596 26.3902V27.3659H65.084V26.3902H66.0596ZM68.9865 26.3902V27.3659H68.0109V26.3902H68.9865ZM68.9865 27.3659V28.3415H68.0109V27.3659H68.9865ZM68.9865 28.3415V29.3171H68.0109V28.3415H68.9865ZM68.9865 29.3171V30.2927H68.0109V29.3171H68.9865ZM68.9865 30.2927V31.2683H68.0109V30.2927H68.9865ZM69.9621 31.2683V32.2439H68.9865V31.2683H69.9621ZM69.9621 32.2439V33.2195H68.9865V32.2439H69.9621ZM69.9621 33.2195V34.1951H68.9865V33.2195H69.9621ZM69.9621 30.2927V31.2683H68.9865V30.2927H69.9621ZM69.9621 29.3171V30.2927H68.9865V29.3171H69.9621ZM69.9621 28.3415V29.3171H68.9865V28.3415H69.9621ZM69.9621 27.3659V28.3415H68.9865V27.3659H69.9621ZM69.9621 26.3902V27.3659H68.9865V26.3902H69.9621ZM67.0353 26.3902V27.3659H66.0596V26.3902H67.0353ZM68.0109 26.3902V27.3659H67.0353V26.3902H68.0109ZM68.0109 27.3659V28.3415H67.0353V27.3659H68.0109ZM68.0109 28.3415V29.3171H67.0353V28.3415H68.0109ZM68.0109 29.3171V30.2927H67.0353V29.3171H68.0109ZM68.0109 30.2927V31.2683H67.0353V30.2927H68.0109ZM68.0109 31.2683V32.2439H67.0353V31.2683H68.0109ZM68.0109 32.2439V33.2195H67.0353V32.2439H68.0109ZM68.0109 33.2195V34.1951H67.0353V33.2195H68.0109ZM68.9865 32.2439V33.2195H68.0109V32.2439H68.9865ZM68.9865 31.2683V32.2439H68.0109V31.2683H68.9865ZM77.767 41.0244V42H76.7913V41.0244H77.767ZM77.767 40.0488V41.0244H76.7913V40.0488H77.767ZM77.767 39.0732V40.0488H76.7913V39.0732H77.767ZM77.767 38.0976V39.0732H76.7913V38.0976H77.767ZM77.767 37.122V38.0976H76.7913V37.122H77.767ZM77.767 36.1463V37.122H76.7913V36.1463H77.767ZM77.767 35.1707V36.1463H76.7913V35.1707H77.767ZM77.767 34.1951V35.1707H76.7913V34.1951H77.767ZM77.767 33.2195V34.1951H76.7913V33.2195H77.767ZM77.767 32.2439V33.2195H76.7913V32.2439H77.767ZM77.767 31.2683V32.2439H76.7913V31.2683H77.767ZM77.767 30.2927V31.2683H76.7913V30.2927H77.767ZM77.767 29.3171V30.2927H76.7913V29.3171H77.767ZM77.767 28.3415V29.3171H76.7913V28.3415H77.767ZM77.767 27.3659V28.3415H76.7913V27.3659H77.767ZM78.7426 27.3659V28.3415H77.767V27.3659H78.7426ZM78.7426 28.3415V29.3171H77.767V28.3415H78.7426ZM78.7426 29.3171V30.2927H77.767V29.3171H78.7426ZM78.7426 30.2927V31.2683H77.767V30.2927H78.7426ZM78.7426 31.2683V32.2439H77.767V31.2683H78.7426ZM78.7426 32.2439V33.2195H77.767V32.2439H78.7426ZM78.7426 33.2195V34.1951H77.767V33.2195H78.7426ZM79.7182 34.1951V35.1707H78.7426V34.1951H79.7182ZM79.7182 35.1707V36.1463H78.7426V35.1707H79.7182ZM79.7182 36.1463V37.122H78.7426V36.1463H79.7182ZM79.7182 37.122V38.0976H78.7426V37.122H79.7182ZM79.7182 38.0976V39.0732H78.7426V38.0976H79.7182ZM79.7182 39.0732V40.0488H78.7426V39.0732H79.7182ZM79.7182 40.0488V41.0244H78.7426V40.0488H79.7182ZM81.6694 37.122V38.0976H80.6938V37.122H81.6694ZM81.6694 36.1463V37.122H80.6938V36.1463H81.6694ZM81.6694 35.1707V36.1463H80.6938V35.1707H81.6694ZM81.6694 34.1951V35.1707H80.6938V34.1951H81.6694ZM80.6938 34.1951V35.1707H79.7182V34.1951H80.6938ZM80.6938 33.2195V34.1951H79.7182V33.2195H80.6938ZM80.6938 35.1707V36.1463H79.7182V35.1707H80.6938ZM80.6938 36.1463V37.122H79.7182V36.1463H80.6938ZM80.6938 37.122V38.0976H79.7182V37.122H80.6938ZM80.6938 38.0976V39.0732H79.7182V38.0976H80.6938ZM80.6938 39.0732V40.0488H79.7182V39.0732H80.6938ZM78.7426 40.0488V41.0244H77.767V40.0488H78.7426ZM78.7426 39.0732V40.0488H77.767V39.0732H78.7426ZM78.7426 38.0976V39.0732H77.767V38.0976H78.7426ZM78.7426 37.122V38.0976H77.767V37.122H78.7426ZM78.7426 36.1463V37.122H77.767V36.1463H78.7426ZM78.7426 35.1707V36.1463H77.767V35.1707H78.7426ZM78.7426 34.1951V35.1707H77.767V34.1951H78.7426ZM77.767 26.3902V27.3659H76.7913V26.3902H77.767ZM80.6938 26.3902V27.3659H79.7182V26.3902H80.6938ZM80.6938 27.3659V28.3415H79.7182V27.3659H80.6938ZM80.6938 28.3415V29.3171H79.7182V28.3415H80.6938ZM80.6938 29.3171V30.2927H79.7182V29.3171H80.6938ZM80.6938 30.2927V31.2683H79.7182V30.2927H80.6938ZM81.6694 31.2683V32.2439H80.6938V31.2683H81.6694ZM81.6694 32.2439V33.2195H80.6938V32.2439H81.6694ZM81.6694 33.2195V34.1951H80.6938V33.2195H81.6694ZM81.6694 30.2927V31.2683H80.6938V30.2927H81.6694ZM81.6694 29.3171V30.2927H80.6938V29.3171H81.6694ZM81.6694 28.3415V29.3171H80.6938V28.3415H81.6694ZM81.6694 27.3659V28.3415H80.6938V27.3659H81.6694ZM81.6694 26.3902V27.3659H80.6938V26.3902H81.6694ZM78.7426 26.3902V27.3659H77.767V26.3902H78.7426ZM79.7182 26.3902V27.3659H78.7426V26.3902H79.7182ZM79.7182 27.3659V28.3415H78.7426V27.3659H79.7182ZM79.7182 28.3415V29.3171H78.7426V28.3415H79.7182ZM79.7182 29.3171V30.2927H78.7426V29.3171H79.7182ZM79.7182 30.2927V31.2683H78.7426V30.2927H79.7182ZM79.7182 31.2683V32.2439H78.7426V31.2683H79.7182ZM79.7182 32.2439V33.2195H78.7426V32.2439H79.7182ZM79.7182 33.2195V34.1951H78.7426V33.2195H79.7182ZM80.6938 32.2439V33.2195H79.7182V32.2439H80.6938ZM80.6938 31.2683V32.2439H79.7182V31.2683H80.6938ZM70.9377 41.0244V42H69.9621V41.0244H70.9377ZM71.9133 41.0244V42H70.9377V41.0244H71.9133ZM72.8889 41.0244V42H71.9133V41.0244H72.8889ZM73.8645 41.0244V42H72.8889V41.0244H73.8645ZM75.8157 41.0244V42H74.8401V41.0244H75.8157ZM76.7913 41.0244V42H75.8157V41.0244H76.7913ZM76.7913 40.0488V41.0244H75.8157V40.0488H76.7913ZM75.8157 40.0488V41.0244H74.8401V40.0488H75.8157ZM73.8645 40.0488V41.0244H72.8889V40.0488H73.8645ZM72.8889 40.0488V41.0244H71.9133V40.0488H72.8889ZM71.9133 40.0488V41.0244H70.9377V40.0488H71.9133ZM70.9377 40.0488V41.0244H69.9621V40.0488H70.9377ZM70.9377 39.0732V40.0488H69.9621V39.0732H70.9377ZM71.9133 39.0732V40.0488H70.9377V39.0732H71.9133ZM72.8889 39.0732V40.0488H71.9133V39.0732H72.8889ZM73.8645 39.0732V40.0488H72.8889V39.0732H73.8645ZM75.8157 39.0732V40.0488H74.8401V39.0732H75.8157ZM76.7913 39.0732V40.0488H75.8157V39.0732H76.7913ZM76.7913 38.0976V39.0732H75.8157V38.0976H76.7913ZM75.8157 38.0976V39.0732H74.8401V38.0976H75.8157ZM73.8645 38.0976V39.0732H72.8889V38.0976H73.8645ZM72.8889 38.0976V39.0732H71.9133V38.0976H72.8889ZM71.9133 38.0976V39.0732H70.9377V38.0976H71.9133ZM70.9377 38.0976V39.0732H69.9621V38.0976H70.9377ZM70.9377 37.122V38.0976H69.9621V37.122H70.9377ZM76.7913 37.122V38.0976H75.8157V37.122H76.7913ZM80.6938 22.4878V21.5122H81.6694V22.4878H80.6938ZM80.6938 23.4634V22.4878H81.6694V23.4634H80.6938ZM80.6938 24.439V23.4634H81.6694V24.439H80.6938ZM78.7426 24.439V23.4634H79.7182V24.439H78.7426ZM78.7426 23.4634V22.4878H79.7182V23.4634H78.7426ZM78.7426 22.4878V21.5122H79.7182V22.4878H78.7426ZM78.7426 21.5122V20.5366H79.7182V21.5122H78.7426ZM78.7426 20.5366V19.561H79.7182V20.5366H78.7426ZM78.7426 19.561V18.5854H79.7182V19.561H78.7426ZM76.7913 18.5854V17.6098H77.767V18.5854H76.7913ZM76.7913 19.561V18.5854H77.767V19.561H76.7913ZM76.7913 20.5366V19.561H77.767V20.5366H76.7913ZM76.7913 21.5122V20.5366H77.767V21.5122H76.7913ZM76.7913 22.4878V21.5122H77.767V22.4878H76.7913ZM76.7913 23.4634V22.4878H77.767V23.4634H76.7913ZM76.7913 24.439V23.4634H77.767V24.439H76.7913ZM77.767 24.439V23.4634H78.7426V24.439H77.767ZM77.767 23.4634V22.4878H78.7426V23.4634H77.767ZM77.767 22.4878V21.5122H78.7426V22.4878H77.767ZM77.767 21.5122V20.5366H78.7426V21.5122H77.767ZM77.767 20.5366V19.561H78.7426V20.5366H77.767ZM77.767 19.561V18.5854H78.7426V19.561H77.767ZM79.7182 20.5366V19.561H80.6938V20.5366H79.7182ZM79.7182 21.5122V20.5366H80.6938V21.5122H79.7182ZM79.7182 22.4878V21.5122H80.6938V22.4878H79.7182ZM79.7182 23.4634V22.4878H80.6938V23.4634H79.7182ZM79.7182 24.439V23.4634H80.6938V24.439H79.7182ZM68.9865 18.5854V17.6098H69.9621V18.5854H68.9865ZM68.9865 19.561V18.5854H69.9621V19.561H68.9865ZM68.9865 20.5366V19.561H69.9621V20.5366H68.9865ZM68.9865 21.5122V20.5366H69.9621V21.5122H68.9865ZM68.9865 22.4878V21.5122H69.9621V22.4878H68.9865ZM68.9865 23.4634V22.4878H69.9621V23.4634H68.9865ZM68.9865 24.439V23.4634H69.9621V24.439H68.9865ZM67.0353 24.439V23.4634H68.0109V24.439H67.0353ZM67.0353 23.4634V22.4878H68.0109V23.4634H67.0353ZM67.0353 22.4878V21.5122H68.0109V22.4878H67.0353ZM67.0353 21.5122V20.5366H68.0109V21.5122H67.0353ZM67.0353 20.5366V19.561H68.0109V20.5366H67.0353ZM67.0353 19.561V18.5854H68.0109V19.561H67.0353ZM65.084 22.4878V21.5122H66.0596V22.4878H65.084ZM65.084 23.4634V22.4878H66.0596V23.4634H65.084ZM65.084 24.439V23.4634H66.0596V24.439H65.084ZM66.0596 24.439V23.4634H67.0353V24.439H66.0596ZM66.0596 23.4634V22.4878H67.0353V23.4634H66.0596ZM66.0596 22.4878V21.5122H67.0353V22.4878H66.0596ZM66.0596 21.5122V20.5366H67.0353V21.5122H66.0596ZM66.0596 20.5366V19.561H67.0353V20.5366H66.0596ZM68.0109 19.561V18.5854H68.9865V19.561H68.0109ZM68.0109 20.5366V19.561H68.9865V20.5366H68.0109ZM68.0109 21.5122V20.5366H68.9865V21.5122H68.0109ZM68.0109 22.4878V21.5122H68.9865V22.4878H68.0109ZM68.0109 23.4634V22.4878H68.9865V23.4634H68.0109ZM68.0109 24.439V23.4634H68.9865V24.439H68.0109ZM75.8157 18.5854V17.6098H76.7913V18.5854H75.8157ZM74.8401 18.5854V17.6098H75.8157V18.5854H74.8401ZM72.8889 18.5854V17.6098H73.8645V18.5854H72.8889ZM71.9133 18.5854V17.6098H72.8889V18.5854H71.9133ZM70.9377 18.5854V17.6098H71.9133V18.5854H70.9377ZM69.9621 18.5854V17.6098H70.9377V18.5854H69.9621ZM69.9621 19.561V18.5854H70.9377V19.561H69.9621ZM70.9377 19.561V18.5854H71.9133V19.561H70.9377ZM71.9133 19.561V18.5854H72.8889V19.561H71.9133ZM72.8889 19.561V18.5854H73.8645V19.561H72.8889ZM74.8401 19.561V18.5854H75.8157V19.561H74.8401ZM75.8157 19.561V18.5854H76.7913V19.561H75.8157ZM75.8157 20.5366V19.561H76.7913V20.5366H75.8157ZM74.8401 20.5366V19.561H75.8157V20.5366H74.8401ZM72.8889 20.5366V19.561H73.8645V20.5366H72.8889ZM71.9133 20.5366V19.561H72.8889V20.5366H71.9133ZM70.9377 20.5366V19.561H71.9133V20.5366H70.9377ZM69.9621 20.5366V19.561H70.9377V20.5366H69.9621ZM69.9621 21.5122V20.5366H70.9377V21.5122H69.9621ZM70.9377 21.5122V20.5366H71.9133V21.5122H70.9377ZM71.9133 21.5122V20.5366H72.8889V21.5122H71.9133ZM72.8889 21.5122V20.5366H73.8645V21.5122H72.8889ZM74.8401 21.5122V20.5366H75.8157V21.5122H74.8401ZM75.8157 21.5122V20.5366H76.7913V21.5122H75.8157ZM75.8157 22.4878V21.5122H76.7913V22.4878H75.8157ZM69.9621 22.4878V21.5122H70.9377V22.4878H69.9621ZM66.0596 25.4146V26.3902H65.084V25.4146H66.0596ZM67.0353 25.4146V26.3902H66.0596V25.4146H67.0353ZM66.0596 24.439V25.4146H65.084V24.439H66.0596ZM68.9865 24.439V25.4146H68.0109V24.439H68.9865ZM68.9865 25.4146V26.3902H68.0109V25.4146H68.9865ZM69.9621 25.4146V26.3902H68.9865V25.4146H69.9621ZM69.9621 24.439V25.4146H68.9865V24.439H69.9621ZM67.0353 24.439V25.4146H66.0596V24.439H67.0353ZM68.0109 24.439V25.4146H67.0353V24.439H68.0109ZM68.0109 25.4146V26.3902H67.0353V25.4146H68.0109ZM77.767 25.4146V26.3902H76.7913V25.4146H77.767ZM78.7426 25.4146V26.3902H77.767V25.4146H78.7426ZM77.767 24.439V25.4146H76.7913V24.439H77.767ZM80.6938 24.439V25.4146H79.7182V24.439H80.6938ZM80.6938 25.4146V26.3902H79.7182V25.4146H80.6938ZM81.6694 25.4146V26.3902H80.6938V25.4146H81.6694ZM81.6694 24.439V25.4146H80.6938V24.439H81.6694ZM78.7426 24.439V25.4146H77.767V24.439H78.7426ZM79.7182 24.439V25.4146H78.7426V24.439H79.7182ZM79.7182 25.4146V26.3902H78.7426V25.4146H79.7182ZM71.9133 37.122V38.0976H70.9377V37.122H71.9133ZM72.8889 37.122V38.0976H71.9133V37.122H72.8889ZM73.8645 37.122V38.0976H72.8889V37.122H73.8645ZM75.8157 37.122V38.0976H74.8401V37.122H75.8157ZM76.7913 36.1463V37.122H75.8157V36.1463H76.7913ZM70.9377 36.1463V37.122H69.9621V36.1463H70.9377ZM71.9133 21.5122V22.4878H70.9377V21.5122H71.9133ZM72.8889 21.5122V22.4878H71.9133V21.5122H72.8889ZM73.8645 21.5122V22.4878H72.8889V21.5122H73.8645ZM75.8157 21.5122V22.4878H74.8401V21.5122H75.8157ZM76.7913 22.4878V23.4634H75.8157V22.4878H76.7913ZM70.9377 22.4878V23.4634H69.9621V22.4878H70.9377ZM74.8401 17.6098V18.5854H73.8645V17.6098H74.8401ZM74.8401 18.5854V19.561H73.8645V18.5854H74.8401ZM74.8401 19.561V20.5366H73.8645V19.561H74.8401ZM74.8401 20.5366V21.5122H73.8645V20.5366H74.8401ZM74.8401 21.5122V22.4878H73.8645V21.5122H74.8401ZM74.8401 37.122V38.0976H73.8645V37.122H74.8401ZM74.8401 38.0976V39.0732H73.8645V38.0976H74.8401ZM74.8401 39.0732V40.0488H73.8645V39.0732H74.8401ZM74.8401 40.0488V41.0244H73.8645V40.0488H74.8401ZM74.8401 41.0244V42H73.8645V41.0244H74.8401ZM96.294 41.0244V42H95.3184V41.0244H96.294ZM96.294 40.0488V41.0244H95.3184V40.0488H96.294ZM96.294 39.0732V40.0488H95.3184V39.0732H96.294ZM96.294 38.0976V39.0732H95.3184V38.0976H96.294ZM96.294 37.122V38.0976H95.3184V37.122H96.294ZM96.294 36.1463V37.122H95.3184V36.1463H96.294ZM96.294 35.1707V36.1463H95.3184V35.1707H96.294ZM96.294 34.1951V35.1707H95.3184V34.1951H96.294ZM96.294 33.2195V34.1951H95.3184V33.2195H96.294ZM96.294 32.2439V33.2195H95.3184V32.2439H96.294ZM96.294 31.2683V32.2439H95.3184V31.2683H96.294ZM96.294 30.2927V31.2683H95.3184V30.2927H96.294ZM96.294 29.3171V30.2927H95.3184V29.3171H96.294ZM96.294 28.3415V29.3171H95.3184V28.3415H96.294ZM96.294 27.3659V28.3415H95.3184V27.3659H96.294ZM97.2696 27.3659V28.3415H96.294V27.3659H97.2696ZM97.2696 28.3415V29.3171H96.294V28.3415H97.2696ZM97.2696 29.3171V30.2927H96.294V29.3171H97.2696ZM97.2696 30.2927V31.2683H96.294V30.2927H97.2696ZM97.2696 31.2683V32.2439H96.294V31.2683H97.2696ZM97.2696 32.2439V33.2195H96.294V32.2439H97.2696ZM97.2696 33.2195V34.1951H96.294V33.2195H97.2696ZM98.2452 34.1951V35.1707H97.2696V34.1951H98.2452ZM98.2452 35.1707V36.1463H97.2696V35.1707H98.2452ZM98.2452 36.1463V37.122H97.2696V36.1463H98.2452ZM98.2452 37.122V38.0976H97.2696V37.122H98.2452ZM98.2452 38.0976V39.0732H97.2696V38.0976H98.2452ZM98.2452 39.0732V40.0488H97.2696V39.0732H98.2452ZM98.2452 40.0488V41.0244H97.2696V40.0488H98.2452ZM98.2452 41.0244V42H97.2696V41.0244H98.2452ZM99.2208 41.0244V42H98.2452V41.0244H99.2208ZM100.196 41.0244V42H99.2208V41.0244H100.196ZM100.196 40.0488V41.0244H99.2208V40.0488H100.196ZM100.196 39.0732V40.0488H99.2208V39.0732H100.196ZM100.196 38.0976V39.0732H99.2208V38.0976H100.196ZM100.196 37.122V38.0976H99.2208V37.122H100.196ZM100.196 36.1463V37.122H99.2208V36.1463H100.196ZM100.196 35.1707V36.1463H99.2208V35.1707H100.196ZM100.196 34.1951V35.1707H99.2208V34.1951H100.196ZM99.2208 34.1951V35.1707H98.2452V34.1951H99.2208ZM99.2208 33.2195V34.1951H98.2452V33.2195H99.2208ZM99.2208 35.1707V36.1463H98.2452V35.1707H99.2208ZM99.2208 36.1463V37.122H98.2452V36.1463H99.2208ZM99.2208 37.122V38.0976H98.2452V37.122H99.2208ZM99.2208 38.0976V39.0732H98.2452V38.0976H99.2208ZM99.2208 39.0732V40.0488H98.2452V39.0732H99.2208ZM99.2208 40.0488V41.0244H98.2452V40.0488H99.2208ZM97.2696 41.0244V42H96.294V41.0244H97.2696ZM97.2696 40.0488V41.0244H96.294V40.0488H97.2696ZM97.2696 39.0732V40.0488H96.294V39.0732H97.2696ZM97.2696 38.0976V39.0732H96.294V38.0976H97.2696ZM97.2696 37.122V38.0976H96.294V37.122H97.2696ZM97.2696 36.1463V37.122H96.294V36.1463H97.2696ZM97.2696 35.1707V36.1463H96.294V35.1707H97.2696ZM97.2696 34.1951V35.1707H96.294V34.1951H97.2696ZM96.294 24.439V25.4146H95.3184V24.439H96.294ZM96.294 25.4146V26.3902H95.3184V25.4146H96.294ZM96.294 26.3902V27.3659H95.3184V26.3902H96.294ZM99.2208 22.4878V23.4634H98.2452V22.4878H99.2208ZM99.2208 24.439V25.4146H98.2452V24.439H99.2208ZM99.2208 25.4146V26.3902H98.2452V25.4146H99.2208ZM99.2208 26.3902V27.3659H98.2452V26.3902H99.2208ZM99.2208 27.3659V28.3415H98.2452V27.3659H99.2208ZM99.2208 28.3415V29.3171H98.2452V28.3415H99.2208ZM99.2208 29.3171V30.2927H98.2452V29.3171H99.2208ZM99.2208 30.2927V31.2683H98.2452V30.2927H99.2208ZM100.196 31.2683V32.2439H99.2208V31.2683H100.196ZM100.196 32.2439V33.2195H99.2208V32.2439H100.196ZM100.196 33.2195V34.1951H99.2208V33.2195H100.196ZM100.196 30.2927V31.2683H99.2208V30.2927H100.196ZM100.196 29.3171V30.2927H99.2208V29.3171H100.196ZM100.196 28.3415V29.3171H99.2208V28.3415H100.196ZM100.196 27.3659V28.3415H99.2208V27.3659H100.196ZM100.196 26.3902V27.3659H99.2208V26.3902H100.196ZM100.196 25.4146V26.3902H99.2208V25.4146H100.196ZM100.196 24.439V25.4146H99.2208V24.439H100.196ZM100.196 23.4634V24.439H99.2208V23.4634H100.196ZM100.196 22.4878V23.4634H99.2208V22.4878H100.196ZM100.196 21.5122V22.4878H99.2208V21.5122H100.196ZM99.2208 23.4634V24.439H98.2452V23.4634H99.2208ZM100.196 20.5366V21.5122H99.2208V20.5366H100.196ZM100.196 19.561V20.5366H99.2208V19.561H100.196ZM98.2452 22.4878V23.4634H97.2696V22.4878H98.2452ZM98.2452 23.4634V24.439H97.2696V23.4634H98.2452ZM98.2452 24.439V25.4146H97.2696V24.439H98.2452ZM97.2696 25.4146V26.3902H96.294V25.4146H97.2696ZM97.2696 26.3902V27.3659H96.294V26.3902H97.2696ZM97.2696 24.439V25.4146H96.294V24.439H97.2696ZM97.2696 23.4634V24.439H96.294V23.4634H97.2696ZM98.2452 25.4146V26.3902H97.2696V25.4146H98.2452ZM98.2452 26.3902V27.3659H97.2696V26.3902H98.2452ZM98.2452 27.3659V28.3415H97.2696V27.3659H98.2452ZM98.2452 28.3415V29.3171H97.2696V28.3415H98.2452ZM98.2452 29.3171V30.2927H97.2696V29.3171H98.2452ZM98.2452 30.2927V31.2683H97.2696V30.2927H98.2452ZM98.2452 31.2683V32.2439H97.2696V31.2683H98.2452ZM98.2452 32.2439V33.2195H97.2696V32.2439H98.2452ZM98.2452 33.2195V34.1951H97.2696V33.2195H98.2452ZM99.2208 32.2439V33.2195H98.2452V32.2439H99.2208ZM99.2208 31.2683V32.2439H98.2452V31.2683H99.2208ZM107.026 41.0244V42H106.05V41.0244H107.026ZM107.026 40.0488V41.0244H106.05V40.0488H107.026ZM107.026 39.0732V40.0488H106.05V39.0732H107.026ZM107.026 38.0976V39.0732H106.05V38.0976H107.026ZM107.026 37.122V38.0976H106.05V37.122H107.026ZM107.026 36.1463V37.122H106.05V36.1463H107.026ZM107.026 35.1707V36.1463H106.05V35.1707H107.026ZM107.026 34.1951V35.1707H106.05V34.1951H107.026ZM107.026 33.2195V34.1951H106.05V33.2195H107.026ZM107.026 32.2439V33.2195H106.05V32.2439H107.026ZM107.026 31.2683V32.2439H106.05V31.2683H107.026ZM107.026 30.2927V31.2683H106.05V30.2927H107.026ZM107.026 29.3171V30.2927H106.05V29.3171H107.026ZM107.026 28.3415V29.3171H106.05V28.3415H107.026ZM107.026 27.3659V28.3415H106.05V27.3659H107.026ZM108.001 27.3659V28.3415H107.026V27.3659H108.001ZM108.001 28.3415V29.3171H107.026V28.3415H108.001ZM108.001 29.3171V30.2927H107.026V29.3171H108.001ZM108.001 30.2927V31.2683H107.026V30.2927H108.001ZM108.001 31.2683V32.2439H107.026V31.2683H108.001ZM108.001 32.2439V33.2195H107.026V32.2439H108.001ZM108.001 33.2195V34.1951H107.026V33.2195H108.001ZM108.977 34.1951V35.1707H108.001V34.1951H108.977ZM108.977 35.1707V36.1463H108.001V35.1707H108.977ZM108.977 36.1463V37.122H108.001V36.1463H108.977ZM108.977 37.122V38.0976H108.001V37.122H108.977ZM108.977 38.0976V39.0732H108.001V38.0976H108.977ZM108.977 39.0732V40.0488H108.001V39.0732H108.977ZM108.977 40.0488V41.0244H108.001V40.0488H108.977ZM108.977 41.0244V42H108.001V41.0244H108.977ZM109.953 41.0244V42H108.977V41.0244H109.953ZM110.928 41.0244V42H109.953V41.0244H110.928ZM110.928 40.0488V41.0244H109.953V40.0488H110.928ZM110.928 39.0732V40.0488H109.953V39.0732H110.928ZM110.928 38.0976V39.0732H109.953V38.0976H110.928ZM110.928 37.122V38.0976H109.953V37.122H110.928ZM110.928 36.1463V37.122H109.953V36.1463H110.928ZM110.928 35.1707V36.1463H109.953V35.1707H110.928ZM110.928 34.1951V35.1707H109.953V34.1951H110.928ZM109.953 34.1951V35.1707H108.977V34.1951H109.953ZM109.953 33.2195V34.1951H108.977V33.2195H109.953ZM109.953 35.1707V36.1463H108.977V35.1707H109.953ZM109.953 36.1463V37.122H108.977V36.1463H109.953ZM109.953 37.122V38.0976H108.977V37.122H109.953ZM109.953 38.0976V39.0732H108.977V38.0976H109.953ZM109.953 39.0732V40.0488H108.977V39.0732H109.953ZM109.953 40.0488V41.0244H108.977V40.0488H109.953ZM108.001 41.0244V42H107.026V41.0244H108.001ZM108.001 40.0488V41.0244H107.026V40.0488H108.001ZM108.001 39.0732V40.0488H107.026V39.0732H108.001ZM108.001 38.0976V39.0732H107.026V38.0976H108.001ZM108.001 37.122V38.0976H107.026V37.122H108.001ZM108.001 36.1463V37.122H107.026V36.1463H108.001ZM108.001 35.1707V36.1463H107.026V35.1707H108.001ZM108.001 34.1951V35.1707H107.026V34.1951H108.001ZM107.026 19.561V20.5366H106.05V19.561H107.026ZM107.026 20.5366V21.5122H106.05V20.5366H107.026ZM107.026 21.5122V22.4878H106.05V21.5122H107.026ZM107.026 22.4878V23.4634H106.05V22.4878H107.026ZM107.026 23.4634V24.439H106.05V23.4634H107.026ZM107.026 24.439V25.4146H106.05V24.439H107.026ZM107.026 25.4146V26.3902H106.05V25.4146H107.026ZM107.026 26.3902V27.3659H106.05V26.3902H107.026ZM109.953 22.4878V23.4634H108.977V22.4878H109.953ZM109.953 24.439V25.4146H108.977V24.439H109.953ZM109.953 25.4146V26.3902H108.977V25.4146H109.953ZM109.953 26.3902V27.3659H108.977V26.3902H109.953ZM109.953 27.3659V28.3415H108.977V27.3659H109.953ZM109.953 28.3415V29.3171H108.977V28.3415H109.953ZM109.953 29.3171V30.2927H108.977V29.3171H109.953ZM109.953 30.2927V31.2683H108.977V30.2927H109.953ZM110.928 31.2683V32.2439H109.953V31.2683H110.928ZM110.928 32.2439V33.2195H109.953V32.2439H110.928ZM110.928 33.2195V34.1951H109.953V33.2195H110.928ZM110.928 30.2927V31.2683H109.953V30.2927H110.928ZM110.928 29.3171V30.2927H109.953V29.3171H110.928ZM110.928 28.3415V29.3171H109.953V28.3415H110.928ZM110.928 27.3659V28.3415H109.953V27.3659H110.928ZM110.928 26.3902V27.3659H109.953V26.3902H110.928ZM110.928 25.4146V26.3902H109.953V25.4146H110.928ZM110.928 24.439V25.4146H109.953V24.439H110.928ZM110.928 23.4634V24.439H109.953V23.4634H110.928ZM109.953 23.4634V24.439H108.977V23.4634H109.953ZM108.977 21.5122V22.4878H108.001V21.5122H108.977ZM108.977 22.4878V23.4634H108.001V22.4878H108.977ZM108.977 23.4634V24.439H108.001V23.4634H108.977ZM108.977 24.439V25.4146H108.001V24.439H108.977ZM108.001 25.4146V26.3902H107.026V25.4146H108.001ZM108.001 26.3902V27.3659H107.026V26.3902H108.001ZM108.001 24.439V25.4146H107.026V24.439H108.001ZM108.001 23.4634V24.439H107.026V23.4634H108.001ZM108.001 22.4878V23.4634H107.026V22.4878H108.001ZM108.001 21.5122V22.4878H107.026V21.5122H108.001ZM108.001 20.5366V21.5122H107.026V20.5366H108.001ZM108.977 25.4146V26.3902H108.001V25.4146H108.977ZM108.977 26.3902V27.3659H108.001V26.3902H108.977ZM108.977 27.3659V28.3415H108.001V27.3659H108.977ZM108.977 28.3415V29.3171H108.001V28.3415H108.977ZM108.977 29.3171V30.2927H108.001V29.3171H108.977ZM108.977 30.2927V31.2683H108.001V30.2927H108.977ZM108.977 31.2683V32.2439H108.001V31.2683H108.977ZM108.977 32.2439V33.2195H108.001V32.2439H108.977ZM108.977 33.2195V34.1951H108.001V33.2195H108.977ZM109.953 32.2439V33.2195H108.977V32.2439H109.953ZM109.953 31.2683V32.2439H108.977V31.2683H109.953ZM102.148 17.6098V18.5854H101.172V17.6098H102.148ZM103.123 17.6098V18.5854H102.148V17.6098H103.123ZM104.099 17.6098V18.5854H103.123V17.6098H104.099ZM105.075 17.6098V18.5854H104.099V17.6098H105.075ZM106.05 18.5854V19.561H105.075V18.5854H106.05ZM105.075 18.5854V19.561H104.099V18.5854H105.075ZM104.099 18.5854V19.561H103.123V18.5854H104.099ZM103.123 18.5854V19.561H102.148V18.5854H103.123ZM102.148 18.5854V19.561H101.172V18.5854H102.148ZM101.172 18.5854V19.561H100.196V18.5854H101.172ZM101.172 19.561V20.5366H100.196V19.561H101.172ZM101.172 20.5366V21.5122H100.196V20.5366H101.172ZM102.148 19.561V20.5366H101.172V19.561H102.148ZM103.123 19.561V20.5366H102.148V19.561H103.123ZM104.099 19.561V20.5366H103.123V19.561H104.099ZM105.075 19.561V20.5366H104.099V19.561H105.075ZM106.05 19.561V20.5366H105.075V19.561H106.05ZM106.05 20.5366V21.5122H105.075V20.5366H106.05ZM105.075 20.5366V21.5122H104.099V20.5366H105.075ZM104.099 20.5366V21.5122H103.123V20.5366H104.099ZM103.123 20.5366V21.5122H102.148V20.5366H103.123ZM102.148 20.5366V21.5122H101.172V20.5366H102.148ZM101.172 21.5122V22.4878H100.196V21.5122H101.172ZM102.148 21.5122V22.4878H101.172V21.5122H102.148ZM106.05 21.5122V22.4878H105.075V21.5122H106.05ZM105.075 21.5122V22.4878H104.099V21.5122H105.075ZM106.05 22.4878V23.4634H105.075V22.4878H106.05ZM101.172 22.4878V23.4634H100.196V22.4878H101.172ZM99.2208 20.5366V21.5122H98.2452V20.5366H99.2208ZM99.2208 21.5122V22.4878H98.2452V21.5122H99.2208ZM98.2452 21.5122V22.4878H97.2696V21.5122H98.2452ZM97.2696 22.4878V23.4634H96.294V22.4878H97.2696ZM96.294 23.4634V24.439H95.3184V23.4634H96.294ZM101.172 23.4634V24.439H100.196V23.4634H101.172ZM102.148 22.4878V23.4634H101.172V22.4878H102.148ZM103.123 21.5122V22.4878H102.148V21.5122H103.123ZM104.099 21.5122V22.4878H103.123V21.5122H104.099ZM105.075 22.4878V23.4634H104.099V22.4878H105.075ZM106.05 23.4634V24.439H105.075V23.4634H106.05ZM101.172 35.1707V36.1463H100.196V35.1707H101.172ZM102.148 35.1707V36.1463H101.172V35.1707H102.148ZM103.123 35.1707V36.1463H102.148V35.1707H103.123ZM104.099 35.1707V36.1463H103.123V35.1707H104.099ZM105.075 35.1707V36.1463H104.099V35.1707H105.075ZM106.05 35.1707V36.1463H105.075V35.1707H106.05ZM106.05 34.1951V35.1707H105.075V34.1951H106.05ZM105.075 34.1951V35.1707H104.099V34.1951H105.075ZM104.099 34.1951V35.1707H103.123V34.1951H104.099ZM103.123 34.1951V35.1707H102.148V34.1951H103.123ZM102.148 34.1951V35.1707H101.172V34.1951H102.148ZM101.172 34.1951V35.1707H100.196V34.1951H101.172ZM101.172 33.2195V34.1951H100.196V33.2195H101.172ZM102.148 33.2195V34.1951H101.172V33.2195H102.148ZM103.123 33.2195V34.1951H102.148V33.2195H103.123ZM104.099 33.2195V34.1951H103.123V33.2195H104.099ZM105.075 33.2195V34.1951H104.099V33.2195H105.075ZM106.05 33.2195V34.1951H105.075V33.2195H106.05ZM106.05 32.2439V33.2195H105.075V32.2439H106.05ZM105.075 32.2439V33.2195H104.099V32.2439H105.075ZM104.099 32.2439V33.2195H103.123V32.2439H104.099ZM103.123 32.2439V33.2195H102.148V32.2439H103.123ZM102.148 32.2439V33.2195H101.172V32.2439H102.148ZM101.172 32.2439V33.2195H100.196V32.2439H101.172ZM101.172 31.2683V32.2439H100.196V31.2683H101.172ZM102.148 31.2683V32.2439H101.172V31.2683H102.148ZM103.123 31.2683V32.2439H102.148V31.2683H103.123ZM104.099 31.2683V32.2439H103.123V31.2683H104.099ZM105.075 31.2683V32.2439H104.099V31.2683H105.075ZM106.05 31.2683V32.2439H105.075V31.2683H106.05ZM103.123 22.4878V23.4634H102.148V22.4878H103.123ZM104.099 22.4878V23.4634H103.123V22.4878H104.099ZM102.148 23.4634V24.439H101.172V23.4634H102.148ZM101.172 24.439V25.4146H100.196V24.439H101.172ZM105.075 23.4634V24.439H104.099V23.4634H105.075ZM106.05 24.439V25.4146H105.075V24.439H106.05ZM125.581 29.3171V30.2927H124.606V29.3171H125.581ZM126.557 29.3171V30.2927H125.581V29.3171H126.557ZM127.533 29.3171V30.2927H126.557V29.3171H127.533ZM128.508 29.3171V30.2927H127.533V29.3171H128.508ZM129.484 29.3171V30.2927H128.508V29.3171H129.484ZM129.484 28.3415V29.3171H128.508V28.3415H129.484ZM129.484 27.3659V28.3415H128.508V27.3659H129.484ZM128.508 27.3659V28.3415H127.533V27.3659H128.508ZM127.533 27.3659V28.3415H126.557V27.3659H127.533ZM126.557 27.3659V28.3415H125.581V27.3659H126.557ZM126.557 28.3415V29.3171H125.581V28.3415H126.557ZM125.581 28.3415V29.3171H124.606V28.3415H125.581ZM127.533 28.3415V29.3171H126.557V28.3415H127.533ZM128.508 28.3415V29.3171H127.533V28.3415H128.508ZM125.581 27.3659V28.3415H124.606V27.3659H125.581ZM124.606 27.3659V28.3415H123.63V27.3659H124.606ZM124.606 26.3902V27.3659H123.63V26.3902H124.606ZM125.581 26.3902V27.3659H124.606V26.3902H125.581ZM126.557 26.3902V27.3659H125.581V26.3902H126.557ZM127.533 26.3902V27.3659H126.557V26.3902H127.533ZM128.508 26.3902V27.3659H127.533V26.3902H128.508ZM128.508 25.4146V26.3902H127.533V25.4146H128.508ZM127.533 25.4146V26.3902H126.557V25.4146H127.533ZM126.557 25.4146V26.3902H125.581V25.4146H126.557ZM125.581 25.4146V26.3902H124.606V25.4146H125.581ZM124.606 25.4146V26.3902H123.63V25.4146H124.606ZM126.557 24.439V25.4146H125.581V24.439H126.557ZM127.533 24.439V25.4146H126.557V24.439H127.533ZM125.581 24.439V25.4146H124.606V24.439H125.581ZM125.581 23.4634V24.439H124.606V23.4634H125.581ZM124.606 23.4634V24.439H123.63V23.4634H124.606ZM124.606 24.439V25.4146H123.63V24.439H124.606ZM123.63 24.439V25.4146H122.655V24.439H123.63ZM123.63 23.4634V24.439H122.655V23.4634H123.63ZM123.63 25.4146V26.3902H122.655V25.4146H123.63ZM122.655 25.4146V26.3902H121.679V25.4146H122.655ZM122.655 26.3902V27.3659H121.679V26.3902H122.655ZM123.63 26.3902V27.3659H122.655V26.3902H123.63ZM121.679 26.3902V27.3659H120.703V26.3902H121.679ZM121.679 25.4146V26.3902H120.703V25.4146H121.679ZM121.679 24.439V25.4146H120.703V24.439H121.679ZM121.679 23.4634V24.439H120.703V23.4634H121.679ZM122.655 23.4634V24.439H121.679V23.4634H122.655ZM122.655 24.439V25.4146H121.679V24.439H122.655ZM120.703 23.4634V24.439H119.728V23.4634H120.703ZM119.728 23.4634V24.439H118.752V23.4634H119.728ZM118.752 23.4634V24.439H117.776V23.4634H118.752ZM118.752 24.439V25.4146H117.776V24.439H118.752ZM118.752 25.4146V26.3902H117.776V25.4146H118.752ZM118.752 26.3902V27.3659H117.776V26.3902H118.752ZM119.728 26.3902V27.3659H118.752V26.3902H119.728ZM120.703 26.3902V27.3659H119.728V26.3902H120.703ZM120.703 25.4146V26.3902H119.728V25.4146H120.703ZM120.703 24.439V25.4146H119.728V24.439H120.703ZM119.728 24.439V25.4146H118.752V24.439H119.728ZM119.728 25.4146V26.3902H118.752V25.4146H119.728ZM117.776 25.4146V26.3902H116.801V25.4146H117.776ZM117.776 24.439V25.4146H116.801V24.439H117.776ZM116.801 24.439V25.4146H115.825V24.439H116.801ZM116.801 25.4146V26.3902H115.825V25.4146H116.801ZM115.825 25.4146V26.3902H114.85V25.4146H115.825ZM115.825 26.3902V27.3659H114.85V26.3902H115.825ZM115.825 27.3659V28.3415H114.85V27.3659H115.825ZM116.801 27.3659V28.3415H115.825V27.3659H116.801ZM116.801 26.3902V27.3659H115.825V26.3902H116.801ZM117.776 26.3902V27.3659H116.801V26.3902H117.776ZM117.776 27.3659V28.3415H116.801V27.3659H117.776ZM118.752 27.3659V28.3415H117.776V27.3659H118.752ZM119.728 27.3659V28.3415H118.752V27.3659H119.728ZM114.85 27.3659V28.3415H113.874V27.3659H114.85ZM114.85 28.3415V29.3171H113.874V28.3415H114.85ZM114.85 29.3171V30.2927H113.874V29.3171H114.85ZM114.85 30.2927V31.2683H113.874V30.2927H114.85ZM114.85 31.2683V32.2439H113.874V31.2683H114.85ZM114.85 32.2439V33.2195H113.874V32.2439H114.85ZM114.85 33.2195V34.1951H113.874V33.2195H114.85ZM114.85 34.1951V35.1707H113.874V34.1951H114.85ZM114.85 35.1707V36.1463H113.874V35.1707H114.85ZM114.85 36.1463V37.122H113.874V36.1463H114.85ZM115.825 36.1463V37.122H114.85V36.1463H115.825ZM115.825 37.122V38.0976H114.85V37.122H115.825ZM114.85 37.122V38.0976H113.874V37.122H114.85ZM116.801 37.122V38.0976H115.825V37.122H116.801ZM117.776 37.122V38.0976H116.801V37.122H117.776ZM118.752 37.122V38.0976H117.776V37.122H118.752ZM119.728 37.122V38.0976H118.752V37.122H119.728ZM118.752 36.1463V37.122H117.776V36.1463H118.752ZM118.752 35.1707V36.1463H117.776V35.1707H118.752ZM118.752 34.1951V35.1707H117.776V34.1951H118.752ZM118.752 33.2195V34.1951H117.776V33.2195H118.752ZM118.752 32.2439V33.2195H117.776V32.2439H118.752ZM118.752 31.2683V32.2439H117.776V31.2683H118.752ZM118.752 30.2927V31.2683H117.776V30.2927H118.752ZM118.752 29.3171V30.2927H117.776V29.3171H118.752ZM118.752 28.3415V29.3171H117.776V28.3415H118.752ZM117.776 28.3415V29.3171H116.801V28.3415H117.776ZM116.801 28.3415V29.3171H115.825V28.3415H116.801ZM115.825 28.3415V29.3171H114.85V28.3415H115.825ZM115.825 29.3171V30.2927H114.85V29.3171H115.825ZM115.825 30.2927V31.2683H114.85V30.2927H115.825ZM115.825 31.2683V32.2439H114.85V31.2683H115.825ZM115.825 32.2439V33.2195H114.85V32.2439H115.825ZM115.825 33.2195V34.1951H114.85V33.2195H115.825ZM115.825 34.1951V35.1707H114.85V34.1951H115.825ZM115.825 35.1707V36.1463H114.85V35.1707H115.825ZM116.801 36.1463V37.122H115.825V36.1463H116.801ZM117.776 36.1463V37.122H116.801V36.1463H117.776ZM117.776 35.1707V36.1463H116.801V35.1707H117.776ZM117.776 34.1951V35.1707H116.801V34.1951H117.776ZM117.776 33.2195V34.1951H116.801V33.2195H117.776ZM117.776 32.2439V33.2195H116.801V32.2439H117.776ZM116.801 32.2439V33.2195H115.825V32.2439H116.801ZM116.801 31.2683V32.2439H115.825V31.2683H116.801ZM116.801 30.2927V31.2683H115.825V30.2927H116.801ZM116.801 29.3171V30.2927H115.825V29.3171H116.801ZM117.776 29.3171V30.2927H116.801V29.3171H117.776ZM117.776 30.2927V31.2683H116.801V30.2927H117.776ZM117.776 31.2683V32.2439H116.801V31.2683H117.776ZM116.801 34.1951V35.1707H115.825V34.1951H116.801ZM116.801 35.1707V36.1463H115.825V35.1707H116.801ZM116.801 33.2195V34.1951H115.825V33.2195H116.801ZM125.581 35.1707V36.1463H124.606V35.1707H125.581ZM125.581 36.1463V37.122H124.606V36.1463H125.581ZM126.557 36.1463V37.122H125.581V36.1463H126.557ZM127.533 36.1463V37.122H126.557V36.1463H127.533ZM128.508 36.1463V37.122H127.533V36.1463H128.508ZM129.484 36.1463V37.122H128.508V36.1463H129.484ZM129.484 35.1707V36.1463H128.508V35.1707H129.484ZM128.508 35.1707V36.1463H127.533V35.1707H128.508ZM127.533 35.1707V36.1463H126.557V35.1707H127.533ZM126.557 35.1707V36.1463H125.581V35.1707H126.557ZM129.484 37.122V38.0976H128.508V37.122H129.484ZM128.508 37.122V38.0976H127.533V37.122H128.508ZM127.533 37.122V38.0976H126.557V37.122H127.533ZM126.557 37.122V38.0976H125.581V37.122H126.557ZM125.581 37.122V38.0976H124.606V37.122H125.581ZM124.606 37.122V38.0976H123.63V37.122H124.606ZM124.606 38.0976V39.0732H123.63V38.0976H124.606ZM125.581 38.0976V39.0732H124.606V38.0976H125.581ZM126.557 38.0976V39.0732H125.581V38.0976H126.557ZM127.533 38.0976V39.0732H126.557V38.0976H127.533ZM127.533 39.0732V40.0488H126.557V39.0732H127.533ZM128.508 39.0732V40.0488H127.533V39.0732H128.508ZM128.508 38.0976V39.0732H127.533V38.0976H128.508ZM127.533 40.0488V41.0244H126.557V40.0488H127.533ZM126.557 40.0488V41.0244H125.581V40.0488H126.557ZM126.557 39.0732V40.0488H125.581V39.0732H126.557ZM125.581 39.0732V40.0488H124.606V39.0732H125.581ZM125.581 40.0488V41.0244H124.606V40.0488H125.581ZM125.581 41.0244V42H124.606V41.0244H125.581ZM124.606 41.0244V42H123.63V41.0244H124.606ZM123.63 41.0244V42H122.655V41.0244H123.63ZM122.655 41.0244V42H121.679V41.0244H122.655ZM121.679 41.0244V42H120.703V41.0244H121.679ZM120.703 41.0244V42H119.728V41.0244H120.703ZM119.728 41.0244V42H118.752V41.0244H119.728ZM118.752 41.0244V42H117.776V41.0244H118.752ZM119.728 40.0488V41.0244H118.752V40.0488H119.728ZM120.703 40.0488V41.0244H119.728V40.0488H120.703ZM121.679 40.0488V41.0244H120.703V40.0488H121.679ZM122.655 40.0488V41.0244H121.679V40.0488H122.655ZM123.63 40.0488V41.0244H122.655V40.0488H123.63ZM124.606 40.0488V41.0244H123.63V40.0488H124.606ZM124.606 39.0732V40.0488H123.63V39.0732H124.606ZM123.63 39.0732V40.0488H122.655V39.0732H123.63ZM122.655 39.0732V40.0488H121.679V39.0732H122.655ZM121.679 39.0732V40.0488H120.703V39.0732H121.679ZM120.703 39.0732V40.0488H119.728V39.0732H120.703ZM119.728 39.0732V40.0488H118.752V39.0732H119.728ZM118.752 40.0488V41.0244H117.776V40.0488H118.752ZM117.776 40.0488V41.0244H116.801V40.0488H117.776ZM116.801 40.0488V41.0244H115.825V40.0488H116.801ZM116.801 39.0732V40.0488H115.825V39.0732H116.801ZM115.825 39.0732V40.0488H114.85V39.0732H115.825ZM115.825 38.0976V39.0732H114.85V38.0976H115.825ZM116.801 38.0976V39.0732H115.825V38.0976H116.801ZM117.776 38.0976V39.0732H116.801V38.0976H117.776ZM118.752 38.0976V39.0732H117.776V38.0976H118.752ZM119.728 38.0976V39.0732H118.752V38.0976H119.728ZM120.703 38.0976V39.0732H119.728V38.0976H120.703ZM121.679 38.0976V39.0732H120.703V38.0976H121.679ZM122.655 38.0976V39.0732H121.679V38.0976H122.655ZM123.63 38.0976V39.0732H122.655V38.0976H123.63ZM118.752 39.0732V40.0488H117.776V39.0732H118.752ZM117.776 39.0732V40.0488H116.801V39.0732H117.776ZM143.159 29.3171V30.2927H142.184V29.3171H143.159ZM144.135 29.3171V30.2927H143.159V29.3171H144.135ZM145.111 29.3171V30.2927H144.135V29.3171H145.111ZM146.086 29.3171V30.2927H145.111V29.3171H146.086ZM147.062 29.3171V30.2927H146.086V29.3171H147.062ZM147.062 28.3415V29.3171H146.086V28.3415H147.062ZM147.062 27.3659V28.3415H146.086V27.3659H147.062ZM146.086 27.3659V28.3415H145.111V27.3659H146.086ZM145.111 27.3659V28.3415H144.135V27.3659H145.111ZM144.135 27.3659V28.3415H143.159V27.3659H144.135ZM144.135 28.3415V29.3171H143.159V28.3415H144.135ZM143.159 28.3415V29.3171H142.184V28.3415H143.159ZM145.111 28.3415V29.3171H144.135V28.3415H145.111ZM146.086 28.3415V29.3171H145.111V28.3415H146.086ZM143.159 27.3659V28.3415H142.184V27.3659H143.159ZM142.184 27.3659V28.3415H141.208V27.3659H142.184ZM142.184 26.3902V27.3659H141.208V26.3902H142.184ZM143.159 26.3902V27.3659H142.184V26.3902H143.159ZM144.135 26.3902V27.3659H143.159V26.3902H144.135ZM145.111 26.3902V27.3659H144.135V26.3902H145.111ZM146.086 26.3902V27.3659H145.111V26.3902H146.086ZM146.086 25.4146V26.3902H145.111V25.4146H146.086ZM145.111 25.4146V26.3902H144.135V25.4146H145.111ZM144.135 25.4146V26.3902H143.159V25.4146H144.135ZM143.159 25.4146V26.3902H142.184V25.4146H143.159ZM142.184 25.4146V26.3902H141.208V25.4146H142.184ZM144.135 24.439V25.4146H143.159V24.439H144.135ZM145.111 24.439V25.4146H144.135V24.439H145.111ZM143.159 24.439V25.4146H142.184V24.439H143.159ZM143.159 23.4634V24.439H142.184V23.4634H143.159ZM142.184 23.4634V24.439H141.208V23.4634H142.184ZM142.184 24.439V25.4146H141.208V24.439H142.184ZM141.208 24.439V25.4146H140.233V24.439H141.208ZM141.208 23.4634V24.439H140.233V23.4634H141.208ZM141.208 25.4146V26.3902H140.233V25.4146H141.208ZM140.233 25.4146V26.3902H139.257V25.4146H140.233ZM140.233 26.3902V27.3659H139.257V26.3902H140.233ZM141.208 26.3902V27.3659H140.233V26.3902H141.208ZM139.257 26.3902V27.3659H138.281V26.3902H139.257ZM139.257 25.4146V26.3902H138.281V25.4146H139.257ZM139.257 24.439V25.4146H138.281V24.439H139.257ZM139.257 23.4634V24.439H138.281V23.4634H139.257ZM140.233 23.4634V24.439H139.257V23.4634H140.233ZM140.233 24.439V25.4146H139.257V24.439H140.233ZM138.281 23.4634V24.439H137.306V23.4634H138.281ZM137.306 23.4634V24.439H136.33V23.4634H137.306ZM136.33 23.4634V24.439H135.355V23.4634H136.33ZM136.33 24.439V25.4146H135.355V24.439H136.33ZM136.33 25.4146V26.3902H135.355V25.4146H136.33ZM136.33 26.3902V27.3659H135.355V26.3902H136.33ZM137.306 26.3902V27.3659H136.33V26.3902H137.306ZM138.281 26.3902V27.3659H137.306V26.3902H138.281ZM138.281 25.4146V26.3902H137.306V25.4146H138.281ZM138.281 24.439V25.4146H137.306V24.439H138.281ZM137.306 24.439V25.4146H136.33V24.439H137.306ZM137.306 25.4146V26.3902H136.33V25.4146H137.306ZM135.355 25.4146V26.3902H134.379V25.4146H135.355ZM135.355 24.439V25.4146H134.379V24.439H135.355ZM134.379 24.439V25.4146H133.403V24.439H134.379ZM134.379 25.4146V26.3902H133.403V25.4146H134.379ZM133.403 25.4146V26.3902H132.428V25.4146H133.403ZM133.403 26.3902V27.3659H132.428V26.3902H133.403ZM133.403 27.3659V28.3415H132.428V27.3659H133.403ZM134.379 27.3659V28.3415H133.403V27.3659H134.379ZM134.379 26.3902V27.3659H133.403V26.3902H134.379ZM135.355 26.3902V27.3659H134.379V26.3902H135.355ZM135.355 27.3659V28.3415H134.379V27.3659H135.355ZM136.33 27.3659V28.3415H135.355V27.3659H136.33ZM137.306 27.3659V28.3415H136.33V27.3659H137.306ZM132.428 27.3659V28.3415H131.452V27.3659H132.428ZM132.428 28.3415V29.3171H131.452V28.3415H132.428ZM132.428 29.3171V30.2927H131.452V29.3171H132.428ZM132.428 30.2927V31.2683H131.452V30.2927H132.428ZM132.428 31.2683V32.2439H131.452V31.2683H132.428ZM132.428 32.2439V33.2195H131.452V32.2439H132.428ZM132.428 33.2195V34.1951H131.452V33.2195H132.428ZM132.428 34.1951V35.1707H131.452V34.1951H132.428ZM132.428 35.1707V36.1463H131.452V35.1707H132.428ZM132.428 36.1463V37.122H131.452V36.1463H132.428ZM133.403 36.1463V37.122H132.428V36.1463H133.403ZM133.403 37.122V38.0976H132.428V37.122H133.403ZM132.428 37.122V38.0976H131.452V37.122H132.428ZM134.379 37.122V38.0976H133.403V37.122H134.379ZM135.355 37.122V38.0976H134.379V37.122H135.355ZM136.33 37.122V38.0976H135.355V37.122H136.33ZM137.306 37.122V38.0976H136.33V37.122H137.306ZM136.33 36.1463V37.122H135.355V36.1463H136.33ZM136.33 35.1707V36.1463H135.355V35.1707H136.33ZM136.33 34.1951V35.1707H135.355V34.1951H136.33ZM136.33 33.2195V34.1951H135.355V33.2195H136.33ZM136.33 32.2439V33.2195H135.355V32.2439H136.33ZM136.33 31.2683V32.2439H135.355V31.2683H136.33ZM136.33 30.2927V31.2683H135.355V30.2927H136.33ZM136.33 29.3171V30.2927H135.355V29.3171H136.33ZM136.33 28.3415V29.3171H135.355V28.3415H136.33ZM135.355 28.3415V29.3171H134.379V28.3415H135.355ZM134.379 28.3415V29.3171H133.403V28.3415H134.379ZM133.403 28.3415V29.3171H132.428V28.3415H133.403ZM133.403 29.3171V30.2927H132.428V29.3171H133.403ZM133.403 30.2927V31.2683H132.428V30.2927H133.403ZM133.403 31.2683V32.2439H132.428V31.2683H133.403ZM133.403 32.2439V33.2195H132.428V32.2439H133.403ZM133.403 33.2195V34.1951H132.428V33.2195H133.403ZM133.403 34.1951V35.1707H132.428V34.1951H133.403ZM133.403 35.1707V36.1463H132.428V35.1707H133.403ZM134.379 36.1463V37.122H133.403V36.1463H134.379ZM135.355 36.1463V37.122H134.379V36.1463H135.355ZM135.355 35.1707V36.1463H134.379V35.1707H135.355ZM135.355 34.1951V35.1707H134.379V34.1951H135.355ZM135.355 33.2195V34.1951H134.379V33.2195H135.355ZM135.355 32.2439V33.2195H134.379V32.2439H135.355ZM134.379 32.2439V33.2195H133.403V32.2439H134.379ZM134.379 31.2683V32.2439H133.403V31.2683H134.379ZM134.379 30.2927V31.2683H133.403V30.2927H134.379ZM134.379 29.3171V30.2927H133.403V29.3171H134.379ZM135.355 29.3171V30.2927H134.379V29.3171H135.355ZM135.355 30.2927V31.2683H134.379V30.2927H135.355ZM135.355 31.2683V32.2439H134.379V31.2683H135.355ZM134.379 34.1951V35.1707H133.403V34.1951H134.379ZM134.379 35.1707V36.1463H133.403V35.1707H134.379ZM134.379 33.2195V34.1951H133.403V33.2195H134.379ZM143.159 35.1707V36.1463H142.184V35.1707H143.159ZM143.159 36.1463V37.122H142.184V36.1463H143.159ZM144.135 36.1463V37.122H143.159V36.1463H144.135ZM145.111 36.1463V37.122H144.135V36.1463H145.111ZM146.086 36.1463V37.122H145.111V36.1463H146.086ZM147.062 36.1463V37.122H146.086V36.1463H147.062ZM147.062 35.1707V36.1463H146.086V35.1707H147.062ZM146.086 35.1707V36.1463H145.111V35.1707H146.086ZM145.111 35.1707V36.1463H144.135V35.1707H145.111ZM144.135 35.1707V36.1463H143.159V35.1707H144.135ZM147.062 37.122V38.0976H146.086V37.122H147.062ZM146.086 37.122V38.0976H145.111V37.122H146.086ZM145.111 37.122V38.0976H144.135V37.122H145.111ZM144.135 37.122V38.0976H143.159V37.122H144.135ZM143.159 37.122V38.0976H142.184V37.122H143.159ZM142.184 37.122V38.0976H141.208V37.122H142.184ZM142.184 38.0976V39.0732H141.208V38.0976H142.184ZM143.159 38.0976V39.0732H142.184V38.0976H143.159ZM144.135 38.0976V39.0732H143.159V38.0976H144.135ZM145.111 38.0976V39.0732H144.135V38.0976H145.111ZM145.111 39.0732V40.0488H144.135V39.0732H145.111ZM146.086 39.0732V40.0488H145.111V39.0732H146.086ZM146.086 38.0976V39.0732H145.111V38.0976H146.086ZM145.111 40.0488V41.0244H144.135V40.0488H145.111ZM144.135 40.0488V41.0244H143.159V40.0488H144.135ZM144.135 39.0732V40.0488H143.159V39.0732H144.135ZM143.159 39.0732V40.0488H142.184V39.0732H143.159ZM143.159 40.0488V41.0244H142.184V40.0488H143.159ZM143.159 41.0244V42H142.184V41.0244H143.159ZM142.184 41.0244V42H141.208V41.0244H142.184ZM141.208 41.0244V42H140.233V41.0244H141.208ZM140.233 41.0244V42H139.257V41.0244H140.233ZM139.257 41.0244V42H138.281V41.0244H139.257ZM138.281 41.0244V42H137.306V41.0244H138.281ZM137.306 41.0244V42H136.33V41.0244H137.306ZM136.33 41.0244V42H135.355V41.0244H136.33ZM137.306 40.0488V41.0244H136.33V40.0488H137.306ZM138.281 40.0488V41.0244H137.306V40.0488H138.281ZM139.257 40.0488V41.0244H138.281V40.0488H139.257ZM140.233 40.0488V41.0244H139.257V40.0488H140.233ZM141.208 40.0488V41.0244H140.233V40.0488H141.208ZM142.184 40.0488V41.0244H141.208V40.0488H142.184ZM142.184 39.0732V40.0488H141.208V39.0732H142.184ZM141.208 39.0732V40.0488H140.233V39.0732H141.208ZM140.233 39.0732V40.0488H139.257V39.0732H140.233ZM139.257 39.0732V40.0488H138.281V39.0732H139.257ZM138.281 39.0732V40.0488H137.306V39.0732H138.281ZM137.306 39.0732V40.0488H136.33V39.0732H137.306ZM136.33 40.0488V41.0244H135.355V40.0488H136.33ZM135.355 40.0488V41.0244H134.379V40.0488H135.355ZM134.379 40.0488V41.0244H133.403V40.0488H134.379ZM134.379 39.0732V40.0488H133.403V39.0732H134.379ZM133.403 39.0732V40.0488H132.428V39.0732H133.403ZM133.403 38.0976V39.0732H132.428V38.0976H133.403ZM134.379 38.0976V39.0732H133.403V38.0976H134.379ZM135.355 38.0976V39.0732H134.379V38.0976H135.355ZM136.33 38.0976V39.0732H135.355V38.0976H136.33ZM137.306 38.0976V39.0732H136.33V38.0976H137.306ZM138.281 38.0976V39.0732H137.306V38.0976H138.281ZM139.257 38.0976V39.0732H138.281V38.0976H139.257ZM140.233 38.0976V39.0732H139.257V38.0976H140.233ZM141.208 38.0976V39.0732H140.233V38.0976H141.208ZM136.33 39.0732V40.0488H135.355V39.0732H136.33ZM135.355 39.0732V40.0488H134.379V39.0732H135.355ZM160.738 29.3171V30.2927H159.762V29.3171H160.738ZM161.713 29.3171V30.2927H160.738V29.3171H161.713ZM162.689 29.3171V30.2927H161.713V29.3171H162.689ZM163.664 29.3171V30.2927H162.689V29.3171H163.664ZM164.64 29.3171V30.2927H163.664V29.3171H164.64ZM164.64 28.3415V29.3171H163.664V28.3415H164.64ZM164.64 27.3659V28.3415H163.664V27.3659H164.64ZM163.664 27.3659V28.3415H162.689V27.3659H163.664ZM162.689 27.3659V28.3415H161.713V27.3659H162.689ZM161.713 27.3659V28.3415H160.738V27.3659H161.713ZM161.713 28.3415V29.3171H160.738V28.3415H161.713ZM160.738 28.3415V29.3171H159.762V28.3415H160.738ZM162.689 28.3415V29.3171H161.713V28.3415H162.689ZM163.664 28.3415V29.3171H162.689V28.3415H163.664ZM160.738 27.3659V28.3415H159.762V27.3659H160.738ZM159.762 27.3659V28.3415H158.786V27.3659H159.762ZM159.762 26.3902V27.3659H158.786V26.3902H159.762ZM160.738 26.3902V27.3659H159.762V26.3902H160.738ZM161.713 26.3902V27.3659H160.738V26.3902H161.713ZM162.689 26.3902V27.3659H161.713V26.3902H162.689ZM163.664 26.3902V27.3659H162.689V26.3902H163.664ZM163.664 25.4146V26.3902H162.689V25.4146H163.664ZM162.689 25.4146V26.3902H161.713V25.4146H162.689ZM161.713 25.4146V26.3902H160.738V25.4146H161.713ZM160.738 25.4146V26.3902H159.762V25.4146H160.738ZM159.762 25.4146V26.3902H158.786V25.4146H159.762ZM161.713 24.439V25.4146H160.738V24.439H161.713ZM162.689 24.439V25.4146H161.713V24.439H162.689ZM160.738 24.439V25.4146H159.762V24.439H160.738ZM160.738 23.4634V24.439H159.762V23.4634H160.738ZM159.762 23.4634V24.439H158.786V23.4634H159.762ZM159.762 24.439V25.4146H158.786V24.439H159.762ZM158.786 24.439V25.4146H157.811V24.439H158.786ZM158.786 23.4634V24.439H157.811V23.4634H158.786ZM158.786 25.4146V26.3902H157.811V25.4146H158.786ZM157.811 25.4146V26.3902H156.835V25.4146H157.811ZM157.811 26.3902V27.3659H156.835V26.3902H157.811ZM158.786 26.3902V27.3659H157.811V26.3902H158.786ZM156.835 26.3902V27.3659H155.86V26.3902H156.835ZM156.835 25.4146V26.3902H155.86V25.4146H156.835ZM156.835 24.439V25.4146H155.86V24.439H156.835ZM156.835 23.4634V24.439H155.86V23.4634H156.835ZM157.811 23.4634V24.439H156.835V23.4634H157.811ZM157.811 24.439V25.4146H156.835V24.439H157.811ZM155.86 23.4634V24.439H154.884V23.4634H155.86ZM154.884 23.4634V24.439H153.908V23.4634H154.884ZM153.908 23.4634V24.439H152.933V23.4634H153.908ZM153.908 24.439V25.4146H152.933V24.439H153.908ZM153.908 25.4146V26.3902H152.933V25.4146H153.908ZM153.908 26.3902V27.3659H152.933V26.3902H153.908ZM154.884 26.3902V27.3659H153.908V26.3902H154.884ZM155.86 26.3902V27.3659H154.884V26.3902H155.86ZM155.86 25.4146V26.3902H154.884V25.4146H155.86ZM155.86 24.439V25.4146H154.884V24.439H155.86ZM154.884 24.439V25.4146H153.908V24.439H154.884ZM154.884 25.4146V26.3902H153.908V25.4146H154.884ZM152.933 25.4146V26.3902H151.957V25.4146H152.933ZM152.933 24.439V25.4146H151.957V24.439H152.933ZM151.957 24.439V25.4146H150.982V24.439H151.957ZM151.957 25.4146V26.3902H150.982V25.4146H151.957ZM150.982 25.4146V26.3902H150.006V25.4146H150.982ZM150.982 26.3902V27.3659H150.006V26.3902H150.982ZM150.982 27.3659V28.3415H150.006V27.3659H150.982ZM151.957 27.3659V28.3415H150.982V27.3659H151.957ZM151.957 26.3902V27.3659H150.982V26.3902H151.957ZM152.933 26.3902V27.3659H151.957V26.3902H152.933ZM152.933 27.3659V28.3415H151.957V27.3659H152.933ZM153.908 27.3659V28.3415H152.933V27.3659H153.908ZM154.884 27.3659V28.3415H153.908V27.3659H154.884ZM150.006 27.3659V28.3415H149.03V27.3659H150.006ZM150.006 28.3415V29.3171H149.03V28.3415H150.006ZM150.006 29.3171V30.2927H149.03V29.3171H150.006ZM150.006 30.2927V31.2683H149.03V30.2927H150.006ZM150.006 31.2683V32.2439H149.03V31.2683H150.006ZM150.006 32.2439V33.2195H149.03V32.2439H150.006ZM150.006 33.2195V34.1951H149.03V33.2195H150.006ZM150.006 34.1951V35.1707H149.03V34.1951H150.006ZM150.006 35.1707V36.1463H149.03V35.1707H150.006ZM150.006 36.1463V37.122H149.03V36.1463H150.006ZM150.982 36.1463V37.122H150.006V36.1463H150.982ZM150.982 37.122V38.0976H150.006V37.122H150.982ZM150.006 37.122V38.0976H149.03V37.122H150.006ZM151.957 37.122V38.0976H150.982V37.122H151.957ZM152.933 37.122V38.0976H151.957V37.122H152.933ZM153.908 37.122V38.0976H152.933V37.122H153.908ZM154.884 37.122V38.0976H153.908V37.122H154.884ZM153.908 36.1463V37.122H152.933V36.1463H153.908ZM153.908 35.1707V36.1463H152.933V35.1707H153.908ZM153.908 34.1951V35.1707H152.933V34.1951H153.908ZM153.908 33.2195V34.1951H152.933V33.2195H153.908ZM153.908 32.2439V33.2195H152.933V32.2439H153.908ZM153.908 31.2683V32.2439H152.933V31.2683H153.908ZM153.908 30.2927V31.2683H152.933V30.2927H153.908ZM153.908 29.3171V30.2927H152.933V29.3171H153.908ZM153.908 28.3415V29.3171H152.933V28.3415H153.908ZM152.933 28.3415V29.3171H151.957V28.3415H152.933ZM151.957 28.3415V29.3171H150.982V28.3415H151.957ZM150.982 28.3415V29.3171H150.006V28.3415H150.982ZM150.982 29.3171V30.2927H150.006V29.3171H150.982ZM150.982 30.2927V31.2683H150.006V30.2927H150.982ZM150.982 31.2683V32.2439H150.006V31.2683H150.982ZM150.982 32.2439V33.2195H150.006V32.2439H150.982ZM150.982 33.2195V34.1951H150.006V33.2195H150.982ZM150.982 34.1951V35.1707H150.006V34.1951H150.982ZM150.982 35.1707V36.1463H150.006V35.1707H150.982ZM151.957 36.1463V37.122H150.982V36.1463H151.957ZM152.933 36.1463V37.122H151.957V36.1463H152.933ZM152.933 35.1707V36.1463H151.957V35.1707H152.933ZM152.933 34.1951V35.1707H151.957V34.1951H152.933ZM152.933 33.2195V34.1951H151.957V33.2195H152.933ZM152.933 32.2439V33.2195H151.957V32.2439H152.933ZM151.957 32.2439V33.2195H150.982V32.2439H151.957ZM151.957 31.2683V32.2439H150.982V31.2683H151.957ZM151.957 30.2927V31.2683H150.982V30.2927H151.957ZM151.957 29.3171V30.2927H150.982V29.3171H151.957ZM152.933 29.3171V30.2927H151.957V29.3171H152.933ZM152.933 30.2927V31.2683H151.957V30.2927H152.933ZM152.933 31.2683V32.2439H151.957V31.2683H152.933ZM151.957 34.1951V35.1707H150.982V34.1951H151.957ZM151.957 35.1707V36.1463H150.982V35.1707H151.957ZM151.957 33.2195V34.1951H150.982V33.2195H151.957ZM160.738 36.1463V37.122H159.762V36.1463H160.738ZM161.713 36.1463V37.122H160.738V36.1463H161.713ZM162.689 36.1463V37.122H161.713V36.1463H162.689ZM163.664 36.1463V37.122H162.689V36.1463H163.664ZM164.64 36.1463V37.122H163.664V36.1463H164.64ZM164.64 37.122V38.0976H163.664V37.122H164.64ZM163.664 37.122V38.0976H162.689V37.122H163.664ZM162.689 37.122V38.0976H161.713V37.122H162.689ZM161.713 37.122V38.0976H160.738V37.122H161.713ZM160.738 37.122V38.0976H159.762V37.122H160.738ZM159.762 37.122V38.0976H158.786V37.122H159.762ZM159.762 38.0976V39.0732H158.786V38.0976H159.762ZM160.738 38.0976V39.0732H159.762V38.0976H160.738ZM161.713 38.0976V39.0732H160.738V38.0976H161.713ZM162.689 38.0976V39.0732H161.713V38.0976H162.689ZM162.689 39.0732V40.0488H161.713V39.0732H162.689ZM163.664 39.0732V40.0488H162.689V39.0732H163.664ZM163.664 38.0976V39.0732H162.689V38.0976H163.664ZM162.689 40.0488V41.0244H161.713V40.0488H162.689ZM161.713 40.0488V41.0244H160.738V40.0488H161.713ZM161.713 39.0732V40.0488H160.738V39.0732H161.713ZM160.738 39.0732V40.0488H159.762V39.0732H160.738ZM160.738 40.0488V41.0244H159.762V40.0488H160.738ZM160.738 41.0244V42H159.762V41.0244H160.738ZM159.762 41.0244V42H158.786V41.0244H159.762ZM158.786 41.0244V42H157.811V41.0244H158.786ZM157.811 41.0244V42H156.835V41.0244H157.811ZM156.835 41.0244V42H155.86V41.0244H156.835ZM155.86 41.0244V42H154.884V41.0244H155.86ZM154.884 41.0244V42H153.908V41.0244H154.884ZM153.908 41.0244V42H152.933V41.0244H153.908ZM154.884 40.0488V41.0244H153.908V40.0488H154.884ZM155.86 40.0488V41.0244H154.884V40.0488H155.86ZM156.835 40.0488V41.0244H155.86V40.0488H156.835ZM157.811 40.0488V41.0244H156.835V40.0488H157.811ZM158.786 40.0488V41.0244H157.811V40.0488H158.786ZM159.762 40.0488V41.0244H158.786V40.0488H159.762ZM159.762 39.0732V40.0488H158.786V39.0732H159.762ZM158.786 39.0732V40.0488H157.811V39.0732H158.786ZM157.811 39.0732V40.0488H156.835V39.0732H157.811ZM156.835 39.0732V40.0488H155.86V39.0732H156.835ZM155.86 39.0732V40.0488H154.884V39.0732H155.86ZM154.884 39.0732V40.0488H153.908V39.0732H154.884ZM153.908 40.0488V41.0244H152.933V40.0488H153.908ZM152.933 40.0488V41.0244H151.957V40.0488H152.933ZM151.957 40.0488V41.0244H150.982V40.0488H151.957ZM151.957 39.0732V40.0488H150.982V39.0732H151.957ZM150.982 39.0732V40.0488H150.006V39.0732H150.982ZM150.982 38.0976V39.0732H150.006V38.0976H150.982ZM151.957 38.0976V39.0732H150.982V38.0976H151.957ZM152.933 38.0976V39.0732H151.957V38.0976H152.933ZM153.908 38.0976V39.0732H152.933V38.0976H153.908ZM154.884 38.0976V39.0732H153.908V38.0976H154.884ZM155.86 38.0976V39.0732H154.884V38.0976H155.86ZM156.835 38.0976V39.0732H155.86V38.0976H156.835ZM157.811 38.0976V39.0732H156.835V38.0976H157.811ZM158.786 38.0976V39.0732H157.811V38.0976H158.786ZM153.908 39.0732V40.0488H152.933V39.0732H153.908ZM152.933 39.0732V40.0488H151.957V39.0732H152.933ZM164.64 30.2927V31.2683H163.664V30.2927H164.64ZM163.664 30.2927V31.2683H162.689V30.2927H163.664ZM162.689 30.2927V31.2683H161.713V30.2927H162.689ZM161.713 30.2927V31.2683H160.738V30.2927H161.713ZM160.738 30.2927V31.2683H159.762V30.2927H160.738ZM164.64 31.2683V32.2439H163.664V31.2683H164.64ZM162.689 31.2683V32.2439H161.713V31.2683H162.689ZM161.713 31.2683V32.2439H160.738V31.2683H161.713ZM159.762 31.2683V32.2439H158.786V31.2683H159.762ZM158.786 31.2683V32.2439H157.811V31.2683H158.786ZM157.811 31.2683V32.2439H156.835V31.2683H157.811ZM156.835 31.2683V32.2439H155.86V31.2683H156.835ZM155.86 31.2683V32.2439H154.884V31.2683H155.86ZM154.884 31.2683V32.2439H153.908V31.2683H154.884ZM160.738 31.2683V32.2439H159.762V31.2683H160.738ZM163.664 31.2683V32.2439H162.689V31.2683H163.664ZM164.64 32.2439V33.2195H163.664V32.2439H164.64ZM163.664 32.2439V33.2195H162.689V32.2439H163.664ZM162.689 32.2439V33.2195H161.713V32.2439H162.689ZM161.713 32.2439V33.2195H160.738V32.2439H161.713ZM160.738 32.2439V33.2195H159.762V32.2439H160.738ZM159.762 32.2439V33.2195H158.786V32.2439H159.762ZM158.786 32.2439V33.2195H157.811V32.2439H158.786ZM157.811 32.2439V33.2195H156.835V32.2439H157.811ZM156.835 32.2439V33.2195H155.86V32.2439H156.835ZM155.86 32.2439V33.2195H154.884V32.2439H155.86ZM154.884 32.2439V33.2195H153.908V32.2439H154.884ZM154.884 33.2195V34.1951H153.908V33.2195H154.884ZM155.86 33.2195V34.1951H154.884V33.2195H155.86ZM156.835 33.2195V34.1951H155.86V33.2195H156.835ZM158.786 33.2195V34.1951H157.811V33.2195H158.786ZM159.762 33.2195V34.1951H158.786V33.2195H159.762ZM160.738 33.2195V34.1951H159.762V33.2195H160.738ZM161.713 33.2195V34.1951H160.738V33.2195H161.713ZM162.689 33.2195V34.1951H161.713V33.2195H162.689ZM163.664 33.2195V34.1951H162.689V33.2195H163.664ZM164.64 33.2195V34.1951H163.664V33.2195H164.64ZM157.811 33.2195V34.1951H156.835V33.2195H157.811ZM181.243 27.3659V28.3415H180.267V27.3659H181.243ZM180.267 27.3659V28.3415H179.291V27.3659H180.267ZM179.291 27.3659V28.3415H178.316V27.3659H179.291ZM178.316 27.3659V28.3415H177.34V27.3659H178.316ZM177.34 26.3902V27.3659H176.365V26.3902H177.34ZM178.316 26.3902V27.3659H177.34V26.3902H178.316ZM179.291 26.3902V27.3659H178.316V26.3902H179.291ZM180.267 26.3902V27.3659H179.291V26.3902H180.267ZM181.243 26.3902V27.3659H180.267V26.3902H181.243ZM181.243 25.4146V26.3902H180.267V25.4146H181.243ZM180.267 25.4146V26.3902H179.291V25.4146H180.267ZM179.291 25.4146V26.3902H178.316V25.4146H179.291ZM178.316 25.4146V26.3902H177.34V25.4146H178.316ZM177.34 25.4146V26.3902H176.365V25.4146H177.34ZM179.291 24.439V25.4146H178.316V24.439H179.291ZM180.267 24.439V25.4146H179.291V24.439H180.267ZM178.316 24.439V25.4146H177.34V24.439H178.316ZM178.316 23.4634V24.439H177.34V23.4634H178.316ZM177.34 23.4634V24.439H176.365V23.4634H177.34ZM177.34 24.439V25.4146H176.365V24.439H177.34ZM176.365 24.439V25.4146H175.389V24.439H176.365ZM176.365 23.4634V24.439H175.389V23.4634H176.365ZM176.365 25.4146V26.3902H175.389V25.4146H176.365ZM175.389 25.4146V26.3902H174.413V25.4146H175.389ZM175.389 26.3902V27.3659H174.413V26.3902H175.389ZM176.365 26.3902V27.3659H175.389V26.3902H176.365ZM174.413 26.3902V27.3659H173.438V26.3902H174.413ZM174.413 25.4146V26.3902H173.438V25.4146H174.413ZM174.413 24.439V25.4146H173.438V24.439H174.413ZM174.413 23.4634V24.439H173.438V23.4634H174.413ZM175.389 23.4634V24.439H174.413V23.4634H175.389ZM175.389 24.439V25.4146H174.413V24.439H175.389ZM173.438 23.4634V24.439H172.462V23.4634H173.438ZM172.462 23.4634V24.439H171.486V23.4634H172.462ZM171.486 23.4634V24.439H170.511V23.4634H171.486ZM171.486 24.439V25.4146H170.511V24.439H171.486ZM171.486 25.4146V26.3902H170.511V25.4146H171.486ZM171.486 26.3902V27.3659H170.511V26.3902H171.486ZM172.462 26.3902V27.3659H171.486V26.3902H172.462ZM173.438 26.3902V27.3659H172.462V26.3902H173.438ZM173.438 25.4146V26.3902H172.462V25.4146H173.438ZM173.438 24.439V25.4146H172.462V24.439H173.438ZM172.462 24.439V25.4146H171.486V24.439H172.462ZM172.462 25.4146V26.3902H171.486V25.4146H172.462ZM170.511 25.4146V26.3902H169.535V25.4146H170.511ZM170.511 24.439V25.4146H169.535V24.439H170.511ZM169.535 24.439V25.4146H168.56V24.439H169.535ZM169.535 25.4146V26.3902H168.56V25.4146H169.535ZM168.56 25.4146V26.3902H167.584V25.4146H168.56ZM168.56 26.3902V27.3659H167.584V26.3902H168.56ZM168.56 27.3659V28.3415H167.584V27.3659H168.56ZM169.535 27.3659V28.3415H168.56V27.3659H169.535ZM169.535 26.3902V27.3659H168.56V26.3902H169.535ZM170.511 26.3902V27.3659H169.535V26.3902H170.511ZM170.511 27.3659V28.3415H169.535V27.3659H170.511ZM171.486 27.3659V28.3415H170.511V27.3659H171.486ZM172.462 27.3659V28.3415H171.486V27.3659H172.462ZM167.584 27.3659V28.3415H166.608V27.3659H167.584ZM167.584 28.3415V29.3171H166.608V28.3415H167.584ZM167.584 29.3171V30.2927H166.608V29.3171H167.584ZM167.584 36.1463V37.122H166.608V36.1463H167.584ZM168.56 36.1463V37.122H167.584V36.1463H168.56ZM168.56 37.122V38.0976H167.584V37.122H168.56ZM167.584 37.122V38.0976H166.608V37.122H167.584ZM169.535 37.122V38.0976H168.56V37.122H169.535ZM170.511 37.122V38.0976H169.535V37.122H170.511ZM171.486 37.122V38.0976H170.511V37.122H171.486ZM172.462 37.122V38.0976H171.486V37.122H172.462ZM171.486 36.1463V37.122H170.511V36.1463H171.486ZM171.486 29.3171V30.2927H170.511V29.3171H171.486ZM171.486 28.3415V29.3171H170.511V28.3415H171.486ZM170.511 28.3415V29.3171H169.535V28.3415H170.511ZM169.535 28.3415V29.3171H168.56V28.3415H169.535ZM168.56 28.3415V29.3171H167.584V28.3415H168.56ZM168.56 29.3171V30.2927H167.584V29.3171H168.56ZM169.535 36.1463V37.122H168.56V36.1463H169.535ZM170.511 36.1463V37.122H169.535V36.1463H170.511ZM169.535 29.3171V30.2927H168.56V29.3171H169.535ZM170.511 29.3171V30.2927H169.535V29.3171H170.511ZM178.316 35.1707V36.1463H177.34V35.1707H178.316ZM178.316 36.1463V37.122H177.34V36.1463H178.316ZM179.291 36.1463V37.122H178.316V36.1463H179.291ZM180.267 36.1463V37.122H179.291V36.1463H180.267ZM181.243 36.1463V37.122H180.267V36.1463H181.243ZM182.218 36.1463V37.122H181.243V36.1463H182.218ZM182.218 35.1707V36.1463H181.243V35.1707H182.218ZM181.243 35.1707V36.1463H180.267V35.1707H181.243ZM180.267 35.1707V36.1463H179.291V35.1707H180.267ZM179.291 35.1707V36.1463H178.316V35.1707H179.291ZM182.218 37.122V38.0976H181.243V37.122H182.218ZM181.243 37.122V38.0976H180.267V37.122H181.243ZM180.267 37.122V38.0976H179.291V37.122H180.267ZM179.291 37.122V38.0976H178.316V37.122H179.291ZM178.316 37.122V38.0976H177.34V37.122H178.316ZM177.34 37.122V38.0976H176.365V37.122H177.34ZM177.34 38.0976V39.0732H176.365V38.0976H177.34ZM178.316 38.0976V39.0732H177.34V38.0976H178.316ZM179.291 38.0976V39.0732H178.316V38.0976H179.291ZM180.267 38.0976V39.0732H179.291V38.0976H180.267ZM180.267 39.0732V40.0488H179.291V39.0732H180.267ZM181.243 39.0732V40.0488H180.267V39.0732H181.243ZM181.243 38.0976V39.0732H180.267V38.0976H181.243ZM180.267 40.0488V41.0244H179.291V40.0488H180.267ZM179.291 40.0488V41.0244H178.316V40.0488H179.291ZM179.291 39.0732V40.0488H178.316V39.0732H179.291ZM178.316 39.0732V40.0488H177.34V39.0732H178.316ZM178.316 40.0488V41.0244H177.34V40.0488H178.316ZM178.316 41.0244V42H177.34V41.0244H178.316ZM177.34 41.0244V42H176.365V41.0244H177.34ZM176.365 41.0244V42H175.389V41.0244H176.365ZM175.389 41.0244V42H174.413V41.0244H175.389ZM174.413 41.0244V42H173.438V41.0244H174.413ZM173.438 41.0244V42H172.462V41.0244H173.438ZM172.462 41.0244V42H171.486V41.0244H172.462ZM171.486 41.0244V42H170.511V41.0244H171.486ZM172.462 40.0488V41.0244H171.486V40.0488H172.462ZM173.438 40.0488V41.0244H172.462V40.0488H173.438ZM174.413 40.0488V41.0244H173.438V40.0488H174.413ZM175.389 40.0488V41.0244H174.413V40.0488H175.389ZM176.365 40.0488V41.0244H175.389V40.0488H176.365ZM177.34 40.0488V41.0244H176.365V40.0488H177.34ZM177.34 39.0732V40.0488H176.365V39.0732H177.34ZM176.365 39.0732V40.0488H175.389V39.0732H176.365ZM175.389 39.0732V40.0488H174.413V39.0732H175.389ZM174.413 39.0732V40.0488H173.438V39.0732H174.413ZM173.438 39.0732V40.0488H172.462V39.0732H173.438ZM172.462 39.0732V40.0488H171.486V39.0732H172.462ZM171.486 40.0488V41.0244H170.511V40.0488H171.486ZM170.511 40.0488V41.0244H169.535V40.0488H170.511ZM169.535 40.0488V41.0244H168.56V40.0488H169.535ZM169.535 39.0732V40.0488H168.56V39.0732H169.535ZM168.56 39.0732V40.0488H167.584V39.0732H168.56ZM168.56 38.0976V39.0732H167.584V38.0976H168.56ZM169.535 38.0976V39.0732H168.56V38.0976H169.535ZM170.511 38.0976V39.0732H169.535V38.0976H170.511ZM171.486 38.0976V39.0732H170.511V38.0976H171.486ZM172.462 38.0976V39.0732H171.486V38.0976H172.462ZM173.438 38.0976V39.0732H172.462V38.0976H173.438ZM174.413 38.0976V39.0732H173.438V38.0976H174.413ZM175.389 38.0976V39.0732H174.413V38.0976H175.389ZM176.365 38.0976V39.0732H175.389V38.0976H176.365ZM171.486 39.0732V40.0488H170.511V39.0732H171.486ZM170.511 39.0732V40.0488H169.535V39.0732H170.511ZM180.267 33.2195V34.1951H179.291V33.2195H180.267ZM182.218 34.1951V35.1707H181.243V34.1951H182.218ZM181.243 34.1951V35.1707H180.267V34.1951H181.243ZM180.267 34.1951V35.1707H179.291V34.1951H180.267ZM179.291 34.1951V35.1707H178.316V34.1951H179.291ZM179.291 33.2195V34.1951H178.316V33.2195H179.291ZM178.316 33.2195V34.1951H177.34V33.2195H178.316ZM178.316 34.1951V35.1707H177.34V34.1951H178.316ZM172.462 29.3171V30.2927H171.486V29.3171H172.462ZM168.56 30.2927V31.2683H167.584V30.2927H168.56ZM168.56 31.2683V32.2439H167.584V31.2683H168.56ZM169.535 31.2683V32.2439H168.56V31.2683H169.535ZM169.535 32.2439V33.2195H168.56V32.2439H169.535ZM170.511 32.2439V33.2195H169.535V32.2439H170.511ZM171.486 33.2195V34.1951H170.511V33.2195H171.486ZM171.486 32.2439V33.2195H170.511V32.2439H171.486ZM171.486 31.2683V32.2439H170.511V31.2683H171.486ZM171.486 30.2927V31.2683H170.511V30.2927H171.486ZM170.511 30.2927V31.2683H169.535V30.2927H170.511ZM170.511 31.2683V32.2439H169.535V31.2683H170.511ZM169.535 30.2927V31.2683H168.56V30.2927H169.535ZM172.462 33.2195V34.1951H171.486V33.2195H172.462ZM173.438 33.2195V34.1951H172.462V33.2195H173.438ZM174.413 33.2195V34.1951H173.438V33.2195H174.413ZM175.389 33.2195V34.1951H174.413V33.2195H175.389ZM175.389 32.2439V33.2195H174.413V32.2439H175.389ZM174.413 32.2439V33.2195H173.438V32.2439H174.413ZM173.438 32.2439V33.2195H172.462V32.2439H173.438ZM172.462 32.2439V33.2195H171.486V32.2439H172.462ZM172.462 31.2683V32.2439H171.486V31.2683H172.462ZM172.462 30.2927V31.2683H171.486V30.2927H172.462ZM173.438 30.2927V31.2683H172.462V30.2927H173.438ZM174.413 30.2927V31.2683H173.438V30.2927H174.413ZM175.389 30.2927V31.2683H174.413V30.2927H175.389ZM175.389 31.2683V32.2439H174.413V31.2683H175.389ZM174.413 31.2683V32.2439H173.438V31.2683H174.413ZM173.438 31.2683V32.2439H172.462V31.2683H173.438ZM176.365 30.2927V31.2683H175.389V30.2927H176.365ZM177.34 30.2927V31.2683H176.365V30.2927H177.34ZM177.34 31.2683V32.2439H176.365V31.2683H177.34ZM177.34 32.2439V33.2195H176.365V32.2439H177.34ZM177.34 33.2195V34.1951H176.365V33.2195H177.34ZM176.365 33.2195V34.1951H175.389V33.2195H176.365ZM176.365 32.2439V33.2195H175.389V32.2439H176.365ZM176.365 31.2683V32.2439H175.389V31.2683H176.365ZM177.34 34.1951V35.1707H176.365V34.1951H177.34ZM178.316 30.2927V31.2683H177.34V30.2927H178.316ZM181.243 33.2195V34.1951H180.267V33.2195H181.243ZM181.243 32.2439V33.2195H180.267V32.2439H181.243ZM180.267 31.2683V32.2439H179.291V31.2683H180.267ZM179.291 31.2683V32.2439H178.316V31.2683H179.291ZM178.316 31.2683V32.2439H177.34V31.2683H178.316ZM178.316 32.2439V33.2195H177.34V32.2439H178.316ZM179.291 32.2439V33.2195H178.316V32.2439H179.291ZM180.267 32.2439V33.2195H179.291V32.2439H180.267ZM177.34 27.3659V28.3415H176.365V27.3659H177.34ZM198.821 27.3659V28.3415H197.845V27.3659H198.821ZM197.845 27.3659V28.3415H196.869V27.3659H197.845ZM196.869 27.3659V28.3415H195.894V27.3659H196.869ZM195.894 27.3659V28.3415H194.918V27.3659H195.894ZM194.918 26.3902V27.3659H193.943V26.3902H194.918ZM195.894 26.3902V27.3659H194.918V26.3902H195.894ZM196.869 26.3902V27.3659H195.894V26.3902H196.869ZM197.845 26.3902V27.3659H196.869V26.3902H197.845ZM198.821 26.3902V27.3659H197.845V26.3902H198.821ZM198.821 25.4146V26.3902H197.845V25.4146H198.821ZM197.845 25.4146V26.3902H196.869V25.4146H197.845ZM196.869 25.4146V26.3902H195.894V25.4146H196.869ZM195.894 25.4146V26.3902H194.918V25.4146H195.894ZM194.918 25.4146V26.3902H193.943V25.4146H194.918ZM196.869 24.439V25.4146H195.894V24.439H196.869ZM197.845 24.439V25.4146H196.869V24.439H197.845ZM195.894 24.439V25.4146H194.918V24.439H195.894ZM195.894 23.4634V24.439H194.918V23.4634H195.894ZM194.918 23.4634V24.439H193.943V23.4634H194.918ZM194.918 24.439V25.4146H193.943V24.439H194.918ZM193.943 24.439V25.4146H192.967V24.439H193.943ZM193.943 23.4634V24.439H192.967V23.4634H193.943ZM193.943 25.4146V26.3902H192.967V25.4146H193.943ZM192.967 25.4146V26.3902H191.991V25.4146H192.967ZM192.967 26.3902V27.3659H191.991V26.3902H192.967ZM193.943 26.3902V27.3659H192.967V26.3902H193.943ZM191.991 26.3902V27.3659H191.016V26.3902H191.991ZM191.991 25.4146V26.3902H191.016V25.4146H191.991ZM191.991 24.439V25.4146H191.016V24.439H191.991ZM191.991 23.4634V24.439H191.016V23.4634H191.991ZM192.967 23.4634V24.439H191.991V23.4634H192.967ZM192.967 24.439V25.4146H191.991V24.439H192.967ZM191.016 23.4634V24.439H190.04V23.4634H191.016ZM190.04 23.4634V24.439H189.065V23.4634H190.04ZM189.065 23.4634V24.439H188.089V23.4634H189.065ZM189.065 24.439V25.4146H188.089V24.439H189.065ZM189.065 25.4146V26.3902H188.089V25.4146H189.065ZM189.065 26.3902V27.3659H188.089V26.3902H189.065ZM190.04 26.3902V27.3659H189.065V26.3902H190.04ZM191.016 26.3902V27.3659H190.04V26.3902H191.016ZM191.016 25.4146V26.3902H190.04V25.4146H191.016ZM191.016 24.439V25.4146H190.04V24.439H191.016ZM190.04 24.439V25.4146H189.065V24.439H190.04ZM190.04 25.4146V26.3902H189.065V25.4146H190.04ZM188.089 25.4146V26.3902H187.113V25.4146H188.089ZM188.089 24.439V25.4146H187.113V24.439H188.089ZM187.113 24.439V25.4146H186.138V24.439H187.113ZM187.113 25.4146V26.3902H186.138V25.4146H187.113ZM186.138 25.4146V26.3902H185.162V25.4146H186.138ZM186.138 26.3902V27.3659H185.162V26.3902H186.138ZM186.138 27.3659V28.3415H185.162V27.3659H186.138ZM187.113 27.3659V28.3415H186.138V27.3659H187.113ZM187.113 26.3902V27.3659H186.138V26.3902H187.113ZM188.089 26.3902V27.3659H187.113V26.3902H188.089ZM188.089 27.3659V28.3415H187.113V27.3659H188.089ZM189.065 27.3659V28.3415H188.089V27.3659H189.065ZM190.04 27.3659V28.3415H189.065V27.3659H190.04ZM185.162 27.3659V28.3415H184.187V27.3659H185.162ZM185.162 28.3415V29.3171H184.187V28.3415H185.162ZM185.162 29.3171V30.2927H184.187V29.3171H185.162ZM185.162 36.1463V37.122H184.187V36.1463H185.162ZM186.138 36.1463V37.122H185.162V36.1463H186.138ZM186.138 37.122V38.0976H185.162V37.122H186.138ZM185.162 37.122V38.0976H184.187V37.122H185.162ZM187.113 37.122V38.0976H186.138V37.122H187.113ZM188.089 37.122V38.0976H187.113V37.122H188.089ZM189.065 37.122V38.0976H188.089V37.122H189.065ZM190.04 37.122V38.0976H189.065V37.122H190.04ZM189.065 36.1463V37.122H188.089V36.1463H189.065ZM189.065 29.3171V30.2927H188.089V29.3171H189.065ZM189.065 28.3415V29.3171H188.089V28.3415H189.065ZM188.089 28.3415V29.3171H187.113V28.3415H188.089ZM187.113 28.3415V29.3171H186.138V28.3415H187.113ZM186.138 28.3415V29.3171H185.162V28.3415H186.138ZM186.138 29.3171V30.2927H185.162V29.3171H186.138ZM187.113 36.1463V37.122H186.138V36.1463H187.113ZM188.089 36.1463V37.122H187.113V36.1463H188.089ZM187.113 29.3171V30.2927H186.138V29.3171H187.113ZM188.089 29.3171V30.2927H187.113V29.3171H188.089ZM195.894 35.1707V36.1463H194.918V35.1707H195.894ZM195.894 36.1463V37.122H194.918V36.1463H195.894ZM196.869 36.1463V37.122H195.894V36.1463H196.869ZM197.845 36.1463V37.122H196.869V36.1463H197.845ZM198.821 36.1463V37.122H197.845V36.1463H198.821ZM199.796 36.1463V37.122H198.821V36.1463H199.796ZM199.796 35.1707V36.1463H198.821V35.1707H199.796ZM198.821 35.1707V36.1463H197.845V35.1707H198.821ZM197.845 35.1707V36.1463H196.869V35.1707H197.845ZM196.869 35.1707V36.1463H195.894V35.1707H196.869ZM199.796 37.122V38.0976H198.821V37.122H199.796ZM198.821 37.122V38.0976H197.845V37.122H198.821ZM197.845 37.122V38.0976H196.869V37.122H197.845ZM196.869 37.122V38.0976H195.894V37.122H196.869ZM195.894 37.122V38.0976H194.918V37.122H195.894ZM194.918 37.122V38.0976H193.943V37.122H194.918ZM194.918 38.0976V39.0732H193.943V38.0976H194.918ZM195.894 38.0976V39.0732H194.918V38.0976H195.894ZM196.869 38.0976V39.0732H195.894V38.0976H196.869ZM197.845 38.0976V39.0732H196.869V38.0976H197.845ZM197.845 39.0732V40.0488H196.869V39.0732H197.845ZM198.821 39.0732V40.0488H197.845V39.0732H198.821ZM198.821 38.0976V39.0732H197.845V38.0976H198.821ZM197.845 40.0488V41.0244H196.869V40.0488H197.845ZM196.869 40.0488V41.0244H195.894V40.0488H196.869ZM196.869 39.0732V40.0488H195.894V39.0732H196.869ZM195.894 39.0732V40.0488H194.918V39.0732H195.894ZM195.894 40.0488V41.0244H194.918V40.0488H195.894ZM195.894 41.0244V42H194.918V41.0244H195.894ZM194.918 41.0244V42H193.943V41.0244H194.918ZM193.943 41.0244V42H192.967V41.0244H193.943ZM192.967 41.0244V42H191.991V41.0244H192.967ZM191.991 41.0244V42H191.016V41.0244H191.991ZM191.016 41.0244V42H190.04V41.0244H191.016ZM190.04 41.0244V42H189.065V41.0244H190.04ZM189.065 41.0244V42H188.089V41.0244H189.065ZM190.04 40.0488V41.0244H189.065V40.0488H190.04ZM191.016 40.0488V41.0244H190.04V40.0488H191.016ZM191.991 40.0488V41.0244H191.016V40.0488H191.991ZM192.967 40.0488V41.0244H191.991V40.0488H192.967ZM193.943 40.0488V41.0244H192.967V40.0488H193.943ZM194.918 40.0488V41.0244H193.943V40.0488H194.918ZM194.918 39.0732V40.0488H193.943V39.0732H194.918ZM193.943 39.0732V40.0488H192.967V39.0732H193.943ZM192.967 39.0732V40.0488H191.991V39.0732H192.967ZM191.991 39.0732V40.0488H191.016V39.0732H191.991ZM191.016 39.0732V40.0488H190.04V39.0732H191.016ZM190.04 39.0732V40.0488H189.065V39.0732H190.04ZM189.065 40.0488V41.0244H188.089V40.0488H189.065ZM188.089 40.0488V41.0244H187.113V40.0488H188.089ZM187.113 40.0488V41.0244H186.138V40.0488H187.113ZM187.113 39.0732V40.0488H186.138V39.0732H187.113ZM186.138 39.0732V40.0488H185.162V39.0732H186.138ZM186.138 38.0976V39.0732H185.162V38.0976H186.138ZM187.113 38.0976V39.0732H186.138V38.0976H187.113ZM188.089 38.0976V39.0732H187.113V38.0976H188.089ZM189.065 38.0976V39.0732H188.089V38.0976H189.065ZM190.04 38.0976V39.0732H189.065V38.0976H190.04ZM191.016 38.0976V39.0732H190.04V38.0976H191.016ZM191.991 38.0976V39.0732H191.016V38.0976H191.991ZM192.967 38.0976V39.0732H191.991V38.0976H192.967ZM193.943 38.0976V39.0732H192.967V38.0976H193.943ZM189.065 39.0732V40.0488H188.089V39.0732H189.065ZM188.089 39.0732V40.0488H187.113V39.0732H188.089ZM197.845 33.2195V34.1951H196.869V33.2195H197.845ZM199.796 34.1951V35.1707H198.821V34.1951H199.796ZM198.821 34.1951V35.1707H197.845V34.1951H198.821ZM197.845 34.1951V35.1707H196.869V34.1951H197.845ZM196.869 34.1951V35.1707H195.894V34.1951H196.869ZM196.869 33.2195V34.1951H195.894V33.2195H196.869ZM195.894 33.2195V34.1951H194.918V33.2195H195.894ZM195.894 34.1951V35.1707H194.918V34.1951H195.894ZM190.04 29.3171V30.2927H189.065V29.3171H190.04ZM186.138 30.2927V31.2683H185.162V30.2927H186.138ZM186.138 31.2683V32.2439H185.162V31.2683H186.138ZM187.113 31.2683V32.2439H186.138V31.2683H187.113ZM187.113 32.2439V33.2195H186.138V32.2439H187.113ZM188.089 32.2439V33.2195H187.113V32.2439H188.089ZM189.065 33.2195V34.1951H188.089V33.2195H189.065ZM189.065 32.2439V33.2195H188.089V32.2439H189.065ZM189.065 31.2683V32.2439H188.089V31.2683H189.065ZM189.065 30.2927V31.2683H188.089V30.2927H189.065ZM188.089 30.2927V31.2683H187.113V30.2927H188.089ZM188.089 31.2683V32.2439H187.113V31.2683H188.089ZM187.113 30.2927V31.2683H186.138V30.2927H187.113ZM190.04 33.2195V34.1951H189.065V33.2195H190.04ZM191.016 33.2195V34.1951H190.04V33.2195H191.016ZM191.991 33.2195V34.1951H191.016V33.2195H191.991ZM192.967 33.2195V34.1951H191.991V33.2195H192.967ZM192.967 32.2439V33.2195H191.991V32.2439H192.967ZM191.991 32.2439V33.2195H191.016V32.2439H191.991ZM191.016 32.2439V33.2195H190.04V32.2439H191.016ZM190.04 32.2439V33.2195H189.065V32.2439H190.04ZM190.04 31.2683V32.2439H189.065V31.2683H190.04ZM190.04 30.2927V31.2683H189.065V30.2927H190.04ZM191.016 30.2927V31.2683H190.04V30.2927H191.016ZM191.991 30.2927V31.2683H191.016V30.2927H191.991ZM192.967 30.2927V31.2683H191.991V30.2927H192.967ZM192.967 31.2683V32.2439H191.991V31.2683H192.967ZM191.991 31.2683V32.2439H191.016V31.2683H191.991ZM191.016 31.2683V32.2439H190.04V31.2683H191.016ZM193.943 30.2927V31.2683H192.967V30.2927H193.943ZM194.918 30.2927V31.2683H193.943V30.2927H194.918ZM194.918 31.2683V32.2439H193.943V31.2683H194.918ZM194.918 32.2439V33.2195H193.943V32.2439H194.918ZM194.918 33.2195V34.1951H193.943V33.2195H194.918ZM193.943 33.2195V34.1951H192.967V33.2195H193.943ZM193.943 32.2439V33.2195H192.967V32.2439H193.943ZM193.943 31.2683V32.2439H192.967V31.2683H193.943ZM194.918 34.1951V35.1707H193.943V34.1951H194.918ZM195.894 30.2927V31.2683H194.918V30.2927H195.894ZM198.821 33.2195V34.1951H197.845V33.2195H198.821ZM198.821 32.2439V33.2195H197.845V32.2439H198.821ZM197.845 31.2683V32.2439H196.869V31.2683H197.845ZM196.869 31.2683V32.2439H195.894V31.2683H196.869ZM195.894 31.2683V32.2439H194.918V31.2683H195.894ZM195.894 32.2439V33.2195H194.918V32.2439H195.894ZM196.869 32.2439V33.2195H195.894V32.2439H196.869ZM197.845 32.2439V33.2195H196.869V32.2439H197.845ZM194.918 27.3659V28.3415H193.943V27.3659H194.918Z" fill="white"/>
</g>
<defs>
<clipPath id="clip0_321_74">
<rect width="219" height="60" fill="white"/>
</clipPath>
</defs>
</svg>
