<svg width="180" height="40" viewBox="0 0 210 55" fill="none" xmlns="http://www.w3.org/2000/svg">
<g clip-path="url(#clip0_166_13)">
<rect width="210" height="55" fill="white"/>
<rect width="210" height="55" fill="#316033"/>
<path d="M17.4695 14.1707V15.2439H16.3963V14.1707H17.4695ZM17.4695 15.2439V16.3171H16.3963V15.2439H17.4695ZM17.4695 16.3171V17.3902H16.3963V16.3171H17.4695ZM20.689 14.1707V15.2439H19.6159V14.1707H20.689ZM20.689 15.2439V16.3171H19.6159V15.2439H20.689ZM20.689 16.3171V17.3902H19.6159V16.3171H20.689ZM21.7622 16.3171V17.3902H20.689V16.3171H21.7622ZM21.7622 15.2439V16.3171H20.689V15.2439H21.7622ZM21.7622 14.1707V15.2439H20.689V14.1707H21.7622ZM19.6159 14.1707V15.2439H18.5427V14.1707H19.6159ZM18.5427 14.1707V15.2439H17.4695V14.1707H18.5427ZM18.5427 15.2439V16.3171H17.4695V15.2439H18.5427ZM19.6159 15.2439V16.3171H18.5427V15.2439H19.6159ZM19.6159 16.3171V17.3902H18.5427V16.3171H19.6159ZM18.5427 16.3171V17.3902H17.4695V16.3171H18.5427ZM17.4695 17.3902V18.4634H16.3963V17.3902H17.4695ZM18.5427 17.3902V18.4634H17.4695V17.3902H18.5427ZM19.6159 17.3902V18.4634H18.5427V17.3902H19.6159ZM20.689 17.3902V18.4634H19.6159V17.3902H20.689ZM21.7622 17.3902V18.4634H20.689V17.3902H21.7622ZM17.4695 39.9268V41H16.3963V39.9268H17.4695ZM17.4695 38.8537V39.9268H16.3963V38.8537H17.4695ZM17.4695 37.7805V38.8537H16.3963V37.7805H17.4695ZM17.4695 36.7073V37.7805H16.3963V36.7073H17.4695ZM17.4695 35.6341V36.7073H16.3963V35.6341H17.4695ZM17.4695 34.561V35.6341H16.3963V34.561H17.4695ZM17.4695 33.4878V34.561H16.3963V33.4878H17.4695ZM17.4695 32.4146V33.4878H16.3963V32.4146H17.4695ZM17.4695 31.3415V32.4146H16.3963V31.3415H17.4695ZM17.4695 30.2683V31.3415H16.3963V30.2683H17.4695ZM17.4695 29.1951V30.2683H16.3963V29.1951H17.4695ZM17.4695 28.122V29.1951H16.3963V28.122H17.4695ZM17.4695 27.0488V28.122H16.3963V27.0488H17.4695ZM17.4695 25.9756V27.0488H16.3963V25.9756H17.4695ZM17.4695 24.9024V25.9756H16.3963V24.9024H17.4695ZM18.5427 24.9024V25.9756H17.4695V24.9024H18.5427ZM18.5427 25.9756V27.0488H17.4695V25.9756H18.5427ZM18.5427 27.0488V28.122H17.4695V27.0488H18.5427ZM18.5427 28.122V29.1951H17.4695V28.122H18.5427ZM18.5427 29.1951V30.2683H17.4695V29.1951H18.5427ZM18.5427 30.2683V31.3415H17.4695V30.2683H18.5427ZM18.5427 31.3415V32.4146H17.4695V31.3415H18.5427ZM19.6159 32.4146V33.4878H18.5427V32.4146H19.6159ZM19.6159 33.4878V34.561H18.5427V33.4878H19.6159ZM19.6159 34.561V35.6341H18.5427V34.561H19.6159ZM19.6159 35.6341V36.7073H18.5427V35.6341H19.6159ZM19.6159 36.7073V37.7805H18.5427V36.7073H19.6159ZM19.6159 37.7805V38.8537H18.5427V37.7805H19.6159ZM19.6159 38.8537V39.9268H18.5427V38.8537H19.6159ZM19.6159 39.9268V41H18.5427V39.9268H19.6159ZM20.689 39.9268V41H19.6159V39.9268H20.689ZM21.7622 39.9268V41H20.689V39.9268H21.7622ZM21.7622 38.8537V39.9268H20.689V38.8537H21.7622ZM21.7622 37.7805V38.8537H20.689V37.7805H21.7622ZM21.7622 36.7073V37.7805H20.689V36.7073H21.7622ZM21.7622 35.6341V36.7073H20.689V35.6341H21.7622ZM21.7622 34.561V35.6341H20.689V34.561H21.7622ZM21.7622 33.4878V34.561H20.689V33.4878H21.7622ZM21.7622 32.4146V33.4878H20.689V32.4146H21.7622ZM20.689 32.4146V33.4878H19.6159V32.4146H20.689ZM20.689 31.3415V32.4146H19.6159V31.3415H20.689ZM20.689 33.4878V34.561H19.6159V33.4878H20.689ZM20.689 34.561V35.6341H19.6159V34.561H20.689ZM20.689 35.6341V36.7073H19.6159V35.6341H20.689ZM20.689 36.7073V37.7805H19.6159V36.7073H20.689ZM20.689 37.7805V38.8537H19.6159V37.7805H20.689ZM20.689 38.8537V39.9268H19.6159V38.8537H20.689ZM18.5427 39.9268V41H17.4695V39.9268H18.5427ZM18.5427 38.8537V39.9268H17.4695V38.8537H18.5427ZM18.5427 37.7805V38.8537H17.4695V37.7805H18.5427ZM18.5427 36.7073V37.7805H17.4695V36.7073H18.5427ZM18.5427 35.6341V36.7073H17.4695V35.6341H18.5427ZM18.5427 34.561V35.6341H17.4695V34.561H18.5427ZM18.5427 33.4878V34.561H17.4695V33.4878H18.5427ZM18.5427 32.4146V33.4878H17.4695V32.4146H18.5427ZM17.4695 22.7561V23.8293H16.3963V22.7561H17.4695ZM17.4695 23.8293V24.9024H16.3963V23.8293H17.4695ZM20.689 22.7561V23.8293H19.6159V22.7561H20.689ZM20.689 23.8293V24.9024H19.6159V23.8293H20.689ZM20.689 24.9024V25.9756H19.6159V24.9024H20.689ZM20.689 25.9756V27.0488H19.6159V25.9756H20.689ZM20.689 27.0488V28.122H19.6159V27.0488H20.689ZM20.689 28.122V29.1951H19.6159V28.122H20.689ZM21.7622 29.1951V30.2683H20.689V29.1951H21.7622ZM21.7622 30.2683V31.3415H20.689V30.2683H21.7622ZM21.7622 31.3415V32.4146H20.689V31.3415H21.7622ZM21.7622 28.122V29.1951H20.689V28.122H21.7622ZM21.7622 27.0488V28.122H20.689V27.0488H21.7622ZM21.7622 25.9756V27.0488H20.689V25.9756H21.7622ZM21.7622 24.9024V25.9756H20.689V24.9024H21.7622ZM21.7622 23.8293V24.9024H20.689V23.8293H21.7622ZM21.7622 22.7561V23.8293H20.689V22.7561H21.7622ZM18.5427 22.7561V23.8293H17.4695V22.7561H18.5427ZM18.5427 23.8293V24.9024H17.4695V23.8293H18.5427ZM19.6159 22.7561V23.8293H18.5427V22.7561H19.6159ZM19.6159 23.8293V24.9024H18.5427V23.8293H19.6159ZM19.6159 24.9024V25.9756H18.5427V24.9024H19.6159ZM19.6159 25.9756V27.0488H18.5427V25.9756H19.6159ZM19.6159 27.0488V28.122H18.5427V27.0488H19.6159ZM19.6159 28.122V29.1951H18.5427V28.122H19.6159ZM19.6159 29.1951V30.2683H18.5427V29.1951H19.6159ZM19.6159 30.2683V31.3415H18.5427V30.2683H19.6159ZM19.6159 31.3415V32.4146H18.5427V31.3415H19.6159ZM20.689 30.2683V31.3415H19.6159V30.2683H20.689ZM20.689 29.1951V30.2683H19.6159V29.1951H20.689ZM20.689 21.6829V22.7561H19.6159V21.6829H20.689ZM21.7622 21.6829V22.7561H20.689V21.6829H21.7622ZM19.6159 21.6829V22.7561H18.5427V21.6829H19.6159ZM18.5427 21.6829V22.7561H17.4695V21.6829H18.5427ZM17.4695 21.6829V22.7561H16.3963V21.6829H17.4695ZM27.1375 39.9268V41H26.0643V39.9268H27.1375ZM27.1375 38.8537V39.9268H26.0643V38.8537H27.1375ZM27.1375 37.7805V38.8537H26.0643V37.7805H27.1375ZM27.1375 36.7073V37.7805H26.0643V36.7073H27.1375ZM27.1375 35.6341V36.7073H26.0643V35.6341H27.1375ZM27.1375 34.561V35.6341H26.0643V34.561H27.1375ZM27.1375 33.4878V34.561H26.0643V33.4878H27.1375ZM27.1375 32.4146V33.4878H26.0643V32.4146H27.1375ZM27.1375 31.3415V32.4146H26.0643V31.3415H27.1375ZM27.1375 30.2683V31.3415H26.0643V30.2683H27.1375ZM27.1375 29.1951V30.2683H26.0643V29.1951H27.1375ZM27.1375 28.122V29.1951H26.0643V28.122H27.1375ZM27.1375 27.0488V28.122H26.0643V27.0488H27.1375ZM27.1375 25.9756V27.0488H26.0643V25.9756H27.1375ZM27.1375 24.9024V25.9756H26.0643V24.9024H27.1375ZM28.2107 24.9024V25.9756H27.1375V24.9024H28.2107ZM28.2107 25.9756V27.0488H27.1375V25.9756H28.2107ZM28.2107 27.0488V28.122H27.1375V27.0488H28.2107ZM28.2107 28.122V29.1951H27.1375V28.122H28.2107ZM28.2107 29.1951V30.2683H27.1375V29.1951H28.2107ZM28.2107 30.2683V31.3415H27.1375V30.2683H28.2107ZM28.2107 31.3415V32.4146H27.1375V31.3415H28.2107ZM29.2838 32.4146V33.4878H28.2107V32.4146H29.2838ZM29.2838 33.4878V34.561H28.2107V33.4878H29.2838ZM29.2838 34.561V35.6341H28.2107V34.561H29.2838ZM29.2838 35.6341V36.7073H28.2107V35.6341H29.2838ZM29.2838 36.7073V37.7805H28.2107V36.7073H29.2838ZM29.2838 37.7805V38.8537H28.2107V37.7805H29.2838ZM29.2838 38.8537V39.9268H28.2107V38.8537H29.2838ZM29.2838 39.9268V41H28.2107V39.9268H29.2838ZM30.357 39.9268V41H29.2838V39.9268H30.357ZM31.4302 39.9268V41H30.357V39.9268H31.4302ZM31.4302 38.8537V39.9268H30.357V38.8537H31.4302ZM31.4302 37.7805V38.8537H30.357V37.7805H31.4302ZM31.4302 36.7073V37.7805H30.357V36.7073H31.4302ZM31.4302 35.6341V36.7073H30.357V35.6341H31.4302ZM31.4302 34.561V35.6341H30.357V34.561H31.4302ZM31.4302 33.4878V34.561H30.357V33.4878H31.4302ZM31.4302 32.4146V33.4878H30.357V32.4146H31.4302ZM30.357 32.4146V33.4878H29.2838V32.4146H30.357ZM30.357 31.3415V32.4146H29.2838V31.3415H30.357ZM30.357 33.4878V34.561H29.2838V33.4878H30.357ZM30.357 34.561V35.6341H29.2838V34.561H30.357ZM30.357 35.6341V36.7073H29.2838V35.6341H30.357ZM30.357 36.7073V37.7805H29.2838V36.7073H30.357ZM30.357 37.7805V38.8537H29.2838V37.7805H30.357ZM30.357 38.8537V39.9268H29.2838V38.8537H30.357ZM28.2107 39.9268V41H27.1375V39.9268H28.2107ZM28.2107 38.8537V39.9268H27.1375V38.8537H28.2107ZM28.2107 37.7805V38.8537H27.1375V37.7805H28.2107ZM28.2107 36.7073V37.7805H27.1375V36.7073H28.2107ZM28.2107 35.6341V36.7073H27.1375V35.6341H28.2107ZM28.2107 34.561V35.6341H27.1375V34.561H28.2107ZM28.2107 33.4878V34.561H27.1375V33.4878H28.2107ZM28.2107 32.4146V33.4878H27.1375V32.4146H28.2107ZM27.1375 14.1707V15.2439H26.0643V14.1707H27.1375ZM27.1375 15.2439V16.3171H26.0643V15.2439H27.1375ZM27.1375 16.3171V17.3902H26.0643V16.3171H27.1375ZM27.1375 17.3902V18.4634H26.0643V17.3902H27.1375ZM27.1375 18.4634V19.5366H26.0643V18.4634H27.1375ZM27.1375 19.5366V20.6098H26.0643V19.5366H27.1375ZM27.1375 20.6098V21.6829H26.0643V20.6098H27.1375ZM27.1375 21.6829V22.7561H26.0643V21.6829H27.1375ZM27.1375 22.7561V23.8293H26.0643V22.7561H27.1375ZM27.1375 23.8293V24.9024H26.0643V23.8293H27.1375ZM30.357 14.1707V15.2439H29.2838V14.1707H30.357ZM30.357 15.2439V16.3171H29.2838V15.2439H30.357ZM30.357 16.3171V17.3902H29.2838V16.3171H30.357ZM30.357 17.3902V18.4634H29.2838V17.3902H30.357ZM30.357 18.4634V19.5366H29.2838V18.4634H30.357ZM30.357 19.5366V20.6098H29.2838V19.5366H30.357ZM30.357 21.6829V22.7561H29.2838V21.6829H30.357ZM30.357 22.7561V23.8293H29.2838V22.7561H30.357ZM30.357 23.8293V24.9024H29.2838V23.8293H30.357ZM30.357 24.9024V25.9756H29.2838V24.9024H30.357ZM30.357 25.9756V27.0488H29.2838V25.9756H30.357ZM30.357 27.0488V28.122H29.2838V27.0488H30.357ZM30.357 28.122V29.1951H29.2838V28.122H30.357ZM31.4302 29.1951V30.2683H30.357V29.1951H31.4302ZM31.4302 30.2683V31.3415H30.357V30.2683H31.4302ZM31.4302 31.3415V32.4146H30.357V31.3415H31.4302ZM31.4302 28.122V29.1951H30.357V28.122H31.4302ZM31.4302 27.0488V28.122H30.357V27.0488H31.4302ZM31.4302 25.9756V27.0488H30.357V25.9756H31.4302ZM31.4302 24.9024V25.9756H30.357V24.9024H31.4302ZM31.4302 23.8293V24.9024H30.357V23.8293H31.4302ZM31.4302 22.7561V23.8293H30.357V22.7561H31.4302ZM31.4302 21.6829V22.7561H30.357V21.6829H31.4302ZM31.4302 20.6098V21.6829H30.357V20.6098H31.4302ZM31.4302 19.5366V20.6098H30.357V19.5366H31.4302ZM31.4302 18.4634V19.5366H30.357V18.4634H31.4302ZM30.357 20.6098V21.6829H29.2838V20.6098H30.357ZM31.4302 17.3902V18.4634H30.357V17.3902H31.4302ZM31.4302 16.3171V17.3902H30.357V16.3171H31.4302ZM31.4302 15.2439V16.3171H30.357V15.2439H31.4302ZM31.4302 14.1707V15.2439H30.357V14.1707H31.4302ZM29.2838 14.1707V15.2439H28.2107V14.1707H29.2838ZM28.2107 14.1707V15.2439H27.1375V14.1707H28.2107ZM28.2107 15.2439V16.3171H27.1375V15.2439H28.2107ZM29.2838 15.2439V16.3171H28.2107V15.2439H29.2838ZM29.2838 16.3171V17.3902H28.2107V16.3171H29.2838ZM29.2838 17.3902V18.4634H28.2107V17.3902H29.2838ZM29.2838 18.4634V19.5366H28.2107V18.4634H29.2838ZM29.2838 19.5366V20.6098H28.2107V19.5366H29.2838ZM29.2838 20.6098V21.6829H28.2107V20.6098H29.2838ZM29.2838 21.6829V22.7561H28.2107V21.6829H29.2838ZM28.2107 22.7561V23.8293H27.1375V22.7561H28.2107ZM28.2107 23.8293V24.9024H27.1375V23.8293H28.2107ZM28.2107 21.6829V22.7561H27.1375V21.6829H28.2107ZM28.2107 20.6098V21.6829H27.1375V20.6098H28.2107ZM28.2107 19.5366V20.6098H27.1375V19.5366H28.2107ZM28.2107 18.4634V19.5366H27.1375V18.4634H28.2107ZM28.2107 17.3902V18.4634H27.1375V17.3902H28.2107ZM28.2107 16.3171V17.3902H27.1375V16.3171H28.2107ZM29.2838 22.7561V23.8293H28.2107V22.7561H29.2838ZM29.2838 23.8293V24.9024H28.2107V23.8293H29.2838ZM29.2838 24.9024V25.9756H28.2107V24.9024H29.2838ZM29.2838 25.9756V27.0488H28.2107V25.9756H29.2838ZM29.2838 27.0488V28.122H28.2107V27.0488H29.2838ZM29.2838 28.122V29.1951H28.2107V28.122H29.2838ZM29.2838 29.1951V30.2683H28.2107V29.1951H29.2838ZM29.2838 30.2683V31.3415H28.2107V30.2683H29.2838ZM29.2838 31.3415V32.4146H28.2107V31.3415H29.2838ZM30.357 30.2683V31.3415H29.2838V30.2683H30.357ZM30.357 29.1951V30.2683H29.2838V29.1951H30.357ZM32.5033 27.0488V28.122H31.4302V27.0488H32.5033ZM33.5765 27.0488V28.122H32.5033V27.0488H33.5765ZM33.5765 28.122V29.1951H32.5033V28.122H33.5765ZM32.5033 28.122V29.1951H31.4302V28.122H32.5033ZM32.5033 24.9024V25.9756H31.4302V24.9024H32.5033ZM33.5765 24.9024V25.9756H32.5033V24.9024H33.5765ZM32.5033 29.1951V30.2683H31.4302V29.1951H32.5033ZM33.5765 29.1951V30.2683H32.5033V29.1951H33.5765ZM33.5765 25.9756V27.0488H32.5033V25.9756H33.5765ZM32.5033 25.9756V27.0488H31.4302V25.9756H32.5033ZM32.5033 14.1707V15.2439H31.4302V14.1707H32.5033ZM33.5765 14.1707V15.2439H32.5033V14.1707H33.5765ZM33.5765 15.2439V16.3171H32.5033V15.2439H33.5765ZM32.5033 15.2439V16.3171H31.4302V15.2439H32.5033ZM32.5033 16.3171V17.3902H31.4302V16.3171H32.5033ZM33.5765 16.3171V17.3902H32.5033V16.3171H33.5765ZM33.5765 17.3902V18.4634H32.5033V17.3902H33.5765ZM32.5033 17.3902V18.4634H31.4302V17.3902H32.5033ZM32.5033 18.4634V19.5366H31.4302V18.4634H32.5033ZM33.5765 18.4634V19.5366H32.5033V18.4634H33.5765ZM34.6497 24.9024V25.9756H33.5765V24.9024H34.6497ZM35.7228 24.9024V25.9756H34.6497V24.9024H35.7228ZM36.796 24.9024V25.9756H35.7228V24.9024H36.796ZM36.796 18.4634V19.5366H35.7228V18.4634H36.796ZM35.7228 18.4634V19.5366H34.6497V18.4634H35.7228ZM34.6497 18.4634V19.5366H33.5765V18.4634H34.6497ZM34.6497 14.1707V15.2439H33.5765V14.1707H34.6497ZM35.7228 14.1707V15.2439H34.6497V14.1707H35.7228ZM36.796 14.1707V15.2439H35.7228V14.1707H36.796ZM36.796 17.3902V18.4634H35.7228V17.3902H36.796ZM36.796 16.3171V17.3902H35.7228V16.3171H36.796ZM35.7228 16.3171V17.3902H34.6497V16.3171H35.7228ZM34.6497 16.3171V17.3902H33.5765V16.3171H34.6497ZM34.6497 15.2439V16.3171H33.5765V15.2439H34.6497ZM35.7228 15.2439V16.3171H34.6497V15.2439H35.7228ZM36.796 15.2439V16.3171H35.7228V15.2439H36.796ZM34.6497 17.3902V18.4634H33.5765V17.3902H34.6497ZM35.7228 17.3902V18.4634H34.6497V17.3902H35.7228ZM36.796 27.0488V28.122H35.7228V27.0488H36.796ZM35.7228 27.0488V28.122H34.6497V27.0488H35.7228ZM34.6497 27.0488V28.122H33.5765V27.0488H34.6497ZM34.6497 25.9756V27.0488H33.5765V25.9756H34.6497ZM35.7228 25.9756V27.0488H34.6497V25.9756H35.7228ZM36.796 25.9756V27.0488H35.7228V25.9756H36.796ZM34.6497 28.122V29.1951H33.5765V28.122H34.6497ZM35.7228 28.122V29.1951H34.6497V28.122H35.7228ZM36.796 28.122V29.1951H35.7228V28.122H36.796ZM36.796 29.1951V30.2683H35.7228V29.1951H36.796ZM35.7228 29.1951V30.2683H34.6497V29.1951H35.7228ZM34.6497 29.1951V30.2683H33.5765V29.1951H34.6497ZM43.235 18.4634V19.5366H42.1619V18.4634H43.235ZM37.8692 14.1707V15.2439H36.796V14.1707H37.8692ZM38.9424 14.1707V15.2439H37.8692V14.1707H38.9424ZM40.0155 14.1707V15.2439H38.9424V14.1707H40.0155ZM41.0887 14.1707V15.2439H40.0155V14.1707H41.0887ZM42.1619 14.1707V15.2439H41.0887V14.1707H42.1619ZM42.1619 15.2439V16.3171H41.0887V15.2439H42.1619ZM43.235 15.2439V16.3171H42.1619V15.2439H43.235ZM43.235 16.3171V17.3902H42.1619V16.3171H43.235ZM43.235 14.1707V15.2439H42.1619V14.1707H43.235ZM43.235 17.3902V18.4634H42.1619V17.3902H43.235ZM42.1619 17.3902V18.4634H41.0887V17.3902H42.1619ZM41.0887 17.3902V18.4634H40.0155V17.3902H41.0887ZM40.0155 17.3902V18.4634H38.9424V17.3902H40.0155ZM38.9424 17.3902V18.4634H37.8692V17.3902H38.9424ZM37.8692 17.3902V18.4634H36.796V17.3902H37.8692ZM37.8692 16.3171V17.3902H36.796V16.3171H37.8692ZM37.8692 15.2439V16.3171H36.796V15.2439H37.8692ZM38.9424 15.2439V16.3171H37.8692V15.2439H38.9424ZM40.0155 15.2439V16.3171H38.9424V15.2439H40.0155ZM41.0887 15.2439V16.3171H40.0155V15.2439H41.0887ZM41.0887 16.3171V17.3902H40.0155V16.3171H41.0887ZM42.1619 16.3171V17.3902H41.0887V16.3171H42.1619ZM40.0155 16.3171V17.3902H38.9424V16.3171H40.0155ZM38.9424 16.3171V17.3902H37.8692V16.3171H38.9424ZM37.8692 18.4634V19.5366H36.796V18.4634H37.8692ZM38.9424 18.4634V19.5366H37.8692V18.4634H38.9424ZM40.0155 18.4634V19.5366H38.9424V18.4634H40.0155ZM41.0887 18.4634V19.5366H40.0155V18.4634H41.0887ZM42.1619 18.4634V19.5366H41.0887V18.4634H42.1619ZM37.8692 24.9024V25.9756H36.796V24.9024H37.8692ZM37.8692 25.9756V27.0488H36.796V25.9756H37.8692ZM37.8692 27.0488V28.122H36.796V27.0488H37.8692ZM37.8692 28.122V29.1951H36.796V28.122H37.8692ZM38.9424 28.122V29.1951H37.8692V28.122H38.9424ZM38.9424 29.1951V30.2683H37.8692V29.1951H38.9424ZM37.8692 29.1951V30.2683H36.796V29.1951H37.8692ZM38.9424 24.9024V25.9756H37.8692V24.9024H38.9424ZM38.9424 25.9756V27.0488H37.8692V25.9756H38.9424ZM38.9424 27.0488V28.122H37.8692V27.0488H38.9424ZM40.0155 27.0488V28.122H38.9424V27.0488H40.0155ZM41.0887 27.0488V28.122H40.0155V27.0488H41.0887ZM41.0887 25.9756V27.0488H40.0155V25.9756H41.0887ZM41.0887 24.9024V25.9756H40.0155V24.9024H41.0887ZM40.0155 24.9024V25.9756H38.9424V24.9024H40.0155ZM40.0155 25.9756V27.0488H38.9424V25.9756H40.0155ZM40.0155 28.122V29.1951H38.9424V28.122H40.0155ZM40.0155 29.1951V30.2683H38.9424V29.1951H40.0155ZM41.0887 29.1951V30.2683H40.0155V29.1951H41.0887ZM41.0887 28.122V29.1951H40.0155V28.122H41.0887ZM51.8393 39.9268V41H50.7661V39.9268H51.8393ZM51.8393 38.8537V39.9268H50.7661V38.8537H51.8393ZM51.8393 37.7805V38.8537H50.7661V37.7805H51.8393ZM51.8393 36.7073V37.7805H50.7661V36.7073H51.8393ZM51.8393 35.6341V36.7073H50.7661V35.6341H51.8393ZM51.8393 34.561V35.6341H50.7661V34.561H51.8393ZM51.8393 33.4878V34.561H50.7661V33.4878H51.8393ZM51.8393 32.4146V33.4878H50.7661V32.4146H51.8393ZM51.8393 31.3415V32.4146H50.7661V31.3415H51.8393ZM51.8393 30.2683V31.3415H50.7661V30.2683H51.8393ZM51.8393 29.1951V30.2683H50.7661V29.1951H51.8393ZM51.8393 28.122V29.1951H50.7661V28.122H51.8393ZM51.8393 27.0488V28.122H50.7661V27.0488H51.8393ZM51.8393 25.9756V27.0488H50.7661V25.9756H51.8393ZM51.8393 24.9024V25.9756H50.7661V24.9024H51.8393ZM52.9124 24.9024V25.9756H51.8393V24.9024H52.9124ZM52.9124 25.9756V27.0488H51.8393V25.9756H52.9124ZM52.9124 27.0488V28.122H51.8393V27.0488H52.9124ZM52.9124 28.122V29.1951H51.8393V28.122H52.9124ZM52.9124 29.1951V30.2683H51.8393V29.1951H52.9124ZM52.9124 30.2683V31.3415H51.8393V30.2683H52.9124ZM52.9124 31.3415V32.4146H51.8393V31.3415H52.9124ZM53.9856 32.4146V33.4878H52.9124V32.4146H53.9856ZM53.9856 33.4878V34.561H52.9124V33.4878H53.9856ZM53.9856 34.561V35.6341H52.9124V34.561H53.9856ZM53.9856 35.6341V36.7073H52.9124V35.6341H53.9856ZM53.9856 36.7073V37.7805H52.9124V36.7073H53.9856ZM53.9856 37.7805V38.8537H52.9124V37.7805H53.9856ZM53.9856 38.8537V39.9268H52.9124V38.8537H53.9856ZM53.9856 39.9268V41H52.9124V39.9268H53.9856ZM55.0588 39.9268V41H53.9856V39.9268H55.0588ZM56.132 39.9268V41H55.0588V39.9268H56.132ZM56.132 38.8537V39.9268H55.0588V38.8537H56.132ZM56.132 37.7805V38.8537H55.0588V37.7805H56.132ZM56.132 36.7073V37.7805H55.0588V36.7073H56.132ZM56.132 35.6341V36.7073H55.0588V35.6341H56.132ZM56.132 34.561V35.6341H55.0588V34.561H56.132ZM56.132 33.4878V34.561H55.0588V33.4878H56.132ZM56.132 32.4146V33.4878H55.0588V32.4146H56.132ZM55.0588 32.4146V33.4878H53.9856V32.4146H55.0588ZM55.0588 31.3415V32.4146H53.9856V31.3415H55.0588ZM55.0588 33.4878V34.561H53.9856V33.4878H55.0588ZM55.0588 34.561V35.6341H53.9856V34.561H55.0588ZM55.0588 35.6341V36.7073H53.9856V35.6341H55.0588ZM55.0588 36.7073V37.7805H53.9856V36.7073H55.0588ZM55.0588 37.7805V38.8537H53.9856V37.7805H55.0588ZM55.0588 38.8537V39.9268H53.9856V38.8537H55.0588ZM52.9124 39.9268V41H51.8393V39.9268H52.9124ZM52.9124 38.8537V39.9268H51.8393V38.8537H52.9124ZM52.9124 37.7805V38.8537H51.8393V37.7805H52.9124ZM52.9124 36.7073V37.7805H51.8393V36.7073H52.9124ZM52.9124 35.6341V36.7073H51.8393V35.6341H52.9124ZM52.9124 34.561V35.6341H51.8393V34.561H52.9124ZM52.9124 33.4878V34.561H51.8393V33.4878H52.9124ZM52.9124 32.4146V33.4878H51.8393V32.4146H52.9124ZM51.8393 14.1707V15.2439H50.7661V14.1707H51.8393ZM51.8393 15.2439V16.3171H50.7661V15.2439H51.8393ZM51.8393 16.3171V17.3902H50.7661V16.3171H51.8393ZM51.8393 17.3902V18.4634H50.7661V17.3902H51.8393ZM51.8393 18.4634V19.5366H50.7661V18.4634H51.8393ZM51.8393 19.5366V20.6098H50.7661V19.5366H51.8393ZM51.8393 20.6098V21.6829H50.7661V20.6098H51.8393ZM51.8393 21.6829V22.7561H50.7661V21.6829H51.8393ZM51.8393 22.7561V23.8293H50.7661V22.7561H51.8393ZM51.8393 23.8293V24.9024H50.7661V23.8293H51.8393ZM55.0588 14.1707V15.2439H53.9856V14.1707H55.0588ZM55.0588 15.2439V16.3171H53.9856V15.2439H55.0588ZM55.0588 16.3171V17.3902H53.9856V16.3171H55.0588ZM55.0588 17.3902V18.4634H53.9856V17.3902H55.0588ZM55.0588 18.4634V19.5366H53.9856V18.4634H55.0588ZM55.0588 19.5366V20.6098H53.9856V19.5366H55.0588ZM55.0588 21.6829V22.7561H53.9856V21.6829H55.0588ZM55.0588 22.7561V23.8293H53.9856V22.7561H55.0588ZM55.0588 23.8293V24.9024H53.9856V23.8293H55.0588ZM55.0588 24.9024V25.9756H53.9856V24.9024H55.0588ZM55.0588 25.9756V27.0488H53.9856V25.9756H55.0588ZM55.0588 27.0488V28.122H53.9856V27.0488H55.0588ZM55.0588 28.122V29.1951H53.9856V28.122H55.0588ZM56.132 29.1951V30.2683H55.0588V29.1951H56.132ZM56.132 30.2683V31.3415H55.0588V30.2683H56.132ZM56.132 31.3415V32.4146H55.0588V31.3415H56.132ZM56.132 28.122V29.1951H55.0588V28.122H56.132ZM56.132 27.0488V28.122H55.0588V27.0488H56.132ZM56.132 25.9756V27.0488H55.0588V25.9756H56.132ZM56.132 24.9024V25.9756H55.0588V24.9024H56.132ZM56.132 23.8293V24.9024H55.0588V23.8293H56.132ZM56.132 22.7561V23.8293H55.0588V22.7561H56.132ZM56.132 21.6829V22.7561H55.0588V21.6829H56.132ZM56.132 20.6098V21.6829H55.0588V20.6098H56.132ZM56.132 19.5366V20.6098H55.0588V19.5366H56.132ZM56.132 18.4634V19.5366H55.0588V18.4634H56.132ZM55.0588 20.6098V21.6829H53.9856V20.6098H55.0588ZM56.132 17.3902V18.4634H55.0588V17.3902H56.132ZM56.132 16.3171V17.3902H55.0588V16.3171H56.132ZM56.132 15.2439V16.3171H55.0588V15.2439H56.132ZM56.132 14.1707V15.2439H55.0588V14.1707H56.132ZM53.9856 14.1707V15.2439H52.9124V14.1707H53.9856ZM52.9124 14.1707V15.2439H51.8393V14.1707H52.9124ZM52.9124 15.2439V16.3171H51.8393V15.2439H52.9124ZM53.9856 15.2439V16.3171H52.9124V15.2439H53.9856ZM53.9856 16.3171V17.3902H52.9124V16.3171H53.9856ZM53.9856 17.3902V18.4634H52.9124V17.3902H53.9856ZM53.9856 18.4634V19.5366H52.9124V18.4634H53.9856ZM53.9856 19.5366V20.6098H52.9124V19.5366H53.9856ZM53.9856 20.6098V21.6829H52.9124V20.6098H53.9856ZM53.9856 21.6829V22.7561H52.9124V21.6829H53.9856ZM52.9124 22.7561V23.8293H51.8393V22.7561H52.9124ZM52.9124 23.8293V24.9024H51.8393V23.8293H52.9124ZM52.9124 21.6829V22.7561H51.8393V21.6829H52.9124ZM52.9124 20.6098V21.6829H51.8393V20.6098H52.9124ZM52.9124 19.5366V20.6098H51.8393V19.5366H52.9124ZM52.9124 18.4634V19.5366H51.8393V18.4634H52.9124ZM52.9124 17.3902V18.4634H51.8393V17.3902H52.9124ZM52.9124 16.3171V17.3902H51.8393V16.3171H52.9124ZM53.9856 22.7561V23.8293H52.9124V22.7561H53.9856ZM53.9856 23.8293V24.9024H52.9124V23.8293H53.9856ZM53.9856 24.9024V25.9756H52.9124V24.9024H53.9856ZM53.9856 25.9756V27.0488H52.9124V25.9756H53.9856ZM53.9856 27.0488V28.122H52.9124V27.0488H53.9856ZM53.9856 28.122V29.1951H52.9124V28.122H53.9856ZM53.9856 29.1951V30.2683H52.9124V29.1951H53.9856ZM53.9856 30.2683V31.3415H52.9124V30.2683H53.9856ZM53.9856 31.3415V32.4146H52.9124V31.3415H53.9856ZM55.0588 30.2683V31.3415H53.9856V30.2683H55.0588ZM55.0588 29.1951V30.2683H53.9856V29.1951H55.0588ZM50.7661 14.1707V15.2439H49.6929V14.1707H50.7661ZM49.6929 14.1707V15.2439H48.6198V14.1707H49.6929ZM48.6198 14.1707V15.2439H47.5466V14.1707H48.6198ZM47.5466 14.1707V15.2439H46.4734V14.1707H47.5466ZM46.4734 14.1707V15.2439H45.4002V14.1707H46.4734ZM46.4734 15.2439V16.3171H45.4002V15.2439H46.4734ZM46.4734 16.3171V17.3902H45.4002V16.3171H46.4734ZM47.5466 15.2439V16.3171H46.4734V15.2439H47.5466ZM48.6198 15.2439V16.3171H47.5466V15.2439H48.6198ZM49.6929 15.2439V16.3171H48.6198V15.2439H49.6929ZM50.7661 16.3171V17.3902H49.6929V16.3171H50.7661ZM50.7661 15.2439V16.3171H49.6929V15.2439H50.7661ZM49.6929 16.3171V17.3902H48.6198V16.3171H49.6929ZM48.6198 16.3171V17.3902H47.5466V16.3171H48.6198ZM47.5466 16.3171V17.3902H46.4734V16.3171H47.5466ZM57.2051 14.1707V15.2439H56.132V14.1707H57.2051ZM58.2783 14.1707V15.2439H57.2051V14.1707H58.2783ZM59.3515 14.1707V15.2439H58.2783V14.1707H59.3515ZM60.4246 14.1707V15.2439H59.3515V14.1707H60.4246ZM61.4978 14.1707V15.2439H60.4246V14.1707H61.4978ZM61.4978 15.2439V16.3171H60.4246V15.2439H61.4978ZM60.4246 15.2439V16.3171H59.3515V15.2439H60.4246ZM59.3515 15.2439V16.3171H58.2783V15.2439H59.3515ZM58.2783 15.2439V16.3171H57.2051V15.2439H58.2783ZM57.2051 15.2439V16.3171H56.132V15.2439H57.2051ZM57.2051 16.3171V17.3902H56.132V16.3171H57.2051ZM58.2783 16.3171V17.3902H57.2051V16.3171H58.2783ZM59.3515 16.3171V17.3902H58.2783V16.3171H59.3515ZM60.4246 16.3171V17.3902H59.3515V16.3171H60.4246ZM61.4978 16.3171V17.3902H60.4246V16.3171H61.4978ZM46.4734 17.3902V18.4634H45.4002V17.3902H46.4734ZM46.4734 18.4634V19.5366H45.4002V18.4634H46.4734ZM47.5466 18.4634V19.5366H46.4734V18.4634H47.5466ZM48.6198 18.4634V19.5366H47.5466V18.4634H48.6198ZM49.6929 18.4634V19.5366H48.6198V18.4634H49.6929ZM50.7661 18.4634V19.5366H49.6929V18.4634H50.7661ZM50.7661 17.3902V18.4634H49.6929V17.3902H50.7661ZM49.6929 17.3902V18.4634H48.6198V17.3902H49.6929ZM48.6198 17.3902V18.4634H47.5466V17.3902H48.6198ZM47.5466 17.3902V18.4634H46.4734V17.3902H47.5466ZM61.4978 17.3902V18.4634H60.4246V17.3902H61.4978ZM61.4978 18.4634V19.5366H60.4246V18.4634H61.4978ZM60.4246 18.4634V19.5366H59.3515V18.4634H60.4246ZM59.3515 18.4634V19.5366H58.2783V18.4634H59.3515ZM58.2783 18.4634V19.5366H57.2051V18.4634H58.2783ZM57.2051 18.4634V19.5366H56.132V18.4634H57.2051ZM57.2051 17.3902V18.4634H56.132V17.3902H57.2051ZM58.2783 17.3902V18.4634H57.2051V17.3902H58.2783ZM59.3515 17.3902V18.4634H58.2783V17.3902H59.3515ZM60.4246 17.3902V18.4634H59.3515V17.3902H60.4246ZM66.8836 35.6341V36.7073H65.8104V35.6341H66.8836ZM66.8836 34.561V35.6341H65.8104V34.561H66.8836ZM66.8836 33.4878V34.561H65.8104V33.4878H66.8836ZM66.8836 32.4146V33.4878H65.8104V32.4146H66.8836ZM66.8836 31.3415V32.4146H65.8104V31.3415H66.8836ZM66.8836 30.2683V31.3415H65.8104V30.2683H66.8836ZM66.8836 29.1951V30.2683H65.8104V29.1951H66.8836ZM66.8836 28.122V29.1951H65.8104V28.122H66.8836ZM66.8836 27.0488V28.122H65.8104V27.0488H66.8836ZM66.8836 25.9756V27.0488H65.8104V25.9756H66.8836ZM66.8836 24.9024V25.9756H65.8104V24.9024H66.8836ZM67.9567 24.9024V25.9756H66.8836V24.9024H67.9567ZM67.9567 25.9756V27.0488H66.8836V25.9756H67.9567ZM67.9567 27.0488V28.122H66.8836V27.0488H67.9567ZM67.9567 28.122V29.1951H66.8836V28.122H67.9567ZM67.9567 29.1951V30.2683H66.8836V29.1951H67.9567ZM67.9567 30.2683V31.3415H66.8836V30.2683H67.9567ZM67.9567 31.3415V32.4146H66.8836V31.3415H67.9567ZM69.0299 32.4146V33.4878H67.9567V32.4146H69.0299ZM69.0299 33.4878V34.561H67.9567V33.4878H69.0299ZM69.0299 34.561V35.6341H67.9567V34.561H69.0299ZM69.0299 35.6341V36.7073H67.9567V35.6341H69.0299ZM69.0299 36.7073V37.7805H67.9567V36.7073H69.0299ZM69.0299 37.7805V38.8537H67.9567V37.7805H69.0299ZM69.0299 38.8537V39.9268H67.9567V38.8537H69.0299ZM71.1763 39.9268V41H70.1031V39.9268H71.1763ZM71.1763 38.8537V39.9268H70.1031V38.8537H71.1763ZM71.1763 37.7805V38.8537H70.1031V37.7805H71.1763ZM71.1763 36.7073V37.7805H70.1031V36.7073H71.1763ZM71.1763 35.6341V36.7073H70.1031V35.6341H71.1763ZM71.1763 34.561V35.6341H70.1031V34.561H71.1763ZM71.1763 33.4878V34.561H70.1031V33.4878H71.1763ZM71.1763 32.4146V33.4878H70.1031V32.4146H71.1763ZM70.1031 32.4146V33.4878H69.0299V32.4146H70.1031ZM70.1031 31.3415V32.4146H69.0299V31.3415H70.1031ZM70.1031 33.4878V34.561H69.0299V33.4878H70.1031ZM70.1031 34.561V35.6341H69.0299V34.561H70.1031ZM70.1031 35.6341V36.7073H69.0299V35.6341H70.1031ZM70.1031 36.7073V37.7805H69.0299V36.7073H70.1031ZM70.1031 37.7805V38.8537H69.0299V37.7805H70.1031ZM70.1031 38.8537V39.9268H69.0299V38.8537H70.1031ZM67.9567 37.7805V38.8537H66.8836V37.7805H67.9567ZM67.9567 36.7073V37.7805H66.8836V36.7073H67.9567ZM67.9567 35.6341V36.7073H66.8836V35.6341H67.9567ZM67.9567 34.561V35.6341H66.8836V34.561H67.9567ZM67.9567 33.4878V34.561H66.8836V33.4878H67.9567ZM67.9567 32.4146V33.4878H66.8836V32.4146H67.9567ZM66.8836 23.8293V24.9024H65.8104V23.8293H66.8836ZM70.1031 23.8293V24.9024H69.0299V23.8293H70.1031ZM70.1031 24.9024V25.9756H69.0299V24.9024H70.1031ZM70.1031 25.9756V27.0488H69.0299V25.9756H70.1031ZM70.1031 27.0488V28.122H69.0299V27.0488H70.1031ZM70.1031 28.122V29.1951H69.0299V28.122H70.1031ZM71.1763 29.1951V30.2683H70.1031V29.1951H71.1763ZM71.1763 30.2683V31.3415H70.1031V30.2683H71.1763ZM71.1763 31.3415V32.4146H70.1031V31.3415H71.1763ZM71.1763 28.122V29.1951H70.1031V28.122H71.1763ZM71.1763 27.0488V28.122H70.1031V27.0488H71.1763ZM71.1763 25.9756V27.0488H70.1031V25.9756H71.1763ZM71.1763 24.9024V25.9756H70.1031V24.9024H71.1763ZM71.1763 23.8293V24.9024H70.1031V23.8293H71.1763ZM67.9567 23.8293V24.9024H66.8836V23.8293H67.9567ZM69.0299 23.8293V24.9024H67.9567V23.8293H69.0299ZM69.0299 24.9024V25.9756H67.9567V24.9024H69.0299ZM69.0299 25.9756V27.0488H67.9567V25.9756H69.0299ZM69.0299 27.0488V28.122H67.9567V27.0488H69.0299ZM69.0299 28.122V29.1951H67.9567V28.122H69.0299ZM69.0299 29.1951V30.2683H67.9567V29.1951H69.0299ZM69.0299 30.2683V31.3415H67.9567V30.2683H69.0299ZM69.0299 31.3415V32.4146H67.9567V31.3415H69.0299ZM70.1031 30.2683V31.3415H69.0299V30.2683H70.1031ZM70.1031 29.1951V30.2683H69.0299V29.1951H70.1031ZM79.7616 39.9268V41H78.6885V39.9268H79.7616ZM79.7616 38.8537V39.9268H78.6885V38.8537H79.7616ZM79.7616 37.7805V38.8537H78.6885V37.7805H79.7616ZM79.7616 36.7073V37.7805H78.6885V36.7073H79.7616ZM79.7616 35.6341V36.7073H78.6885V35.6341H79.7616ZM79.7616 34.561V35.6341H78.6885V34.561H79.7616ZM79.7616 33.4878V34.561H78.6885V33.4878H79.7616ZM79.7616 32.4146V33.4878H78.6885V32.4146H79.7616ZM79.7616 31.3415V32.4146H78.6885V31.3415H79.7616ZM79.7616 30.2683V31.3415H78.6885V30.2683H79.7616ZM79.7616 29.1951V30.2683H78.6885V29.1951H79.7616ZM79.7616 28.122V29.1951H78.6885V28.122H79.7616ZM79.7616 27.0488V28.122H78.6885V27.0488H79.7616ZM79.7616 25.9756V27.0488H78.6885V25.9756H79.7616ZM79.7616 24.9024V25.9756H78.6885V24.9024H79.7616ZM80.8348 24.9024V25.9756H79.7616V24.9024H80.8348ZM80.8348 25.9756V27.0488H79.7616V25.9756H80.8348ZM80.8348 27.0488V28.122H79.7616V27.0488H80.8348ZM80.8348 28.122V29.1951H79.7616V28.122H80.8348ZM80.8348 29.1951V30.2683H79.7616V29.1951H80.8348ZM80.8348 30.2683V31.3415H79.7616V30.2683H80.8348ZM80.8348 31.3415V32.4146H79.7616V31.3415H80.8348ZM81.908 32.4146V33.4878H80.8348V32.4146H81.908ZM81.908 33.4878V34.561H80.8348V33.4878H81.908ZM81.908 34.561V35.6341H80.8348V34.561H81.908ZM81.908 35.6341V36.7073H80.8348V35.6341H81.908ZM81.908 36.7073V37.7805H80.8348V36.7073H81.908ZM81.908 37.7805V38.8537H80.8348V37.7805H81.908ZM81.908 38.8537V39.9268H80.8348V38.8537H81.908ZM84.0543 35.6341V36.7073H82.9811V35.6341H84.0543ZM84.0543 34.561V35.6341H82.9811V34.561H84.0543ZM84.0543 33.4878V34.561H82.9811V33.4878H84.0543ZM84.0543 32.4146V33.4878H82.9811V32.4146H84.0543ZM82.9811 32.4146V33.4878H81.908V32.4146H82.9811ZM82.9811 31.3415V32.4146H81.908V31.3415H82.9811ZM82.9811 33.4878V34.561H81.908V33.4878H82.9811ZM82.9811 34.561V35.6341H81.908V34.561H82.9811ZM82.9811 35.6341V36.7073H81.908V35.6341H82.9811ZM82.9811 36.7073V37.7805H81.908V36.7073H82.9811ZM82.9811 37.7805V38.8537H81.908V37.7805H82.9811ZM80.8348 38.8537V39.9268H79.7616V38.8537H80.8348ZM80.8348 37.7805V38.8537H79.7616V37.7805H80.8348ZM80.8348 36.7073V37.7805H79.7616V36.7073H80.8348ZM80.8348 35.6341V36.7073H79.7616V35.6341H80.8348ZM80.8348 34.561V35.6341H79.7616V34.561H80.8348ZM80.8348 33.4878V34.561H79.7616V33.4878H80.8348ZM80.8348 32.4146V33.4878H79.7616V32.4146H80.8348ZM79.7616 23.8293V24.9024H78.6885V23.8293H79.7616ZM82.9811 23.8293V24.9024H81.908V23.8293H82.9811ZM82.9811 24.9024V25.9756H81.908V24.9024H82.9811ZM82.9811 25.9756V27.0488H81.908V25.9756H82.9811ZM82.9811 27.0488V28.122H81.908V27.0488H82.9811ZM82.9811 28.122V29.1951H81.908V28.122H82.9811ZM84.0543 29.1951V30.2683H82.9811V29.1951H84.0543ZM84.0543 30.2683V31.3415H82.9811V30.2683H84.0543ZM84.0543 31.3415V32.4146H82.9811V31.3415H84.0543ZM84.0543 28.122V29.1951H82.9811V28.122H84.0543ZM84.0543 27.0488V28.122H82.9811V27.0488H84.0543ZM84.0543 25.9756V27.0488H82.9811V25.9756H84.0543ZM84.0543 24.9024V25.9756H82.9811V24.9024H84.0543ZM84.0543 23.8293V24.9024H82.9811V23.8293H84.0543ZM80.8348 23.8293V24.9024H79.7616V23.8293H80.8348ZM81.908 23.8293V24.9024H80.8348V23.8293H81.908ZM81.908 24.9024V25.9756H80.8348V24.9024H81.908ZM81.908 25.9756V27.0488H80.8348V25.9756H81.908ZM81.908 27.0488V28.122H80.8348V27.0488H81.908ZM81.908 28.122V29.1951H80.8348V28.122H81.908ZM81.908 29.1951V30.2683H80.8348V29.1951H81.908ZM81.908 30.2683V31.3415H80.8348V30.2683H81.908ZM81.908 31.3415V32.4146H80.8348V31.3415H81.908ZM82.9811 30.2683V31.3415H81.908V30.2683H82.9811ZM82.9811 29.1951V30.2683H81.908V29.1951H82.9811ZM72.2494 39.9268V41H71.1763V39.9268H72.2494ZM73.3226 39.9268V41H72.2494V39.9268H73.3226ZM74.3958 39.9268V41H73.3226V39.9268H74.3958ZM75.4689 39.9268V41H74.3958V39.9268H75.4689ZM77.6153 39.9268V41H76.5421V39.9268H77.6153ZM78.6885 39.9268V41H77.6153V39.9268H78.6885ZM78.6885 38.8537V39.9268H77.6153V38.8537H78.6885ZM77.6153 38.8537V39.9268H76.5421V38.8537H77.6153ZM75.4689 38.8537V39.9268H74.3958V38.8537H75.4689ZM74.3958 38.8537V39.9268H73.3226V38.8537H74.3958ZM73.3226 38.8537V39.9268H72.2494V38.8537H73.3226ZM72.2494 38.8537V39.9268H71.1763V38.8537H72.2494ZM72.2494 37.7805V38.8537H71.1763V37.7805H72.2494ZM73.3226 37.7805V38.8537H72.2494V37.7805H73.3226ZM74.3958 37.7805V38.8537H73.3226V37.7805H74.3958ZM75.4689 37.7805V38.8537H74.3958V37.7805H75.4689ZM77.6153 37.7805V38.8537H76.5421V37.7805H77.6153ZM78.6885 37.7805V38.8537H77.6153V37.7805H78.6885ZM78.6885 36.7073V37.7805H77.6153V36.7073H78.6885ZM77.6153 36.7073V37.7805H76.5421V36.7073H77.6153ZM75.4689 36.7073V37.7805H74.3958V36.7073H75.4689ZM74.3958 36.7073V37.7805H73.3226V36.7073H74.3958ZM73.3226 36.7073V37.7805H72.2494V36.7073H73.3226ZM72.2494 36.7073V37.7805H71.1763V36.7073H72.2494ZM72.2494 35.6341V36.7073H71.1763V35.6341H72.2494ZM78.6885 35.6341V36.7073H77.6153V35.6341H78.6885ZM82.9811 19.5366V18.4634H84.0543V19.5366H82.9811ZM82.9811 20.6098V19.5366H84.0543V20.6098H82.9811ZM82.9811 21.6829V20.6098H84.0543V21.6829H82.9811ZM80.8348 21.6829V20.6098H81.908V21.6829H80.8348ZM80.8348 20.6098V19.5366H81.908V20.6098H80.8348ZM80.8348 19.5366V18.4634H81.908V19.5366H80.8348ZM80.8348 18.4634V17.3902H81.908V18.4634H80.8348ZM80.8348 17.3902V16.3171H81.908V17.3902H80.8348ZM80.8348 16.3171V15.2439H81.908V16.3171H80.8348ZM78.6885 15.2439V14.1707H79.7616V15.2439H78.6885ZM78.6885 16.3171V15.2439H79.7616V16.3171H78.6885ZM78.6885 17.3902V16.3171H79.7616V17.3902H78.6885ZM78.6885 18.4634V17.3902H79.7616V18.4634H78.6885ZM78.6885 19.5366V18.4634H79.7616V19.5366H78.6885ZM78.6885 20.6098V19.5366H79.7616V20.6098H78.6885ZM78.6885 21.6829V20.6098H79.7616V21.6829H78.6885ZM79.7616 21.6829V20.6098H80.8348V21.6829H79.7616ZM79.7616 20.6098V19.5366H80.8348V20.6098H79.7616ZM79.7616 19.5366V18.4634H80.8348V19.5366H79.7616ZM79.7616 18.4634V17.3902H80.8348V18.4634H79.7616ZM79.7616 17.3902V16.3171H80.8348V17.3902H79.7616ZM79.7616 16.3171V15.2439H80.8348V16.3171H79.7616ZM81.908 17.3902V16.3171H82.9811V17.3902H81.908ZM81.908 18.4634V17.3902H82.9811V18.4634H81.908ZM81.908 19.5366V18.4634H82.9811V19.5366H81.908ZM81.908 20.6098V19.5366H82.9811V20.6098H81.908ZM81.908 21.6829V20.6098H82.9811V21.6829H81.908ZM70.1031 15.2439V14.1707H71.1763V15.2439H70.1031ZM70.1031 16.3171V15.2439H71.1763V16.3171H70.1031ZM70.1031 17.3902V16.3171H71.1763V17.3902H70.1031ZM70.1031 18.4634V17.3902H71.1763V18.4634H70.1031ZM70.1031 19.5366V18.4634H71.1763V19.5366H70.1031ZM70.1031 20.6098V19.5366H71.1763V20.6098H70.1031ZM70.1031 21.6829V20.6098H71.1763V21.6829H70.1031ZM67.9567 21.6829V20.6098H69.0299V21.6829H67.9567ZM67.9567 20.6098V19.5366H69.0299V20.6098H67.9567ZM67.9567 19.5366V18.4634H69.0299V19.5366H67.9567ZM67.9567 18.4634V17.3902H69.0299V18.4634H67.9567ZM67.9567 17.3902V16.3171H69.0299V17.3902H67.9567ZM67.9567 16.3171V15.2439H69.0299V16.3171H67.9567ZM65.8104 19.5366V18.4634H66.8836V19.5366H65.8104ZM65.8104 20.6098V19.5366H66.8836V20.6098H65.8104ZM65.8104 21.6829V20.6098H66.8836V21.6829H65.8104ZM66.8836 21.6829V20.6098H67.9567V21.6829H66.8836ZM66.8836 20.6098V19.5366H67.9567V20.6098H66.8836ZM66.8836 19.5366V18.4634H67.9567V19.5366H66.8836ZM66.8836 18.4634V17.3902H67.9567V18.4634H66.8836ZM66.8836 17.3902V16.3171H67.9567V17.3902H66.8836ZM69.0299 16.3171V15.2439H70.1031V16.3171H69.0299ZM69.0299 17.3902V16.3171H70.1031V17.3902H69.0299ZM69.0299 18.4634V17.3902H70.1031V18.4634H69.0299ZM69.0299 19.5366V18.4634H70.1031V19.5366H69.0299ZM69.0299 20.6098V19.5366H70.1031V20.6098H69.0299ZM69.0299 21.6829V20.6098H70.1031V21.6829H69.0299ZM77.6153 15.2439V14.1707H78.6885V15.2439H77.6153ZM76.5421 15.2439V14.1707H77.6153V15.2439H76.5421ZM74.3958 15.2439V14.1707H75.4689V15.2439H74.3958ZM73.3226 15.2439V14.1707H74.3958V15.2439H73.3226ZM72.2494 15.2439V14.1707H73.3226V15.2439H72.2494ZM71.1763 15.2439V14.1707H72.2494V15.2439H71.1763ZM71.1763 16.3171V15.2439H72.2494V16.3171H71.1763ZM72.2494 16.3171V15.2439H73.3226V16.3171H72.2494ZM73.3226 16.3171V15.2439H74.3958V16.3171H73.3226ZM74.3958 16.3171V15.2439H75.4689V16.3171H74.3958ZM76.5421 16.3171V15.2439H77.6153V16.3171H76.5421ZM77.6153 16.3171V15.2439H78.6885V16.3171H77.6153ZM77.6153 17.3902V16.3171H78.6885V17.3902H77.6153ZM76.5421 17.3902V16.3171H77.6153V17.3902H76.5421ZM74.3958 17.3902V16.3171H75.4689V17.3902H74.3958ZM73.3226 17.3902V16.3171H74.3958V17.3902H73.3226ZM72.2494 17.3902V16.3171H73.3226V17.3902H72.2494ZM71.1763 17.3902V16.3171H72.2494V17.3902H71.1763ZM71.1763 18.4634V17.3902H72.2494V18.4634H71.1763ZM72.2494 18.4634V17.3902H73.3226V18.4634H72.2494ZM73.3226 18.4634V17.3902H74.3958V18.4634H73.3226ZM74.3958 18.4634V17.3902H75.4689V18.4634H74.3958ZM76.5421 18.4634V17.3902H77.6153V18.4634H76.5421ZM77.6153 18.4634V17.3902H78.6885V18.4634H77.6153ZM77.6153 19.5366V18.4634H78.6885V19.5366H77.6153ZM71.1763 19.5366V18.4634H72.2494V19.5366H71.1763ZM66.8836 22.7561V23.8293H65.8104V22.7561H66.8836ZM67.9567 22.7561V23.8293H66.8836V22.7561H67.9567ZM66.8836 21.6829V22.7561H65.8104V21.6829H66.8836ZM70.1031 21.6829V22.7561H69.0299V21.6829H70.1031ZM70.1031 22.7561V23.8293H69.0299V22.7561H70.1031ZM71.1763 22.7561V23.8293H70.1031V22.7561H71.1763ZM71.1763 21.6829V22.7561H70.1031V21.6829H71.1763ZM67.9567 21.6829V22.7561H66.8836V21.6829H67.9567ZM69.0299 21.6829V22.7561H67.9567V21.6829H69.0299ZM69.0299 22.7561V23.8293H67.9567V22.7561H69.0299ZM79.7616 22.7561V23.8293H78.6885V22.7561H79.7616ZM80.8348 22.7561V23.8293H79.7616V22.7561H80.8348ZM79.7616 21.6829V22.7561H78.6885V21.6829H79.7616ZM82.9811 21.6829V22.7561H81.908V21.6829H82.9811ZM82.9811 22.7561V23.8293H81.908V22.7561H82.9811ZM84.0543 22.7561V23.8293H82.9811V22.7561H84.0543ZM84.0543 21.6829V22.7561H82.9811V21.6829H84.0543ZM80.8348 21.6829V22.7561H79.7616V21.6829H80.8348ZM81.908 21.6829V22.7561H80.8348V21.6829H81.908ZM81.908 22.7561V23.8293H80.8348V22.7561H81.908ZM73.3226 35.6341V36.7073H72.2494V35.6341H73.3226ZM74.3958 35.6341V36.7073H73.3226V35.6341H74.3958ZM75.4689 35.6341V36.7073H74.3958V35.6341H75.4689ZM77.6153 35.6341V36.7073H76.5421V35.6341H77.6153ZM78.6885 34.561V35.6341H77.6153V34.561H78.6885ZM72.2494 34.561V35.6341H71.1763V34.561H72.2494ZM73.3226 18.4634V19.5366H72.2494V18.4634H73.3226ZM74.3958 18.4634V19.5366H73.3226V18.4634H74.3958ZM75.4689 18.4634V19.5366H74.3958V18.4634H75.4689ZM77.6153 18.4634V19.5366H76.5421V18.4634H77.6153ZM78.6885 19.5366V20.6098H77.6153V19.5366H78.6885ZM72.2494 19.5366V20.6098H71.1763V19.5366H72.2494ZM76.5421 14.1707V15.2439H75.4689V14.1707H76.5421ZM76.5421 15.2439V16.3171H75.4689V15.2439H76.5421ZM76.5421 16.3171V17.3902H75.4689V16.3171H76.5421ZM76.5421 17.3902V18.4634H75.4689V17.3902H76.5421ZM76.5421 18.4634V19.5366H75.4689V18.4634H76.5421ZM76.5421 35.6341V36.7073H75.4689V35.6341H76.5421ZM76.5421 36.7073V37.7805H75.4689V36.7073H76.5421ZM76.5421 37.7805V38.8537H75.4689V37.7805H76.5421ZM76.5421 38.8537V39.9268H75.4689V38.8537H76.5421ZM76.5421 39.9268V41H75.4689V39.9268H76.5421ZM100.141 39.9268V41H99.0682V39.9268H100.141ZM100.141 38.8537V39.9268H99.0682V38.8537H100.141ZM100.141 37.7805V38.8537H99.0682V37.7805H100.141ZM100.141 36.7073V37.7805H99.0682V36.7073H100.141ZM100.141 35.6341V36.7073H99.0682V35.6341H100.141ZM100.141 34.561V35.6341H99.0682V34.561H100.141ZM100.141 33.4878V34.561H99.0682V33.4878H100.141ZM100.141 32.4146V33.4878H99.0682V32.4146H100.141ZM100.141 31.3415V32.4146H99.0682V31.3415H100.141ZM100.141 30.2683V31.3415H99.0682V30.2683H100.141ZM100.141 29.1951V30.2683H99.0682V29.1951H100.141ZM100.141 28.122V29.1951H99.0682V28.122H100.141ZM100.141 27.0488V28.122H99.0682V27.0488H100.141ZM100.141 25.9756V27.0488H99.0682V25.9756H100.141ZM100.141 24.9024V25.9756H99.0682V24.9024H100.141ZM101.215 24.9024V25.9756H100.141V24.9024H101.215ZM101.215 25.9756V27.0488H100.141V25.9756H101.215ZM101.215 27.0488V28.122H100.141V27.0488H101.215ZM101.215 28.122V29.1951H100.141V28.122H101.215ZM101.215 29.1951V30.2683H100.141V29.1951H101.215ZM101.215 30.2683V31.3415H100.141V30.2683H101.215ZM101.215 31.3415V32.4146H100.141V31.3415H101.215ZM102.288 32.4146V33.4878H101.215V32.4146H102.288ZM102.288 33.4878V34.561H101.215V33.4878H102.288ZM102.288 34.561V35.6341H101.215V34.561H102.288ZM102.288 35.6341V36.7073H101.215V35.6341H102.288ZM102.288 36.7073V37.7805H101.215V36.7073H102.288ZM102.288 37.7805V38.8537H101.215V37.7805H102.288ZM102.288 38.8537V39.9268H101.215V38.8537H102.288ZM102.288 39.9268V41H101.215V39.9268H102.288ZM103.361 39.9268V41H102.288V39.9268H103.361ZM104.434 39.9268V41H103.361V39.9268H104.434ZM104.434 38.8537V39.9268H103.361V38.8537H104.434ZM104.434 37.7805V38.8537H103.361V37.7805H104.434ZM104.434 36.7073V37.7805H103.361V36.7073H104.434ZM104.434 35.6341V36.7073H103.361V35.6341H104.434ZM104.434 34.561V35.6341H103.361V34.561H104.434ZM104.434 33.4878V34.561H103.361V33.4878H104.434ZM104.434 32.4146V33.4878H103.361V32.4146H104.434ZM103.361 32.4146V33.4878H102.288V32.4146H103.361ZM103.361 31.3415V32.4146H102.288V31.3415H103.361ZM103.361 33.4878V34.561H102.288V33.4878H103.361ZM103.361 34.561V35.6341H102.288V34.561H103.361ZM103.361 35.6341V36.7073H102.288V35.6341H103.361ZM103.361 36.7073V37.7805H102.288V36.7073H103.361ZM103.361 37.7805V38.8537H102.288V37.7805H103.361ZM103.361 38.8537V39.9268H102.288V38.8537H103.361ZM101.215 39.9268V41H100.141V39.9268H101.215ZM101.215 38.8537V39.9268H100.141V38.8537H101.215ZM101.215 37.7805V38.8537H100.141V37.7805H101.215ZM101.215 36.7073V37.7805H100.141V36.7073H101.215ZM101.215 35.6341V36.7073H100.141V35.6341H101.215ZM101.215 34.561V35.6341H100.141V34.561H101.215ZM101.215 33.4878V34.561H100.141V33.4878H101.215ZM101.215 32.4146V33.4878H100.141V32.4146H101.215ZM100.141 21.6829V22.7561H99.0682V21.6829H100.141ZM100.141 22.7561V23.8293H99.0682V22.7561H100.141ZM100.141 23.8293V24.9024H99.0682V23.8293H100.141ZM103.361 19.5366V20.6098H102.288V19.5366H103.361ZM103.361 21.6829V22.7561H102.288V21.6829H103.361ZM103.361 22.7561V23.8293H102.288V22.7561H103.361ZM103.361 23.8293V24.9024H102.288V23.8293H103.361ZM103.361 24.9024V25.9756H102.288V24.9024H103.361ZM103.361 25.9756V27.0488H102.288V25.9756H103.361ZM103.361 27.0488V28.122H102.288V27.0488H103.361ZM103.361 28.122V29.1951H102.288V28.122H103.361ZM104.434 29.1951V30.2683H103.361V29.1951H104.434ZM104.434 30.2683V31.3415H103.361V30.2683H104.434ZM104.434 31.3415V32.4146H103.361V31.3415H104.434ZM104.434 28.122V29.1951H103.361V28.122H104.434ZM104.434 27.0488V28.122H103.361V27.0488H104.434ZM104.434 25.9756V27.0488H103.361V25.9756H104.434ZM104.434 24.9024V25.9756H103.361V24.9024H104.434ZM104.434 23.8293V24.9024H103.361V23.8293H104.434ZM104.434 22.7561V23.8293H103.361V22.7561H104.434ZM104.434 21.6829V22.7561H103.361V21.6829H104.434ZM104.434 20.6098V21.6829H103.361V20.6098H104.434ZM104.434 19.5366V20.6098H103.361V19.5366H104.434ZM104.434 18.4634V19.5366H103.361V18.4634H104.434ZM103.361 20.6098V21.6829H102.288V20.6098H103.361ZM104.434 17.3902V18.4634H103.361V17.3902H104.434ZM104.434 16.3171V17.3902H103.361V16.3171H104.434ZM102.288 19.5366V20.6098H101.215V19.5366H102.288ZM102.288 20.6098V21.6829H101.215V20.6098H102.288ZM102.288 21.6829V22.7561H101.215V21.6829H102.288ZM101.215 22.7561V23.8293H100.141V22.7561H101.215ZM101.215 23.8293V24.9024H100.141V23.8293H101.215ZM101.215 21.6829V22.7561H100.141V21.6829H101.215ZM101.215 20.6098V21.6829H100.141V20.6098H101.215ZM102.288 22.7561V23.8293H101.215V22.7561H102.288ZM102.288 23.8293V24.9024H101.215V23.8293H102.288ZM102.288 24.9024V25.9756H101.215V24.9024H102.288ZM102.288 25.9756V27.0488H101.215V25.9756H102.288ZM102.288 27.0488V28.122H101.215V27.0488H102.288ZM102.288 28.122V29.1951H101.215V28.122H102.288ZM102.288 29.1951V30.2683H101.215V29.1951H102.288ZM102.288 30.2683V31.3415H101.215V30.2683H102.288ZM102.288 31.3415V32.4146H101.215V31.3415H102.288ZM103.361 30.2683V31.3415H102.288V30.2683H103.361ZM103.361 29.1951V30.2683H102.288V29.1951H103.361ZM111.946 39.9268V41H110.873V39.9268H111.946ZM111.946 38.8537V39.9268H110.873V38.8537H111.946ZM111.946 37.7805V38.8537H110.873V37.7805H111.946ZM111.946 36.7073V37.7805H110.873V36.7073H111.946ZM111.946 35.6341V36.7073H110.873V35.6341H111.946ZM111.946 34.561V35.6341H110.873V34.561H111.946ZM111.946 33.4878V34.561H110.873V33.4878H111.946ZM111.946 32.4146V33.4878H110.873V32.4146H111.946ZM111.946 31.3415V32.4146H110.873V31.3415H111.946ZM111.946 30.2683V31.3415H110.873V30.2683H111.946ZM111.946 29.1951V30.2683H110.873V29.1951H111.946ZM111.946 28.122V29.1951H110.873V28.122H111.946ZM111.946 27.0488V28.122H110.873V27.0488H111.946ZM111.946 25.9756V27.0488H110.873V25.9756H111.946ZM111.946 24.9024V25.9756H110.873V24.9024H111.946ZM113.019 24.9024V25.9756H111.946V24.9024H113.019ZM113.019 25.9756V27.0488H111.946V25.9756H113.019ZM113.019 27.0488V28.122H111.946V27.0488H113.019ZM113.019 28.122V29.1951H111.946V28.122H113.019ZM113.019 29.1951V30.2683H111.946V29.1951H113.019ZM113.019 30.2683V31.3415H111.946V30.2683H113.019ZM113.019 31.3415V32.4146H111.946V31.3415H113.019ZM114.093 32.4146V33.4878H113.019V32.4146H114.093ZM114.093 33.4878V34.561H113.019V33.4878H114.093ZM114.093 34.561V35.6341H113.019V34.561H114.093ZM114.093 35.6341V36.7073H113.019V35.6341H114.093ZM114.093 36.7073V37.7805H113.019V36.7073H114.093ZM114.093 37.7805V38.8537H113.019V37.7805H114.093ZM114.093 38.8537V39.9268H113.019V38.8537H114.093ZM114.093 39.9268V41H113.019V39.9268H114.093ZM115.166 39.9268V41H114.093V39.9268H115.166ZM116.239 39.9268V41H115.166V39.9268H116.239ZM116.239 38.8537V39.9268H115.166V38.8537H116.239ZM116.239 37.7805V38.8537H115.166V37.7805H116.239ZM116.239 36.7073V37.7805H115.166V36.7073H116.239ZM116.239 35.6341V36.7073H115.166V35.6341H116.239ZM116.239 34.561V35.6341H115.166V34.561H116.239ZM116.239 33.4878V34.561H115.166V33.4878H116.239ZM116.239 32.4146V33.4878H115.166V32.4146H116.239ZM115.166 32.4146V33.4878H114.093V32.4146H115.166ZM115.166 31.3415V32.4146H114.093V31.3415H115.166ZM115.166 33.4878V34.561H114.093V33.4878H115.166ZM115.166 34.561V35.6341H114.093V34.561H115.166ZM115.166 35.6341V36.7073H114.093V35.6341H115.166ZM115.166 36.7073V37.7805H114.093V36.7073H115.166ZM115.166 37.7805V38.8537H114.093V37.7805H115.166ZM115.166 38.8537V39.9268H114.093V38.8537H115.166ZM113.019 39.9268V41H111.946V39.9268H113.019ZM113.019 38.8537V39.9268H111.946V38.8537H113.019ZM113.019 37.7805V38.8537H111.946V37.7805H113.019ZM113.019 36.7073V37.7805H111.946V36.7073H113.019ZM113.019 35.6341V36.7073H111.946V35.6341H113.019ZM113.019 34.561V35.6341H111.946V34.561H113.019ZM113.019 33.4878V34.561H111.946V33.4878H113.019ZM113.019 32.4146V33.4878H111.946V32.4146H113.019ZM111.946 16.3171V17.3902H110.873V16.3171H111.946ZM111.946 17.3902V18.4634H110.873V17.3902H111.946ZM111.946 18.4634V19.5366H110.873V18.4634H111.946ZM111.946 19.5366V20.6098H110.873V19.5366H111.946ZM111.946 20.6098V21.6829H110.873V20.6098H111.946ZM111.946 21.6829V22.7561H110.873V21.6829H111.946ZM111.946 22.7561V23.8293H110.873V22.7561H111.946ZM111.946 23.8293V24.9024H110.873V23.8293H111.946ZM115.166 19.5366V20.6098H114.093V19.5366H115.166ZM115.166 21.6829V22.7561H114.093V21.6829H115.166ZM115.166 22.7561V23.8293H114.093V22.7561H115.166ZM115.166 23.8293V24.9024H114.093V23.8293H115.166ZM115.166 24.9024V25.9756H114.093V24.9024H115.166ZM115.166 25.9756V27.0488H114.093V25.9756H115.166ZM115.166 27.0488V28.122H114.093V27.0488H115.166ZM115.166 28.122V29.1951H114.093V28.122H115.166ZM116.239 29.1951V30.2683H115.166V29.1951H116.239ZM116.239 30.2683V31.3415H115.166V30.2683H116.239ZM116.239 31.3415V32.4146H115.166V31.3415H116.239ZM116.239 28.122V29.1951H115.166V28.122H116.239ZM116.239 27.0488V28.122H115.166V27.0488H116.239ZM116.239 25.9756V27.0488H115.166V25.9756H116.239ZM116.239 24.9024V25.9756H115.166V24.9024H116.239ZM116.239 23.8293V24.9024H115.166V23.8293H116.239ZM116.239 22.7561V23.8293H115.166V22.7561H116.239ZM116.239 21.6829V22.7561H115.166V21.6829H116.239ZM116.239 20.6098V21.6829H115.166V20.6098H116.239ZM115.166 20.6098V21.6829H114.093V20.6098H115.166ZM114.093 18.4634V19.5366H113.019V18.4634H114.093ZM114.093 19.5366V20.6098H113.019V19.5366H114.093ZM114.093 20.6098V21.6829H113.019V20.6098H114.093ZM114.093 21.6829V22.7561H113.019V21.6829H114.093ZM113.019 22.7561V23.8293H111.946V22.7561H113.019ZM113.019 23.8293V24.9024H111.946V23.8293H113.019ZM113.019 21.6829V22.7561H111.946V21.6829H113.019ZM113.019 20.6098V21.6829H111.946V20.6098H113.019ZM113.019 19.5366V20.6098H111.946V19.5366H113.019ZM113.019 18.4634V19.5366H111.946V18.4634H113.019ZM113.019 17.3902V18.4634H111.946V17.3902H113.019ZM114.093 22.7561V23.8293H113.019V22.7561H114.093ZM114.093 23.8293V24.9024H113.019V23.8293H114.093ZM114.093 24.9024V25.9756H113.019V24.9024H114.093ZM114.093 25.9756V27.0488H113.019V25.9756H114.093ZM114.093 27.0488V28.122H113.019V27.0488H114.093ZM114.093 28.122V29.1951H113.019V28.122H114.093ZM114.093 29.1951V30.2683H113.019V29.1951H114.093ZM114.093 30.2683V31.3415H113.019V30.2683H114.093ZM114.093 31.3415V32.4146H113.019V31.3415H114.093ZM115.166 30.2683V31.3415H114.093V30.2683H115.166ZM115.166 29.1951V30.2683H114.093V29.1951H115.166ZM106.58 14.1707V15.2439H105.507V14.1707H106.58ZM107.654 14.1707V15.2439H106.58V14.1707H107.654ZM108.727 14.1707V15.2439H107.654V14.1707H108.727ZM109.8 14.1707V15.2439H108.727V14.1707H109.8ZM110.873 15.2439V16.3171H109.8V15.2439H110.873ZM109.8 15.2439V16.3171H108.727V15.2439H109.8ZM108.727 15.2439V16.3171H107.654V15.2439H108.727ZM107.654 15.2439V16.3171H106.58V15.2439H107.654ZM106.58 15.2439V16.3171H105.507V15.2439H106.58ZM105.507 15.2439V16.3171H104.434V15.2439H105.507ZM105.507 16.3171V17.3902H104.434V16.3171H105.507ZM105.507 17.3902V18.4634H104.434V17.3902H105.507ZM106.58 16.3171V17.3902H105.507V16.3171H106.58ZM107.654 16.3171V17.3902H106.58V16.3171H107.654ZM108.727 16.3171V17.3902H107.654V16.3171H108.727ZM109.8 16.3171V17.3902H108.727V16.3171H109.8ZM110.873 16.3171V17.3902H109.8V16.3171H110.873ZM110.873 17.3902V18.4634H109.8V17.3902H110.873ZM109.8 17.3902V18.4634H108.727V17.3902H109.8ZM108.727 17.3902V18.4634H107.654V17.3902H108.727ZM107.654 17.3902V18.4634H106.58V17.3902H107.654ZM106.58 17.3902V18.4634H105.507V17.3902H106.58ZM105.507 18.4634V19.5366H104.434V18.4634H105.507ZM106.58 18.4634V19.5366H105.507V18.4634H106.58ZM110.873 18.4634V19.5366H109.8V18.4634H110.873ZM109.8 18.4634V19.5366H108.727V18.4634H109.8ZM110.873 19.5366V20.6098H109.8V19.5366H110.873ZM105.507 19.5366V20.6098H104.434V19.5366H105.507ZM103.361 17.3902V18.4634H102.288V17.3902H103.361ZM103.361 18.4634V19.5366H102.288V18.4634H103.361ZM102.288 18.4634V19.5366H101.215V18.4634H102.288ZM101.215 19.5366V20.6098H100.141V19.5366H101.215ZM100.141 20.6098V21.6829H99.0682V20.6098H100.141ZM105.507 20.6098V21.6829H104.434V20.6098H105.507ZM106.58 19.5366V20.6098H105.507V19.5366H106.58ZM107.654 18.4634V19.5366H106.58V18.4634H107.654ZM108.727 18.4634V19.5366H107.654V18.4634H108.727ZM109.8 19.5366V20.6098H108.727V19.5366H109.8ZM110.873 20.6098V21.6829H109.8V20.6098H110.873ZM105.507 33.4878V34.561H104.434V33.4878H105.507ZM106.58 33.4878V34.561H105.507V33.4878H106.58ZM107.654 33.4878V34.561H106.58V33.4878H107.654ZM108.727 33.4878V34.561H107.654V33.4878H108.727ZM109.8 33.4878V34.561H108.727V33.4878H109.8ZM110.873 33.4878V34.561H109.8V33.4878H110.873ZM110.873 32.4146V33.4878H109.8V32.4146H110.873ZM109.8 32.4146V33.4878H108.727V32.4146H109.8ZM108.727 32.4146V33.4878H107.654V32.4146H108.727ZM107.654 32.4146V33.4878H106.58V32.4146H107.654ZM106.58 32.4146V33.4878H105.507V32.4146H106.58ZM105.507 32.4146V33.4878H104.434V32.4146H105.507ZM105.507 31.3415V32.4146H104.434V31.3415H105.507ZM106.58 31.3415V32.4146H105.507V31.3415H106.58ZM107.654 31.3415V32.4146H106.58V31.3415H107.654ZM108.727 31.3415V32.4146H107.654V31.3415H108.727ZM109.8 31.3415V32.4146H108.727V31.3415H109.8ZM110.873 31.3415V32.4146H109.8V31.3415H110.873ZM110.873 30.2683V31.3415H109.8V30.2683H110.873ZM109.8 30.2683V31.3415H108.727V30.2683H109.8ZM108.727 30.2683V31.3415H107.654V30.2683H108.727ZM107.654 30.2683V31.3415H106.58V30.2683H107.654ZM106.58 30.2683V31.3415H105.507V30.2683H106.58ZM105.507 30.2683V31.3415H104.434V30.2683H105.507ZM105.507 29.1951V30.2683H104.434V29.1951H105.507ZM106.58 29.1951V30.2683H105.507V29.1951H106.58ZM107.654 29.1951V30.2683H106.58V29.1951H107.654ZM108.727 29.1951V30.2683H107.654V29.1951H108.727ZM109.8 29.1951V30.2683H108.727V29.1951H109.8ZM110.873 29.1951V30.2683H109.8V29.1951H110.873ZM107.654 19.5366V20.6098H106.58V19.5366H107.654ZM108.727 19.5366V20.6098H107.654V19.5366H108.727ZM106.58 20.6098V21.6829H105.507V20.6098H106.58ZM105.507 21.6829V22.7561H104.434V21.6829H105.507ZM109.8 20.6098V21.6829H108.727V20.6098H109.8ZM110.873 21.6829V22.7561H109.8V21.6829H110.873ZM132.357 27.0488V28.122H131.284V27.0488H132.357ZM133.431 27.0488V28.122H132.357V27.0488H133.431ZM134.504 27.0488V28.122H133.431V27.0488H134.504ZM135.577 27.0488V28.122H134.504V27.0488H135.577ZM136.65 27.0488V28.122H135.577V27.0488H136.65ZM136.65 25.9756V27.0488H135.577V25.9756H136.65ZM136.65 24.9024V25.9756H135.577V24.9024H136.65ZM135.577 24.9024V25.9756H134.504V24.9024H135.577ZM134.504 24.9024V25.9756H133.431V24.9024H134.504ZM133.431 24.9024V25.9756H132.357V24.9024H133.431ZM133.431 25.9756V27.0488H132.357V25.9756H133.431ZM132.357 25.9756V27.0488H131.284V25.9756H132.357ZM134.504 25.9756V27.0488H133.431V25.9756H134.504ZM135.577 25.9756V27.0488H134.504V25.9756H135.577ZM132.357 24.9024V25.9756H131.284V24.9024H132.357ZM131.284 24.9024V25.9756H130.211V24.9024H131.284ZM131.284 23.8293V24.9024H130.211V23.8293H131.284ZM132.357 23.8293V24.9024H131.284V23.8293H132.357ZM133.431 23.8293V24.9024H132.357V23.8293H133.431ZM134.504 23.8293V24.9024H133.431V23.8293H134.504ZM135.577 23.8293V24.9024H134.504V23.8293H135.577ZM135.577 22.7561V23.8293H134.504V22.7561H135.577ZM134.504 22.7561V23.8293H133.431V22.7561H134.504ZM133.431 22.7561V23.8293H132.357V22.7561H133.431ZM132.357 22.7561V23.8293H131.284V22.7561H132.357ZM131.284 22.7561V23.8293H130.211V22.7561H131.284ZM133.431 21.6829V22.7561H132.357V21.6829H133.431ZM134.504 21.6829V22.7561H133.431V21.6829H134.504ZM132.357 21.6829V22.7561H131.284V21.6829H132.357ZM132.357 20.6098V21.6829H131.284V20.6098H132.357ZM131.284 20.6098V21.6829H130.211V20.6098H131.284ZM131.284 21.6829V22.7561H130.211V21.6829H131.284ZM130.211 21.6829V22.7561H129.138V21.6829H130.211ZM130.211 20.6098V21.6829H129.138V20.6098H130.211ZM130.211 22.7561V23.8293H129.138V22.7561H130.211ZM129.138 22.7561V23.8293H128.065V22.7561H129.138ZM129.138 23.8293V24.9024H128.065V23.8293H129.138ZM130.211 23.8293V24.9024H129.138V23.8293H130.211ZM128.065 23.8293V24.9024H126.992V23.8293H128.065ZM128.065 22.7561V23.8293H126.992V22.7561H128.065ZM128.065 21.6829V22.7561H126.992V21.6829H128.065ZM128.065 20.6098V21.6829H126.992V20.6098H128.065ZM129.138 20.6098V21.6829H128.065V20.6098H129.138ZM129.138 21.6829V22.7561H128.065V21.6829H129.138ZM126.992 20.6098V21.6829H125.918V20.6098H126.992ZM125.918 20.6098V21.6829H124.845V20.6098H125.918ZM124.845 20.6098V21.6829H123.772V20.6098H124.845ZM124.845 21.6829V22.7561H123.772V21.6829H124.845ZM124.845 22.7561V23.8293H123.772V22.7561H124.845ZM124.845 23.8293V24.9024H123.772V23.8293H124.845ZM125.918 23.8293V24.9024H124.845V23.8293H125.918ZM126.992 23.8293V24.9024H125.918V23.8293H126.992ZM126.992 22.7561V23.8293H125.918V22.7561H126.992ZM126.992 21.6829V22.7561H125.918V21.6829H126.992ZM125.918 21.6829V22.7561H124.845V21.6829H125.918ZM125.918 22.7561V23.8293H124.845V22.7561H125.918ZM123.772 22.7561V23.8293H122.699V22.7561H123.772ZM123.772 21.6829V22.7561H122.699V21.6829H123.772ZM122.699 21.6829V22.7561H121.626V21.6829H122.699ZM122.699 22.7561V23.8293H121.626V22.7561H122.699ZM121.626 22.7561V23.8293H120.553V22.7561H121.626ZM121.626 23.8293V24.9024H120.553V23.8293H121.626ZM121.626 24.9024V25.9756H120.553V24.9024H121.626ZM122.699 24.9024V25.9756H121.626V24.9024H122.699ZM122.699 23.8293V24.9024H121.626V23.8293H122.699ZM123.772 23.8293V24.9024H122.699V23.8293H123.772ZM123.772 24.9024V25.9756H122.699V24.9024H123.772ZM124.845 24.9024V25.9756H123.772V24.9024H124.845ZM125.918 24.9024V25.9756H124.845V24.9024H125.918ZM120.553 24.9024V25.9756H119.479V24.9024H120.553ZM120.553 25.9756V27.0488H119.479V25.9756H120.553ZM120.553 27.0488V28.122H119.479V27.0488H120.553ZM120.553 28.122V29.1951H119.479V28.122H120.553ZM120.553 29.1951V30.2683H119.479V29.1951H120.553ZM120.553 30.2683V31.3415H119.479V30.2683H120.553ZM120.553 31.3415V32.4146H119.479V31.3415H120.553ZM120.553 32.4146V33.4878H119.479V32.4146H120.553ZM120.553 33.4878V34.561H119.479V33.4878H120.553ZM120.553 34.561V35.6341H119.479V34.561H120.553ZM121.626 34.561V35.6341H120.553V34.561H121.626ZM121.626 35.6341V36.7073H120.553V35.6341H121.626ZM120.553 35.6341V36.7073H119.479V35.6341H120.553ZM122.699 35.6341V36.7073H121.626V35.6341H122.699ZM123.772 35.6341V36.7073H122.699V35.6341H123.772ZM124.845 35.6341V36.7073H123.772V35.6341H124.845ZM125.918 35.6341V36.7073H124.845V35.6341H125.918ZM124.845 34.561V35.6341H123.772V34.561H124.845ZM124.845 33.4878V34.561H123.772V33.4878H124.845ZM124.845 32.4146V33.4878H123.772V32.4146H124.845ZM124.845 31.3415V32.4146H123.772V31.3415H124.845ZM124.845 30.2683V31.3415H123.772V30.2683H124.845ZM124.845 29.1951V30.2683H123.772V29.1951H124.845ZM124.845 28.122V29.1951H123.772V28.122H124.845ZM124.845 27.0488V28.122H123.772V27.0488H124.845ZM124.845 25.9756V27.0488H123.772V25.9756H124.845ZM123.772 25.9756V27.0488H122.699V25.9756H123.772ZM122.699 25.9756V27.0488H121.626V25.9756H122.699ZM121.626 25.9756V27.0488H120.553V25.9756H121.626ZM121.626 27.0488V28.122H120.553V27.0488H121.626ZM121.626 28.122V29.1951H120.553V28.122H121.626ZM121.626 29.1951V30.2683H120.553V29.1951H121.626ZM121.626 30.2683V31.3415H120.553V30.2683H121.626ZM121.626 31.3415V32.4146H120.553V31.3415H121.626ZM121.626 32.4146V33.4878H120.553V32.4146H121.626ZM121.626 33.4878V34.561H120.553V33.4878H121.626ZM122.699 34.561V35.6341H121.626V34.561H122.699ZM123.772 34.561V35.6341H122.699V34.561H123.772ZM123.772 33.4878V34.561H122.699V33.4878H123.772ZM123.772 32.4146V33.4878H122.699V32.4146H123.772ZM123.772 31.3415V32.4146H122.699V31.3415H123.772ZM123.772 30.2683V31.3415H122.699V30.2683H123.772ZM122.699 30.2683V31.3415H121.626V30.2683H122.699ZM122.699 29.1951V30.2683H121.626V29.1951H122.699ZM122.699 28.122V29.1951H121.626V28.122H122.699ZM122.699 27.0488V28.122H121.626V27.0488H122.699ZM123.772 27.0488V28.122H122.699V27.0488H123.772ZM123.772 28.122V29.1951H122.699V28.122H123.772ZM123.772 29.1951V30.2683H122.699V29.1951H123.772ZM122.699 32.4146V33.4878H121.626V32.4146H122.699ZM122.699 33.4878V34.561H121.626V33.4878H122.699ZM122.699 31.3415V32.4146H121.626V31.3415H122.699ZM132.357 33.4878V34.561H131.284V33.4878H132.357ZM132.357 34.561V35.6341H131.284V34.561H132.357ZM133.431 34.561V35.6341H132.357V34.561H133.431ZM134.504 34.561V35.6341H133.431V34.561H134.504ZM135.577 34.561V35.6341H134.504V34.561H135.577ZM136.65 34.561V35.6341H135.577V34.561H136.65ZM136.65 33.4878V34.561H135.577V33.4878H136.65ZM135.577 33.4878V34.561H134.504V33.4878H135.577ZM134.504 33.4878V34.561H133.431V33.4878H134.504ZM133.431 33.4878V34.561H132.357V33.4878H133.431ZM136.65 35.6341V36.7073H135.577V35.6341H136.65ZM135.577 35.6341V36.7073H134.504V35.6341H135.577ZM134.504 35.6341V36.7073H133.431V35.6341H134.504ZM133.431 35.6341V36.7073H132.357V35.6341H133.431ZM132.357 35.6341V36.7073H131.284V35.6341H132.357ZM131.284 35.6341V36.7073H130.211V35.6341H131.284ZM131.284 36.7073V37.7805H130.211V36.7073H131.284ZM132.357 36.7073V37.7805H131.284V36.7073H132.357ZM133.431 36.7073V37.7805H132.357V36.7073H133.431ZM134.504 36.7073V37.7805H133.431V36.7073H134.504ZM134.504 37.7805V38.8537H133.431V37.7805H134.504ZM135.577 37.7805V38.8537H134.504V37.7805H135.577ZM135.577 36.7073V37.7805H134.504V36.7073H135.577ZM134.504 38.8537V39.9268H133.431V38.8537H134.504ZM133.431 38.8537V39.9268H132.357V38.8537H133.431ZM133.431 37.7805V38.8537H132.357V37.7805H133.431ZM132.357 37.7805V38.8537H131.284V37.7805H132.357ZM132.357 38.8537V39.9268H131.284V38.8537H132.357ZM132.357 39.9268V41H131.284V39.9268H132.357ZM131.284 39.9268V41H130.211V39.9268H131.284ZM130.211 39.9268V41H129.138V39.9268H130.211ZM129.138 39.9268V41H128.065V39.9268H129.138ZM128.065 39.9268V41H126.992V39.9268H128.065ZM126.992 39.9268V41H125.918V39.9268H126.992ZM125.918 39.9268V41H124.845V39.9268H125.918ZM124.845 39.9268V41H123.772V39.9268H124.845ZM125.918 38.8537V39.9268H124.845V38.8537H125.918ZM126.992 38.8537V39.9268H125.918V38.8537H126.992ZM128.065 38.8537V39.9268H126.992V38.8537H128.065ZM129.138 38.8537V39.9268H128.065V38.8537H129.138ZM130.211 38.8537V39.9268H129.138V38.8537H130.211ZM131.284 38.8537V39.9268H130.211V38.8537H131.284ZM131.284 37.7805V38.8537H130.211V37.7805H131.284ZM130.211 37.7805V38.8537H129.138V37.7805H130.211ZM129.138 37.7805V38.8537H128.065V37.7805H129.138ZM128.065 37.7805V38.8537H126.992V37.7805H128.065ZM126.992 37.7805V38.8537H125.918V37.7805H126.992ZM125.918 37.7805V38.8537H124.845V37.7805H125.918ZM124.845 38.8537V39.9268H123.772V38.8537H124.845ZM123.772 38.8537V39.9268H122.699V38.8537H123.772ZM122.699 38.8537V39.9268H121.626V38.8537H122.699ZM122.699 37.7805V38.8537H121.626V37.7805H122.699ZM121.626 37.7805V38.8537H120.553V37.7805H121.626ZM121.626 36.7073V37.7805H120.553V36.7073H121.626ZM122.699 36.7073V37.7805H121.626V36.7073H122.699ZM123.772 36.7073V37.7805H122.699V36.7073H123.772ZM124.845 36.7073V37.7805H123.772V36.7073H124.845ZM125.918 36.7073V37.7805H124.845V36.7073H125.918ZM126.992 36.7073V37.7805H125.918V36.7073H126.992ZM128.065 36.7073V37.7805H126.992V36.7073H128.065ZM129.138 36.7073V37.7805H128.065V36.7073H129.138ZM130.211 36.7073V37.7805H129.138V36.7073H130.211ZM124.845 37.7805V38.8537H123.772V37.7805H124.845ZM123.772 37.7805V38.8537H122.699V37.7805H123.772ZM151.693 27.0488V28.122H150.62V27.0488H151.693ZM152.767 27.0488V28.122H151.693V27.0488H152.767ZM153.84 27.0488V28.122H152.767V27.0488H153.84ZM154.913 27.0488V28.122H153.84V27.0488H154.913ZM155.986 27.0488V28.122H154.913V27.0488H155.986ZM155.986 25.9756V27.0488H154.913V25.9756H155.986ZM155.986 24.9024V25.9756H154.913V24.9024H155.986ZM154.913 24.9024V25.9756H153.84V24.9024H154.913ZM153.84 24.9024V25.9756H152.767V24.9024H153.84ZM152.767 24.9024V25.9756H151.693V24.9024H152.767ZM152.767 25.9756V27.0488H151.693V25.9756H152.767ZM151.693 25.9756V27.0488H150.62V25.9756H151.693ZM153.84 25.9756V27.0488H152.767V25.9756H153.84ZM154.913 25.9756V27.0488H153.84V25.9756H154.913ZM151.693 24.9024V25.9756H150.62V24.9024H151.693ZM150.62 24.9024V25.9756H149.547V24.9024H150.62ZM150.62 23.8293V24.9024H149.547V23.8293H150.62ZM151.693 23.8293V24.9024H150.62V23.8293H151.693ZM152.767 23.8293V24.9024H151.693V23.8293H152.767ZM153.84 23.8293V24.9024H152.767V23.8293H153.84ZM154.913 23.8293V24.9024H153.84V23.8293H154.913ZM154.913 22.7561V23.8293H153.84V22.7561H154.913ZM153.84 22.7561V23.8293H152.767V22.7561H153.84ZM152.767 22.7561V23.8293H151.693V22.7561H152.767ZM151.693 22.7561V23.8293H150.62V22.7561H151.693ZM150.62 22.7561V23.8293H149.547V22.7561H150.62ZM152.767 21.6829V22.7561H151.693V21.6829H152.767ZM153.84 21.6829V22.7561H152.767V21.6829H153.84ZM151.693 21.6829V22.7561H150.62V21.6829H151.693ZM151.693 20.6098V21.6829H150.62V20.6098H151.693ZM150.62 20.6098V21.6829H149.547V20.6098H150.62ZM150.62 21.6829V22.7561H149.547V21.6829H150.62ZM149.547 21.6829V22.7561H148.474V21.6829H149.547ZM149.547 20.6098V21.6829H148.474V20.6098H149.547ZM149.547 22.7561V23.8293H148.474V22.7561H149.547ZM148.474 22.7561V23.8293H147.401V22.7561H148.474ZM148.474 23.8293V24.9024H147.401V23.8293H148.474ZM149.547 23.8293V24.9024H148.474V23.8293H149.547ZM147.401 23.8293V24.9024H146.328V23.8293H147.401ZM147.401 22.7561V23.8293H146.328V22.7561H147.401ZM147.401 21.6829V22.7561H146.328V21.6829H147.401ZM147.401 20.6098V21.6829H146.328V20.6098H147.401ZM148.474 20.6098V21.6829H147.401V20.6098H148.474ZM148.474 21.6829V22.7561H147.401V21.6829H148.474ZM146.328 20.6098V21.6829H145.254V20.6098H146.328ZM145.254 20.6098V21.6829H144.181V20.6098H145.254ZM144.181 20.6098V21.6829H143.108V20.6098H144.181ZM144.181 21.6829V22.7561H143.108V21.6829H144.181ZM144.181 22.7561V23.8293H143.108V22.7561H144.181ZM144.181 23.8293V24.9024H143.108V23.8293H144.181ZM145.254 23.8293V24.9024H144.181V23.8293H145.254ZM146.328 23.8293V24.9024H145.254V23.8293H146.328ZM146.328 22.7561V23.8293H145.254V22.7561H146.328ZM146.328 21.6829V22.7561H145.254V21.6829H146.328ZM145.254 21.6829V22.7561H144.181V21.6829H145.254ZM145.254 22.7561V23.8293H144.181V22.7561H145.254ZM143.108 22.7561V23.8293H142.035V22.7561H143.108ZM143.108 21.6829V22.7561H142.035V21.6829H143.108ZM142.035 21.6829V22.7561H140.962V21.6829H142.035ZM142.035 22.7561V23.8293H140.962V22.7561H142.035ZM140.962 22.7561V23.8293H139.889V22.7561H140.962ZM140.962 23.8293V24.9024H139.889V23.8293H140.962ZM140.962 24.9024V25.9756H139.889V24.9024H140.962ZM142.035 24.9024V25.9756H140.962V24.9024H142.035ZM142.035 23.8293V24.9024H140.962V23.8293H142.035ZM143.108 23.8293V24.9024H142.035V23.8293H143.108ZM143.108 24.9024V25.9756H142.035V24.9024H143.108ZM144.181 24.9024V25.9756H143.108V24.9024H144.181ZM145.254 24.9024V25.9756H144.181V24.9024H145.254ZM139.889 24.9024V25.9756H138.815V24.9024H139.889ZM139.889 25.9756V27.0488H138.815V25.9756H139.889ZM139.889 27.0488V28.122H138.815V27.0488H139.889ZM139.889 28.122V29.1951H138.815V28.122H139.889ZM139.889 29.1951V30.2683H138.815V29.1951H139.889ZM139.889 30.2683V31.3415H138.815V30.2683H139.889ZM139.889 31.3415V32.4146H138.815V31.3415H139.889ZM139.889 32.4146V33.4878H138.815V32.4146H139.889ZM139.889 33.4878V34.561H138.815V33.4878H139.889ZM139.889 34.561V35.6341H138.815V34.561H139.889ZM140.962 34.561V35.6341H139.889V34.561H140.962ZM140.962 35.6341V36.7073H139.889V35.6341H140.962ZM139.889 35.6341V36.7073H138.815V35.6341H139.889ZM142.035 35.6341V36.7073H140.962V35.6341H142.035ZM143.108 35.6341V36.7073H142.035V35.6341H143.108ZM144.181 35.6341V36.7073H143.108V35.6341H144.181ZM145.254 35.6341V36.7073H144.181V35.6341H145.254ZM144.181 34.561V35.6341H143.108V34.561H144.181ZM144.181 33.4878V34.561H143.108V33.4878H144.181ZM144.181 32.4146V33.4878H143.108V32.4146H144.181ZM144.181 31.3415V32.4146H143.108V31.3415H144.181ZM144.181 30.2683V31.3415H143.108V30.2683H144.181ZM144.181 29.1951V30.2683H143.108V29.1951H144.181ZM144.181 28.122V29.1951H143.108V28.122H144.181ZM144.181 27.0488V28.122H143.108V27.0488H144.181ZM144.181 25.9756V27.0488H143.108V25.9756H144.181ZM143.108 25.9756V27.0488H142.035V25.9756H143.108ZM142.035 25.9756V27.0488H140.962V25.9756H142.035ZM140.962 25.9756V27.0488H139.889V25.9756H140.962ZM140.962 27.0488V28.122H139.889V27.0488H140.962ZM140.962 28.122V29.1951H139.889V28.122H140.962ZM140.962 29.1951V30.2683H139.889V29.1951H140.962ZM140.962 30.2683V31.3415H139.889V30.2683H140.962ZM140.962 31.3415V32.4146H139.889V31.3415H140.962ZM140.962 32.4146V33.4878H139.889V32.4146H140.962ZM140.962 33.4878V34.561H139.889V33.4878H140.962ZM142.035 34.561V35.6341H140.962V34.561H142.035ZM143.108 34.561V35.6341H142.035V34.561H143.108ZM143.108 33.4878V34.561H142.035V33.4878H143.108ZM143.108 32.4146V33.4878H142.035V32.4146H143.108ZM143.108 31.3415V32.4146H142.035V31.3415H143.108ZM143.108 30.2683V31.3415H142.035V30.2683H143.108ZM142.035 30.2683V31.3415H140.962V30.2683H142.035ZM142.035 29.1951V30.2683H140.962V29.1951H142.035ZM142.035 28.122V29.1951H140.962V28.122H142.035ZM142.035 27.0488V28.122H140.962V27.0488H142.035ZM143.108 27.0488V28.122H142.035V27.0488H143.108ZM143.108 28.122V29.1951H142.035V28.122H143.108ZM143.108 29.1951V30.2683H142.035V29.1951H143.108ZM142.035 32.4146V33.4878H140.962V32.4146H142.035ZM142.035 33.4878V34.561H140.962V33.4878H142.035ZM142.035 31.3415V32.4146H140.962V31.3415H142.035ZM151.693 34.561V35.6341H150.62V34.561H151.693ZM152.767 34.561V35.6341H151.693V34.561H152.767ZM153.84 34.561V35.6341H152.767V34.561H153.84ZM154.913 34.561V35.6341H153.84V34.561H154.913ZM155.986 34.561V35.6341H154.913V34.561H155.986ZM155.986 35.6341V36.7073H154.913V35.6341H155.986ZM154.913 35.6341V36.7073H153.84V35.6341H154.913ZM153.84 35.6341V36.7073H152.767V35.6341H153.84ZM152.767 35.6341V36.7073H151.693V35.6341H152.767ZM151.693 35.6341V36.7073H150.62V35.6341H151.693ZM150.62 35.6341V36.7073H149.547V35.6341H150.62ZM150.62 36.7073V37.7805H149.547V36.7073H150.62ZM151.693 36.7073V37.7805H150.62V36.7073H151.693ZM152.767 36.7073V37.7805H151.693V36.7073H152.767ZM153.84 36.7073V37.7805H152.767V36.7073H153.84ZM153.84 37.7805V38.8537H152.767V37.7805H153.84ZM154.913 37.7805V38.8537H153.84V37.7805H154.913ZM154.913 36.7073V37.7805H153.84V36.7073H154.913ZM153.84 38.8537V39.9268H152.767V38.8537H153.84ZM152.767 38.8537V39.9268H151.693V38.8537H152.767ZM152.767 37.7805V38.8537H151.693V37.7805H152.767ZM151.693 37.7805V38.8537H150.62V37.7805H151.693ZM151.693 38.8537V39.9268H150.62V38.8537H151.693ZM151.693 39.9268V41H150.62V39.9268H151.693ZM150.62 39.9268V41H149.547V39.9268H150.62ZM149.547 39.9268V41H148.474V39.9268H149.547ZM148.474 39.9268V41H147.401V39.9268H148.474ZM147.401 39.9268V41H146.328V39.9268H147.401ZM146.328 39.9268V41H145.254V39.9268H146.328ZM145.254 39.9268V41H144.181V39.9268H145.254ZM144.181 39.9268V41H143.108V39.9268H144.181ZM145.254 38.8537V39.9268H144.181V38.8537H145.254ZM146.328 38.8537V39.9268H145.254V38.8537H146.328ZM147.401 38.8537V39.9268H146.328V38.8537H147.401ZM148.474 38.8537V39.9268H147.401V38.8537H148.474ZM149.547 38.8537V39.9268H148.474V38.8537H149.547ZM150.62 38.8537V39.9268H149.547V38.8537H150.62ZM150.62 37.7805V38.8537H149.547V37.7805H150.62ZM149.547 37.7805V38.8537H148.474V37.7805H149.547ZM148.474 37.7805V38.8537H147.401V37.7805H148.474ZM147.401 37.7805V38.8537H146.328V37.7805H147.401ZM146.328 37.7805V38.8537H145.254V37.7805H146.328ZM145.254 37.7805V38.8537H144.181V37.7805H145.254ZM144.181 38.8537V39.9268H143.108V38.8537H144.181ZM143.108 38.8537V39.9268H142.035V38.8537H143.108ZM142.035 38.8537V39.9268H140.962V38.8537H142.035ZM142.035 37.7805V38.8537H140.962V37.7805H142.035ZM140.962 37.7805V38.8537H139.889V37.7805H140.962ZM140.962 36.7073V37.7805H139.889V36.7073H140.962ZM142.035 36.7073V37.7805H140.962V36.7073H142.035ZM143.108 36.7073V37.7805H142.035V36.7073H143.108ZM144.181 36.7073V37.7805H143.108V36.7073H144.181ZM145.254 36.7073V37.7805H144.181V36.7073H145.254ZM146.328 36.7073V37.7805H145.254V36.7073H146.328ZM147.401 36.7073V37.7805H146.328V36.7073H147.401ZM148.474 36.7073V37.7805H147.401V36.7073H148.474ZM149.547 36.7073V37.7805H148.474V36.7073H149.547ZM144.181 37.7805V38.8537H143.108V37.7805H144.181ZM143.108 37.7805V38.8537H142.035V37.7805H143.108ZM155.986 28.122V29.1951H154.913V28.122H155.986ZM154.913 28.122V29.1951H153.84V28.122H154.913ZM153.84 28.122V29.1951H152.767V28.122H153.84ZM152.767 28.122V29.1951H151.693V28.122H152.767ZM151.693 28.122V29.1951H150.62V28.122H151.693ZM155.986 29.1951V30.2683H154.913V29.1951H155.986ZM153.84 29.1951V30.2683H152.767V29.1951H153.84ZM152.767 29.1951V30.2683H151.693V29.1951H152.767ZM150.62 29.1951V30.2683H149.547V29.1951H150.62ZM149.547 29.1951V30.2683H148.474V29.1951H149.547ZM148.474 29.1951V30.2683H147.401V29.1951H148.474ZM147.401 29.1951V30.2683H146.328V29.1951H147.401ZM146.328 29.1951V30.2683H145.254V29.1951H146.328ZM145.254 29.1951V30.2683H144.181V29.1951H145.254ZM151.693 29.1951V30.2683H150.62V29.1951H151.693ZM154.913 29.1951V30.2683H153.84V29.1951H154.913ZM155.986 30.2683V31.3415H154.913V30.2683H155.986ZM154.913 30.2683V31.3415H153.84V30.2683H154.913ZM153.84 30.2683V31.3415H152.767V30.2683H153.84ZM152.767 30.2683V31.3415H151.693V30.2683H152.767ZM151.693 30.2683V31.3415H150.62V30.2683H151.693ZM150.62 30.2683V31.3415H149.547V30.2683H150.62ZM149.547 30.2683V31.3415H148.474V30.2683H149.547ZM148.474 30.2683V31.3415H147.401V30.2683H148.474ZM147.401 30.2683V31.3415H146.328V30.2683H147.401ZM146.328 30.2683V31.3415H145.254V30.2683H146.328ZM145.254 30.2683V31.3415H144.181V30.2683H145.254ZM145.254 31.3415V32.4146H144.181V31.3415H145.254ZM146.328 31.3415V32.4146H145.254V31.3415H146.328ZM147.401 31.3415V32.4146H146.328V31.3415H147.401ZM149.547 31.3415V32.4146H148.474V31.3415H149.547ZM150.62 31.3415V32.4146H149.547V31.3415H150.62ZM151.693 31.3415V32.4146H150.62V31.3415H151.693ZM152.767 31.3415V32.4146H151.693V31.3415H152.767ZM153.84 31.3415V32.4146H152.767V31.3415H153.84ZM154.913 31.3415V32.4146H153.84V31.3415H154.913ZM155.986 31.3415V32.4146H154.913V31.3415H155.986ZM148.474 31.3415V32.4146H147.401V31.3415H148.474ZM174.249 24.9024V25.9756H173.176V24.9024H174.249ZM173.176 24.9024V25.9756H172.103V24.9024H173.176ZM172.103 24.9024V25.9756H171.029V24.9024H172.103ZM171.029 24.9024V25.9756H169.956V24.9024H171.029ZM169.956 23.8293V24.9024H168.883V23.8293H169.956ZM171.029 23.8293V24.9024H169.956V23.8293H171.029ZM172.103 23.8293V24.9024H171.029V23.8293H172.103ZM173.176 23.8293V24.9024H172.103V23.8293H173.176ZM174.249 23.8293V24.9024H173.176V23.8293H174.249ZM174.249 22.7561V23.8293H173.176V22.7561H174.249ZM173.176 22.7561V23.8293H172.103V22.7561H173.176ZM172.103 22.7561V23.8293H171.029V22.7561H172.103ZM171.029 22.7561V23.8293H169.956V22.7561H171.029ZM169.956 22.7561V23.8293H168.883V22.7561H169.956ZM172.103 21.6829V22.7561H171.029V21.6829H172.103ZM173.176 21.6829V22.7561H172.103V21.6829H173.176ZM171.029 21.6829V22.7561H169.956V21.6829H171.029ZM171.029 20.6098V21.6829H169.956V20.6098H171.029ZM169.956 20.6098V21.6829H168.883V20.6098H169.956ZM169.956 21.6829V22.7561H168.883V21.6829H169.956ZM168.883 21.6829V22.7561H167.81V21.6829H168.883ZM168.883 20.6098V21.6829H167.81V20.6098H168.883ZM168.883 22.7561V23.8293H167.81V22.7561H168.883ZM167.81 22.7561V23.8293H166.737V22.7561H167.81ZM167.81 23.8293V24.9024H166.737V23.8293H167.81ZM168.883 23.8293V24.9024H167.81V23.8293H168.883ZM166.737 23.8293V24.9024H165.663V23.8293H166.737ZM166.737 22.7561V23.8293H165.663V22.7561H166.737ZM166.737 21.6829V22.7561H165.663V21.6829H166.737ZM166.737 20.6098V21.6829H165.663V20.6098H166.737ZM167.81 20.6098V21.6829H166.737V20.6098H167.81ZM167.81 21.6829V22.7561H166.737V21.6829H167.81ZM165.663 20.6098V21.6829H164.59V20.6098H165.663ZM164.59 20.6098V21.6829H163.517V20.6098H164.59ZM163.517 20.6098V21.6829H162.444V20.6098H163.517ZM163.517 21.6829V22.7561H162.444V21.6829H163.517ZM163.517 22.7561V23.8293H162.444V22.7561H163.517ZM163.517 23.8293V24.9024H162.444V23.8293H163.517ZM164.59 23.8293V24.9024H163.517V23.8293H164.59ZM165.663 23.8293V24.9024H164.59V23.8293H165.663ZM165.663 22.7561V23.8293H164.59V22.7561H165.663ZM165.663 21.6829V22.7561H164.59V21.6829H165.663ZM164.59 21.6829V22.7561H163.517V21.6829H164.59ZM164.59 22.7561V23.8293H163.517V22.7561H164.59ZM162.444 22.7561V23.8293H161.371V22.7561H162.444ZM162.444 21.6829V22.7561H161.371V21.6829H162.444ZM161.371 21.6829V22.7561H160.298V21.6829H161.371ZM161.371 22.7561V23.8293H160.298V22.7561H161.371ZM160.298 22.7561V23.8293H159.224V22.7561H160.298ZM160.298 23.8293V24.9024H159.224V23.8293H160.298ZM160.298 24.9024V25.9756H159.224V24.9024H160.298ZM161.371 24.9024V25.9756H160.298V24.9024H161.371ZM161.371 23.8293V24.9024H160.298V23.8293H161.371ZM162.444 23.8293V24.9024H161.371V23.8293H162.444ZM162.444 24.9024V25.9756H161.371V24.9024H162.444ZM163.517 24.9024V25.9756H162.444V24.9024H163.517ZM164.59 24.9024V25.9756H163.517V24.9024H164.59ZM159.224 24.9024V25.9756H158.151V24.9024H159.224ZM159.224 25.9756V27.0488H158.151V25.9756H159.224ZM159.224 27.0488V28.122H158.151V27.0488H159.224ZM159.224 34.561V35.6341H158.151V34.561H159.224ZM160.298 34.561V35.6341H159.224V34.561H160.298ZM160.298 35.6341V36.7073H159.224V35.6341H160.298ZM159.224 35.6341V36.7073H158.151V35.6341H159.224ZM161.371 35.6341V36.7073H160.298V35.6341H161.371ZM162.444 35.6341V36.7073H161.371V35.6341H162.444ZM163.517 35.6341V36.7073H162.444V35.6341H163.517ZM164.59 35.6341V36.7073H163.517V35.6341H164.59ZM163.517 34.561V35.6341H162.444V34.561H163.517ZM163.517 27.0488V28.122H162.444V27.0488H163.517ZM163.517 25.9756V27.0488H162.444V25.9756H163.517ZM162.444 25.9756V27.0488H161.371V25.9756H162.444ZM161.371 25.9756V27.0488H160.298V25.9756H161.371ZM160.298 25.9756V27.0488H159.224V25.9756H160.298ZM160.298 27.0488V28.122H159.224V27.0488H160.298ZM161.371 34.561V35.6341H160.298V34.561H161.371ZM162.444 34.561V35.6341H161.371V34.561H162.444ZM161.371 27.0488V28.122H160.298V27.0488H161.371ZM162.444 27.0488V28.122H161.371V27.0488H162.444ZM171.029 33.4878V34.561H169.956V33.4878H171.029ZM171.029 34.561V35.6341H169.956V34.561H171.029ZM172.103 34.561V35.6341H171.029V34.561H172.103ZM173.176 34.561V35.6341H172.103V34.561H173.176ZM174.249 34.561V35.6341H173.176V34.561H174.249ZM175.322 34.561V35.6341H174.249V34.561H175.322ZM175.322 33.4878V34.561H174.249V33.4878H175.322ZM174.249 33.4878V34.561H173.176V33.4878H174.249ZM173.176 33.4878V34.561H172.103V33.4878H173.176ZM172.103 33.4878V34.561H171.029V33.4878H172.103ZM175.322 35.6341V36.7073H174.249V35.6341H175.322ZM174.249 35.6341V36.7073H173.176V35.6341H174.249ZM173.176 35.6341V36.7073H172.103V35.6341H173.176ZM172.103 35.6341V36.7073H171.029V35.6341H172.103ZM171.029 35.6341V36.7073H169.956V35.6341H171.029ZM169.956 35.6341V36.7073H168.883V35.6341H169.956ZM169.956 36.7073V37.7805H168.883V36.7073H169.956ZM171.029 36.7073V37.7805H169.956V36.7073H171.029ZM172.103 36.7073V37.7805H171.029V36.7073H172.103ZM173.176 36.7073V37.7805H172.103V36.7073H173.176ZM173.176 37.7805V38.8537H172.103V37.7805H173.176ZM174.249 37.7805V38.8537H173.176V37.7805H174.249ZM174.249 36.7073V37.7805H173.176V36.7073H174.249ZM173.176 38.8537V39.9268H172.103V38.8537H173.176ZM172.103 38.8537V39.9268H171.029V38.8537H172.103ZM172.103 37.7805V38.8537H171.029V37.7805H172.103ZM171.029 37.7805V38.8537H169.956V37.7805H171.029ZM171.029 38.8537V39.9268H169.956V38.8537H171.029ZM171.029 39.9268V41H169.956V39.9268H171.029ZM169.956 39.9268V41H168.883V39.9268H169.956ZM168.883 39.9268V41H167.81V39.9268H168.883ZM167.81 39.9268V41H166.737V39.9268H167.81ZM166.737 39.9268V41H165.663V39.9268H166.737ZM165.663 39.9268V41H164.59V39.9268H165.663ZM164.59 39.9268V41H163.517V39.9268H164.59ZM163.517 39.9268V41H162.444V39.9268H163.517ZM164.59 38.8537V39.9268H163.517V38.8537H164.59ZM165.663 38.8537V39.9268H164.59V38.8537H165.663ZM166.737 38.8537V39.9268H165.663V38.8537H166.737ZM167.81 38.8537V39.9268H166.737V38.8537H167.81ZM168.883 38.8537V39.9268H167.81V38.8537H168.883ZM169.956 38.8537V39.9268H168.883V38.8537H169.956ZM169.956 37.7805V38.8537H168.883V37.7805H169.956ZM168.883 37.7805V38.8537H167.81V37.7805H168.883ZM167.81 37.7805V38.8537H166.737V37.7805H167.81ZM166.737 37.7805V38.8537H165.663V37.7805H166.737ZM165.663 37.7805V38.8537H164.59V37.7805H165.663ZM164.59 37.7805V38.8537H163.517V37.7805H164.59ZM163.517 38.8537V39.9268H162.444V38.8537H163.517ZM162.444 38.8537V39.9268H161.371V38.8537H162.444ZM161.371 38.8537V39.9268H160.298V38.8537H161.371ZM161.371 37.7805V38.8537H160.298V37.7805H161.371ZM160.298 37.7805V38.8537H159.224V37.7805H160.298ZM160.298 36.7073V37.7805H159.224V36.7073H160.298ZM161.371 36.7073V37.7805H160.298V36.7073H161.371ZM162.444 36.7073V37.7805H161.371V36.7073H162.444ZM163.517 36.7073V37.7805H162.444V36.7073H163.517ZM164.59 36.7073V37.7805H163.517V36.7073H164.59ZM165.663 36.7073V37.7805H164.59V36.7073H165.663ZM166.737 36.7073V37.7805H165.663V36.7073H166.737ZM167.81 36.7073V37.7805H166.737V36.7073H167.81ZM168.883 36.7073V37.7805H167.81V36.7073H168.883ZM163.517 37.7805V38.8537H162.444V37.7805H163.517ZM162.444 37.7805V38.8537H161.371V37.7805H162.444ZM173.176 31.3415V32.4146H172.103V31.3415H173.176ZM175.322 32.4146V33.4878H174.249V32.4146H175.322ZM174.249 32.4146V33.4878H173.176V32.4146H174.249ZM173.176 32.4146V33.4878H172.103V32.4146H173.176ZM172.103 32.4146V33.4878H171.029V32.4146H172.103ZM172.103 31.3415V32.4146H171.029V31.3415H172.103ZM171.029 31.3415V32.4146H169.956V31.3415H171.029ZM171.029 32.4146V33.4878H169.956V32.4146H171.029ZM164.59 27.0488V28.122H163.517V27.0488H164.59ZM160.298 28.122V29.1951H159.224V28.122H160.298ZM160.298 29.1951V30.2683H159.224V29.1951H160.298ZM161.371 29.1951V30.2683H160.298V29.1951H161.371ZM161.371 30.2683V31.3415H160.298V30.2683H161.371ZM162.444 30.2683V31.3415H161.371V30.2683H162.444ZM163.517 31.3415V32.4146H162.444V31.3415H163.517ZM163.517 30.2683V31.3415H162.444V30.2683H163.517ZM163.517 29.1951V30.2683H162.444V29.1951H163.517ZM163.517 28.122V29.1951H162.444V28.122H163.517ZM162.444 28.122V29.1951H161.371V28.122H162.444ZM162.444 29.1951V30.2683H161.371V29.1951H162.444ZM161.371 28.122V29.1951H160.298V28.122H161.371ZM164.59 31.3415V32.4146H163.517V31.3415H164.59ZM165.663 31.3415V32.4146H164.59V31.3415H165.663ZM166.737 31.3415V32.4146H165.663V31.3415H166.737ZM167.81 31.3415V32.4146H166.737V31.3415H167.81ZM167.81 30.2683V31.3415H166.737V30.2683H167.81ZM166.737 30.2683V31.3415H165.663V30.2683H166.737ZM165.663 30.2683V31.3415H164.59V30.2683H165.663ZM164.59 30.2683V31.3415H163.517V30.2683H164.59ZM164.59 29.1951V30.2683H163.517V29.1951H164.59ZM164.59 28.122V29.1951H163.517V28.122H164.59ZM165.663 28.122V29.1951H164.59V28.122H165.663ZM166.737 28.122V29.1951H165.663V28.122H166.737ZM167.81 28.122V29.1951H166.737V28.122H167.81ZM167.81 29.1951V30.2683H166.737V29.1951H167.81ZM166.737 29.1951V30.2683H165.663V29.1951H166.737ZM165.663 29.1951V30.2683H164.59V29.1951H165.663ZM168.883 28.122V29.1951H167.81V28.122H168.883ZM169.956 28.122V29.1951H168.883V28.122H169.956ZM169.956 29.1951V30.2683H168.883V29.1951H169.956ZM169.956 30.2683V31.3415H168.883V30.2683H169.956ZM169.956 31.3415V32.4146H168.883V31.3415H169.956ZM168.883 31.3415V32.4146H167.81V31.3415H168.883ZM168.883 30.2683V31.3415H167.81V30.2683H168.883ZM168.883 29.1951V30.2683H167.81V29.1951H168.883ZM169.956 32.4146V33.4878H168.883V32.4146H169.956ZM171.029 28.122V29.1951H169.956V28.122H171.029ZM174.249 31.3415V32.4146H173.176V31.3415H174.249ZM174.249 30.2683V31.3415H173.176V30.2683H174.249ZM173.176 29.1951V30.2683H172.103V29.1951H173.176ZM172.103 29.1951V30.2683H171.029V29.1951H172.103ZM171.029 29.1951V30.2683H169.956V29.1951H171.029ZM171.029 30.2683V31.3415H169.956V30.2683H171.029ZM172.103 30.2683V31.3415H171.029V30.2683H172.103ZM173.176 30.2683V31.3415H172.103V30.2683H173.176ZM169.956 24.9024V25.9756H168.883V24.9024H169.956ZM193.585 24.9024V25.9756H192.512V24.9024H193.585ZM192.512 24.9024V25.9756H191.438V24.9024H192.512ZM191.438 24.9024V25.9756H190.365V24.9024H191.438ZM190.365 24.9024V25.9756H189.292V24.9024H190.365ZM189.292 23.8293V24.9024H188.219V23.8293H189.292ZM190.365 23.8293V24.9024H189.292V23.8293H190.365ZM191.438 23.8293V24.9024H190.365V23.8293H191.438ZM192.512 23.8293V24.9024H191.438V23.8293H192.512ZM193.585 23.8293V24.9024H192.512V23.8293H193.585ZM193.585 22.7561V23.8293H192.512V22.7561H193.585ZM192.512 22.7561V23.8293H191.438V22.7561H192.512ZM191.438 22.7561V23.8293H190.365V22.7561H191.438ZM190.365 22.7561V23.8293H189.292V22.7561H190.365ZM189.292 22.7561V23.8293H188.219V22.7561H189.292ZM191.438 21.6829V22.7561H190.365V21.6829H191.438ZM192.512 21.6829V22.7561H191.438V21.6829H192.512ZM190.365 21.6829V22.7561H189.292V21.6829H190.365ZM190.365 20.6098V21.6829H189.292V20.6098H190.365ZM189.292 20.6098V21.6829H188.219V20.6098H189.292ZM189.292 21.6829V22.7561H188.219V21.6829H189.292ZM188.219 21.6829V22.7561H187.146V21.6829H188.219ZM188.219 20.6098V21.6829H187.146V20.6098H188.219ZM188.219 22.7561V23.8293H187.146V22.7561H188.219ZM187.146 22.7561V23.8293H186.073V22.7561H187.146ZM187.146 23.8293V24.9024H186.073V23.8293H187.146ZM188.219 23.8293V24.9024H187.146V23.8293H188.219ZM186.073 23.8293V24.9024H184.999V23.8293H186.073ZM186.073 22.7561V23.8293H184.999V22.7561H186.073ZM186.073 21.6829V22.7561H184.999V21.6829H186.073ZM186.073 20.6098V21.6829H184.999V20.6098H186.073ZM187.146 20.6098V21.6829H186.073V20.6098H187.146ZM187.146 21.6829V22.7561H186.073V21.6829H187.146ZM184.999 20.6098V21.6829H183.926V20.6098H184.999ZM183.926 20.6098V21.6829H182.853V20.6098H183.926ZM182.853 20.6098V21.6829H181.78V20.6098H182.853ZM182.853 21.6829V22.7561H181.78V21.6829H182.853ZM182.853 22.7561V23.8293H181.78V22.7561H182.853ZM182.853 23.8293V24.9024H181.78V23.8293H182.853ZM183.926 23.8293V24.9024H182.853V23.8293H183.926ZM184.999 23.8293V24.9024H183.926V23.8293H184.999ZM184.999 22.7561V23.8293H183.926V22.7561H184.999ZM184.999 21.6829V22.7561H183.926V21.6829H184.999ZM183.926 21.6829V22.7561H182.853V21.6829H183.926ZM183.926 22.7561V23.8293H182.853V22.7561H183.926ZM181.78 22.7561V23.8293H180.707V22.7561H181.78ZM181.78 21.6829V22.7561H180.707V21.6829H181.78ZM180.707 21.6829V22.7561H179.634V21.6829H180.707ZM180.707 22.7561V23.8293H179.634V22.7561H180.707ZM179.634 22.7561V23.8293H178.56V22.7561H179.634ZM179.634 23.8293V24.9024H178.56V23.8293H179.634ZM179.634 24.9024V25.9756H178.56V24.9024H179.634ZM180.707 24.9024V25.9756H179.634V24.9024H180.707ZM180.707 23.8293V24.9024H179.634V23.8293H180.707ZM181.78 23.8293V24.9024H180.707V23.8293H181.78ZM181.78 24.9024V25.9756H180.707V24.9024H181.78ZM182.853 24.9024V25.9756H181.78V24.9024H182.853ZM183.926 24.9024V25.9756H182.853V24.9024H183.926ZM178.56 24.9024V25.9756H177.487V24.9024H178.56ZM178.56 25.9756V27.0488H177.487V25.9756H178.56ZM178.56 27.0488V28.122H177.487V27.0488H178.56ZM178.56 34.561V35.6341H177.487V34.561H178.56ZM179.634 34.561V35.6341H178.56V34.561H179.634ZM179.634 35.6341V36.7073H178.56V35.6341H179.634ZM178.56 35.6341V36.7073H177.487V35.6341H178.56ZM180.707 35.6341V36.7073H179.634V35.6341H180.707ZM181.78 35.6341V36.7073H180.707V35.6341H181.78ZM182.853 35.6341V36.7073H181.78V35.6341H182.853ZM183.926 35.6341V36.7073H182.853V35.6341H183.926ZM182.853 34.561V35.6341H181.78V34.561H182.853ZM182.853 27.0488V28.122H181.78V27.0488H182.853ZM182.853 25.9756V27.0488H181.78V25.9756H182.853ZM181.78 25.9756V27.0488H180.707V25.9756H181.78ZM180.707 25.9756V27.0488H179.634V25.9756H180.707ZM179.634 25.9756V27.0488H178.56V25.9756H179.634ZM179.634 27.0488V28.122H178.56V27.0488H179.634ZM180.707 34.561V35.6341H179.634V34.561H180.707ZM181.78 34.561V35.6341H180.707V34.561H181.78ZM180.707 27.0488V28.122H179.634V27.0488H180.707ZM181.78 27.0488V28.122H180.707V27.0488H181.78ZM190.365 33.4878V34.561H189.292V33.4878H190.365ZM190.365 34.561V35.6341H189.292V34.561H190.365ZM191.438 34.561V35.6341H190.365V34.561H191.438ZM192.512 34.561V35.6341H191.438V34.561H192.512ZM193.585 34.561V35.6341H192.512V34.561H193.585ZM194.658 34.561V35.6341H193.585V34.561H194.658ZM194.658 33.4878V34.561H193.585V33.4878H194.658ZM193.585 33.4878V34.561H192.512V33.4878H193.585ZM192.512 33.4878V34.561H191.438V33.4878H192.512ZM191.438 33.4878V34.561H190.365V33.4878H191.438ZM194.658 35.6341V36.7073H193.585V35.6341H194.658ZM193.585 35.6341V36.7073H192.512V35.6341H193.585ZM192.512 35.6341V36.7073H191.438V35.6341H192.512ZM191.438 35.6341V36.7073H190.365V35.6341H191.438ZM190.365 35.6341V36.7073H189.292V35.6341H190.365ZM189.292 35.6341V36.7073H188.219V35.6341H189.292ZM189.292 36.7073V37.7805H188.219V36.7073H189.292ZM190.365 36.7073V37.7805H189.292V36.7073H190.365ZM191.438 36.7073V37.7805H190.365V36.7073H191.438ZM192.512 36.7073V37.7805H191.438V36.7073H192.512ZM192.512 37.7805V38.8537H191.438V37.7805H192.512ZM193.585 37.7805V38.8537H192.512V37.7805H193.585ZM193.585 36.7073V37.7805H192.512V36.7073H193.585ZM192.512 38.8537V39.9268H191.438V38.8537H192.512ZM191.438 38.8537V39.9268H190.365V38.8537H191.438ZM191.438 37.7805V38.8537H190.365V37.7805H191.438ZM190.365 37.7805V38.8537H189.292V37.7805H190.365ZM190.365 38.8537V39.9268H189.292V38.8537H190.365ZM190.365 39.9268V41H189.292V39.9268H190.365ZM189.292 39.9268V41H188.219V39.9268H189.292ZM188.219 39.9268V41H187.146V39.9268H188.219ZM187.146 39.9268V41H186.073V39.9268H187.146ZM186.073 39.9268V41H184.999V39.9268H186.073ZM184.999 39.9268V41H183.926V39.9268H184.999ZM183.926 39.9268V41H182.853V39.9268H183.926ZM182.853 39.9268V41H181.78V39.9268H182.853ZM183.926 38.8537V39.9268H182.853V38.8537H183.926ZM184.999 38.8537V39.9268H183.926V38.8537H184.999ZM186.073 38.8537V39.9268H184.999V38.8537H186.073ZM187.146 38.8537V39.9268H186.073V38.8537H187.146ZM188.219 38.8537V39.9268H187.146V38.8537H188.219ZM189.292 38.8537V39.9268H188.219V38.8537H189.292ZM189.292 37.7805V38.8537H188.219V37.7805H189.292ZM188.219 37.7805V38.8537H187.146V37.7805H188.219ZM187.146 37.7805V38.8537H186.073V37.7805H187.146ZM186.073 37.7805V38.8537H184.999V37.7805H186.073ZM184.999 37.7805V38.8537H183.926V37.7805H184.999ZM183.926 37.7805V38.8537H182.853V37.7805H183.926ZM182.853 38.8537V39.9268H181.78V38.8537H182.853ZM181.78 38.8537V39.9268H180.707V38.8537H181.78ZM180.707 38.8537V39.9268H179.634V38.8537H180.707ZM180.707 37.7805V38.8537H179.634V37.7805H180.707ZM179.634 37.7805V38.8537H178.56V37.7805H179.634ZM179.634 36.7073V37.7805H178.56V36.7073H179.634ZM180.707 36.7073V37.7805H179.634V36.7073H180.707ZM181.78 36.7073V37.7805H180.707V36.7073H181.78ZM182.853 36.7073V37.7805H181.78V36.7073H182.853ZM183.926 36.7073V37.7805H182.853V36.7073H183.926ZM184.999 36.7073V37.7805H183.926V36.7073H184.999ZM186.073 36.7073V37.7805H184.999V36.7073H186.073ZM187.146 36.7073V37.7805H186.073V36.7073H187.146ZM188.219 36.7073V37.7805H187.146V36.7073H188.219ZM182.853 37.7805V38.8537H181.78V37.7805H182.853ZM181.78 37.7805V38.8537H180.707V37.7805H181.78ZM192.512 31.3415V32.4146H191.438V31.3415H192.512ZM194.658 32.4146V33.4878H193.585V32.4146H194.658ZM193.585 32.4146V33.4878H192.512V32.4146H193.585ZM192.512 32.4146V33.4878H191.438V32.4146H192.512ZM191.438 32.4146V33.4878H190.365V32.4146H191.438ZM191.438 31.3415V32.4146H190.365V31.3415H191.438ZM190.365 31.3415V32.4146H189.292V31.3415H190.365ZM190.365 32.4146V33.4878H189.292V32.4146H190.365ZM183.926 27.0488V28.122H182.853V27.0488H183.926ZM179.634 28.122V29.1951H178.56V28.122H179.634ZM179.634 29.1951V30.2683H178.56V29.1951H179.634ZM180.707 29.1951V30.2683H179.634V29.1951H180.707ZM180.707 30.2683V31.3415H179.634V30.2683H180.707ZM181.78 30.2683V31.3415H180.707V30.2683H181.78ZM182.853 31.3415V32.4146H181.78V31.3415H182.853ZM182.853 30.2683V31.3415H181.78V30.2683H182.853ZM182.853 29.1951V30.2683H181.78V29.1951H182.853ZM182.853 28.122V29.1951H181.78V28.122H182.853ZM181.78 28.122V29.1951H180.707V28.122H181.78ZM181.78 29.1951V30.2683H180.707V29.1951H181.78ZM180.707 28.122V29.1951H179.634V28.122H180.707ZM183.926 31.3415V32.4146H182.853V31.3415H183.926ZM184.999 31.3415V32.4146H183.926V31.3415H184.999ZM186.073 31.3415V32.4146H184.999V31.3415H186.073ZM187.146 31.3415V32.4146H186.073V31.3415H187.146ZM187.146 30.2683V31.3415H186.073V30.2683H187.146ZM186.073 30.2683V31.3415H184.999V30.2683H186.073ZM184.999 30.2683V31.3415H183.926V30.2683H184.999ZM183.926 30.2683V31.3415H182.853V30.2683H183.926ZM183.926 29.1951V30.2683H182.853V29.1951H183.926ZM183.926 28.122V29.1951H182.853V28.122H183.926ZM184.999 28.122V29.1951H183.926V28.122H184.999ZM186.073 28.122V29.1951H184.999V28.122H186.073ZM187.146 28.122V29.1951H186.073V28.122H187.146ZM187.146 29.1951V30.2683H186.073V29.1951H187.146ZM186.073 29.1951V30.2683H184.999V29.1951H186.073ZM184.999 29.1951V30.2683H183.926V29.1951H184.999ZM188.219 28.122V29.1951H187.146V28.122H188.219ZM189.292 28.122V29.1951H188.219V28.122H189.292ZM189.292 29.1951V30.2683H188.219V29.1951H189.292ZM189.292 30.2683V31.3415H188.219V30.2683H189.292ZM189.292 31.3415V32.4146H188.219V31.3415H189.292ZM188.219 31.3415V32.4146H187.146V31.3415H188.219ZM188.219 30.2683V31.3415H187.146V30.2683H188.219ZM188.219 29.1951V30.2683H187.146V29.1951H188.219ZM189.292 32.4146V33.4878H188.219V32.4146H189.292ZM190.365 28.122V29.1951H189.292V28.122H190.365ZM193.585 31.3415V32.4146H192.512V31.3415H193.585ZM193.585 30.2683V31.3415H192.512V30.2683H193.585ZM192.512 29.1951V30.2683H191.438V29.1951H192.512ZM191.438 29.1951V30.2683H190.365V29.1951H191.438ZM190.365 29.1951V30.2683H189.292V29.1951H190.365ZM190.365 30.2683V31.3415H189.292V30.2683H190.365ZM191.438 30.2683V31.3415H190.365V30.2683H191.438ZM192.512 30.2683V31.3415H191.438V30.2683H192.512ZM189.292 24.9024V25.9756H188.219V24.9024H189.292Z" fill="white"/>
</g>
<defs>
<clipPath id="clip0_166_13">
<rect width="210" height="55" fill="white"/>
</clipPath>
</defs>
</svg>
