<svg width="200" height="70" viewBox="0 0 219 70" fill="none" xmlns="http://www.w3.org/2000/svg">
    <rect width="200" height="70" fill="#316033"/>
    <path d="M1.92683 0.609756V1.58537H0.951219V0.609756H1.92683ZM1.92683 1.58537V2.56098H0.951219V1.58537H1.92683ZM1.92683 2.56098V3.53659H0.951219V2.56098H1.92683ZM4.85366 0.609756V1.58537H3.87805V0.609756H4.85366ZM4.85366 1.58537V2.56098H3.87805V1.58537H4.85366ZM4.85366 2.56098V3.53659H3.87805V2.56098H4.85366ZM5.82927 2.56098V3.53659H4.85366V2.56098H5.82927ZM5.82927 1.58537V2.56098H4.85366V1.58537H5.82927ZM5.82927 0.609756V1.58537H4.85366V0.609756H5.82927ZM3.87805 0.609756V1.58537H2.90244V0.609756H3.87805ZM2.90244 0.609756V1.58537H1.92683V0.609756H2.90244ZM2.90244 1.58537V2.56098H1.92683V1.58537H2.90244ZM3.87805 1.58537V2.56098H2.90244V1.58537H3.87805ZM3.87805 2.56098V3.53659H2.90244V2.56098H3.87805ZM2.90244 2.56098V3.53659H1.92683V2.56098H2.90244ZM1.92683 3.53659V4.5122H0.951219V3.53659H1.92683ZM2.90244 3.53659V4.5122H1.92683V3.53659H2.90244ZM3.87805 3.53659V4.5122H2.90244V3.53659H3.87805ZM4.85366 3.53659V4.5122H3.87805V3.53659H4.85366ZM5.82927 3.53659V4.5122H4.85366V3.53659H5.82927ZM1.92683 24.0244V25H0.951219V24.0244H1.92683ZM1.92683 23.0488V24.0244H0.951219V23.0488H1.92683ZM1.92683 22.0732V23.0488H0.951219V22.0732H1.92683ZM1.92683 21.0976V22.0732H0.951219V21.0976H1.92683ZM1.92683 20.122V21.0976H0.951219V20.122H1.92683ZM1.92683 19.1463V20.122H0.951219V19.1463H1.92683ZM1.92683 18.1707V19.1463H0.951219V18.1707H1.92683ZM1.92683 17.1951V18.1707H0.951219V17.1951H1.92683ZM1.92683 16.2195V17.1951H0.951219V16.2195H1.92683ZM1.92683 15.2439V16.2195H0.951219V15.2439H1.92683ZM1.92683 14.2683V15.2439H0.951219V14.2683H1.92683ZM1.92683 13.2927V14.2683H0.951219V13.2927H1.92683ZM1.92683 12.3171V13.2927H0.951219V12.3171H1.92683ZM1.92683 11.3415V12.3171H0.951219V11.3415H1.92683ZM1.92683 10.3659V11.3415H0.951219V10.3659H1.92683ZM2.90244 10.3659V11.3415H1.92683V10.3659H2.90244ZM2.90244 11.3415V12.3171H1.92683V11.3415H2.90244ZM2.90244 12.3171V13.2927H1.92683V12.3171H2.90244ZM2.90244 13.2927V14.2683H1.92683V13.2927H2.90244ZM2.90244 14.2683V15.2439H1.92683V14.2683H2.90244ZM2.90244 15.2439V16.2195H1.92683V15.2439H2.90244ZM2.90244 16.2195V17.1951H1.92683V16.2195H2.90244ZM3.87805 17.1951V18.1707H2.90244V17.1951H3.87805ZM3.87805 18.1707V19.1463H2.90244V18.1707H3.87805ZM3.87805 19.1463V20.122H2.90244V19.1463H3.87805ZM3.87805 20.122V21.0976H2.90244V20.122H3.87805ZM3.87805 21.0976V22.0732H2.90244V21.0976H3.87805ZM3.87805 22.0732V23.0488H2.90244V22.0732H3.87805ZM3.87805 23.0488V24.0244H2.90244V23.0488H3.87805ZM3.87805 24.0244V25H2.90244V24.0244H3.87805ZM4.85366 24.0244V25H3.87805V24.0244H4.85366ZM5.82927 24.0244V25H4.85366V24.0244H5.82927ZM5.82927 23.0488V24.0244H4.85366V23.0488H5.82927ZM5.82927 22.0732V23.0488H4.85366V22.0732H5.82927ZM5.82927 21.0976V22.0732H4.85366V21.0976H5.82927ZM5.82927 20.122V21.0976H4.85366V20.122H5.82927ZM5.82927 19.1463V20.122H4.85366V19.1463H5.82927ZM5.82927 18.1707V19.1463H4.85366V18.1707H5.82927ZM5.82927 17.1951V18.1707H4.85366V17.1951H5.82927ZM4.85366 17.1951V18.1707H3.87805V17.1951H4.85366ZM4.85366 16.2195V17.1951H3.87805V16.2195H4.85366ZM4.85366 18.1707V19.1463H3.87805V18.1707H4.85366ZM4.85366 19.1463V20.122H3.87805V19.1463H4.85366ZM4.85366 20.122V21.0976H3.87805V20.122H4.85366ZM4.85366 21.0976V22.0732H3.87805V21.0976H4.85366ZM4.85366 22.0732V23.0488H3.87805V22.0732H4.85366ZM4.85366 23.0488V24.0244H3.87805V23.0488H4.85366ZM2.90244 24.0244V25H1.92683V24.0244H2.90244ZM2.90244 23.0488V24.0244H1.92683V23.0488H2.90244ZM2.90244 22.0732V23.0488H1.92683V22.0732H2.90244ZM2.90244 21.0976V22.0732H1.92683V21.0976H2.90244ZM2.90244 20.122V21.0976H1.92683V20.122H2.90244ZM2.90244 19.1463V20.122H1.92683V19.1463H2.90244ZM2.90244 18.1707V19.1463H1.92683V18.1707H2.90244ZM2.90244 17.1951V18.1707H1.92683V17.1951H2.90244ZM1.92683 8.41463V9.39024H0.951219V8.41463H1.92683ZM1.92683 9.39024V10.3659H0.951219V9.39024H1.92683ZM4.85366 8.41463V9.39024H3.87805V8.41463H4.85366ZM4.85366 9.39024V10.3659H3.87805V9.39024H4.85366ZM4.85366 10.3659V11.3415H3.87805V10.3659H4.85366ZM4.85366 11.3415V12.3171H3.87805V11.3415H4.85366ZM4.85366 12.3171V13.2927H3.87805V12.3171H4.85366ZM4.85366 13.2927V14.2683H3.87805V13.2927H4.85366ZM5.82927 14.2683V15.2439H4.85366V14.2683H5.82927ZM5.82927 15.2439V16.2195H4.85366V15.2439H5.82927ZM5.82927 16.2195V17.1951H4.85366V16.2195H5.82927ZM5.82927 13.2927V14.2683H4.85366V13.2927H5.82927ZM5.82927 12.3171V13.2927H4.85366V12.3171H5.82927ZM5.82927 11.3415V12.3171H4.85366V11.3415H5.82927ZM5.82927 10.3659V11.3415H4.85366V10.3659H5.82927ZM5.82927 9.39024V10.3659H4.85366V9.39024H5.82927ZM5.82927 8.41463V9.39024H4.85366V8.41463H5.82927ZM2.90244 8.41463V9.39024H1.92683V8.41463H2.90244ZM2.90244 9.39024V10.3659H1.92683V9.39024H2.90244ZM3.87805 8.41463V9.39024H2.90244V8.41463H3.87805ZM3.87805 9.39024V10.3659H2.90244V9.39024H3.87805ZM3.87805 10.3659V11.3415H2.90244V10.3659H3.87805ZM3.87805 11.3415V12.3171H2.90244V11.3415H3.87805ZM3.87805 12.3171V13.2927H2.90244V12.3171H3.87805ZM3.87805 13.2927V14.2683H2.90244V13.2927H3.87805ZM3.87805 14.2683V15.2439H2.90244V14.2683H3.87805ZM3.87805 15.2439V16.2195H2.90244V15.2439H3.87805ZM3.87805 16.2195V17.1951H2.90244V16.2195H3.87805ZM4.85366 15.2439V16.2195H3.87805V15.2439H4.85366ZM4.85366 14.2683V15.2439H3.87805V14.2683H4.85366ZM4.85366 7.43902V8.41463H3.87805V7.43902H4.85366ZM5.82927 7.43902V8.41463H4.85366V7.43902H5.82927ZM3.87805 7.43902V8.41463H2.90244V7.43902H3.87805ZM2.90244 7.43902V8.41463H1.92683V7.43902H2.90244ZM1.92683 7.43902V8.41463H0.951219V7.43902H1.92683ZM10.7159 24.0244V25H9.74028V24.0244H10.7159ZM10.7159 23.0488V24.0244H9.74028V23.0488H10.7159ZM10.7159 22.0732V23.0488H9.74028V22.0732H10.7159ZM10.7159 21.0976V22.0732H9.74028V21.0976H10.7159ZM10.7159 20.122V21.0976H9.74028V20.122H10.7159ZM10.7159 19.1463V20.122H9.74028V19.1463H10.7159ZM10.7159 18.1707V19.1463H9.74028V18.1707H10.7159ZM10.7159 17.1951V18.1707H9.74028V17.1951H10.7159ZM10.7159 16.2195V17.1951H9.74028V16.2195H10.7159ZM10.7159 15.2439V16.2195H9.74028V15.2439H10.7159ZM10.7159 14.2683V15.2439H9.74028V14.2683H10.7159ZM10.7159 13.2927V14.2683H9.74028V13.2927H10.7159ZM10.7159 12.3171V13.2927H9.74028V12.3171H10.7159ZM10.7159 11.3415V12.3171H9.74028V11.3415H10.7159ZM10.7159 10.3659V11.3415H9.74028V10.3659H10.7159ZM11.6915 10.3659V11.3415H10.7159V10.3659H11.6915ZM11.6915 11.3415V12.3171H10.7159V11.3415H11.6915ZM11.6915 12.3171V13.2927H10.7159V12.3171H11.6915ZM11.6915 13.2927V14.2683H10.7159V13.2927H11.6915ZM11.6915 14.2683V15.2439H10.7159V14.2683H11.6915ZM11.6915 15.2439V16.2195H10.7159V15.2439H11.6915ZM11.6915 16.2195V17.1951H10.7159V16.2195H11.6915ZM12.6671 17.1951V18.1707H11.6915V17.1951H12.6671ZM12.6671 18.1707V19.1463H11.6915V18.1707H12.6671ZM12.6671 19.1463V20.122H11.6915V19.1463H12.6671ZM12.6671 20.122V21.0976H11.6915V20.122H12.6671ZM12.6671 21.0976V22.0732H11.6915V21.0976H12.6671ZM12.6671 22.0732V23.0488H11.6915V22.0732H12.6671ZM12.6671 23.0488V24.0244H11.6915V23.0488H12.6671ZM12.6671 24.0244V25H11.6915V24.0244H12.6671ZM13.6427 24.0244V25H12.6671V24.0244H13.6427ZM14.6183 24.0244V25H13.6427V24.0244H14.6183ZM14.6183 23.0488V24.0244H13.6427V23.0488H14.6183ZM14.6183 22.0732V23.0488H13.6427V22.0732H14.6183ZM14.6183 21.0976V22.0732H13.6427V21.0976H14.6183ZM14.6183 20.122V21.0976H13.6427V20.122H14.6183ZM14.6183 19.1463V20.122H13.6427V19.1463H14.6183ZM14.6183 18.1707V19.1463H13.6427V18.1707H14.6183ZM14.6183 17.1951V18.1707H13.6427V17.1951H14.6183ZM13.6427 17.1951V18.1707H12.6671V17.1951H13.6427ZM13.6427 16.2195V17.1951H12.6671V16.2195H13.6427ZM13.6427 18.1707V19.1463H12.6671V18.1707H13.6427ZM13.6427 19.1463V20.122H12.6671V19.1463H13.6427ZM13.6427 20.122V21.0976H12.6671V20.122H13.6427ZM13.6427 21.0976V22.0732H12.6671V21.0976H13.6427ZM13.6427 22.0732V23.0488H12.6671V22.0732H13.6427ZM13.6427 23.0488V24.0244H12.6671V23.0488H13.6427ZM11.6915 24.0244V25H10.7159V24.0244H11.6915ZM11.6915 23.0488V24.0244H10.7159V23.0488H11.6915ZM11.6915 22.0732V23.0488H10.7159V22.0732H11.6915ZM11.6915 21.0976V22.0732H10.7159V21.0976H11.6915ZM11.6915 20.122V21.0976H10.7159V20.122H11.6915ZM11.6915 19.1463V20.122H10.7159V19.1463H11.6915ZM11.6915 18.1707V19.1463H10.7159V18.1707H11.6915ZM11.6915 17.1951V18.1707H10.7159V17.1951H11.6915ZM10.7159 0.609756V1.58537H9.74028V0.609756H10.7159ZM10.7159 1.58537V2.56098H9.74028V1.58537H10.7159ZM10.7159 2.56098V3.53659H9.74028V2.56098H10.7159ZM10.7159 3.53659V4.5122H9.74028V3.53659H10.7159ZM10.7159 4.5122V5.48781H9.74028V4.5122H10.7159ZM10.7159 5.48781V6.46342H9.74028V5.48781H10.7159ZM10.7159 6.46342V7.43902H9.74028V6.46342H10.7159ZM10.7159 7.43902V8.41463H9.74028V7.43902H10.7159ZM10.7159 8.41463V9.39024H9.74028V8.41463H10.7159ZM10.7159 9.39024V10.3659H9.74028V9.39024H10.7159ZM13.6427 0.609756V1.58537H12.6671V0.609756H13.6427ZM13.6427 1.58537V2.56098H12.6671V1.58537H13.6427ZM13.6427 2.56098V3.53659H12.6671V2.56098H13.6427ZM13.6427 3.53659V4.5122H12.6671V3.53659H13.6427ZM13.6427 4.5122V5.48781H12.6671V4.5122H13.6427ZM13.6427 5.48781V6.46342H12.6671V5.48781H13.6427ZM13.6427 7.43902V8.41463H12.6671V7.43902H13.6427ZM13.6427 8.41463V9.39024H12.6671V8.41463H13.6427ZM13.6427 9.39024V10.3659H12.6671V9.39024H13.6427ZM13.6427 10.3659V11.3415H12.6671V10.3659H13.6427ZM13.6427 11.3415V12.3171H12.6671V11.3415H13.6427ZM13.6427 12.3171V13.2927H12.6671V12.3171H13.6427ZM13.6427 13.2927V14.2683H12.6671V13.2927H13.6427ZM14.6183 14.2683V15.2439H13.6427V14.2683H14.6183ZM14.6183 15.2439V16.2195H13.6427V15.2439H14.6183ZM14.6183 16.2195V17.1951H13.6427V16.2195H14.6183ZM14.6183 13.2927V14.2683H13.6427V13.2927H14.6183ZM14.6183 12.3171V13.2927H13.6427V12.3171H14.6183ZM14.6183 11.3415V12.3171H13.6427V11.3415H14.6183ZM14.6183 10.3659V11.3415H13.6427V10.3659H14.6183ZM14.6183 9.39024V10.3659H13.6427V9.39024H14.6183ZM14.6183 8.41463V9.39024H13.6427V8.41463H14.6183ZM14.6183 7.43902V8.41463H13.6427V7.43902H14.6183ZM14.6183 6.46342V7.43902H13.6427V6.46342H14.6183ZM14.6183 5.48781V6.46342H13.6427V5.48781H14.6183ZM14.6183 4.5122V5.48781H13.6427V4.5122H14.6183ZM13.6427 6.46342V7.43902H12.6671V6.46342H13.6427ZM14.6183 3.53659V4.5122H13.6427V3.53659H14.6183ZM14.6183 2.56098V3.53659H13.6427V2.56098H14.6183ZM14.6183 1.58537V2.56098H13.6427V1.58537H14.6183ZM14.6183 0.609756V1.58537H13.6427V0.609756H14.6183ZM12.6671 0.609756V1.58537H11.6915V0.609756H12.6671ZM11.6915 0.609756V1.58537H10.7159V0.609756H11.6915ZM11.6915 1.58537V2.56098H10.7159V1.58537H11.6915ZM12.6671 1.58537V2.56098H11.6915V1.58537H12.6671ZM12.6671 2.56098V3.53659H11.6915V2.56098H12.6671ZM12.6671 3.53659V4.5122H11.6915V3.53659H12.6671ZM12.6671 4.5122V5.48781H11.6915V4.5122H12.6671ZM12.6671 5.48781V6.46342H11.6915V5.48781H12.6671ZM12.6671 6.46342V7.43902H11.6915V6.46342H12.6671ZM12.6671 7.43902V8.41463H11.6915V7.43902H12.6671ZM11.6915 8.41463V9.39024H10.7159V8.41463H11.6915ZM11.6915 9.39024V10.3659H10.7159V9.39024H11.6915ZM11.6915 7.43902V8.41463H10.7159V7.43902H11.6915ZM11.6915 6.46342V7.43902H10.7159V6.46342H11.6915ZM11.6915 5.48781V6.46342H10.7159V5.48781H11.6915ZM11.6915 4.5122V5.48781H10.7159V4.5122H11.6915ZM11.6915 3.53659V4.5122H10.7159V3.53659H11.6915ZM11.6915 2.56098V3.53659H10.7159V2.56098H11.6915ZM12.6671 8.41463V9.39024H11.6915V8.41463H12.6671ZM12.6671 9.39024V10.3659H11.6915V9.39024H12.6671ZM12.6671 10.3659V11.3415H11.6915V10.3659H12.6671ZM12.6671 11.3415V12.3171H11.6915V11.3415H12.6671ZM12.6671 12.3171V13.2927H11.6915V12.3171H12.6671ZM12.6671 13.2927V14.2683H11.6915V13.2927H12.6671ZM12.6671 14.2683V15.2439H11.6915V14.2683H12.6671ZM12.6671 15.2439V16.2195H11.6915V15.2439H12.6671ZM12.6671 16.2195V17.1951H11.6915V16.2195H12.6671ZM13.6427 15.2439V16.2195H12.6671V15.2439H13.6427ZM13.6427 14.2683V15.2439H12.6671V14.2683H13.6427ZM15.5939 12.3171V13.2927H14.6183V12.3171H15.5939ZM16.5696 12.3171V13.2927H15.5939V12.3171H16.5696ZM16.5696 13.2927V14.2683H15.5939V13.2927H16.5696ZM15.5939 13.2927V14.2683H14.6183V13.2927H15.5939ZM15.5939 10.3659V11.3415H14.6183V10.3659H15.5939ZM16.5696 10.3659V11.3415H15.5939V10.3659H16.5696ZM15.5939 14.2683V15.2439H14.6183V14.2683H15.5939ZM16.5696 14.2683V15.2439H15.5939V14.2683H16.5696ZM16.5696 11.3415V12.3171H15.5939V11.3415H16.5696ZM15.5939 11.3415V12.3171H14.6183V11.3415H15.5939ZM15.5939 0.609756V1.58537H14.6183V0.609756H15.5939ZM16.5696 0.609756V1.58537H15.5939V0.609756H16.5696ZM16.5696 1.58537V2.56098H15.5939V1.58537H16.5696ZM15.5939 1.58537V2.56098H14.6183V1.58537H15.5939ZM15.5939 2.56098V3.53659H14.6183V2.56098H15.5939ZM16.5696 2.56098V3.53659H15.5939V2.56098H16.5696ZM16.5696 3.53659V4.5122H15.5939V3.53659H16.5696ZM15.5939 3.53659V4.5122H14.6183V3.53659H15.5939ZM15.5939 4.5122V5.48781H14.6183V4.5122H15.5939ZM16.5696 4.5122V5.48781H15.5939V4.5122H16.5696ZM17.5452 10.3659V11.3415H16.5696V10.3659H17.5452ZM18.5208 10.3659V11.3415H17.5452V10.3659H18.5208ZM19.4964 10.3659V11.3415H18.5208V10.3659H19.4964ZM19.4964 4.5122V5.48781H18.5208V4.5122H19.4964ZM18.5208 4.5122V5.48781H17.5452V4.5122H18.5208ZM17.5452 4.5122V5.48781H16.5696V4.5122H17.5452ZM17.5452 0.609756V1.58537H16.5696V0.609756H17.5452ZM18.5208 0.609756V1.58537H17.5452V0.609756H18.5208ZM19.4964 0.609756V1.58537H18.5208V0.609756H19.4964ZM19.4964 3.53659V4.5122H18.5208V3.53659H19.4964ZM19.4964 2.56098V3.53659H18.5208V2.56098H19.4964ZM18.5208 2.56098V3.53659H17.5452V2.56098H18.5208ZM17.5452 2.56098V3.53659H16.5696V2.56098H17.5452ZM17.5452 1.58537V2.56098H16.5696V1.58537H17.5452ZM18.5208 1.58537V2.56098H17.5452V1.58537H18.5208ZM19.4964 1.58537V2.56098H18.5208V1.58537H19.4964ZM17.5452 3.53659V4.5122H16.5696V3.53659H17.5452ZM18.5208 3.53659V4.5122H17.5452V3.53659H18.5208ZM19.4964 12.3171V13.2927H18.5208V12.3171H19.4964ZM18.5208 12.3171V13.2927H17.5452V12.3171H18.5208ZM17.5452 12.3171V13.2927H16.5696V12.3171H17.5452ZM17.5452 11.3415V12.3171H16.5696V11.3415H17.5452ZM18.5208 11.3415V12.3171H17.5452V11.3415H18.5208ZM19.4964 11.3415V12.3171H18.5208V11.3415H19.4964ZM17.5452 13.2927V14.2683H16.5696V13.2927H17.5452ZM18.5208 13.2927V14.2683H17.5452V13.2927H18.5208ZM19.4964 13.2927V14.2683H18.5208V13.2927H19.4964ZM19.4964 14.2683V15.2439H18.5208V14.2683H19.4964ZM18.5208 14.2683V15.2439H17.5452V14.2683H18.5208ZM17.5452 14.2683V15.2439H16.5696V14.2683H17.5452ZM25.35 4.5122V5.48781H24.3744V4.5122H25.35ZM20.472 0.609756V1.58537H19.4964V0.609756H20.472ZM21.4476 0.609756V1.58537H20.472V0.609756H21.4476ZM22.4232 0.609756V1.58537H21.4476V0.609756H22.4232ZM23.3988 0.609756V1.58537H22.4232V0.609756H23.3988ZM24.3744 0.609756V1.58537H23.3988V0.609756H24.3744ZM24.3744 1.58537V2.56098H23.3988V1.58537H24.3744ZM25.35 1.58537V2.56098H24.3744V1.58537H25.35ZM25.35 2.56098V3.53659H24.3744V2.56098H25.35ZM25.35 0.609756V1.58537H24.3744V0.609756H25.35ZM25.35 3.53659V4.5122H24.3744V3.53659H25.35ZM24.3744 3.53659V4.5122H23.3988V3.53659H24.3744ZM23.3988 3.53659V4.5122H22.4232V3.53659H23.3988ZM22.4232 3.53659V4.5122H21.4476V3.53659H22.4232ZM21.4476 3.53659V4.5122H20.472V3.53659H21.4476ZM20.472 3.53659V4.5122H19.4964V3.53659H20.472ZM20.472 2.56098V3.53659H19.4964V2.56098H20.472ZM20.472 1.58537V2.56098H19.4964V1.58537H20.472ZM21.4476 1.58537V2.56098H20.472V1.58537H21.4476ZM22.4232 1.58537V2.56098H21.4476V1.58537H22.4232ZM23.3988 1.58537V2.56098H22.4232V1.58537H23.3988ZM23.3988 2.56098V3.53659H22.4232V2.56098H23.3988ZM24.3744 2.56098V3.53659H23.3988V2.56098H24.3744ZM22.4232 2.56098V3.53659H21.4476V2.56098H22.4232ZM21.4476 2.56098V3.53659H20.472V2.56098H21.4476ZM20.472 4.5122V5.48781H19.4964V4.5122H20.472ZM21.4476 4.5122V5.48781H20.472V4.5122H21.4476ZM22.4232 4.5122V5.48781H21.4476V4.5122H22.4232ZM23.3988 4.5122V5.48781H22.4232V4.5122H23.3988ZM24.3744 4.5122V5.48781H23.3988V4.5122H24.3744ZM20.472 10.3659V11.3415H19.4964V10.3659H20.472ZM20.472 11.3415V12.3171H19.4964V11.3415H20.472ZM20.472 12.3171V13.2927H19.4964V12.3171H20.472ZM20.472 13.2927V14.2683H19.4964V13.2927H20.472ZM21.4476 13.2927V14.2683H20.472V13.2927H21.4476ZM21.4476 14.2683V15.2439H20.472V14.2683H21.4476ZM20.472 14.2683V15.2439H19.4964V14.2683H20.472ZM21.4476 10.3659V11.3415H20.472V10.3659H21.4476ZM21.4476 11.3415V12.3171H20.472V11.3415H21.4476ZM21.4476 12.3171V13.2927H20.472V12.3171H21.4476ZM22.4232 12.3171V13.2927H21.4476V12.3171H22.4232ZM23.3988 12.3171V13.2927H22.4232V12.3171H23.3988ZM23.3988 11.3415V12.3171H22.4232V11.3415H23.3988ZM23.3988 10.3659V11.3415H22.4232V10.3659H23.3988ZM22.4232 10.3659V11.3415H21.4476V10.3659H22.4232ZM22.4232 11.3415V12.3171H21.4476V11.3415H22.4232ZM22.4232 13.2927V14.2683H21.4476V13.2927H22.4232ZM22.4232 14.2683V15.2439H21.4476V14.2683H22.4232ZM23.3988 14.2683V15.2439H22.4232V14.2683H23.3988ZM23.3988 13.2927V14.2683H22.4232V13.2927H23.3988ZM33.1721 24.0244V25H32.1965V24.0244H33.1721ZM33.1721 23.0488V24.0244H32.1965V23.0488H33.1721ZM33.1721 22.0732V23.0488H32.1965V22.0732H33.1721ZM33.1721 21.0976V22.0732H32.1965V21.0976H33.1721ZM33.1721 20.122V21.0976H32.1965V20.122H33.1721ZM33.1721 19.1463V20.122H32.1965V19.1463H33.1721ZM33.1721 18.1707V19.1463H32.1965V18.1707H33.1721ZM33.1721 17.1951V18.1707H32.1965V17.1951H33.1721ZM33.1721 16.2195V17.1951H32.1965V16.2195H33.1721ZM33.1721 15.2439V16.2195H32.1965V15.2439H33.1721ZM33.1721 14.2683V15.2439H32.1965V14.2683H33.1721ZM33.1721 13.2927V14.2683H32.1965V13.2927H33.1721ZM33.1721 12.3171V13.2927H32.1965V12.3171H33.1721ZM33.1721 11.3415V12.3171H32.1965V11.3415H33.1721ZM33.1721 10.3659V11.3415H32.1965V10.3659H33.1721ZM34.1477 10.3659V11.3415H33.1721V10.3659H34.1477ZM34.1477 11.3415V12.3171H33.1721V11.3415H34.1477ZM34.1477 12.3171V13.2927H33.1721V12.3171H34.1477ZM34.1477 13.2927V14.2683H33.1721V13.2927H34.1477ZM34.1477 14.2683V15.2439H33.1721V14.2683H34.1477ZM34.1477 15.2439V16.2195H33.1721V15.2439H34.1477ZM34.1477 16.2195V17.1951H33.1721V16.2195H34.1477ZM35.1233 17.1951V18.1707H34.1477V17.1951H35.1233ZM35.1233 18.1707V19.1463H34.1477V18.1707H35.1233ZM35.1233 19.1463V20.122H34.1477V19.1463H35.1233ZM35.1233 20.122V21.0976H34.1477V20.122H35.1233ZM35.1233 21.0976V22.0732H34.1477V21.0976H35.1233ZM35.1233 22.0732V23.0488H34.1477V22.0732H35.1233ZM35.1233 23.0488V24.0244H34.1477V23.0488H35.1233ZM35.1233 24.0244V25H34.1477V24.0244H35.1233ZM36.0989 24.0244V25H35.1233V24.0244H36.0989ZM37.0745 24.0244V25H36.0989V24.0244H37.0745ZM37.0745 23.0488V24.0244H36.0989V23.0488H37.0745ZM37.0745 22.0732V23.0488H36.0989V22.0732H37.0745ZM37.0745 21.0976V22.0732H36.0989V21.0976H37.0745ZM37.0745 20.122V21.0976H36.0989V20.122H37.0745ZM37.0745 19.1463V20.122H36.0989V19.1463H37.0745ZM37.0745 18.1707V19.1463H36.0989V18.1707H37.0745ZM37.0745 17.1951V18.1707H36.0989V17.1951H37.0745ZM36.0989 17.1951V18.1707H35.1233V17.1951H36.0989ZM36.0989 16.2195V17.1951H35.1233V16.2195H36.0989ZM36.0989 18.1707V19.1463H35.1233V18.1707H36.0989ZM36.0989 19.1463V20.122H35.1233V19.1463H36.0989ZM36.0989 20.122V21.0976H35.1233V20.122H36.0989ZM36.0989 21.0976V22.0732H35.1233V21.0976H36.0989ZM36.0989 22.0732V23.0488H35.1233V22.0732H36.0989ZM36.0989 23.0488V24.0244H35.1233V23.0488H36.0989ZM34.1477 24.0244V25H33.1721V24.0244H34.1477ZM34.1477 23.0488V24.0244H33.1721V23.0488H34.1477ZM34.1477 22.0732V23.0488H33.1721V22.0732H34.1477ZM34.1477 21.0976V22.0732H33.1721V21.0976H34.1477ZM34.1477 20.122V21.0976H33.1721V20.122H34.1477ZM34.1477 19.1463V20.122H33.1721V19.1463H34.1477ZM34.1477 18.1707V19.1463H33.1721V18.1707H34.1477ZM34.1477 17.1951V18.1707H33.1721V17.1951H34.1477ZM33.1721 0.609756V1.58537H32.1965V0.609756H33.1721ZM33.1721 1.58537V2.56098H32.1965V1.58537H33.1721ZM33.1721 2.56098V3.53659H32.1965V2.56098H33.1721ZM33.1721 3.53659V4.5122H32.1965V3.53659H33.1721ZM33.1721 4.5122V5.48781H32.1965V4.5122H33.1721ZM33.1721 5.48781V6.46342H32.1965V5.48781H33.1721ZM33.1721 6.46342V7.43902H32.1965V6.46342H33.1721ZM33.1721 7.43902V8.41463H32.1965V7.43902H33.1721ZM33.1721 8.41463V9.39024H32.1965V8.41463H33.1721ZM33.1721 9.39024V10.3659H32.1965V9.39024H33.1721ZM36.0989 0.609756V1.58537H35.1233V0.609756H36.0989ZM36.0989 1.58537V2.56098H35.1233V1.58537H36.0989ZM36.0989 2.56098V3.53659H35.1233V2.56098H36.0989ZM36.0989 3.53659V4.5122H35.1233V3.53659H36.0989ZM36.0989 4.5122V5.48781H35.1233V4.5122H36.0989ZM36.0989 5.48781V6.46342H35.1233V5.48781H36.0989ZM36.0989 7.43902V8.41463H35.1233V7.43902H36.0989ZM36.0989 8.41463V9.39024H35.1233V8.41463H36.0989ZM36.0989 9.39024V10.3659H35.1233V9.39024H36.0989ZM36.0989 10.3659V11.3415H35.1233V10.3659H36.0989ZM36.0989 11.3415V12.3171H35.1233V11.3415H36.0989ZM36.0989 12.3171V13.2927H35.1233V12.3171H36.0989ZM36.0989 13.2927V14.2683H35.1233V13.2927H36.0989ZM37.0745 14.2683V15.2439H36.0989V14.2683H37.0745ZM37.0745 15.2439V16.2195H36.0989V15.2439H37.0745ZM37.0745 16.2195V17.1951H36.0989V16.2195H37.0745ZM37.0745 13.2927V14.2683H36.0989V13.2927H37.0745ZM37.0745 12.3171V13.2927H36.0989V12.3171H37.0745ZM37.0745 11.3415V12.3171H36.0989V11.3415H37.0745ZM37.0745 10.3659V11.3415H36.0989V10.3659H37.0745ZM37.0745 9.39024V10.3659H36.0989V9.39024H37.0745ZM37.0745 8.41463V9.39024H36.0989V8.41463H37.0745ZM37.0745 7.43902V8.41463H36.0989V7.43902H37.0745ZM37.0745 6.46342V7.43902H36.0989V6.46342H37.0745ZM37.0745 5.48781V6.46342H36.0989V5.48781H37.0745ZM37.0745 4.5122V5.48781H36.0989V4.5122H37.0745ZM36.0989 6.46342V7.43902H35.1233V6.46342H36.0989ZM37.0745 3.53659V4.5122H36.0989V3.53659H37.0745ZM37.0745 2.56098V3.53659H36.0989V2.56098H37.0745ZM37.0745 1.58537V2.56098H36.0989V1.58537H37.0745ZM37.0745 0.609756V1.58537H36.0989V0.609756H37.0745ZM35.1233 0.609756V1.58537H34.1477V0.609756H35.1233ZM34.1477 0.609756V1.58537H33.1721V0.609756H34.1477ZM34.1477 1.58537V2.56098H33.1721V1.58537H34.1477ZM35.1233 1.58537V2.56098H34.1477V1.58537H35.1233ZM35.1233 2.56098V3.53659H34.1477V2.56098H35.1233ZM35.1233 3.53659V4.5122H34.1477V3.53659H35.1233ZM35.1233 4.5122V5.48781H34.1477V4.5122H35.1233ZM35.1233 5.48781V6.46342H34.1477V5.48781H35.1233ZM35.1233 6.46342V7.43902H34.1477V6.46342H35.1233ZM35.1233 7.43902V8.41463H34.1477V7.43902H35.1233ZM34.1477 8.41463V9.39024H33.1721V8.41463H34.1477ZM34.1477 9.39024V10.3659H33.1721V9.39024H34.1477ZM34.1477 7.43902V8.41463H33.1721V7.43902H34.1477ZM34.1477 6.46342V7.43902H33.1721V6.46342H34.1477ZM34.1477 5.48781V6.46342H33.1721V5.48781H34.1477ZM34.1477 4.5122V5.48781H33.1721V4.5122H34.1477ZM34.1477 3.53659V4.5122H33.1721V3.53659H34.1477ZM34.1477 2.56098V3.53659H33.1721V2.56098H34.1477ZM35.1233 8.41463V9.39024H34.1477V8.41463H35.1233ZM35.1233 9.39024V10.3659H34.1477V9.39024H35.1233ZM35.1233 10.3659V11.3415H34.1477V10.3659H35.1233ZM35.1233 11.3415V12.3171H34.1477V11.3415H35.1233ZM35.1233 12.3171V13.2927H34.1477V12.3171H35.1233ZM35.1233 13.2927V14.2683H34.1477V13.2927H35.1233ZM35.1233 14.2683V15.2439H34.1477V14.2683H35.1233ZM35.1233 15.2439V16.2195H34.1477V15.2439H35.1233ZM35.1233 16.2195V17.1951H34.1477V16.2195H35.1233ZM36.0989 15.2439V16.2195H35.1233V15.2439H36.0989ZM36.0989 14.2683V15.2439H35.1233V14.2683H36.0989ZM32.1965 0.609756V1.58537H31.2208V0.609756H32.1965ZM31.2208 0.609756V1.58537H30.2452V0.609756H31.2208ZM30.2452 0.609756V1.58537H29.2696V0.609756H30.2452ZM29.2696 0.609756V1.58537H28.294V0.609756H29.2696ZM28.294 0.609756V1.58537H27.3184V0.609756H28.294ZM28.294 1.58537V2.56098H27.3184V1.58537H28.294ZM28.294 2.56098V3.53659H27.3184V2.56098H28.294ZM29.2696 1.58537V2.56098H28.294V1.58537H29.2696ZM30.2452 1.58537V2.56098H29.2696V1.58537H30.2452ZM31.2208 1.58537V2.56098H30.2452V1.58537H31.2208ZM32.1965 2.56098V3.53659H31.2208V2.56098H32.1965ZM32.1965 1.58537V2.56098H31.2208V1.58537H32.1965ZM31.2208 2.56098V3.53659H30.2452V2.56098H31.2208ZM30.2452 2.56098V3.53659H29.2696V2.56098H30.2452ZM29.2696 2.56098V3.53659H28.294V2.56098H29.2696ZM38.0501 0.609756V1.58537H37.0745V0.609756H38.0501ZM39.0257 0.609756V1.58537H38.0501V0.609756H39.0257ZM40.0013 0.609756V1.58537H39.0257V0.609756H40.0013ZM40.9769 0.609756V1.58537H40.0013V0.609756H40.9769ZM41.9526 0.609756V1.58537H40.9769V0.609756H41.9526ZM41.9526 1.58537V2.56098H40.9769V1.58537H41.9526ZM40.9769 1.58537V2.56098H40.0013V1.58537H40.9769ZM40.0013 1.58537V2.56098H39.0257V1.58537H40.0013ZM39.0257 1.58537V2.56098H38.0501V1.58537H39.0257ZM38.0501 1.58537V2.56098H37.0745V1.58537H38.0501ZM38.0501 2.56098V3.53659H37.0745V2.56098H38.0501ZM39.0257 2.56098V3.53659H38.0501V2.56098H39.0257ZM40.0013 2.56098V3.53659H39.0257V2.56098H40.0013ZM40.9769 2.56098V3.53659H40.0013V2.56098H40.9769ZM41.9526 2.56098V3.53659H40.9769V2.56098H41.9526ZM28.294 3.53659V4.5122H27.3184V3.53659H28.294ZM28.294 4.5122V5.48781H27.3184V4.5122H28.294ZM29.2696 4.5122V5.48781H28.294V4.5122H29.2696ZM30.2452 4.5122V5.48781H29.2696V4.5122H30.2452ZM31.2208 4.5122V5.48781H30.2452V4.5122H31.2208ZM32.1965 4.5122V5.48781H31.2208V4.5122H32.1965ZM32.1965 3.53659V4.5122H31.2208V3.53659H32.1965ZM31.2208 3.53659V4.5122H30.2452V3.53659H31.2208ZM30.2452 3.53659V4.5122H29.2696V3.53659H30.2452ZM29.2696 3.53659V4.5122H28.294V3.53659H29.2696ZM41.9526 3.53659V4.5122H40.9769V3.53659H41.9526ZM41.9526 4.5122V5.48781H40.9769V4.5122H41.9526ZM40.9769 4.5122V5.48781H40.0013V4.5122H40.9769ZM40.0013 4.5122V5.48781H39.0257V4.5122H40.0013ZM39.0257 4.5122V5.48781H38.0501V4.5122H39.0257ZM38.0501 4.5122V5.48781H37.0745V4.5122H38.0501ZM38.0501 3.53659V4.5122H37.0745V3.53659H38.0501ZM39.0257 3.53659V4.5122H38.0501V3.53659H39.0257ZM40.0013 3.53659V4.5122H39.0257V3.53659H40.0013ZM40.9769 3.53659V4.5122H40.0013V3.53659H40.9769ZM46.8487 20.122V21.0976H45.8731V20.122H46.8487ZM46.8487 19.1463V20.122H45.8731V19.1463H46.8487ZM46.8487 18.1707V19.1463H45.8731V18.1707H46.8487ZM46.8487 17.1951V18.1707H45.8731V17.1951H46.8487ZM46.8487 16.2195V17.1951H45.8731V16.2195H46.8487ZM46.8487 15.2439V16.2195H45.8731V15.2439H46.8487ZM46.8487 14.2683V15.2439H45.8731V14.2683H46.8487ZM46.8487 13.2927V14.2683H45.8731V13.2927H46.8487ZM46.8487 12.3171V13.2927H45.8731V12.3171H46.8487ZM46.8487 11.3415V12.3171H45.8731V11.3415H46.8487ZM46.8487 10.3659V11.3415H45.8731V10.3659H46.8487ZM47.8243 10.3659V11.3415H46.8487V10.3659H47.8243ZM47.8243 11.3415V12.3171H46.8487V11.3415H47.8243ZM47.8243 12.3171V13.2927H46.8487V12.3171H47.8243ZM47.8243 13.2927V14.2683H46.8487V13.2927H47.8243ZM47.8243 14.2683V15.2439H46.8487V14.2683H47.8243ZM47.8243 15.2439V16.2195H46.8487V15.2439H47.8243ZM47.8243 16.2195V17.1951H46.8487V16.2195H47.8243ZM48.7999 17.1951V18.1707H47.8243V17.1951H48.7999ZM48.7999 18.1707V19.1463H47.8243V18.1707H48.7999ZM48.7999 19.1463V20.122H47.8243V19.1463H48.7999ZM48.7999 20.122V21.0976H47.8243V20.122H48.7999ZM48.7999 21.0976V22.0732H47.8243V21.0976H48.7999ZM48.7999 22.0732V23.0488H47.8243V22.0732H48.7999ZM48.7999 23.0488V24.0244H47.8243V23.0488H48.7999ZM50.7511 24.0244V25H49.7755V24.0244H50.7511ZM50.7511 23.0488V24.0244H49.7755V23.0488H50.7511ZM50.7511 22.0732V23.0488H49.7755V22.0732H50.7511ZM50.7511 21.0976V22.0732H49.7755V21.0976H50.7511ZM50.7511 20.122V21.0976H49.7755V20.122H50.7511ZM50.7511 19.1463V20.122H49.7755V19.1463H50.7511ZM50.7511 18.1707V19.1463H49.7755V18.1707H50.7511ZM50.7511 17.1951V18.1707H49.7755V17.1951H50.7511ZM49.7755 17.1951V18.1707H48.7999V17.1951H49.7755ZM49.7755 16.2195V17.1951H48.7999V16.2195H49.7755ZM49.7755 18.1707V19.1463H48.7999V18.1707H49.7755ZM49.7755 19.1463V20.122H48.7999V19.1463H49.7755ZM49.7755 20.122V21.0976H48.7999V20.122H49.7755ZM49.7755 21.0976V22.0732H48.7999V21.0976H49.7755ZM49.7755 22.0732V23.0488H48.7999V22.0732H49.7755ZM49.7755 23.0488V24.0244H48.7999V23.0488H49.7755ZM47.8243 22.0732V23.0488H46.8487V22.0732H47.8243ZM47.8243 21.0976V22.0732H46.8487V21.0976H47.8243ZM47.8243 20.122V21.0976H46.8487V20.122H47.8243ZM47.8243 19.1463V20.122H46.8487V19.1463H47.8243ZM47.8243 18.1707V19.1463H46.8487V18.1707H47.8243ZM47.8243 17.1951V18.1707H46.8487V17.1951H47.8243ZM46.8487 9.39024V10.3659H45.8731V9.39024H46.8487ZM49.7755 9.39024V10.3659H48.7999V9.39024H49.7755ZM49.7755 10.3659V11.3415H48.7999V10.3659H49.7755ZM49.7755 11.3415V12.3171H48.7999V11.3415H49.7755ZM49.7755 12.3171V13.2927H48.7999V12.3171H49.7755ZM49.7755 13.2927V14.2683H48.7999V13.2927H49.7755ZM50.7511 14.2683V15.2439H49.7755V14.2683H50.7511ZM50.7511 15.2439V16.2195H49.7755V15.2439H50.7511ZM50.7511 16.2195V17.1951H49.7755V16.2195H50.7511ZM50.7511 13.2927V14.2683H49.7755V13.2927H50.7511ZM50.7511 12.3171V13.2927H49.7755V12.3171H50.7511ZM50.7511 11.3415V12.3171H49.7755V11.3415H50.7511ZM50.7511 10.3659V11.3415H49.7755V10.3659H50.7511ZM50.7511 9.39024V10.3659H49.7755V9.39024H50.7511ZM47.8243 9.39024V10.3659H46.8487V9.39024H47.8243ZM48.7999 9.39024V10.3659H47.8243V9.39024H48.7999ZM48.7999 10.3659V11.3415H47.8243V10.3659H48.7999ZM48.7999 11.3415V12.3171H47.8243V11.3415H48.7999ZM48.7999 12.3171V13.2927H47.8243V12.3171H48.7999ZM48.7999 13.2927V14.2683H47.8243V13.2927H48.7999ZM48.7999 14.2683V15.2439H47.8243V14.2683H48.7999ZM48.7999 15.2439V16.2195H47.8243V15.2439H48.7999ZM48.7999 16.2195V17.1951H47.8243V16.2195H48.7999ZM49.7755 15.2439V16.2195H48.7999V15.2439H49.7755ZM49.7755 14.2683V15.2439H48.7999V14.2683H49.7755ZM58.556 24.0244V25H57.5804V24.0244H58.556ZM58.556 23.0488V24.0244H57.5804V23.0488H58.556ZM58.556 22.0732V23.0488H57.5804V22.0732H58.556ZM58.556 21.0976V22.0732H57.5804V21.0976H58.556ZM58.556 20.122V21.0976H57.5804V20.122H58.556ZM58.556 19.1463V20.122H57.5804V19.1463H58.556ZM58.556 18.1707V19.1463H57.5804V18.1707H58.556ZM58.556 17.1951V18.1707H57.5804V17.1951H58.556ZM58.556 16.2195V17.1951H57.5804V16.2195H58.556ZM58.556 15.2439V16.2195H57.5804V15.2439H58.556ZM58.556 14.2683V15.2439H57.5804V14.2683H58.556ZM58.556 13.2927V14.2683H57.5804V13.2927H58.556ZM58.556 12.3171V13.2927H57.5804V12.3171H58.556ZM58.556 11.3415V12.3171H57.5804V11.3415H58.556ZM58.556 10.3659V11.3415H57.5804V10.3659H58.556ZM59.5316 10.3659V11.3415H58.556V10.3659H59.5316ZM59.5316 11.3415V12.3171H58.556V11.3415H59.5316ZM59.5316 12.3171V13.2927H58.556V12.3171H59.5316ZM59.5316 13.2927V14.2683H58.556V13.2927H59.5316ZM59.5316 14.2683V15.2439H58.556V14.2683H59.5316ZM59.5316 15.2439V16.2195H58.556V15.2439H59.5316ZM59.5316 16.2195V17.1951H58.556V16.2195H59.5316ZM60.5072 17.1951V18.1707H59.5316V17.1951H60.5072ZM60.5072 18.1707V19.1463H59.5316V18.1707H60.5072ZM60.5072 19.1463V20.122H59.5316V19.1463H60.5072ZM60.5072 20.122V21.0976H59.5316V20.122H60.5072ZM60.5072 21.0976V22.0732H59.5316V21.0976H60.5072ZM60.5072 22.0732V23.0488H59.5316V22.0732H60.5072ZM60.5072 23.0488V24.0244H59.5316V23.0488H60.5072ZM62.4585 20.122V21.0976H61.4829V20.122H62.4585ZM62.4585 19.1463V20.122H61.4829V19.1463H62.4585ZM62.4585 18.1707V19.1463H61.4829V18.1707H62.4585ZM62.4585 17.1951V18.1707H61.4829V17.1951H62.4585ZM61.4829 17.1951V18.1707H60.5072V17.1951H61.4829ZM61.4829 16.2195V17.1951H60.5072V16.2195H61.4829ZM61.4829 18.1707V19.1463H60.5072V18.1707H61.4829ZM61.4829 19.1463V20.122H60.5072V19.1463H61.4829ZM61.4829 20.122V21.0976H60.5072V20.122H61.4829ZM61.4829 21.0976V22.0732H60.5072V21.0976H61.4829ZM61.4829 22.0732V23.0488H60.5072V22.0732H61.4829ZM59.5316 23.0488V24.0244H58.556V23.0488H59.5316ZM59.5316 22.0732V23.0488H58.556V22.0732H59.5316ZM59.5316 21.0976V22.0732H58.556V21.0976H59.5316ZM59.5316 20.122V21.0976H58.556V20.122H59.5316ZM59.5316 19.1463V20.122H58.556V19.1463H59.5316ZM59.5316 18.1707V19.1463H58.556V18.1707H59.5316ZM59.5316 17.1951V18.1707H58.556V17.1951H59.5316ZM58.556 9.39024V10.3659H57.5804V9.39024H58.556ZM61.4829 9.39024V10.3659H60.5072V9.39024H61.4829ZM61.4829 10.3659V11.3415H60.5072V10.3659H61.4829ZM61.4829 11.3415V12.3171H60.5072V11.3415H61.4829ZM61.4829 12.3171V13.2927H60.5072V12.3171H61.4829ZM61.4829 13.2927V14.2683H60.5072V13.2927H61.4829ZM62.4585 14.2683V15.2439H61.4829V14.2683H62.4585ZM62.4585 15.2439V16.2195H61.4829V15.2439H62.4585ZM62.4585 16.2195V17.1951H61.4829V16.2195H62.4585ZM62.4585 13.2927V14.2683H61.4829V13.2927H62.4585ZM62.4585 12.3171V13.2927H61.4829V12.3171H62.4585ZM62.4585 11.3415V12.3171H61.4829V11.3415H62.4585ZM62.4585 10.3659V11.3415H61.4829V10.3659H62.4585ZM62.4585 9.39024V10.3659H61.4829V9.39024H62.4585ZM59.5316 9.39024V10.3659H58.556V9.39024H59.5316ZM60.5072 9.39024V10.3659H59.5316V9.39024H60.5072ZM60.5072 10.3659V11.3415H59.5316V10.3659H60.5072ZM60.5072 11.3415V12.3171H59.5316V11.3415H60.5072ZM60.5072 12.3171V13.2927H59.5316V12.3171H60.5072ZM60.5072 13.2927V14.2683H59.5316V13.2927H60.5072ZM60.5072 14.2683V15.2439H59.5316V14.2683H60.5072ZM60.5072 15.2439V16.2195H59.5316V15.2439H60.5072ZM60.5072 16.2195V17.1951H59.5316V16.2195H60.5072ZM61.4829 15.2439V16.2195H60.5072V15.2439H61.4829ZM61.4829 14.2683V15.2439H60.5072V14.2683H61.4829ZM51.7268 24.0244V25H50.7511V24.0244H51.7268ZM52.7024 24.0244V25H51.7268V24.0244H52.7024ZM53.678 24.0244V25H52.7024V24.0244H53.678ZM54.6536 24.0244V25H53.678V24.0244H54.6536ZM56.6048 24.0244V25H55.6292V24.0244H56.6048ZM57.5804 24.0244V25H56.6048V24.0244H57.5804ZM57.5804 23.0488V24.0244H56.6048V23.0488H57.5804ZM56.6048 23.0488V24.0244H55.6292V23.0488H56.6048ZM54.6536 23.0488V24.0244H53.678V23.0488H54.6536ZM53.678 23.0488V24.0244H52.7024V23.0488H53.678ZM52.7024 23.0488V24.0244H51.7268V23.0488H52.7024ZM51.7268 23.0488V24.0244H50.7511V23.0488H51.7268ZM51.7268 22.0732V23.0488H50.7511V22.0732H51.7268ZM52.7024 22.0732V23.0488H51.7268V22.0732H52.7024ZM53.678 22.0732V23.0488H52.7024V22.0732H53.678ZM54.6536 22.0732V23.0488H53.678V22.0732H54.6536ZM56.6048 22.0732V23.0488H55.6292V22.0732H56.6048ZM57.5804 22.0732V23.0488H56.6048V22.0732H57.5804ZM57.5804 21.0976V22.0732H56.6048V21.0976H57.5804ZM56.6048 21.0976V22.0732H55.6292V21.0976H56.6048ZM54.6536 21.0976V22.0732H53.678V21.0976H54.6536ZM53.678 21.0976V22.0732H52.7024V21.0976H53.678ZM52.7024 21.0976V22.0732H51.7268V21.0976H52.7024ZM51.7268 21.0976V22.0732H50.7511V21.0976H51.7268ZM51.7268 20.122V21.0976H50.7511V20.122H51.7268ZM57.5804 20.122V21.0976H56.6048V20.122H57.5804ZM61.4829 5.48781V4.5122H62.4585V5.48781H61.4829ZM61.4829 6.46342V5.48781H62.4585V6.46342H61.4829ZM61.4829 7.43902V6.46342H62.4585V7.43902H61.4829ZM59.5316 7.43902V6.46342H60.5072V7.43902H59.5316ZM59.5316 6.46342V5.48781H60.5072V6.46342H59.5316ZM59.5316 5.48781V4.5122H60.5072V5.48781H59.5316ZM59.5316 4.5122V3.53659H60.5072V4.5122H59.5316ZM59.5316 3.53659V2.56098H60.5072V3.53659H59.5316ZM59.5316 2.56098V1.58537H60.5072V2.56098H59.5316ZM57.5804 1.58537V0.609756H58.556V1.58537H57.5804ZM57.5804 2.56098V1.58537H58.556V2.56098H57.5804ZM57.5804 3.53659V2.56098H58.556V3.53659H57.5804ZM57.5804 4.5122V3.53659H58.556V4.5122H57.5804ZM57.5804 5.48781V4.5122H58.556V5.48781H57.5804ZM57.5804 6.46342V5.48781H58.556V6.46342H57.5804ZM57.5804 7.43902V6.46342H58.556V7.43902H57.5804ZM58.556 7.43902V6.46342H59.5316V7.43902H58.556ZM58.556 6.46342V5.48781H59.5316V6.46342H58.556ZM58.556 5.48781V4.5122H59.5316V5.48781H58.556ZM58.556 4.5122V3.53659H59.5316V4.5122H58.556ZM58.556 3.53659V2.56098H59.5316V3.53659H58.556ZM58.556 2.56098V1.58537H59.5316V2.56098H58.556ZM60.5072 3.53659V2.56098H61.4829V3.53659H60.5072ZM60.5072 4.5122V3.53659H61.4829V4.5122H60.5072ZM60.5072 5.48781V4.5122H61.4829V5.48781H60.5072ZM60.5072 6.46342V5.48781H61.4829V6.46342H60.5072ZM60.5072 7.43902V6.46342H61.4829V7.43902H60.5072ZM49.7755 1.58537V0.609756H50.7511V1.58537H49.7755ZM49.7755 2.56098V1.58537H50.7511V2.56098H49.7755ZM49.7755 3.53659V2.56098H50.7511V3.53659H49.7755ZM49.7755 4.5122V3.53659H50.7511V4.5122H49.7755ZM49.7755 5.48781V4.5122H50.7511V5.48781H49.7755ZM49.7755 6.46342V5.48781H50.7511V6.46342H49.7755ZM49.7755 7.43902V6.46342H50.7511V7.43902H49.7755ZM47.8243 7.43902V6.46342H48.7999V7.43902H47.8243ZM47.8243 6.46342V5.48781H48.7999V6.46342H47.8243ZM47.8243 5.48781V4.5122H48.7999V5.48781H47.8243ZM47.8243 4.5122V3.53659H48.7999V4.5122H47.8243ZM47.8243 3.53659V2.56098H48.7999V3.53659H47.8243ZM47.8243 2.56098V1.58537H48.7999V2.56098H47.8243ZM45.8731 5.48781V4.5122H46.8487V5.48781H45.8731ZM45.8731 6.46342V5.48781H46.8487V6.46342H45.8731ZM45.8731 7.43902V6.46342H46.8487V7.43902H45.8731ZM46.8487 7.43902V6.46342H47.8243V7.43902H46.8487ZM46.8487 6.46342V5.48781H47.8243V6.46342H46.8487ZM46.8487 5.48781V4.5122H47.8243V5.48781H46.8487ZM46.8487 4.5122V3.53659H47.8243V4.5122H46.8487ZM46.8487 3.53659V2.56098H47.8243V3.53659H46.8487ZM48.7999 2.56098V1.58537H49.7755V2.56098H48.7999ZM48.7999 3.53659V2.56098H49.7755V3.53659H48.7999ZM48.7999 4.5122V3.53659H49.7755V4.5122H48.7999ZM48.7999 5.48781V4.5122H49.7755V5.48781H48.7999ZM48.7999 6.46342V5.48781H49.7755V6.46342H48.7999ZM48.7999 7.43902V6.46342H49.7755V7.43902H48.7999ZM56.6048 1.58537V0.609756H57.5804V1.58537H56.6048ZM55.6292 1.58537V0.609756H56.6048V1.58537H55.6292ZM53.678 1.58537V0.609756H54.6536V1.58537H53.678ZM52.7024 1.58537V0.609756H53.678V1.58537H52.7024ZM51.7268 1.58537V0.609756H52.7024V1.58537H51.7268ZM50.7511 1.58537V0.609756H51.7268V1.58537H50.7511ZM50.7511 2.56098V1.58537H51.7268V2.56098H50.7511ZM51.7268 2.56098V1.58537H52.7024V2.56098H51.7268ZM52.7024 2.56098V1.58537H53.678V2.56098H52.7024ZM53.678 2.56098V1.58537H54.6536V2.56098H53.678ZM55.6292 2.56098V1.58537H56.6048V2.56098H55.6292ZM56.6048 2.56098V1.58537H57.5804V2.56098H56.6048ZM56.6048 3.53659V2.56098H57.5804V3.53659H56.6048ZM55.6292 3.53659V2.56098H56.6048V3.53659H55.6292ZM53.678 3.53659V2.56098H54.6536V3.53659H53.678ZM52.7024 3.53659V2.56098H53.678V3.53659H52.7024ZM51.7268 3.53659V2.56098H52.7024V3.53659H51.7268ZM50.7511 3.53659V2.56098H51.7268V3.53659H50.7511ZM50.7511 4.5122V3.53659H51.7268V4.5122H50.7511ZM51.7268 4.5122V3.53659H52.7024V4.5122H51.7268ZM52.7024 4.5122V3.53659H53.678V4.5122H52.7024ZM53.678 4.5122V3.53659H54.6536V4.5122H53.678ZM55.6292 4.5122V3.53659H56.6048V4.5122H55.6292ZM56.6048 4.5122V3.53659H57.5804V4.5122H56.6048ZM56.6048 5.48781V4.5122H57.5804V5.48781H56.6048ZM50.7511 5.48781V4.5122H51.7268V5.48781H50.7511ZM46.8487 8.41463V9.39024H45.8731V8.41463H46.8487ZM47.8243 8.41463V9.39024H46.8487V8.41463H47.8243ZM46.8487 7.43902V8.41463H45.8731V7.43902H46.8487ZM49.7755 7.43902V8.41463H48.7999V7.43902H49.7755ZM49.7755 8.41463V9.39024H48.7999V8.41463H49.7755ZM50.7511 8.41463V9.39024H49.7755V8.41463H50.7511ZM50.7511 7.43902V8.41463H49.7755V7.43902H50.7511ZM47.8243 7.43902V8.41463H46.8487V7.43902H47.8243ZM48.7999 7.43902V8.41463H47.8243V7.43902H48.7999ZM48.7999 8.41463V9.39024H47.8243V8.41463H48.7999ZM58.556 8.41463V9.39024H57.5804V8.41463H58.556ZM59.5316 8.41463V9.39024H58.556V8.41463H59.5316ZM58.556 7.43902V8.41463H57.5804V7.43902H58.556ZM61.4829 7.43902V8.41463H60.5072V7.43902H61.4829ZM61.4829 8.41463V9.39024H60.5072V8.41463H61.4829ZM62.4585 8.41463V9.39024H61.4829V8.41463H62.4585ZM62.4585 7.43902V8.41463H61.4829V7.43902H62.4585ZM59.5316 7.43902V8.41463H58.556V7.43902H59.5316ZM60.5072 7.43902V8.41463H59.5316V7.43902H60.5072ZM60.5072 8.41463V9.39024H59.5316V8.41463H60.5072ZM52.7024 20.122V21.0976H51.7268V20.122H52.7024ZM53.678 20.122V21.0976H52.7024V20.122H53.678ZM54.6536 20.122V21.0976H53.678V20.122H54.6536ZM56.6048 20.122V21.0976H55.6292V20.122H56.6048ZM57.5804 19.1463V20.122H56.6048V19.1463H57.5804ZM51.7268 19.1463V20.122H50.7511V19.1463H51.7268ZM52.7024 4.5122V5.48781H51.7268V4.5122H52.7024ZM53.678 4.5122V5.48781H52.7024V4.5122H53.678ZM54.6536 4.5122V5.48781H53.678V4.5122H54.6536ZM56.6048 4.5122V5.48781H55.6292V4.5122H56.6048ZM57.5804 5.48781V6.46342H56.6048V5.48781H57.5804ZM51.7268 5.48781V6.46342H50.7511V5.48781H51.7268ZM55.6292 0.609756V1.58537H54.6536V0.609756H55.6292ZM55.6292 1.58537V2.56098H54.6536V1.58537H55.6292ZM55.6292 2.56098V3.53659H54.6536V2.56098H55.6292ZM55.6292 3.53659V4.5122H54.6536V3.53659H55.6292ZM55.6292 4.5122V5.48781H54.6536V4.5122H55.6292ZM55.6292 20.122V21.0976H54.6536V20.122H55.6292ZM55.6292 21.0976V22.0732H54.6536V21.0976H55.6292ZM55.6292 22.0732V23.0488H54.6536V22.0732H55.6292ZM55.6292 23.0488V24.0244H54.6536V23.0488H55.6292ZM55.6292 24.0244V25H54.6536V24.0244H55.6292ZM77.0831 24.0244V25H76.1075V24.0244H77.0831ZM77.0831 23.0488V24.0244H76.1075V23.0488H77.0831ZM77.0831 22.0732V23.0488H76.1075V22.0732H77.0831ZM77.0831 21.0976V22.0732H76.1075V21.0976H77.0831ZM77.0831 20.122V21.0976H76.1075V20.122H77.0831ZM77.0831 19.1463V20.122H76.1075V19.1463H77.0831ZM77.0831 18.1707V19.1463H76.1075V18.1707H77.0831ZM77.0831 17.1951V18.1707H76.1075V17.1951H77.0831ZM77.0831 16.2195V17.1951H76.1075V16.2195H77.0831ZM77.0831 15.2439V16.2195H76.1075V15.2439H77.0831ZM77.0831 14.2683V15.2439H76.1075V14.2683H77.0831ZM77.0831 13.2927V14.2683H76.1075V13.2927H77.0831ZM77.0831 12.3171V13.2927H76.1075V12.3171H77.0831ZM77.0831 11.3415V12.3171H76.1075V11.3415H77.0831ZM77.0831 10.3659V11.3415H76.1075V10.3659H77.0831ZM78.0587 10.3659V11.3415H77.0831V10.3659H78.0587ZM78.0587 11.3415V12.3171H77.0831V11.3415H78.0587ZM78.0587 12.3171V13.2927H77.0831V12.3171H78.0587ZM78.0587 13.2927V14.2683H77.0831V13.2927H78.0587ZM78.0587 14.2683V15.2439H77.0831V14.2683H78.0587ZM78.0587 15.2439V16.2195H77.0831V15.2439H78.0587ZM78.0587 16.2195V17.1951H77.0831V16.2195H78.0587ZM79.0343 17.1951V18.1707H78.0587V17.1951H79.0343ZM79.0343 18.1707V19.1463H78.0587V18.1707H79.0343ZM79.0343 19.1463V20.122H78.0587V19.1463H79.0343ZM79.0343 20.122V21.0976H78.0587V20.122H79.0343ZM79.0343 21.0976V22.0732H78.0587V21.0976H79.0343ZM79.0343 22.0732V23.0488H78.0587V22.0732H79.0343ZM79.0343 23.0488V24.0244H78.0587V23.0488H79.0343ZM79.0343 24.0244V25H78.0587V24.0244H79.0343ZM80.0099 24.0244V25H79.0343V24.0244H80.0099ZM80.9855 24.0244V25H80.0099V24.0244H80.9855ZM80.9855 23.0488V24.0244H80.0099V23.0488H80.9855ZM80.9855 22.0732V23.0488H80.0099V22.0732H80.9855ZM80.9855 21.0976V22.0732H80.0099V21.0976H80.9855ZM80.9855 20.122V21.0976H80.0099V20.122H80.9855ZM80.9855 19.1463V20.122H80.0099V19.1463H80.9855ZM80.9855 18.1707V19.1463H80.0099V18.1707H80.9855ZM80.9855 17.1951V18.1707H80.0099V17.1951H80.9855ZM80.0099 17.1951V18.1707H79.0343V17.1951H80.0099ZM80.0099 16.2195V17.1951H79.0343V16.2195H80.0099ZM80.0099 18.1707V19.1463H79.0343V18.1707H80.0099ZM80.0099 19.1463V20.122H79.0343V19.1463H80.0099ZM80.0099 20.122V21.0976H79.0343V20.122H80.0099ZM80.0099 21.0976V22.0732H79.0343V21.0976H80.0099ZM80.0099 22.0732V23.0488H79.0343V22.0732H80.0099ZM80.0099 23.0488V24.0244H79.0343V23.0488H80.0099ZM78.0587 24.0244V25H77.0831V24.0244H78.0587ZM78.0587 23.0488V24.0244H77.0831V23.0488H78.0587ZM78.0587 22.0732V23.0488H77.0831V22.0732H78.0587ZM78.0587 21.0976V22.0732H77.0831V21.0976H78.0587ZM78.0587 20.122V21.0976H77.0831V20.122H78.0587ZM78.0587 19.1463V20.122H77.0831V19.1463H78.0587ZM78.0587 18.1707V19.1463H77.0831V18.1707H78.0587ZM78.0587 17.1951V18.1707H77.0831V17.1951H78.0587ZM77.0831 7.43902V8.41463H76.1075V7.43902H77.0831ZM77.0831 8.41463V9.39024H76.1075V8.41463H77.0831ZM77.0831 9.39024V10.3659H76.1075V9.39024H77.0831ZM80.0099 5.48781V6.46342H79.0343V5.48781H80.0099ZM80.0099 7.43902V8.41463H79.0343V7.43902H80.0099ZM80.0099 8.41463V9.39024H79.0343V8.41463H80.0099ZM80.0099 9.39024V10.3659H79.0343V9.39024H80.0099ZM80.0099 10.3659V11.3415H79.0343V10.3659H80.0099ZM80.0099 11.3415V12.3171H79.0343V11.3415H80.0099ZM80.0099 12.3171V13.2927H79.0343V12.3171H80.0099ZM80.0099 13.2927V14.2683H79.0343V13.2927H80.0099ZM80.9855 14.2683V15.2439H80.0099V14.2683H80.9855ZM80.9855 15.2439V16.2195H80.0099V15.2439H80.9855ZM80.9855 16.2195V17.1951H80.0099V16.2195H80.9855ZM80.9855 13.2927V14.2683H80.0099V13.2927H80.9855ZM80.9855 12.3171V13.2927H80.0099V12.3171H80.9855ZM80.9855 11.3415V12.3171H80.0099V11.3415H80.9855ZM80.9855 10.3659V11.3415H80.0099V10.3659H80.9855ZM80.9855 9.39024V10.3659H80.0099V9.39024H80.9855ZM80.9855 8.41463V9.39024H80.0099V8.41463H80.9855ZM80.9855 7.43902V8.41463H80.0099V7.43902H80.9855ZM80.9855 6.46342V7.43902H80.0099V6.46342H80.9855ZM80.9855 5.48781V6.46342H80.0099V5.48781H80.9855ZM80.9855 4.5122V5.48781H80.0099V4.5122H80.9855ZM80.0099 6.46342V7.43902H79.0343V6.46342H80.0099ZM80.9855 3.53659V4.5122H80.0099V3.53659H80.9855ZM80.9855 2.56098V3.53659H80.0099V2.56098H80.9855ZM79.0343 5.48781V6.46342H78.0587V5.48781H79.0343ZM79.0343 6.46342V7.43902H78.0587V6.46342H79.0343ZM79.0343 7.43902V8.41463H78.0587V7.43902H79.0343ZM78.0587 8.41463V9.39024H77.0831V8.41463H78.0587ZM78.0587 9.39024V10.3659H77.0831V9.39024H78.0587ZM78.0587 7.43902V8.41463H77.0831V7.43902H78.0587ZM78.0587 6.46342V7.43902H77.0831V6.46342H78.0587ZM79.0343 8.41463V9.39024H78.0587V8.41463H79.0343ZM79.0343 9.39024V10.3659H78.0587V9.39024H79.0343ZM79.0343 10.3659V11.3415H78.0587V10.3659H79.0343ZM79.0343 11.3415V12.3171H78.0587V11.3415H79.0343ZM79.0343 12.3171V13.2927H78.0587V12.3171H79.0343ZM79.0343 13.2927V14.2683H78.0587V13.2927H79.0343ZM79.0343 14.2683V15.2439H78.0587V14.2683H79.0343ZM79.0343 15.2439V16.2195H78.0587V15.2439H79.0343ZM79.0343 16.2195V17.1951H78.0587V16.2195H79.0343ZM80.0099 15.2439V16.2195H79.0343V15.2439H80.0099ZM80.0099 14.2683V15.2439H79.0343V14.2683H80.0099ZM87.8148 24.0244V25H86.8392V24.0244H87.8148ZM87.8148 23.0488V24.0244H86.8392V23.0488H87.8148ZM87.8148 22.0732V23.0488H86.8392V22.0732H87.8148ZM87.8148 21.0976V22.0732H86.8392V21.0976H87.8148ZM87.8148 20.122V21.0976H86.8392V20.122H87.8148ZM87.8148 19.1463V20.122H86.8392V19.1463H87.8148ZM87.8148 18.1707V19.1463H86.8392V18.1707H87.8148ZM87.8148 17.1951V18.1707H86.8392V17.1951H87.8148ZM87.8148 16.2195V17.1951H86.8392V16.2195H87.8148ZM87.8148 15.2439V16.2195H86.8392V15.2439H87.8148ZM87.8148 14.2683V15.2439H86.8392V14.2683H87.8148ZM87.8148 13.2927V14.2683H86.8392V13.2927H87.8148ZM87.8148 12.3171V13.2927H86.8392V12.3171H87.8148ZM87.8148 11.3415V12.3171H86.8392V11.3415H87.8148ZM87.8148 10.3659V11.3415H86.8392V10.3659H87.8148ZM88.7904 10.3659V11.3415H87.8148V10.3659H88.7904ZM88.7904 11.3415V12.3171H87.8148V11.3415H88.7904ZM88.7904 12.3171V13.2927H87.8148V12.3171H88.7904ZM88.7904 13.2927V14.2683H87.8148V13.2927H88.7904ZM88.7904 14.2683V15.2439H87.8148V14.2683H88.7904ZM88.7904 15.2439V16.2195H87.8148V15.2439H88.7904ZM88.7904 16.2195V17.1951H87.8148V16.2195H88.7904ZM89.766 17.1951V18.1707H88.7904V17.1951H89.766ZM89.766 18.1707V19.1463H88.7904V18.1707H89.766ZM89.766 19.1463V20.122H88.7904V19.1463H89.766ZM89.766 20.122V21.0976H88.7904V20.122H89.766ZM89.766 21.0976V22.0732H88.7904V21.0976H89.766ZM89.766 22.0732V23.0488H88.7904V22.0732H89.766ZM89.766 23.0488V24.0244H88.7904V23.0488H89.766ZM89.766 24.0244V25H88.7904V24.0244H89.766ZM90.7416 24.0244V25H89.766V24.0244H90.7416ZM91.7172 24.0244V25H90.7416V24.0244H91.7172ZM91.7172 23.0488V24.0244H90.7416V23.0488H91.7172ZM91.7172 22.0732V23.0488H90.7416V22.0732H91.7172ZM91.7172 21.0976V22.0732H90.7416V21.0976H91.7172ZM91.7172 20.122V21.0976H90.7416V20.122H91.7172ZM91.7172 19.1463V20.122H90.7416V19.1463H91.7172ZM91.7172 18.1707V19.1463H90.7416V18.1707H91.7172ZM91.7172 17.1951V18.1707H90.7416V17.1951H91.7172ZM90.7416 17.1951V18.1707H89.766V17.1951H90.7416ZM90.7416 16.2195V17.1951H89.766V16.2195H90.7416ZM90.7416 18.1707V19.1463H89.766V18.1707H90.7416ZM90.7416 19.1463V20.122H89.766V19.1463H90.7416ZM90.7416 20.122V21.0976H89.766V20.122H90.7416ZM90.7416 21.0976V22.0732H89.766V21.0976H90.7416ZM90.7416 22.0732V23.0488H89.766V22.0732H90.7416ZM90.7416 23.0488V24.0244H89.766V23.0488H90.7416ZM88.7904 24.0244V25H87.8148V24.0244H88.7904ZM88.7904 23.0488V24.0244H87.8148V23.0488H88.7904ZM88.7904 22.0732V23.0488H87.8148V22.0732H88.7904ZM88.7904 21.0976V22.0732H87.8148V21.0976H88.7904ZM88.7904 20.122V21.0976H87.8148V20.122H88.7904ZM88.7904 19.1463V20.122H87.8148V19.1463H88.7904ZM88.7904 18.1707V19.1463H87.8148V18.1707H88.7904ZM88.7904 17.1951V18.1707H87.8148V17.1951H88.7904ZM87.8148 2.56098V3.53659H86.8392V2.56098H87.8148ZM87.8148 3.53659V4.5122H86.8392V3.53659H87.8148ZM87.8148 4.5122V5.48781H86.8392V4.5122H87.8148ZM87.8148 5.48781V6.46342H86.8392V5.48781H87.8148ZM87.8148 6.46342V7.43902H86.8392V6.46342H87.8148ZM87.8148 7.43902V8.41463H86.8392V7.43902H87.8148ZM87.8148 8.41463V9.39024H86.8392V8.41463H87.8148ZM87.8148 9.39024V10.3659H86.8392V9.39024H87.8148ZM90.7416 5.48781V6.46342H89.766V5.48781H90.7416ZM90.7416 7.43902V8.41463H89.766V7.43902H90.7416ZM90.7416 8.41463V9.39024H89.766V8.41463H90.7416ZM90.7416 9.39024V10.3659H89.766V9.39024H90.7416ZM90.7416 10.3659V11.3415H89.766V10.3659H90.7416ZM90.7416 11.3415V12.3171H89.766V11.3415H90.7416ZM90.7416 12.3171V13.2927H89.766V12.3171H90.7416ZM90.7416 13.2927V14.2683H89.766V13.2927H90.7416ZM91.7172 14.2683V15.2439H90.7416V14.2683H91.7172ZM91.7172 15.2439V16.2195H90.7416V15.2439H91.7172ZM91.7172 16.2195V17.1951H90.7416V16.2195H91.7172ZM91.7172 13.2927V14.2683H90.7416V13.2927H91.7172ZM91.7172 12.3171V13.2927H90.7416V12.3171H91.7172ZM91.7172 11.3415V12.3171H90.7416V11.3415H91.7172ZM91.7172 10.3659V11.3415H90.7416V10.3659H91.7172ZM91.7172 9.39024V10.3659H90.7416V9.39024H91.7172ZM91.7172 8.41463V9.39024H90.7416V8.41463H91.7172ZM91.7172 7.43902V8.41463H90.7416V7.43902H91.7172ZM91.7172 6.46342V7.43902H90.7416V6.46342H91.7172ZM90.7416 6.46342V7.43902H89.766V6.46342H90.7416ZM89.766 4.5122V5.48781H88.7904V4.5122H89.766ZM89.766 5.48781V6.46342H88.7904V5.48781H89.766ZM89.766 6.46342V7.43902H88.7904V6.46342H89.766ZM89.766 7.43902V8.41463H88.7904V7.43902H89.766ZM88.7904 8.41463V9.39024H87.8148V8.41463H88.7904ZM88.7904 9.39024V10.3659H87.8148V9.39024H88.7904ZM88.7904 7.43902V8.41463H87.8148V7.43902H88.7904ZM88.7904 6.46342V7.43902H87.8148V6.46342H88.7904ZM88.7904 5.48781V6.46342H87.8148V5.48781H88.7904ZM88.7904 4.5122V5.48781H87.8148V4.5122H88.7904ZM88.7904 3.53659V4.5122H87.8148V3.53659H88.7904ZM89.766 8.41463V9.39024H88.7904V8.41463H89.766ZM89.766 9.39024V10.3659H88.7904V9.39024H89.766ZM89.766 10.3659V11.3415H88.7904V10.3659H89.766ZM89.766 11.3415V12.3171H88.7904V11.3415H89.766ZM89.766 12.3171V13.2927H88.7904V12.3171H89.766ZM89.766 13.2927V14.2683H88.7904V13.2927H89.766ZM89.766 14.2683V15.2439H88.7904V14.2683H89.766ZM89.766 15.2439V16.2195H88.7904V15.2439H89.766ZM89.766 16.2195V17.1951H88.7904V16.2195H89.766ZM90.7416 15.2439V16.2195H89.766V15.2439H90.7416ZM90.7416 14.2683V15.2439H89.766V14.2683H90.7416ZM82.9367 0.609756V1.58537H81.9611V0.609756H82.9367ZM83.9123 0.609756V1.58537H82.9367V0.609756H83.9123ZM84.888 0.609756V1.58537H83.9123V0.609756H84.888ZM85.8636 0.609756V1.58537H84.888V0.609756H85.8636ZM86.8392 1.58537V2.56098H85.8636V1.58537H86.8392ZM85.8636 1.58537V2.56098H84.888V1.58537H85.8636ZM84.888 1.58537V2.56098H83.9123V1.58537H84.888ZM83.9123 1.58537V2.56098H82.9367V1.58537H83.9123ZM82.9367 1.58537V2.56098H81.9611V1.58537H82.9367ZM81.9611 1.58537V2.56098H80.9855V1.58537H81.9611ZM81.9611 2.56098V3.53659H80.9855V2.56098H81.9611ZM81.9611 3.53659V4.5122H80.9855V3.53659H81.9611ZM82.9367 2.56098V3.53659H81.9611V2.56098H82.9367ZM83.9123 2.56098V3.53659H82.9367V2.56098H83.9123ZM84.888 2.56098V3.53659H83.9123V2.56098H84.888ZM85.8636 2.56098V3.53659H84.888V2.56098H85.8636ZM86.8392 2.56098V3.53659H85.8636V2.56098H86.8392ZM86.8392 3.53659V4.5122H85.8636V3.53659H86.8392ZM85.8636 3.53659V4.5122H84.888V3.53659H85.8636ZM84.888 3.53659V4.5122H83.9123V3.53659H84.888ZM83.9123 3.53659V4.5122H82.9367V3.53659H83.9123ZM82.9367 3.53659V4.5122H81.9611V3.53659H82.9367ZM81.9611 4.5122V5.48781H80.9855V4.5122H81.9611ZM82.9367 4.5122V5.48781H81.9611V4.5122H82.9367ZM86.8392 4.5122V5.48781H85.8636V4.5122H86.8392ZM85.8636 4.5122V5.48781H84.888V4.5122H85.8636ZM86.8392 5.48781V6.46342H85.8636V5.48781H86.8392ZM81.9611 5.48781V6.46342H80.9855V5.48781H81.9611ZM80.0099 3.53659V4.5122H79.0343V3.53659H80.0099ZM80.0099 4.5122V5.48781H79.0343V4.5122H80.0099ZM79.0343 4.5122V5.48781H78.0587V4.5122H79.0343ZM78.0587 5.48781V6.46342H77.0831V5.48781H78.0587ZM77.0831 6.46342V7.43902H76.1075V6.46342H77.0831ZM81.9611 6.46342V7.43902H80.9855V6.46342H81.9611ZM82.9367 5.48781V6.46342H81.9611V5.48781H82.9367ZM83.9123 4.5122V5.48781H82.9367V4.5122H83.9123ZM84.888 4.5122V5.48781H83.9123V4.5122H84.888ZM85.8636 5.48781V6.46342H84.888V5.48781H85.8636ZM86.8392 6.46342V7.43902H85.8636V6.46342H86.8392ZM81.9611 18.1707V19.1463H80.9855V18.1707H81.9611ZM82.9367 18.1707V19.1463H81.9611V18.1707H82.9367ZM83.9123 18.1707V19.1463H82.9367V18.1707H83.9123ZM84.888 18.1707V19.1463H83.9123V18.1707H84.888ZM85.8636 18.1707V19.1463H84.888V18.1707H85.8636ZM86.8392 18.1707V19.1463H85.8636V18.1707H86.8392ZM86.8392 17.1951V18.1707H85.8636V17.1951H86.8392ZM85.8636 17.1951V18.1707H84.888V17.1951H85.8636ZM84.888 17.1951V18.1707H83.9123V17.1951H84.888ZM83.9123 17.1951V18.1707H82.9367V17.1951H83.9123ZM82.9367 17.1951V18.1707H81.9611V17.1951H82.9367ZM81.9611 17.1951V18.1707H80.9855V17.1951H81.9611ZM81.9611 16.2195V17.1951H80.9855V16.2195H81.9611ZM82.9367 16.2195V17.1951H81.9611V16.2195H82.9367ZM83.9123 16.2195V17.1951H82.9367V16.2195H83.9123ZM84.888 16.2195V17.1951H83.9123V16.2195H84.888ZM85.8636 16.2195V17.1951H84.888V16.2195H85.8636ZM86.8392 16.2195V17.1951H85.8636V16.2195H86.8392ZM86.8392 15.2439V16.2195H85.8636V15.2439H86.8392ZM85.8636 15.2439V16.2195H84.888V15.2439H85.8636ZM84.888 15.2439V16.2195H83.9123V15.2439H84.888ZM83.9123 15.2439V16.2195H82.9367V15.2439H83.9123ZM82.9367 15.2439V16.2195H81.9611V15.2439H82.9367ZM81.9611 15.2439V16.2195H80.9855V15.2439H81.9611ZM81.9611 14.2683V15.2439H80.9855V14.2683H81.9611ZM82.9367 14.2683V15.2439H81.9611V14.2683H82.9367ZM83.9123 14.2683V15.2439H82.9367V14.2683H83.9123ZM84.888 14.2683V15.2439H83.9123V14.2683H84.888ZM85.8636 14.2683V15.2439H84.888V14.2683H85.8636ZM86.8392 14.2683V15.2439H85.8636V14.2683H86.8392ZM83.9123 5.48781V6.46342H82.9367V5.48781H83.9123ZM84.888 5.48781V6.46342H83.9123V5.48781H84.888ZM82.9367 6.46342V7.43902H81.9611V6.46342H82.9367ZM81.9611 7.43902V8.41463H80.9855V7.43902H81.9611ZM85.8636 6.46342V7.43902H84.888V6.46342H85.8636ZM86.8392 7.43902V8.41463H85.8636V7.43902H86.8392ZM106.37 12.3171V13.2927H105.395V12.3171H106.37ZM107.346 12.3171V13.2927H106.37V12.3171H107.346ZM108.322 12.3171V13.2927H107.346V12.3171H108.322ZM109.297 12.3171V13.2927H108.322V12.3171H109.297ZM110.273 12.3171V13.2927H109.297V12.3171H110.273ZM110.273 11.3415V12.3171H109.297V11.3415H110.273ZM110.273 10.3659V11.3415H109.297V10.3659H110.273ZM109.297 10.3659V11.3415H108.322V10.3659H109.297ZM108.322 10.3659V11.3415H107.346V10.3659H108.322ZM107.346 10.3659V11.3415H106.37V10.3659H107.346ZM107.346 11.3415V12.3171H106.37V11.3415H107.346ZM106.37 11.3415V12.3171H105.395V11.3415H106.37ZM108.322 11.3415V12.3171H107.346V11.3415H108.322ZM109.297 11.3415V12.3171H108.322V11.3415H109.297ZM106.37 10.3659V11.3415H105.395V10.3659H106.37ZM105.395 10.3659V11.3415H104.419V10.3659H105.395ZM105.395 9.39024V10.3659H104.419V9.39024H105.395ZM106.37 9.39024V10.3659H105.395V9.39024H106.37ZM107.346 9.39024V10.3659H106.37V9.39024H107.346ZM108.322 9.39024V10.3659H107.346V9.39024H108.322ZM109.297 9.39024V10.3659H108.322V9.39024H109.297ZM109.297 8.41463V9.39024H108.322V8.41463H109.297ZM108.322 8.41463V9.39024H107.346V8.41463H108.322ZM107.346 8.41463V9.39024H106.37V8.41463H107.346ZM106.37 8.41463V9.39024H105.395V8.41463H106.37ZM105.395 8.41463V9.39024H104.419V8.41463H105.395ZM107.346 7.43902V8.41463H106.37V7.43902H107.346ZM108.322 7.43902V8.41463H107.346V7.43902H108.322ZM106.37 7.43902V8.41463H105.395V7.43902H106.37ZM106.37 6.46342V7.43902H105.395V6.46342H106.37ZM105.395 6.46342V7.43902H104.419V6.46342H105.395ZM105.395 7.43902V8.41463H104.419V7.43902H105.395ZM104.419 7.43902V8.41463H103.444V7.43902H104.419ZM104.419 6.46342V7.43902H103.444V6.46342H104.419ZM104.419 8.41463V9.39024H103.444V8.41463H104.419ZM103.444 8.41463V9.39024H102.468V8.41463H103.444ZM103.444 9.39024V10.3659H102.468V9.39024H103.444ZM104.419 9.39024V10.3659H103.444V9.39024H104.419ZM102.468 9.39024V10.3659H101.492V9.39024H102.468ZM102.468 8.41463V9.39024H101.492V8.41463H102.468ZM102.468 7.43902V8.41463H101.492V7.43902H102.468ZM102.468 6.46342V7.43902H101.492V6.46342H102.468ZM103.444 6.46342V7.43902H102.468V6.46342H103.444ZM103.444 7.43902V8.41463H102.468V7.43902H103.444ZM101.492 6.46342V7.43902H100.517V6.46342H101.492ZM100.517 6.46342V7.43902H99.5412V6.46342H100.517ZM99.5412 6.46342V7.43902H98.5655V6.46342H99.5412ZM99.5412 7.43902V8.41463H98.5655V7.43902H99.5412ZM99.5412 8.41463V9.39024H98.5655V8.41463H99.5412ZM99.5412 9.39024V10.3659H98.5655V9.39024H99.5412ZM100.517 9.39024V10.3659H99.5412V9.39024H100.517ZM101.492 9.39024V10.3659H100.517V9.39024H101.492ZM101.492 8.41463V9.39024H100.517V8.41463H101.492ZM101.492 7.43902V8.41463H100.517V7.43902H101.492ZM100.517 7.43902V8.41463H99.5412V7.43902H100.517ZM100.517 8.41463V9.39024H99.5412V8.41463H100.517ZM98.5655 8.41463V9.39024H97.5899V8.41463H98.5655ZM98.5655 7.43902V8.41463H97.5899V7.43902H98.5655ZM97.5899 7.43902V8.41463H96.6143V7.43902H97.5899ZM97.5899 8.41463V9.39024H96.6143V8.41463H97.5899ZM96.6143 8.41463V9.39024H95.6387V8.41463H96.6143ZM96.6143 9.39024V10.3659H95.6387V9.39024H96.6143ZM96.6143 10.3659V11.3415H95.6387V10.3659H96.6143ZM97.5899 10.3659V11.3415H96.6143V10.3659H97.5899ZM97.5899 9.39024V10.3659H96.6143V9.39024H97.5899ZM98.5655 9.39024V10.3659H97.5899V9.39024H98.5655ZM98.5655 10.3659V11.3415H97.5899V10.3659H98.5655ZM99.5412 10.3659V11.3415H98.5655V10.3659H99.5412ZM100.517 10.3659V11.3415H99.5412V10.3659H100.517ZM95.6387 10.3659V11.3415H94.6631V10.3659H95.6387ZM95.6387 11.3415V12.3171H94.6631V11.3415H95.6387ZM95.6387 12.3171V13.2927H94.6631V12.3171H95.6387ZM95.6387 13.2927V14.2683H94.6631V13.2927H95.6387ZM95.6387 14.2683V15.2439H94.6631V14.2683H95.6387ZM95.6387 15.2439V16.2195H94.6631V15.2439H95.6387ZM95.6387 16.2195V17.1951H94.6631V16.2195H95.6387ZM95.6387 17.1951V18.1707H94.6631V17.1951H95.6387ZM95.6387 18.1707V19.1463H94.6631V18.1707H95.6387ZM95.6387 19.1463V20.122H94.6631V19.1463H95.6387ZM96.6143 19.1463V20.122H95.6387V19.1463H96.6143ZM96.6143 20.122V21.0976H95.6387V20.122H96.6143ZM95.6387 20.122V21.0976H94.6631V20.122H95.6387ZM97.5899 20.122V21.0976H96.6143V20.122H97.5899ZM98.5655 20.122V21.0976H97.5899V20.122H98.5655ZM99.5412 20.122V21.0976H98.5655V20.122H99.5412ZM100.517 20.122V21.0976H99.5412V20.122H100.517ZM99.5412 19.1463V20.122H98.5655V19.1463H99.5412ZM99.5412 18.1707V19.1463H98.5655V18.1707H99.5412ZM99.5412 17.1951V18.1707H98.5655V17.1951H99.5412ZM99.5412 16.2195V17.1951H98.5655V16.2195H99.5412ZM99.5412 15.2439V16.2195H98.5655V15.2439H99.5412ZM99.5412 14.2683V15.2439H98.5655V14.2683H99.5412ZM99.5412 13.2927V14.2683H98.5655V13.2927H99.5412ZM99.5412 12.3171V13.2927H98.5655V12.3171H99.5412ZM99.5412 11.3415V12.3171H98.5655V11.3415H99.5412ZM98.5655 11.3415V12.3171H97.5899V11.3415H98.5655ZM97.5899 11.3415V12.3171H96.6143V11.3415H97.5899ZM96.6143 11.3415V12.3171H95.6387V11.3415H96.6143ZM96.6143 12.3171V13.2927H95.6387V12.3171H96.6143ZM96.6143 13.2927V14.2683H95.6387V13.2927H96.6143ZM96.6143 14.2683V15.2439H95.6387V14.2683H96.6143ZM96.6143 15.2439V16.2195H95.6387V15.2439H96.6143ZM96.6143 16.2195V17.1951H95.6387V16.2195H96.6143ZM96.6143 17.1951V18.1707H95.6387V17.1951H96.6143ZM96.6143 18.1707V19.1463H95.6387V18.1707H96.6143ZM97.5899 19.1463V20.122H96.6143V19.1463H97.5899ZM98.5655 19.1463V20.122H97.5899V19.1463H98.5655ZM98.5655 18.1707V19.1463H97.5899V18.1707H98.5655ZM98.5655 17.1951V18.1707H97.5899V17.1951H98.5655ZM98.5655 16.2195V17.1951H97.5899V16.2195H98.5655ZM98.5655 15.2439V16.2195H97.5899V15.2439H98.5655ZM97.5899 15.2439V16.2195H96.6143V15.2439H97.5899ZM97.5899 14.2683V15.2439H96.6143V14.2683H97.5899ZM97.5899 13.2927V14.2683H96.6143V13.2927H97.5899ZM97.5899 12.3171V13.2927H96.6143V12.3171H97.5899ZM98.5655 12.3171V13.2927H97.5899V12.3171H98.5655ZM98.5655 13.2927V14.2683H97.5899V13.2927H98.5655ZM98.5655 14.2683V15.2439H97.5899V14.2683H98.5655ZM97.5899 17.1951V18.1707H96.6143V17.1951H97.5899ZM97.5899 18.1707V19.1463H96.6143V18.1707H97.5899ZM97.5899 16.2195V17.1951H96.6143V16.2195H97.5899ZM106.37 18.1707V19.1463H105.395V18.1707H106.37ZM106.37 19.1463V20.122H105.395V19.1463H106.37ZM107.346 19.1463V20.122H106.37V19.1463H107.346ZM108.322 19.1463V20.122H107.346V19.1463H108.322ZM109.297 19.1463V20.122H108.322V19.1463H109.297ZM110.273 19.1463V20.122H109.297V19.1463H110.273ZM110.273 18.1707V19.1463H109.297V18.1707H110.273ZM109.297 18.1707V19.1463H108.322V18.1707H109.297ZM108.322 18.1707V19.1463H107.346V18.1707H108.322ZM107.346 18.1707V19.1463H106.37V18.1707H107.346ZM110.273 20.122V21.0976H109.297V20.122H110.273ZM109.297 20.122V21.0976H108.322V20.122H109.297ZM108.322 20.122V21.0976H107.346V20.122H108.322ZM107.346 20.122V21.0976H106.37V20.122H107.346ZM106.37 20.122V21.0976H105.395V20.122H106.37ZM105.395 20.122V21.0976H104.419V20.122H105.395ZM105.395 21.0976V22.0732H104.419V21.0976H105.395ZM106.37 21.0976V22.0732H105.395V21.0976H106.37ZM107.346 21.0976V22.0732H106.37V21.0976H107.346ZM108.322 21.0976V22.0732H107.346V21.0976H108.322ZM108.322 22.0732V23.0488H107.346V22.0732H108.322ZM109.297 22.0732V23.0488H108.322V22.0732H109.297ZM109.297 21.0976V22.0732H108.322V21.0976H109.297ZM108.322 23.0488V24.0244H107.346V23.0488H108.322ZM107.346 23.0488V24.0244H106.37V23.0488H107.346ZM107.346 22.0732V23.0488H106.37V22.0732H107.346ZM106.37 22.0732V23.0488H105.395V22.0732H106.37ZM106.37 23.0488V24.0244H105.395V23.0488H106.37ZM106.37 24.0244V25H105.395V24.0244H106.37ZM105.395 24.0244V25H104.419V24.0244H105.395ZM104.419 24.0244V25H103.444V24.0244H104.419ZM103.444 24.0244V25H102.468V24.0244H103.444ZM102.468 24.0244V25H101.492V24.0244H102.468ZM101.492 24.0244V25H100.517V24.0244H101.492ZM100.517 24.0244V25H99.5412V24.0244H100.517ZM99.5412 24.0244V25H98.5655V24.0244H99.5412ZM100.517 23.0488V24.0244H99.5412V23.0488H100.517ZM101.492 23.0488V24.0244H100.517V23.0488H101.492ZM102.468 23.0488V24.0244H101.492V23.0488H102.468ZM103.444 23.0488V24.0244H102.468V23.0488H103.444ZM104.419 23.0488V24.0244H103.444V23.0488H104.419ZM105.395 23.0488V24.0244H104.419V23.0488H105.395ZM105.395 22.0732V23.0488H104.419V22.0732H105.395ZM104.419 22.0732V23.0488H103.444V22.0732H104.419ZM103.444 22.0732V23.0488H102.468V22.0732H103.444ZM102.468 22.0732V23.0488H101.492V22.0732H102.468ZM101.492 22.0732V23.0488H100.517V22.0732H101.492ZM100.517 22.0732V23.0488H99.5412V22.0732H100.517ZM99.5412 23.0488V24.0244H98.5655V23.0488H99.5412ZM98.5655 23.0488V24.0244H97.5899V23.0488H98.5655ZM97.5899 23.0488V24.0244H96.6143V23.0488H97.5899ZM97.5899 22.0732V23.0488H96.6143V22.0732H97.5899ZM96.6143 22.0732V23.0488H95.6387V22.0732H96.6143ZM96.6143 21.0976V22.0732H95.6387V21.0976H96.6143ZM97.5899 21.0976V22.0732H96.6143V21.0976H97.5899ZM98.5655 21.0976V22.0732H97.5899V21.0976H98.5655ZM99.5412 21.0976V22.0732H98.5655V21.0976H99.5412ZM100.517 21.0976V22.0732H99.5412V21.0976H100.517ZM101.492 21.0976V22.0732H100.517V21.0976H101.492ZM102.468 21.0976V22.0732H101.492V21.0976H102.468ZM103.444 21.0976V22.0732H102.468V21.0976H103.444ZM104.419 21.0976V22.0732H103.444V21.0976H104.419ZM99.5412 22.0732V23.0488H98.5655V22.0732H99.5412ZM98.5655 22.0732V23.0488H97.5899V22.0732H98.5655ZM123.949 12.3171V13.2927H122.973V12.3171H123.949ZM124.924 12.3171V13.2927H123.949V12.3171H124.924ZM125.9 12.3171V13.2927H124.924V12.3171H125.9ZM126.875 12.3171V13.2927H125.9V12.3171H126.875ZM127.851 12.3171V13.2927H126.875V12.3171H127.851ZM127.851 11.3415V12.3171H126.875V11.3415H127.851ZM127.851 10.3659V11.3415H126.875V10.3659H127.851ZM126.875 10.3659V11.3415H125.9V10.3659H126.875ZM125.9 10.3659V11.3415H124.924V10.3659H125.9ZM124.924 10.3659V11.3415H123.949V10.3659H124.924ZM124.924 11.3415V12.3171H123.949V11.3415H124.924ZM123.949 11.3415V12.3171H122.973V11.3415H123.949ZM125.9 11.3415V12.3171H124.924V11.3415H125.9ZM126.875 11.3415V12.3171H125.9V11.3415H126.875ZM123.949 10.3659V11.3415H122.973V10.3659H123.949ZM122.973 10.3659V11.3415H121.997V10.3659H122.973ZM122.973 9.39024V10.3659H121.997V9.39024H122.973ZM123.949 9.39024V10.3659H122.973V9.39024H123.949ZM124.924 9.39024V10.3659H123.949V9.39024H124.924ZM125.9 9.39024V10.3659H124.924V9.39024H125.9ZM126.875 9.39024V10.3659H125.9V9.39024H126.875ZM126.875 8.41463V9.39024H125.9V8.41463H126.875ZM125.9 8.41463V9.39024H124.924V8.41463H125.9ZM124.924 8.41463V9.39024H123.949V8.41463H124.924ZM123.949 8.41463V9.39024H122.973V8.41463H123.949ZM122.973 8.41463V9.39024H121.997V8.41463H122.973ZM124.924 7.43902V8.41463H123.949V7.43902H124.924ZM125.9 7.43902V8.41463H124.924V7.43902H125.9ZM123.949 7.43902V8.41463H122.973V7.43902H123.949ZM123.949 6.46342V7.43902H122.973V6.46342H123.949ZM122.973 6.46342V7.43902H121.997V6.46342H122.973ZM122.973 7.43902V8.41463H121.997V7.43902H122.973ZM121.997 7.43902V8.41463H121.022V7.43902H121.997ZM121.997 6.46342V7.43902H121.022V6.46342H121.997ZM121.997 8.41463V9.39024H121.022V8.41463H121.997ZM121.022 8.41463V9.39024H120.046V8.41463H121.022ZM121.022 9.39024V10.3659H120.046V9.39024H121.022ZM121.997 9.39024V10.3659H121.022V9.39024H121.997ZM120.046 9.39024V10.3659H119.071V9.39024H120.046ZM120.046 8.41463V9.39024H119.071V8.41463H120.046ZM120.046 7.43902V8.41463H119.071V7.43902H120.046ZM120.046 6.46342V7.43902H119.071V6.46342H120.046ZM121.022 6.46342V7.43902H120.046V6.46342H121.022ZM121.022 7.43902V8.41463H120.046V7.43902H121.022ZM119.071 6.46342V7.43902H118.095V6.46342H119.071ZM118.095 6.46342V7.43902H117.119V6.46342H118.095ZM117.119 6.46342V7.43902H116.144V6.46342H117.119ZM117.119 7.43902V8.41463H116.144V7.43902H117.119ZM117.119 8.41463V9.39024H116.144V8.41463H117.119ZM117.119 9.39024V10.3659H116.144V9.39024H117.119ZM118.095 9.39024V10.3659H117.119V9.39024H118.095ZM119.071 9.39024V10.3659H118.095V9.39024H119.071ZM119.071 8.41463V9.39024H118.095V8.41463H119.071ZM119.071 7.43902V8.41463H118.095V7.43902H119.071ZM118.095 7.43902V8.41463H117.119V7.43902H118.095ZM118.095 8.41463V9.39024H117.119V8.41463H118.095ZM116.144 8.41463V9.39024H115.168V8.41463H116.144ZM116.144 7.43902V8.41463H115.168V7.43902H116.144ZM115.168 7.43902V8.41463H114.192V7.43902H115.168ZM115.168 8.41463V9.39024H114.192V8.41463H115.168ZM114.192 8.41463V9.39024H113.217V8.41463H114.192ZM114.192 9.39024V10.3659H113.217V9.39024H114.192ZM114.192 10.3659V11.3415H113.217V10.3659H114.192ZM115.168 10.3659V11.3415H114.192V10.3659H115.168ZM115.168 9.39024V10.3659H114.192V9.39024H115.168ZM116.144 9.39024V10.3659H115.168V9.39024H116.144ZM116.144 10.3659V11.3415H115.168V10.3659H116.144ZM117.119 10.3659V11.3415H116.144V10.3659H117.119ZM118.095 10.3659V11.3415H117.119V10.3659H118.095ZM113.217 10.3659V11.3415H112.241V10.3659H113.217ZM113.217 11.3415V12.3171H112.241V11.3415H113.217ZM113.217 12.3171V13.2927H112.241V12.3171H113.217ZM113.217 13.2927V14.2683H112.241V13.2927H113.217ZM113.217 14.2683V15.2439H112.241V14.2683H113.217ZM113.217 15.2439V16.2195H112.241V15.2439H113.217ZM113.217 16.2195V17.1951H112.241V16.2195H113.217ZM113.217 17.1951V18.1707H112.241V17.1951H113.217ZM113.217 18.1707V19.1463H112.241V18.1707H113.217ZM113.217 19.1463V20.122H112.241V19.1463H113.217ZM114.192 19.1463V20.122H113.217V19.1463H114.192ZM114.192 20.122V21.0976H113.217V20.122H114.192ZM113.217 20.122V21.0976H112.241V20.122H113.217ZM115.168 20.122V21.0976H114.192V20.122H115.168ZM116.144 20.122V21.0976H115.168V20.122H116.144ZM117.119 20.122V21.0976H116.144V20.122H117.119ZM118.095 20.122V21.0976H117.119V20.122H118.095ZM117.119 19.1463V20.122H116.144V19.1463H117.119ZM117.119 18.1707V19.1463H116.144V18.1707H117.119ZM117.119 17.1951V18.1707H116.144V17.1951H117.119ZM117.119 16.2195V17.1951H116.144V16.2195H117.119ZM117.119 15.2439V16.2195H116.144V15.2439H117.119ZM117.119 14.2683V15.2439H116.144V14.2683H117.119ZM117.119 13.2927V14.2683H116.144V13.2927H117.119ZM117.119 12.3171V13.2927H116.144V12.3171H117.119ZM117.119 11.3415V12.3171H116.144V11.3415H117.119ZM116.144 11.3415V12.3171H115.168V11.3415H116.144ZM115.168 11.3415V12.3171H114.192V11.3415H115.168ZM114.192 11.3415V12.3171H113.217V11.3415H114.192ZM114.192 12.3171V13.2927H113.217V12.3171H114.192ZM114.192 13.2927V14.2683H113.217V13.2927H114.192ZM114.192 14.2683V15.2439H113.217V14.2683H114.192ZM114.192 15.2439V16.2195H113.217V15.2439H114.192ZM114.192 16.2195V17.1951H113.217V16.2195H114.192ZM114.192 17.1951V18.1707H113.217V17.1951H114.192ZM114.192 18.1707V19.1463H113.217V18.1707H114.192ZM115.168 19.1463V20.122H114.192V19.1463H115.168ZM116.144 19.1463V20.122H115.168V19.1463H116.144ZM116.144 18.1707V19.1463H115.168V18.1707H116.144ZM116.144 17.1951V18.1707H115.168V17.1951H116.144ZM116.144 16.2195V17.1951H115.168V16.2195H116.144ZM116.144 15.2439V16.2195H115.168V15.2439H116.144ZM115.168 15.2439V16.2195H114.192V15.2439H115.168ZM115.168 14.2683V15.2439H114.192V14.2683H115.168ZM115.168 13.2927V14.2683H114.192V13.2927H115.168ZM115.168 12.3171V13.2927H114.192V12.3171H115.168ZM116.144 12.3171V13.2927H115.168V12.3171H116.144ZM116.144 13.2927V14.2683H115.168V13.2927H116.144ZM116.144 14.2683V15.2439H115.168V14.2683H116.144ZM115.168 17.1951V18.1707H114.192V17.1951H115.168ZM115.168 18.1707V19.1463H114.192V18.1707H115.168ZM115.168 16.2195V17.1951H114.192V16.2195H115.168ZM123.949 19.1463V20.122H122.973V19.1463H123.949ZM124.924 19.1463V20.122H123.949V19.1463H124.924ZM125.9 19.1463V20.122H124.924V19.1463H125.9ZM126.875 19.1463V20.122H125.9V19.1463H126.875ZM127.851 19.1463V20.122H126.875V19.1463H127.851ZM127.851 20.122V21.0976H126.875V20.122H127.851ZM126.875 20.122V21.0976H125.9V20.122H126.875ZM125.9 20.122V21.0976H124.924V20.122H125.9ZM124.924 20.122V21.0976H123.949V20.122H124.924ZM123.949 20.122V21.0976H122.973V20.122H123.949ZM122.973 20.122V21.0976H121.997V20.122H122.973ZM122.973 21.0976V22.0732H121.997V21.0976H122.973ZM123.949 21.0976V22.0732H122.973V21.0976H123.949ZM124.924 21.0976V22.0732H123.949V21.0976H124.924ZM125.9 21.0976V22.0732H124.924V21.0976H125.9ZM125.9 22.0732V23.0488H124.924V22.0732H125.9ZM126.875 22.0732V23.0488H125.9V22.0732H126.875ZM126.875 21.0976V22.0732H125.9V21.0976H126.875ZM125.9 23.0488V24.0244H124.924V23.0488H125.9ZM124.924 23.0488V24.0244H123.949V23.0488H124.924ZM124.924 22.0732V23.0488H123.949V22.0732H124.924ZM123.949 22.0732V23.0488H122.973V22.0732H123.949ZM123.949 23.0488V24.0244H122.973V23.0488H123.949ZM123.949 24.0244V25H122.973V24.0244H123.949ZM122.973 24.0244V25H121.997V24.0244H122.973ZM121.997 24.0244V25H121.022V24.0244H121.997ZM121.022 24.0244V25H120.046V24.0244H121.022ZM120.046 24.0244V25H119.071V24.0244H120.046ZM119.071 24.0244V25H118.095V24.0244H119.071ZM118.095 24.0244V25H117.119V24.0244H118.095ZM117.119 24.0244V25H116.144V24.0244H117.119ZM118.095 23.0488V24.0244H117.119V23.0488H118.095ZM119.071 23.0488V24.0244H118.095V23.0488H119.071ZM120.046 23.0488V24.0244H119.071V23.0488H120.046ZM121.022 23.0488V24.0244H120.046V23.0488H121.022ZM121.997 23.0488V24.0244H121.022V23.0488H121.997ZM122.973 23.0488V24.0244H121.997V23.0488H122.973ZM122.973 22.0732V23.0488H121.997V22.0732H122.973ZM121.997 22.0732V23.0488H121.022V22.0732H121.997ZM121.022 22.0732V23.0488H120.046V22.0732H121.022ZM120.046 22.0732V23.0488H119.071V22.0732H120.046ZM119.071 22.0732V23.0488H118.095V22.0732H119.071ZM118.095 22.0732V23.0488H117.119V22.0732H118.095ZM117.119 23.0488V24.0244H116.144V23.0488H117.119ZM116.144 23.0488V24.0244H115.168V23.0488H116.144ZM115.168 23.0488V24.0244H114.192V23.0488H115.168ZM115.168 22.0732V23.0488H114.192V22.0732H115.168ZM114.192 22.0732V23.0488H113.217V22.0732H114.192ZM114.192 21.0976V22.0732H113.217V21.0976H114.192ZM115.168 21.0976V22.0732H114.192V21.0976H115.168ZM116.144 21.0976V22.0732H115.168V21.0976H116.144ZM117.119 21.0976V22.0732H116.144V21.0976H117.119ZM118.095 21.0976V22.0732H117.119V21.0976H118.095ZM119.071 21.0976V22.0732H118.095V21.0976H119.071ZM120.046 21.0976V22.0732H119.071V21.0976H120.046ZM121.022 21.0976V22.0732H120.046V21.0976H121.022ZM121.997 21.0976V22.0732H121.022V21.0976H121.997ZM117.119 22.0732V23.0488H116.144V22.0732H117.119ZM116.144 22.0732V23.0488H115.168V22.0732H116.144ZM127.851 13.2927V14.2683H126.875V13.2927H127.851ZM126.875 13.2927V14.2683H125.9V13.2927H126.875ZM125.9 13.2927V14.2683H124.924V13.2927H125.9ZM124.924 13.2927V14.2683H123.949V13.2927H124.924ZM123.949 13.2927V14.2683H122.973V13.2927H123.949ZM127.851 14.2683V15.2439H126.875V14.2683H127.851ZM125.9 14.2683V15.2439H124.924V14.2683H125.9ZM124.924 14.2683V15.2439H123.949V14.2683H124.924ZM122.973 14.2683V15.2439H121.997V14.2683H122.973ZM121.997 14.2683V15.2439H121.022V14.2683H121.997ZM121.022 14.2683V15.2439H120.046V14.2683H121.022ZM120.046 14.2683V15.2439H119.071V14.2683H120.046ZM119.071 14.2683V15.2439H118.095V14.2683H119.071ZM118.095 14.2683V15.2439H117.119V14.2683H118.095ZM123.949 14.2683V15.2439H122.973V14.2683H123.949ZM126.875 14.2683V15.2439H125.9V14.2683H126.875ZM127.851 15.2439V16.2195H126.875V15.2439H127.851ZM126.875 15.2439V16.2195H125.9V15.2439H126.875ZM125.9 15.2439V16.2195H124.924V15.2439H125.9ZM124.924 15.2439V16.2195H123.949V15.2439H124.924ZM123.949 15.2439V16.2195H122.973V15.2439H123.949ZM122.973 15.2439V16.2195H121.997V15.2439H122.973ZM121.997 15.2439V16.2195H121.022V15.2439H121.997ZM121.022 15.2439V16.2195H120.046V15.2439H121.022ZM120.046 15.2439V16.2195H119.071V15.2439H120.046ZM119.071 15.2439V16.2195H118.095V15.2439H119.071ZM118.095 15.2439V16.2195H117.119V15.2439H118.095ZM118.095 16.2195V17.1951H117.119V16.2195H118.095ZM119.071 16.2195V17.1951H118.095V16.2195H119.071ZM120.046 16.2195V17.1951H119.071V16.2195H120.046ZM121.997 16.2195V17.1951H121.022V16.2195H121.997ZM122.973 16.2195V17.1951H121.997V16.2195H122.973ZM123.949 16.2195V17.1951H122.973V16.2195H123.949ZM124.924 16.2195V17.1951H123.949V16.2195H124.924ZM125.9 16.2195V17.1951H124.924V16.2195H125.9ZM126.875 16.2195V17.1951H125.9V16.2195H126.875ZM127.851 16.2195V17.1951H126.875V16.2195H127.851ZM121.022 16.2195V17.1951H120.046V16.2195H121.022ZM144.454 10.3659V11.3415H143.478V10.3659H144.454ZM143.478 10.3659V11.3415H142.502V10.3659H143.478ZM142.502 10.3659V11.3415H141.527V10.3659H142.502ZM141.527 10.3659V11.3415H140.551V10.3659H141.527ZM140.551 9.39024V10.3659H139.575V9.39024H140.551ZM141.527 9.39024V10.3659H140.551V9.39024H141.527ZM142.502 9.39024V10.3659H141.527V9.39024H142.502ZM143.478 9.39024V10.3659H142.502V9.39024H143.478ZM144.454 9.39024V10.3659H143.478V9.39024H144.454ZM144.454 8.41463V9.39024H143.478V8.41463H144.454ZM143.478 8.41463V9.39024H142.502V8.41463H143.478ZM142.502 8.41463V9.39024H141.527V8.41463H142.502ZM141.527 8.41463V9.39024H140.551V8.41463H141.527ZM140.551 8.41463V9.39024H139.575V8.41463H140.551ZM142.502 7.43902V8.41463H141.527V7.43902H142.502ZM143.478 7.43902V8.41463H142.502V7.43902H143.478ZM141.527 7.43902V8.41463H140.551V7.43902H141.527ZM141.527 6.46342V7.43902H140.551V6.46342H141.527ZM140.551 6.46342V7.43902H139.575V6.46342H140.551ZM140.551 7.43902V8.41463H139.575V7.43902H140.551ZM139.575 7.43902V8.41463H138.6V7.43902H139.575ZM139.575 6.46342V7.43902H138.6V6.46342H139.575ZM139.575 8.41463V9.39024H138.6V8.41463H139.575ZM138.6 8.41463V9.39024H137.624V8.41463H138.6ZM138.6 9.39024V10.3659H137.624V9.39024H138.6ZM139.575 9.39024V10.3659H138.6V9.39024H139.575ZM137.624 9.39024V10.3659H136.649V9.39024H137.624ZM137.624 8.41463V9.39024H136.649V8.41463H137.624ZM137.624 7.43902V8.41463H136.649V7.43902H137.624ZM137.624 6.46342V7.43902H136.649V6.46342H137.624ZM138.6 6.46342V7.43902H137.624V6.46342H138.6ZM138.6 7.43902V8.41463H137.624V7.43902H138.6ZM136.649 6.46342V7.43902H135.673V6.46342H136.649ZM135.673 6.46342V7.43902H134.697V6.46342H135.673ZM134.697 6.46342V7.43902H133.722V6.46342H134.697ZM134.697 7.43902V8.41463H133.722V7.43902H134.697ZM134.697 8.41463V9.39024H133.722V8.41463H134.697ZM134.697 9.39024V10.3659H133.722V9.39024H134.697ZM135.673 9.39024V10.3659H134.697V9.39024H135.673ZM136.649 9.39024V10.3659H135.673V9.39024H136.649ZM136.649 8.41463V9.39024H135.673V8.41463H136.649ZM136.649 7.43902V8.41463H135.673V7.43902H136.649ZM135.673 7.43902V8.41463H134.697V7.43902H135.673ZM135.673 8.41463V9.39024H134.697V8.41463H135.673ZM133.722 8.41463V9.39024H132.746V8.41463H133.722ZM133.722 7.43902V8.41463H132.746V7.43902H133.722ZM132.746 7.43902V8.41463H131.771V7.43902H132.746ZM132.746 8.41463V9.39024H131.771V8.41463H132.746ZM131.771 8.41463V9.39024H130.795V8.41463H131.771ZM131.771 9.39024V10.3659H130.795V9.39024H131.771ZM131.771 10.3659V11.3415H130.795V10.3659H131.771ZM132.746 10.3659V11.3415H131.771V10.3659H132.746ZM132.746 9.39024V10.3659H131.771V9.39024H132.746ZM133.722 9.39024V10.3659H132.746V9.39024H133.722ZM133.722 10.3659V11.3415H132.746V10.3659H133.722ZM134.697 10.3659V11.3415H133.722V10.3659H134.697ZM135.673 10.3659V11.3415H134.697V10.3659H135.673ZM130.795 10.3659V11.3415H129.819V10.3659H130.795ZM130.795 11.3415V12.3171H129.819V11.3415H130.795ZM130.795 12.3171V13.2927H129.819V12.3171H130.795ZM130.795 19.1463V20.122H129.819V19.1463H130.795ZM131.771 19.1463V20.122H130.795V19.1463H131.771ZM131.771 20.122V21.0976H130.795V20.122H131.771ZM130.795 20.122V21.0976H129.819V20.122H130.795ZM132.746 20.122V21.0976H131.771V20.122H132.746ZM133.722 20.122V21.0976H132.746V20.122H133.722ZM134.697 20.122V21.0976H133.722V20.122H134.697ZM135.673 20.122V21.0976H134.697V20.122H135.673ZM134.697 19.1463V20.122H133.722V19.1463H134.697ZM134.697 12.3171V13.2927H133.722V12.3171H134.697ZM134.697 11.3415V12.3171H133.722V11.3415H134.697ZM133.722 11.3415V12.3171H132.746V11.3415H133.722ZM132.746 11.3415V12.3171H131.771V11.3415H132.746ZM131.771 11.3415V12.3171H130.795V11.3415H131.771ZM131.771 12.3171V13.2927H130.795V12.3171H131.771ZM132.746 19.1463V20.122H131.771V19.1463H132.746ZM133.722 19.1463V20.122H132.746V19.1463H133.722ZM132.746 12.3171V13.2927H131.771V12.3171H132.746ZM133.722 12.3171V13.2927H132.746V12.3171H133.722ZM141.527 18.1707V19.1463H140.551V18.1707H141.527ZM141.527 19.1463V20.122H140.551V19.1463H141.527ZM142.502 19.1463V20.122H141.527V19.1463H142.502ZM143.478 19.1463V20.122H142.502V19.1463H143.478ZM144.454 19.1463V20.122H143.478V19.1463H144.454ZM145.429 19.1463V20.122H144.454V19.1463H145.429ZM145.429 18.1707V19.1463H144.454V18.1707H145.429ZM144.454 18.1707V19.1463H143.478V18.1707H144.454ZM143.478 18.1707V19.1463H142.502V18.1707H143.478ZM142.502 18.1707V19.1463H141.527V18.1707H142.502ZM145.429 20.122V21.0976H144.454V20.122H145.429ZM144.454 20.122V21.0976H143.478V20.122H144.454ZM143.478 20.122V21.0976H142.502V20.122H143.478ZM142.502 20.122V21.0976H141.527V20.122H142.502ZM141.527 20.122V21.0976H140.551V20.122H141.527ZM140.551 20.122V21.0976H139.575V20.122H140.551ZM140.551 21.0976V22.0732H139.575V21.0976H140.551ZM141.527 21.0976V22.0732H140.551V21.0976H141.527ZM142.502 21.0976V22.0732H141.527V21.0976H142.502ZM143.478 21.0976V22.0732H142.502V21.0976H143.478ZM143.478 22.0732V23.0488H142.502V22.0732H143.478ZM144.454 22.0732V23.0488H143.478V22.0732H144.454ZM144.454 21.0976V22.0732H143.478V21.0976H144.454ZM143.478 23.0488V24.0244H142.502V23.0488H143.478ZM142.502 23.0488V24.0244H141.527V23.0488H142.502ZM142.502 22.0732V23.0488H141.527V22.0732H142.502ZM141.527 22.0732V23.0488H140.551V22.0732H141.527ZM141.527 23.0488V24.0244H140.551V23.0488H141.527ZM141.527 24.0244V25H140.551V24.0244H141.527ZM140.551 24.0244V25H139.575V24.0244H140.551ZM139.575 24.0244V25H138.6V24.0244H139.575ZM138.6 24.0244V25H137.624V24.0244H138.6ZM137.624 24.0244V25H136.649V24.0244H137.624ZM136.649 24.0244V25H135.673V24.0244H136.649ZM135.673 24.0244V25H134.697V24.0244H135.673ZM134.697 24.0244V25H133.722V24.0244H134.697ZM135.673 23.0488V24.0244H134.697V23.0488H135.673ZM136.649 23.0488V24.0244H135.673V23.0488H136.649ZM137.624 23.0488V24.0244H136.649V23.0488H137.624ZM138.6 23.0488V24.0244H137.624V23.0488H138.6ZM139.575 23.0488V24.0244H138.6V23.0488H139.575ZM140.551 23.0488V24.0244H139.575V23.0488H140.551ZM140.551 22.0732V23.0488H139.575V22.0732H140.551ZM139.575 22.0732V23.0488H138.6V22.0732H139.575ZM138.6 22.0732V23.0488H137.624V22.0732H138.6ZM137.624 22.0732V23.0488H136.649V22.0732H137.624ZM136.649 22.0732V23.0488H135.673V22.0732H136.649ZM135.673 22.0732V23.0488H134.697V22.0732H135.673ZM134.697 23.0488V24.0244H133.722V23.0488H134.697ZM133.722 23.0488V24.0244H132.746V23.0488H133.722ZM132.746 23.0488V24.0244H131.771V23.0488H132.746ZM132.746 22.0732V23.0488H131.771V22.0732H132.746ZM131.771 22.0732V23.0488H130.795V22.0732H131.771ZM131.771 21.0976V22.0732H130.795V21.0976H131.771ZM132.746 21.0976V22.0732H131.771V21.0976H132.746ZM133.722 21.0976V22.0732H132.746V21.0976H133.722ZM134.697 21.0976V22.0732H133.722V21.0976H134.697ZM135.673 21.0976V22.0732H134.697V21.0976H135.673ZM136.649 21.0976V22.0732H135.673V21.0976H136.649ZM137.624 21.0976V22.0732H136.649V21.0976H137.624ZM138.6 21.0976V22.0732H137.624V21.0976H138.6ZM139.575 21.0976V22.0732H138.6V21.0976H139.575ZM134.697 22.0732V23.0488H133.722V22.0732H134.697ZM133.722 22.0732V23.0488H132.746V22.0732H133.722ZM143.478 16.2195V17.1951H142.502V16.2195H143.478ZM145.429 17.1951V18.1707H144.454V17.1951H145.429ZM144.454 17.1951V18.1707H143.478V17.1951H144.454ZM143.478 17.1951V18.1707H142.502V17.1951H143.478ZM142.502 17.1951V18.1707H141.527V17.1951H142.502ZM142.502 16.2195V17.1951H141.527V16.2195H142.502ZM141.527 16.2195V17.1951H140.551V16.2195H141.527ZM141.527 17.1951V18.1707H140.551V17.1951H141.527ZM135.673 12.3171V13.2927H134.697V12.3171H135.673ZM131.771 13.2927V14.2683H130.795V13.2927H131.771ZM131.771 14.2683V15.2439H130.795V14.2683H131.771ZM132.746 14.2683V15.2439H131.771V14.2683H132.746ZM132.746 15.2439V16.2195H131.771V15.2439H132.746ZM133.722 15.2439V16.2195H132.746V15.2439H133.722ZM134.697 16.2195V17.1951H133.722V16.2195H134.697ZM134.697 15.2439V16.2195H133.722V15.2439H134.697ZM134.697 14.2683V15.2439H133.722V14.2683H134.697ZM134.697 13.2927V14.2683H133.722V13.2927H134.697ZM133.722 13.2927V14.2683H132.746V13.2927H133.722ZM133.722 14.2683V15.2439H132.746V14.2683H133.722ZM132.746 13.2927V14.2683H131.771V13.2927H132.746ZM135.673 16.2195V17.1951H134.697V16.2195H135.673ZM136.649 16.2195V17.1951H135.673V16.2195H136.649ZM137.624 16.2195V17.1951H136.649V16.2195H137.624ZM138.6 16.2195V17.1951H137.624V16.2195H138.6ZM138.6 15.2439V16.2195H137.624V15.2439H138.6ZM137.624 15.2439V16.2195H136.649V15.2439H137.624ZM136.649 15.2439V16.2195H135.673V15.2439H136.649ZM135.673 15.2439V16.2195H134.697V15.2439H135.673ZM135.673 14.2683V15.2439H134.697V14.2683H135.673ZM135.673 13.2927V14.2683H134.697V13.2927H135.673ZM136.649 13.2927V14.2683H135.673V13.2927H136.649ZM137.624 13.2927V14.2683H136.649V13.2927H137.624ZM138.6 13.2927V14.2683H137.624V13.2927H138.6ZM138.6 14.2683V15.2439H137.624V14.2683H138.6ZM137.624 14.2683V15.2439H136.649V14.2683H137.624ZM136.649 14.2683V15.2439H135.673V14.2683H136.649ZM139.575 13.2927V14.2683H138.6V13.2927H139.575ZM140.551 13.2927V14.2683H139.575V13.2927H140.551ZM140.551 14.2683V15.2439H139.575V14.2683H140.551ZM140.551 15.2439V16.2195H139.575V15.2439H140.551ZM140.551 16.2195V17.1951H139.575V16.2195H140.551ZM139.575 16.2195V17.1951H138.6V16.2195H139.575ZM139.575 15.2439V16.2195H138.6V15.2439H139.575ZM139.575 14.2683V15.2439H138.6V14.2683H139.575ZM140.551 17.1951V18.1707H139.575V17.1951H140.551ZM141.527 13.2927V14.2683H140.551V13.2927H141.527ZM144.454 16.2195V17.1951H143.478V16.2195H144.454ZM144.454 15.2439V16.2195H143.478V15.2439H144.454ZM143.478 14.2683V15.2439H142.502V14.2683H143.478ZM142.502 14.2683V15.2439H141.527V14.2683H142.502ZM141.527 14.2683V15.2439H140.551V14.2683H141.527ZM141.527 15.2439V16.2195H140.551V15.2439H141.527ZM142.502 15.2439V16.2195H141.527V15.2439H142.502ZM143.478 15.2439V16.2195H142.502V15.2439H143.478ZM140.551 10.3659V11.3415H139.575V10.3659H140.551ZM162.032 10.3659V11.3415H161.056V10.3659H162.032ZM161.056 10.3659V11.3415H160.08V10.3659H161.056ZM160.08 10.3659V11.3415H159.105V10.3659H160.08ZM159.105 10.3659V11.3415H158.129V10.3659H159.105ZM158.129 9.39024V10.3659H157.154V9.39024H158.129ZM159.105 9.39024V10.3659H158.129V9.39024H159.105ZM160.08 9.39024V10.3659H159.105V9.39024H160.08ZM161.056 9.39024V10.3659H160.08V9.39024H161.056ZM162.032 9.39024V10.3659H161.056V9.39024H162.032ZM162.032 8.41463V9.39024H161.056V8.41463H162.032ZM161.056 8.41463V9.39024H160.08V8.41463H161.056ZM160.08 8.41463V9.39024H159.105V8.41463H160.08ZM159.105 8.41463V9.39024H158.129V8.41463H159.105ZM158.129 8.41463V9.39024H157.154V8.41463H158.129ZM160.08 7.43902V8.41463H159.105V7.43902H160.08ZM161.056 7.43902V8.41463H160.08V7.43902H161.056ZM159.105 7.43902V8.41463H158.129V7.43902H159.105ZM159.105 6.46342V7.43902H158.129V6.46342H159.105ZM158.129 6.46342V7.43902H157.154V6.46342H158.129ZM158.129 7.43902V8.41463H157.154V7.43902H158.129ZM157.154 7.43902V8.41463H156.178V7.43902H157.154ZM157.154 6.46342V7.43902H156.178V6.46342H157.154ZM157.154 8.41463V9.39024H156.178V8.41463H157.154ZM156.178 8.41463V9.39024H155.202V8.41463H156.178ZM156.178 9.39024V10.3659H155.202V9.39024H156.178ZM157.154 9.39024V10.3659H156.178V9.39024H157.154ZM155.202 9.39024V10.3659H154.227V9.39024H155.202ZM155.202 8.41463V9.39024H154.227V8.41463H155.202ZM155.202 7.43902V8.41463H154.227V7.43902H155.202ZM155.202 6.46342V7.43902H154.227V6.46342H155.202ZM156.178 6.46342V7.43902H155.202V6.46342H156.178ZM156.178 7.43902V8.41463H155.202V7.43902H156.178ZM154.227 6.46342V7.43902H153.251V6.46342H154.227ZM153.251 6.46342V7.43902H152.276V6.46342H153.251ZM152.276 6.46342V7.43902H151.3V6.46342H152.276ZM152.276 7.43902V8.41463H151.3V7.43902H152.276ZM152.276 8.41463V9.39024H151.3V8.41463H152.276ZM152.276 9.39024V10.3659H151.3V9.39024H152.276ZM153.251 9.39024V10.3659H152.276V9.39024H153.251ZM154.227 9.39024V10.3659H153.251V9.39024H154.227ZM154.227 8.41463V9.39024H153.251V8.41463H154.227ZM154.227 7.43902V8.41463H153.251V7.43902H154.227ZM153.251 7.43902V8.41463H152.276V7.43902H153.251ZM153.251 8.41463V9.39024H152.276V8.41463H153.251ZM151.3 8.41463V9.39024H150.324V8.41463H151.3ZM151.3 7.43902V8.41463H150.324V7.43902H151.3ZM150.324 7.43902V8.41463H149.349V7.43902H150.324ZM150.324 8.41463V9.39024H149.349V8.41463H150.324ZM149.349 8.41463V9.39024H148.373V8.41463H149.349ZM149.349 9.39024V10.3659H148.373V9.39024H149.349ZM149.349 10.3659V11.3415H148.373V10.3659H149.349ZM150.324 10.3659V11.3415H149.349V10.3659H150.324ZM150.324 9.39024V10.3659H149.349V9.39024H150.324ZM151.3 9.39024V10.3659H150.324V9.39024H151.3ZM151.3 10.3659V11.3415H150.324V10.3659H151.3ZM152.276 10.3659V11.3415H151.3V10.3659H152.276ZM153.251 10.3659V11.3415H152.276V10.3659H153.251ZM148.373 10.3659V11.3415H147.397V10.3659H148.373ZM148.373 11.3415V12.3171H147.397V11.3415H148.373ZM148.373 12.3171V13.2927H147.397V12.3171H148.373ZM148.373 19.1463V20.122H147.397V19.1463H148.373ZM149.349 19.1463V20.122H148.373V19.1463H149.349ZM149.349 20.122V21.0976H148.373V20.122H149.349ZM148.373 20.122V21.0976H147.397V20.122H148.373ZM150.324 20.122V21.0976H149.349V20.122H150.324ZM151.3 20.122V21.0976H150.324V20.122H151.3ZM152.276 20.122V21.0976H151.3V20.122H152.276ZM153.251 20.122V21.0976H152.276V20.122H153.251ZM152.276 19.1463V20.122H151.3V19.1463H152.276ZM152.276 12.3171V13.2927H151.3V12.3171H152.276ZM152.276 11.3415V12.3171H151.3V11.3415H152.276ZM151.3 11.3415V12.3171H150.324V11.3415H151.3ZM150.324 11.3415V12.3171H149.349V11.3415H150.324ZM149.349 11.3415V12.3171H148.373V11.3415H149.349ZM149.349 12.3171V13.2927H148.373V12.3171H149.349ZM150.324 19.1463V20.122H149.349V19.1463H150.324ZM151.3 19.1463V20.122H150.324V19.1463H151.3ZM150.324 12.3171V13.2927H149.349V12.3171H150.324ZM151.3 12.3171V13.2927H150.324V12.3171H151.3ZM159.105 18.1707V19.1463H158.129V18.1707H159.105ZM159.105 19.1463V20.122H158.129V19.1463H159.105ZM160.08 19.1463V20.122H159.105V19.1463H160.08ZM161.056 19.1463V20.122H160.08V19.1463H161.056ZM162.032 19.1463V20.122H161.056V19.1463H162.032ZM163.007 19.1463V20.122H162.032V19.1463H163.007ZM163.007 18.1707V19.1463H162.032V18.1707H163.007ZM162.032 18.1707V19.1463H161.056V18.1707H162.032ZM161.056 18.1707V19.1463H160.08V18.1707H161.056ZM160.08 18.1707V19.1463H159.105V18.1707H160.08ZM163.007 20.122V21.0976H162.032V20.122H163.007ZM162.032 20.122V21.0976H161.056V20.122H162.032ZM161.056 20.122V21.0976H160.08V20.122H161.056ZM160.08 20.122V21.0976H159.105V20.122H160.08ZM159.105 20.122V21.0976H158.129V20.122H159.105ZM158.129 20.122V21.0976H157.154V20.122H158.129ZM158.129 21.0976V22.0732H157.154V21.0976H158.129ZM159.105 21.0976V22.0732H158.129V21.0976H159.105ZM160.08 21.0976V22.0732H159.105V21.0976H160.08ZM161.056 21.0976V22.0732H160.08V21.0976H161.056ZM161.056 22.0732V23.0488H160.08V22.0732H161.056ZM162.032 22.0732V23.0488H161.056V22.0732H162.032ZM162.032 21.0976V22.0732H161.056V21.0976H162.032ZM161.056 23.0488V24.0244H160.08V23.0488H161.056ZM160.08 23.0488V24.0244H159.105V23.0488H160.08ZM160.08 22.0732V23.0488H159.105V22.0732H160.08ZM159.105 22.0732V23.0488H158.129V22.0732H159.105ZM159.105 23.0488V24.0244H158.129V23.0488H159.105ZM159.105 24.0244V25H158.129V24.0244H159.105ZM158.129 24.0244V25H157.154V24.0244H158.129ZM157.154 24.0244V25H156.178V24.0244H157.154ZM156.178 24.0244V25H155.202V24.0244H156.178ZM155.202 24.0244V25H154.227V24.0244H155.202ZM154.227 24.0244V25H153.251V24.0244H154.227ZM153.251 24.0244V25H152.276V24.0244H153.251ZM152.276 24.0244V25H151.3V24.0244H152.276ZM153.251 23.0488V24.0244H152.276V23.0488H153.251ZM154.227 23.0488V24.0244H153.251V23.0488H154.227ZM155.202 23.0488V24.0244H154.227V23.0488H155.202ZM156.178 23.0488V24.0244H155.202V23.0488H156.178ZM157.154 23.0488V24.0244H156.178V23.0488H157.154ZM158.129 23.0488V24.0244H157.154V23.0488H158.129ZM158.129 22.0732V23.0488H157.154V22.0732H158.129ZM157.154 22.0732V23.0488H156.178V22.0732H157.154ZM156.178 22.0732V23.0488H155.202V22.0732H156.178ZM155.202 22.0732V23.0488H154.227V22.0732H155.202ZM154.227 22.0732V23.0488H153.251V22.0732H154.227ZM153.251 22.0732V23.0488H152.276V22.0732H153.251ZM152.276 23.0488V24.0244H151.3V23.0488H152.276ZM151.3 23.0488V24.0244H150.324V23.0488H151.3ZM150.324 23.0488V24.0244H149.349V23.0488H150.324ZM150.324 22.0732V23.0488H149.349V22.0732H150.324ZM149.349 22.0732V23.0488H148.373V22.0732H149.349ZM149.349 21.0976V22.0732H148.373V21.0976H149.349ZM150.324 21.0976V22.0732H149.349V21.0976H150.324ZM151.3 21.0976V22.0732H150.324V21.0976H151.3ZM152.276 21.0976V22.0732H151.3V21.0976H152.276ZM153.251 21.0976V22.0732H152.276V21.0976H153.251ZM154.227 21.0976V22.0732H153.251V21.0976H154.227ZM155.202 21.0976V22.0732H154.227V21.0976H155.202ZM156.178 21.0976V22.0732H155.202V21.0976H156.178ZM157.154 21.0976V22.0732H156.178V21.0976H157.154ZM152.276 22.0732V23.0488H151.3V22.0732H152.276ZM151.3 22.0732V23.0488H150.324V22.0732H151.3ZM161.056 16.2195V17.1951H160.08V16.2195H161.056ZM163.007 17.1951V18.1707H162.032V17.1951H163.007ZM162.032 17.1951V18.1707H161.056V17.1951H162.032ZM161.056 17.1951V18.1707H160.08V17.1951H161.056ZM160.08 17.1951V18.1707H159.105V17.1951H160.08ZM160.08 16.2195V17.1951H159.105V16.2195H160.08ZM159.105 16.2195V17.1951H158.129V16.2195H159.105ZM159.105 17.1951V18.1707H158.129V17.1951H159.105ZM153.251 12.3171V13.2927H152.276V12.3171H153.251ZM149.349 13.2927V14.2683H148.373V13.2927H149.349ZM149.349 14.2683V15.2439H148.373V14.2683H149.349ZM150.324 14.2683V15.2439H149.349V14.2683H150.324ZM150.324 15.2439V16.2195H149.349V15.2439H150.324ZM151.3 15.2439V16.2195H150.324V15.2439H151.3ZM152.276 16.2195V17.1951H151.3V16.2195H152.276ZM152.276 15.2439V16.2195H151.3V15.2439H152.276ZM152.276 14.2683V15.2439H151.3V14.2683H152.276ZM152.276 13.2927V14.2683H151.3V13.2927H152.276ZM151.3 13.2927V14.2683H150.324V13.2927H151.3ZM151.3 14.2683V15.2439H150.324V14.2683H151.3ZM150.324 13.2927V14.2683H149.349V13.2927H150.324ZM153.251 16.2195V17.1951H152.276V16.2195H153.251ZM154.227 16.2195V17.1951H153.251V16.2195H154.227ZM155.202 16.2195V17.1951H154.227V16.2195H155.202ZM156.178 16.2195V17.1951H155.202V16.2195H156.178ZM156.178 15.2439V16.2195H155.202V15.2439H156.178ZM155.202 15.2439V16.2195H154.227V15.2439H155.202ZM154.227 15.2439V16.2195H153.251V15.2439H154.227ZM153.251 15.2439V16.2195H152.276V15.2439H153.251ZM153.251 14.2683V15.2439H152.276V14.2683H153.251ZM153.251 13.2927V14.2683H152.276V13.2927H153.251ZM154.227 13.2927V14.2683H153.251V13.2927H154.227ZM155.202 13.2927V14.2683H154.227V13.2927H155.202ZM156.178 13.2927V14.2683H155.202V13.2927H156.178ZM156.178 14.2683V15.2439H155.202V14.2683H156.178ZM155.202 14.2683V15.2439H154.227V14.2683H155.202ZM154.227 14.2683V15.2439H153.251V14.2683H154.227ZM157.154 13.2927V14.2683H156.178V13.2927H157.154ZM158.129 13.2927V14.2683H157.154V13.2927H158.129ZM158.129 14.2683V15.2439H157.154V14.2683H158.129ZM158.129 15.2439V16.2195H157.154V15.2439H158.129ZM158.129 16.2195V17.1951H157.154V16.2195H158.129ZM157.154 16.2195V17.1951H156.178V16.2195H157.154ZM157.154 15.2439V16.2195H156.178V15.2439H157.154ZM157.154 14.2683V15.2439H156.178V14.2683H157.154ZM158.129 17.1951V18.1707H157.154V17.1951H158.129ZM159.105 13.2927V14.2683H158.129V13.2927H159.105ZM162.032 16.2195V17.1951H161.056V16.2195H162.032ZM162.032 15.2439V16.2195H161.056V15.2439H162.032ZM161.056 14.2683V15.2439H160.08V14.2683H161.056ZM160.08 14.2683V15.2439H159.105V14.2683H160.08ZM159.105 14.2683V15.2439H158.129V14.2683H159.105ZM159.105 15.2439V16.2195H158.129V15.2439H159.105ZM160.08 15.2439V16.2195H159.105V15.2439H160.08ZM161.056 15.2439V16.2195H160.08V15.2439H161.056ZM158.129 10.3659V11.3415H157.154V10.3659H158.129Z" fill="white"/>
</svg>
