<svg width="210" height="55" viewBox="0 0 210 55" fill="none" xmlns="http://www.w3.org/2000/svg">
<g clip-path="url(#clip0_166_13)">
<rect width="210" height="55" fill="white"/>
<rect width="210" height="55" fill="#316033"/>
<path d="M33.3841 16.0488V16.9268H32.5061V16.0488H33.3841ZM33.3841 16.9268V17.8049H32.5061V16.9268H33.3841ZM33.3841 17.8049V18.6829H32.5061V17.8049H33.3841ZM36.0183 16.0488V16.9268H35.1402V16.0488H36.0183ZM36.0183 16.9268V17.8049H35.1402V16.9268H36.0183ZM36.0183 17.8049V18.6829H35.1402V17.8049H36.0183ZM36.8963 17.8049V18.6829H36.0183V17.8049H36.8963ZM36.8963 16.9268V17.8049H36.0183V16.9268H36.8963ZM36.8963 16.0488V16.9268H36.0183V16.0488H36.8963ZM35.1402 16.0488V16.9268H34.2622V16.0488H35.1402ZM34.2622 16.0488V16.9268H33.3841V16.0488H34.2622ZM34.2622 16.9268V17.8049H33.3841V16.9268H34.2622ZM35.1402 16.9268V17.8049H34.2622V16.9268H35.1402ZM35.1402 17.8049V18.6829H34.2622V17.8049H35.1402ZM34.2622 17.8049V18.6829H33.3841V17.8049H34.2622ZM33.3841 18.6829V19.561H32.5061V18.6829H33.3841ZM34.2622 18.6829V19.561H33.3841V18.6829H34.2622ZM35.1402 18.6829V19.561H34.2622V18.6829H35.1402ZM36.0183 18.6829V19.561H35.1402V18.6829H36.0183ZM36.8963 18.6829V19.561H36.0183V18.6829H36.8963ZM33.3841 37.122V38H32.5061V37.122H33.3841ZM33.3841 36.2439V37.122H32.5061V36.2439H33.3841ZM33.3841 35.3659V36.2439H32.5061V35.3659H33.3841ZM33.3841 34.4878V35.3659H32.5061V34.4878H33.3841ZM33.3841 33.6098V34.4878H32.5061V33.6098H33.3841ZM33.3841 32.7317V33.6098H32.5061V32.7317H33.3841ZM33.3841 31.8537V32.7317H32.5061V31.8537H33.3841ZM33.3841 30.9756V31.8537H32.5061V30.9756H33.3841ZM33.3841 30.0976V30.9756H32.5061V30.0976H33.3841ZM33.3841 29.2195V30.0976H32.5061V29.2195H33.3841ZM33.3841 28.3415V29.2195H32.5061V28.3415H33.3841ZM33.3841 27.4634V28.3415H32.5061V27.4634H33.3841ZM33.3841 26.5854V27.4634H32.5061V26.5854H33.3841ZM33.3841 25.7073V26.5854H32.5061V25.7073H33.3841ZM33.3841 24.8293V25.7073H32.5061V24.8293H33.3841ZM34.2622 24.8293V25.7073H33.3841V24.8293H34.2622ZM34.2622 25.7073V26.5854H33.3841V25.7073H34.2622ZM34.2622 26.5854V27.4634H33.3841V26.5854H34.2622ZM34.2622 27.4634V28.3415H33.3841V27.4634H34.2622ZM34.2622 28.3415V29.2195H33.3841V28.3415H34.2622ZM34.2622 29.2195V30.0976H33.3841V29.2195H34.2622ZM34.2622 30.0976V30.9756H33.3841V30.0976H34.2622ZM35.1402 30.9756V31.8537H34.2622V30.9756H35.1402ZM35.1402 31.8537V32.7317H34.2622V31.8537H35.1402ZM35.1402 32.7317V33.6098H34.2622V32.7317H35.1402ZM35.1402 33.6098V34.4878H34.2622V33.6098H35.1402ZM35.1402 34.4878V35.3659H34.2622V34.4878H35.1402ZM35.1402 35.3659V36.2439H34.2622V35.3659H35.1402ZM35.1402 36.2439V37.122H34.2622V36.2439H35.1402ZM35.1402 37.122V38H34.2622V37.122H35.1402ZM36.0183 37.122V38H35.1402V37.122H36.0183ZM36.8963 37.122V38H36.0183V37.122H36.8963ZM36.8963 36.2439V37.122H36.0183V36.2439H36.8963ZM36.8963 35.3659V36.2439H36.0183V35.3659H36.8963ZM36.8963 34.4878V35.3659H36.0183V34.4878H36.8963ZM36.8963 33.6098V34.4878H36.0183V33.6098H36.8963ZM36.8963 32.7317V33.6098H36.0183V32.7317H36.8963ZM36.8963 31.8537V32.7317H36.0183V31.8537H36.8963ZM36.8963 30.9756V31.8537H36.0183V30.9756H36.8963ZM36.0183 30.9756V31.8537H35.1402V30.9756H36.0183ZM36.0183 30.0976V30.9756H35.1402V30.0976H36.0183ZM36.0183 31.8537V32.7317H35.1402V31.8537H36.0183ZM36.0183 32.7317V33.6098H35.1402V32.7317H36.0183ZM36.0183 33.6098V34.4878H35.1402V33.6098H36.0183ZM36.0183 34.4878V35.3659H35.1402V34.4878H36.0183ZM36.0183 35.3659V36.2439H35.1402V35.3659H36.0183ZM36.0183 36.2439V37.122H35.1402V36.2439H36.0183ZM34.2622 37.122V38H33.3841V37.122H34.2622ZM34.2622 36.2439V37.122H33.3841V36.2439H34.2622ZM34.2622 35.3659V36.2439H33.3841V35.3659H34.2622ZM34.2622 34.4878V35.3659H33.3841V34.4878H34.2622ZM34.2622 33.6098V34.4878H33.3841V33.6098H34.2622ZM34.2622 32.7317V33.6098H33.3841V32.7317H34.2622ZM34.2622 31.8537V32.7317H33.3841V31.8537H34.2622ZM34.2622 30.9756V31.8537H33.3841V30.9756H34.2622ZM33.3841 23.0732V23.9512H32.5061V23.0732H33.3841ZM33.3841 23.9512V24.8293H32.5061V23.9512H33.3841ZM36.0183 23.0732V23.9512H35.1402V23.0732H36.0183ZM36.0183 23.9512V24.8293H35.1402V23.9512H36.0183ZM36.0183 24.8293V25.7073H35.1402V24.8293H36.0183ZM36.0183 25.7073V26.5854H35.1402V25.7073H36.0183ZM36.0183 26.5854V27.4634H35.1402V26.5854H36.0183ZM36.0183 27.4634V28.3415H35.1402V27.4634H36.0183ZM36.8963 28.3415V29.2195H36.0183V28.3415H36.8963ZM36.8963 29.2195V30.0976H36.0183V29.2195H36.8963ZM36.8963 30.0976V30.9756H36.0183V30.0976H36.8963ZM36.8963 27.4634V28.3415H36.0183V27.4634H36.8963ZM36.8963 26.5854V27.4634H36.0183V26.5854H36.8963ZM36.8963 25.7073V26.5854H36.0183V25.7073H36.8963ZM36.8963 24.8293V25.7073H36.0183V24.8293H36.8963ZM36.8963 23.9512V24.8293H36.0183V23.9512H36.8963ZM36.8963 23.0732V23.9512H36.0183V23.0732H36.8963ZM34.2622 23.0732V23.9512H33.3841V23.0732H34.2622ZM34.2622 23.9512V24.8293H33.3841V23.9512H34.2622ZM35.1402 23.0732V23.9512H34.2622V23.0732H35.1402ZM35.1402 23.9512V24.8293H34.2622V23.9512H35.1402ZM35.1402 24.8293V25.7073H34.2622V24.8293H35.1402ZM35.1402 25.7073V26.5854H34.2622V25.7073H35.1402ZM35.1402 26.5854V27.4634H34.2622V26.5854H35.1402ZM35.1402 27.4634V28.3415H34.2622V27.4634H35.1402ZM35.1402 28.3415V29.2195H34.2622V28.3415H35.1402ZM35.1402 29.2195V30.0976H34.2622V29.2195H35.1402ZM35.1402 30.0976V30.9756H34.2622V30.0976H35.1402ZM36.0183 29.2195V30.0976H35.1402V29.2195H36.0183ZM36.0183 28.3415V29.2195H35.1402V28.3415H36.0183ZM36.0183 22.1951V23.0732H35.1402V22.1951H36.0183ZM36.8963 22.1951V23.0732H36.0183V22.1951H36.8963ZM35.1402 22.1951V23.0732H34.2622V22.1951H35.1402ZM34.2622 22.1951V23.0732H33.3841V22.1951H34.2622ZM33.3841 22.1951V23.0732H32.5061V22.1951H33.3841ZM41.2943 37.122V38H40.4163V37.122H41.2943ZM41.2943 36.2439V37.122H40.4163V36.2439H41.2943ZM41.2943 35.3659V36.2439H40.4163V35.3659H41.2943ZM41.2943 34.4878V35.3659H40.4163V34.4878H41.2943ZM41.2943 33.6098V34.4878H40.4163V33.6098H41.2943ZM41.2943 32.7317V33.6098H40.4163V32.7317H41.2943ZM41.2943 31.8537V32.7317H40.4163V31.8537H41.2943ZM41.2943 30.9756V31.8537H40.4163V30.9756H41.2943ZM41.2943 30.0976V30.9756H40.4163V30.0976H41.2943ZM41.2943 29.2195V30.0976H40.4163V29.2195H41.2943ZM41.2943 28.3415V29.2195H40.4163V28.3415H41.2943ZM41.2943 27.4634V28.3415H40.4163V27.4634H41.2943ZM41.2943 26.5854V27.4634H40.4163V26.5854H41.2943ZM41.2943 25.7073V26.5854H40.4163V25.7073H41.2943ZM41.2943 24.8293V25.7073H40.4163V24.8293H41.2943ZM42.1724 24.8293V25.7073H41.2943V24.8293H42.1724ZM42.1724 25.7073V26.5854H41.2943V25.7073H42.1724ZM42.1724 26.5854V27.4634H41.2943V26.5854H42.1724ZM42.1724 27.4634V28.3415H41.2943V27.4634H42.1724ZM42.1724 28.3415V29.2195H41.2943V28.3415H42.1724ZM42.1724 29.2195V30.0976H41.2943V29.2195H42.1724ZM42.1724 30.0976V30.9756H41.2943V30.0976H42.1724ZM43.0504 30.9756V31.8537H42.1724V30.9756H43.0504ZM43.0504 31.8537V32.7317H42.1724V31.8537H43.0504ZM43.0504 32.7317V33.6098H42.1724V32.7317H43.0504ZM43.0504 33.6098V34.4878H42.1724V33.6098H43.0504ZM43.0504 34.4878V35.3659H42.1724V34.4878H43.0504ZM43.0504 35.3659V36.2439H42.1724V35.3659H43.0504ZM43.0504 36.2439V37.122H42.1724V36.2439H43.0504ZM43.0504 37.122V38H42.1724V37.122H43.0504ZM43.9284 37.122V38H43.0504V37.122H43.9284ZM44.8065 37.122V38H43.9284V37.122H44.8065ZM44.8065 36.2439V37.122H43.9284V36.2439H44.8065ZM44.8065 35.3659V36.2439H43.9284V35.3659H44.8065ZM44.8065 34.4878V35.3659H43.9284V34.4878H44.8065ZM44.8065 33.6098V34.4878H43.9284V33.6098H44.8065ZM44.8065 32.7317V33.6098H43.9284V32.7317H44.8065ZM44.8065 31.8537V32.7317H43.9284V31.8537H44.8065ZM44.8065 30.9756V31.8537H43.9284V30.9756H44.8065ZM43.9284 30.9756V31.8537H43.0504V30.9756H43.9284ZM43.9284 30.0976V30.9756H43.0504V30.0976H43.9284ZM43.9284 31.8537V32.7317H43.0504V31.8537H43.9284ZM43.9284 32.7317V33.6098H43.0504V32.7317H43.9284ZM43.9284 33.6098V34.4878H43.0504V33.6098H43.9284ZM43.9284 34.4878V35.3659H43.0504V34.4878H43.9284ZM43.9284 35.3659V36.2439H43.0504V35.3659H43.9284ZM43.9284 36.2439V37.122H43.0504V36.2439H43.9284ZM42.1724 37.122V38H41.2943V37.122H42.1724ZM42.1724 36.2439V37.122H41.2943V36.2439H42.1724ZM42.1724 35.3659V36.2439H41.2943V35.3659H42.1724ZM42.1724 34.4878V35.3659H41.2943V34.4878H42.1724ZM42.1724 33.6098V34.4878H41.2943V33.6098H42.1724ZM42.1724 32.7317V33.6098H41.2943V32.7317H42.1724ZM42.1724 31.8537V32.7317H41.2943V31.8537H42.1724ZM42.1724 30.9756V31.8537H41.2943V30.9756H42.1724ZM41.2943 16.0488V16.9268H40.4163V16.0488H41.2943ZM41.2943 16.9268V17.8049H40.4163V16.9268H41.2943ZM41.2943 17.8049V18.6829H40.4163V17.8049H41.2943ZM41.2943 18.6829V19.561H40.4163V18.6829H41.2943ZM41.2943 19.561V20.439H40.4163V19.561H41.2943ZM41.2943 20.439V21.3171H40.4163V20.439H41.2943ZM41.2943 21.3171V22.1951H40.4163V21.3171H41.2943ZM41.2943 22.1951V23.0732H40.4163V22.1951H41.2943ZM41.2943 23.0732V23.9512H40.4163V23.0732H41.2943ZM41.2943 23.9512V24.8293H40.4163V23.9512H41.2943ZM43.9284 16.0488V16.9268H43.0504V16.0488H43.9284ZM43.9284 16.9268V17.8049H43.0504V16.9268H43.9284ZM43.9284 17.8049V18.6829H43.0504V17.8049H43.9284ZM43.9284 18.6829V19.561H43.0504V18.6829H43.9284ZM43.9284 19.561V20.439H43.0504V19.561H43.9284ZM43.9284 20.439V21.3171H43.0504V20.439H43.9284ZM43.9284 22.1951V23.0732H43.0504V22.1951H43.9284ZM43.9284 23.0732V23.9512H43.0504V23.0732H43.9284ZM43.9284 23.9512V24.8293H43.0504V23.9512H43.9284ZM43.9284 24.8293V25.7073H43.0504V24.8293H43.9284ZM43.9284 25.7073V26.5854H43.0504V25.7073H43.9284ZM43.9284 26.5854V27.4634H43.0504V26.5854H43.9284ZM43.9284 27.4634V28.3415H43.0504V27.4634H43.9284ZM44.8065 28.3415V29.2195H43.9284V28.3415H44.8065ZM44.8065 29.2195V30.0976H43.9284V29.2195H44.8065ZM44.8065 30.0976V30.9756H43.9284V30.0976H44.8065ZM44.8065 27.4634V28.3415H43.9284V27.4634H44.8065ZM44.8065 26.5854V27.4634H43.9284V26.5854H44.8065ZM44.8065 25.7073V26.5854H43.9284V25.7073H44.8065ZM44.8065 24.8293V25.7073H43.9284V24.8293H44.8065ZM44.8065 23.9512V24.8293H43.9284V23.9512H44.8065ZM44.8065 23.0732V23.9512H43.9284V23.0732H44.8065ZM44.8065 22.1951V23.0732H43.9284V22.1951H44.8065ZM44.8065 21.3171V22.1951H43.9284V21.3171H44.8065ZM44.8065 20.439V21.3171H43.9284V20.439H44.8065ZM44.8065 19.561V20.439H43.9284V19.561H44.8065ZM43.9284 21.3171V22.1951H43.0504V21.3171H43.9284ZM44.8065 18.6829V19.561H43.9284V18.6829H44.8065ZM44.8065 17.8049V18.6829H43.9284V17.8049H44.8065ZM44.8065 16.9268V17.8049H43.9284V16.9268H44.8065ZM44.8065 16.0488V16.9268H43.9284V16.0488H44.8065ZM43.0504 16.0488V16.9268H42.1724V16.0488H43.0504ZM42.1724 16.0488V16.9268H41.2943V16.0488H42.1724ZM42.1724 16.9268V17.8049H41.2943V16.9268H42.1724ZM43.0504 16.9268V17.8049H42.1724V16.9268H43.0504ZM43.0504 17.8049V18.6829H42.1724V17.8049H43.0504ZM43.0504 18.6829V19.561H42.1724V18.6829H43.0504ZM43.0504 19.561V20.439H42.1724V19.561H43.0504ZM43.0504 20.439V21.3171H42.1724V20.439H43.0504ZM43.0504 21.3171V22.1951H42.1724V21.3171H43.0504ZM43.0504 22.1951V23.0732H42.1724V22.1951H43.0504ZM42.1724 23.0732V23.9512H41.2943V23.0732H42.1724ZM42.1724 23.9512V24.8293H41.2943V23.9512H42.1724ZM42.1724 22.1951V23.0732H41.2943V22.1951H42.1724ZM42.1724 21.3171V22.1951H41.2943V21.3171H42.1724ZM42.1724 20.439V21.3171H41.2943V20.439H42.1724ZM42.1724 19.561V20.439H41.2943V19.561H42.1724ZM42.1724 18.6829V19.561H41.2943V18.6829H42.1724ZM42.1724 17.8049V18.6829H41.2943V17.8049H42.1724ZM43.0504 23.0732V23.9512H42.1724V23.0732H43.0504ZM43.0504 23.9512V24.8293H42.1724V23.9512H43.0504ZM43.0504 24.8293V25.7073H42.1724V24.8293H43.0504ZM43.0504 25.7073V26.5854H42.1724V25.7073H43.0504ZM43.0504 26.5854V27.4634H42.1724V26.5854H43.0504ZM43.0504 27.4634V28.3415H42.1724V27.4634H43.0504ZM43.0504 28.3415V29.2195H42.1724V28.3415H43.0504ZM43.0504 29.2195V30.0976H42.1724V29.2195H43.0504ZM43.0504 30.0976V30.9756H42.1724V30.0976H43.0504ZM43.9284 29.2195V30.0976H43.0504V29.2195H43.9284ZM43.9284 28.3415V29.2195H43.0504V28.3415H43.9284ZM45.6845 26.5854V27.4634H44.8065V26.5854H45.6845ZM46.5626 26.5854V27.4634H45.6845V26.5854H46.5626ZM46.5626 27.4634V28.3415H45.6845V27.4634H46.5626ZM45.6845 27.4634V28.3415H44.8065V27.4634H45.6845ZM45.6845 24.8293V25.7073H44.8065V24.8293H45.6845ZM46.5626 24.8293V25.7073H45.6845V24.8293H46.5626ZM45.6845 28.3415V29.2195H44.8065V28.3415H45.6845ZM46.5626 28.3415V29.2195H45.6845V28.3415H46.5626ZM46.5626 25.7073V26.5854H45.6845V25.7073H46.5626ZM45.6845 25.7073V26.5854H44.8065V25.7073H45.6845ZM45.6845 16.0488V16.9268H44.8065V16.0488H45.6845ZM46.5626 16.0488V16.9268H45.6845V16.0488H46.5626ZM46.5626 16.9268V17.8049H45.6845V16.9268H46.5626ZM45.6845 16.9268V17.8049H44.8065V16.9268H45.6845ZM45.6845 17.8049V18.6829H44.8065V17.8049H45.6845ZM46.5626 17.8049V18.6829H45.6845V17.8049H46.5626ZM46.5626 18.6829V19.561H45.6845V18.6829H46.5626ZM45.6845 18.6829V19.561H44.8065V18.6829H45.6845ZM45.6845 19.561V20.439H44.8065V19.561H45.6845ZM46.5626 19.561V20.439H45.6845V19.561H46.5626ZM47.4406 24.8293V25.7073H46.5626V24.8293H47.4406ZM48.3187 24.8293V25.7073H47.4406V24.8293H48.3187ZM49.1967 24.8293V25.7073H48.3187V24.8293H49.1967ZM49.1967 19.561V20.439H48.3187V19.561H49.1967ZM48.3187 19.561V20.439H47.4406V19.561H48.3187ZM47.4406 19.561V20.439H46.5626V19.561H47.4406ZM47.4406 16.0488V16.9268H46.5626V16.0488H47.4406ZM48.3187 16.0488V16.9268H47.4406V16.0488H48.3187ZM49.1967 16.0488V16.9268H48.3187V16.0488H49.1967ZM49.1967 18.6829V19.561H48.3187V18.6829H49.1967ZM49.1967 17.8049V18.6829H48.3187V17.8049H49.1967ZM48.3187 17.8049V18.6829H47.4406V17.8049H48.3187ZM47.4406 17.8049V18.6829H46.5626V17.8049H47.4406ZM47.4406 16.9268V17.8049H46.5626V16.9268H47.4406ZM48.3187 16.9268V17.8049H47.4406V16.9268H48.3187ZM49.1967 16.9268V17.8049H48.3187V16.9268H49.1967ZM47.4406 18.6829V19.561H46.5626V18.6829H47.4406ZM48.3187 18.6829V19.561H47.4406V18.6829H48.3187ZM49.1967 26.5854V27.4634H48.3187V26.5854H49.1967ZM48.3187 26.5854V27.4634H47.4406V26.5854H48.3187ZM47.4406 26.5854V27.4634H46.5626V26.5854H47.4406ZM47.4406 25.7073V26.5854H46.5626V25.7073H47.4406ZM48.3187 25.7073V26.5854H47.4406V25.7073H48.3187ZM49.1967 25.7073V26.5854H48.3187V25.7073H49.1967ZM47.4406 27.4634V28.3415H46.5626V27.4634H47.4406ZM48.3187 27.4634V28.3415H47.4406V27.4634H48.3187ZM49.1967 27.4634V28.3415H48.3187V27.4634H49.1967ZM49.1967 28.3415V29.2195H48.3187V28.3415H49.1967ZM48.3187 28.3415V29.2195H47.4406V28.3415H48.3187ZM47.4406 28.3415V29.2195H46.5626V28.3415H47.4406ZM54.465 19.561V20.439H53.587V19.561H54.465ZM50.0748 16.0488V16.9268H49.1967V16.0488H50.0748ZM50.9528 16.0488V16.9268H50.0748V16.0488H50.9528ZM51.8309 16.0488V16.9268H50.9528V16.0488H51.8309ZM52.7089 16.0488V16.9268H51.8309V16.0488H52.7089ZM53.587 16.0488V16.9268H52.7089V16.0488H53.587ZM53.587 16.9268V17.8049H52.7089V16.9268H53.587ZM54.465 16.9268V17.8049H53.587V16.9268H54.465ZM54.465 17.8049V18.6829H53.587V17.8049H54.465ZM54.465 16.0488V16.9268H53.587V16.0488H54.465ZM54.465 18.6829V19.561H53.587V18.6829H54.465ZM53.587 18.6829V19.561H52.7089V18.6829H53.587ZM52.7089 18.6829V19.561H51.8309V18.6829H52.7089ZM51.8309 18.6829V19.561H50.9528V18.6829H51.8309ZM50.9528 18.6829V19.561H50.0748V18.6829H50.9528ZM50.0748 18.6829V19.561H49.1967V18.6829H50.0748ZM50.0748 17.8049V18.6829H49.1967V17.8049H50.0748ZM50.0748 16.9268V17.8049H49.1967V16.9268H50.0748ZM50.9528 16.9268V17.8049H50.0748V16.9268H50.9528ZM51.8309 16.9268V17.8049H50.9528V16.9268H51.8309ZM52.7089 16.9268V17.8049H51.8309V16.9268H52.7089ZM52.7089 17.8049V18.6829H51.8309V17.8049H52.7089ZM53.587 17.8049V18.6829H52.7089V17.8049H53.587ZM51.8309 17.8049V18.6829H50.9528V17.8049H51.8309ZM50.9528 17.8049V18.6829H50.0748V17.8049H50.9528ZM50.0748 19.561V20.439H49.1967V19.561H50.0748ZM50.9528 19.561V20.439H50.0748V19.561H50.9528ZM51.8309 19.561V20.439H50.9528V19.561H51.8309ZM52.7089 19.561V20.439H51.8309V19.561H52.7089ZM53.587 19.561V20.439H52.7089V19.561H53.587ZM50.0748 24.8293V25.7073H49.1967V24.8293H50.0748ZM50.0748 25.7073V26.5854H49.1967V25.7073H50.0748ZM50.0748 26.5854V27.4634H49.1967V26.5854H50.0748ZM50.0748 27.4634V28.3415H49.1967V27.4634H50.0748ZM50.9528 27.4634V28.3415H50.0748V27.4634H50.9528ZM50.9528 28.3415V29.2195H50.0748V28.3415H50.9528ZM50.0748 28.3415V29.2195H49.1967V28.3415H50.0748ZM50.9528 24.8293V25.7073H50.0748V24.8293H50.9528ZM50.9528 25.7073V26.5854H50.0748V25.7073H50.9528ZM50.9528 26.5854V27.4634H50.0748V26.5854H50.9528ZM51.8309 26.5854V27.4634H50.9528V26.5854H51.8309ZM52.7089 26.5854V27.4634H51.8309V26.5854H52.7089ZM52.7089 25.7073V26.5854H51.8309V25.7073H52.7089ZM52.7089 24.8293V25.7073H51.8309V24.8293H52.7089ZM51.8309 24.8293V25.7073H50.9528V24.8293H51.8309ZM51.8309 25.7073V26.5854H50.9528V25.7073H51.8309ZM51.8309 27.4634V28.3415H50.9528V27.4634H51.8309ZM51.8309 28.3415V29.2195H50.9528V28.3415H51.8309ZM52.7089 28.3415V29.2195H51.8309V28.3415H52.7089ZM52.7089 27.4634V28.3415H51.8309V27.4634H52.7089ZM61.5049 37.122V38H60.6268V37.122H61.5049ZM61.5049 36.2439V37.122H60.6268V36.2439H61.5049ZM61.5049 35.3659V36.2439H60.6268V35.3659H61.5049ZM61.5049 34.4878V35.3659H60.6268V34.4878H61.5049ZM61.5049 33.6098V34.4878H60.6268V33.6098H61.5049ZM61.5049 32.7317V33.6098H60.6268V32.7317H61.5049ZM61.5049 31.8537V32.7317H60.6268V31.8537H61.5049ZM61.5049 30.9756V31.8537H60.6268V30.9756H61.5049ZM61.5049 30.0976V30.9756H60.6268V30.0976H61.5049ZM61.5049 29.2195V30.0976H60.6268V29.2195H61.5049ZM61.5049 28.3415V29.2195H60.6268V28.3415H61.5049ZM61.5049 27.4634V28.3415H60.6268V27.4634H61.5049ZM61.5049 26.5854V27.4634H60.6268V26.5854H61.5049ZM61.5049 25.7073V26.5854H60.6268V25.7073H61.5049ZM61.5049 24.8293V25.7073H60.6268V24.8293H61.5049ZM62.3829 24.8293V25.7073H61.5049V24.8293H62.3829ZM62.3829 25.7073V26.5854H61.5049V25.7073H62.3829ZM62.3829 26.5854V27.4634H61.5049V26.5854H62.3829ZM62.3829 27.4634V28.3415H61.5049V27.4634H62.3829ZM62.3829 28.3415V29.2195H61.5049V28.3415H62.3829ZM62.3829 29.2195V30.0976H61.5049V29.2195H62.3829ZM62.3829 30.0976V30.9756H61.5049V30.0976H62.3829ZM63.261 30.9756V31.8537H62.3829V30.9756H63.261ZM63.261 31.8537V32.7317H62.3829V31.8537H63.261ZM63.261 32.7317V33.6098H62.3829V32.7317H63.261ZM63.261 33.6098V34.4878H62.3829V33.6098H63.261ZM63.261 34.4878V35.3659H62.3829V34.4878H63.261ZM63.261 35.3659V36.2439H62.3829V35.3659H63.261ZM63.261 36.2439V37.122H62.3829V36.2439H63.261ZM63.261 37.122V38H62.3829V37.122H63.261ZM64.139 37.122V38H63.261V37.122H64.139ZM65.0171 37.122V38H64.139V37.122H65.0171ZM65.0171 36.2439V37.122H64.139V36.2439H65.0171ZM65.0171 35.3659V36.2439H64.139V35.3659H65.0171ZM65.0171 34.4878V35.3659H64.139V34.4878H65.0171ZM65.0171 33.6098V34.4878H64.139V33.6098H65.0171ZM65.0171 32.7317V33.6098H64.139V32.7317H65.0171ZM65.0171 31.8537V32.7317H64.139V31.8537H65.0171ZM65.0171 30.9756V31.8537H64.139V30.9756H65.0171ZM64.139 30.9756V31.8537H63.261V30.9756H64.139ZM64.139 30.0976V30.9756H63.261V30.0976H64.139ZM64.139 31.8537V32.7317H63.261V31.8537H64.139ZM64.139 32.7317V33.6098H63.261V32.7317H64.139ZM64.139 33.6098V34.4878H63.261V33.6098H64.139ZM64.139 34.4878V35.3659H63.261V34.4878H64.139ZM64.139 35.3659V36.2439H63.261V35.3659H64.139ZM64.139 36.2439V37.122H63.261V36.2439H64.139ZM62.3829 37.122V38H61.5049V37.122H62.3829ZM62.3829 36.2439V37.122H61.5049V36.2439H62.3829ZM62.3829 35.3659V36.2439H61.5049V35.3659H62.3829ZM62.3829 34.4878V35.3659H61.5049V34.4878H62.3829ZM62.3829 33.6098V34.4878H61.5049V33.6098H62.3829ZM62.3829 32.7317V33.6098H61.5049V32.7317H62.3829ZM62.3829 31.8537V32.7317H61.5049V31.8537H62.3829ZM62.3829 30.9756V31.8537H61.5049V30.9756H62.3829ZM61.5049 16.0488V16.9268H60.6268V16.0488H61.5049ZM61.5049 16.9268V17.8049H60.6268V16.9268H61.5049ZM61.5049 17.8049V18.6829H60.6268V17.8049H61.5049ZM61.5049 18.6829V19.561H60.6268V18.6829H61.5049ZM61.5049 19.561V20.439H60.6268V19.561H61.5049ZM61.5049 20.439V21.3171H60.6268V20.439H61.5049ZM61.5049 21.3171V22.1951H60.6268V21.3171H61.5049ZM61.5049 22.1951V23.0732H60.6268V22.1951H61.5049ZM61.5049 23.0732V23.9512H60.6268V23.0732H61.5049ZM61.5049 23.9512V24.8293H60.6268V23.9512H61.5049ZM64.139 16.0488V16.9268H63.261V16.0488H64.139ZM64.139 16.9268V17.8049H63.261V16.9268H64.139ZM64.139 17.8049V18.6829H63.261V17.8049H64.139ZM64.139 18.6829V19.561H63.261V18.6829H64.139ZM64.139 19.561V20.439H63.261V19.561H64.139ZM64.139 20.439V21.3171H63.261V20.439H64.139ZM64.139 22.1951V23.0732H63.261V22.1951H64.139ZM64.139 23.0732V23.9512H63.261V23.0732H64.139ZM64.139 23.9512V24.8293H63.261V23.9512H64.139ZM64.139 24.8293V25.7073H63.261V24.8293H64.139ZM64.139 25.7073V26.5854H63.261V25.7073H64.139ZM64.139 26.5854V27.4634H63.261V26.5854H64.139ZM64.139 27.4634V28.3415H63.261V27.4634H64.139ZM65.0171 28.3415V29.2195H64.139V28.3415H65.0171ZM65.0171 29.2195V30.0976H64.139V29.2195H65.0171ZM65.0171 30.0976V30.9756H64.139V30.0976H65.0171ZM65.0171 27.4634V28.3415H64.139V27.4634H65.0171ZM65.0171 26.5854V27.4634H64.139V26.5854H65.0171ZM65.0171 25.7073V26.5854H64.139V25.7073H65.0171ZM65.0171 24.8293V25.7073H64.139V24.8293H65.0171ZM65.0171 23.9512V24.8293H64.139V23.9512H65.0171ZM65.0171 23.0732V23.9512H64.139V23.0732H65.0171ZM65.0171 22.1951V23.0732H64.139V22.1951H65.0171ZM65.0171 21.3171V22.1951H64.139V21.3171H65.0171ZM65.0171 20.439V21.3171H64.139V20.439H65.0171ZM65.0171 19.561V20.439H64.139V19.561H65.0171ZM64.139 21.3171V22.1951H63.261V21.3171H64.139ZM65.0171 18.6829V19.561H64.139V18.6829H65.0171ZM65.0171 17.8049V18.6829H64.139V17.8049H65.0171ZM65.0171 16.9268V17.8049H64.139V16.9268H65.0171ZM65.0171 16.0488V16.9268H64.139V16.0488H65.0171ZM63.261 16.0488V16.9268H62.3829V16.0488H63.261ZM62.3829 16.0488V16.9268H61.5049V16.0488H62.3829ZM62.3829 16.9268V17.8049H61.5049V16.9268H62.3829ZM63.261 16.9268V17.8049H62.3829V16.9268H63.261ZM63.261 17.8049V18.6829H62.3829V17.8049H63.261ZM63.261 18.6829V19.561H62.3829V18.6829H63.261ZM63.261 19.561V20.439H62.3829V19.561H63.261ZM63.261 20.439V21.3171H62.3829V20.439H63.261ZM63.261 21.3171V22.1951H62.3829V21.3171H63.261ZM63.261 22.1951V23.0732H62.3829V22.1951H63.261ZM62.3829 23.0732V23.9512H61.5049V23.0732H62.3829ZM62.3829 23.9512V24.8293H61.5049V23.9512H62.3829ZM62.3829 22.1951V23.0732H61.5049V22.1951H62.3829ZM62.3829 21.3171V22.1951H61.5049V21.3171H62.3829ZM62.3829 20.439V21.3171H61.5049V20.439H62.3829ZM62.3829 19.561V20.439H61.5049V19.561H62.3829ZM62.3829 18.6829V19.561H61.5049V18.6829H62.3829ZM62.3829 17.8049V18.6829H61.5049V17.8049H62.3829ZM63.261 23.0732V23.9512H62.3829V23.0732H63.261ZM63.261 23.9512V24.8293H62.3829V23.9512H63.261ZM63.261 24.8293V25.7073H62.3829V24.8293H63.261ZM63.261 25.7073V26.5854H62.3829V25.7073H63.261ZM63.261 26.5854V27.4634H62.3829V26.5854H63.261ZM63.261 27.4634V28.3415H62.3829V27.4634H63.261ZM63.261 28.3415V29.2195H62.3829V28.3415H63.261ZM63.261 29.2195V30.0976H62.3829V29.2195H63.261ZM63.261 30.0976V30.9756H62.3829V30.0976H63.261ZM64.139 29.2195V30.0976H63.261V29.2195H64.139ZM64.139 28.3415V29.2195H63.261V28.3415H64.139ZM60.6268 16.0488V16.9268H59.7488V16.0488H60.6268ZM59.7488 16.0488V16.9268H58.8707V16.0488H59.7488ZM58.8707 16.0488V16.9268H57.9927V16.0488H58.8707ZM57.9927 16.0488V16.9268H57.1146V16.0488H57.9927ZM57.1146 16.0488V16.9268H56.2366V16.0488H57.1146ZM57.1146 16.9268V17.8049H56.2366V16.9268H57.1146ZM57.1146 17.8049V18.6829H56.2366V17.8049H57.1146ZM57.9927 16.9268V17.8049H57.1146V16.9268H57.9927ZM58.8707 16.9268V17.8049H57.9927V16.9268H58.8707ZM59.7488 16.9268V17.8049H58.8707V16.9268H59.7488ZM60.6268 17.8049V18.6829H59.7488V17.8049H60.6268ZM60.6268 16.9268V17.8049H59.7488V16.9268H60.6268ZM59.7488 17.8049V18.6829H58.8707V17.8049H59.7488ZM58.8707 17.8049V18.6829H57.9927V17.8049H58.8707ZM57.9927 17.8049V18.6829H57.1146V17.8049H57.9927ZM65.8951 16.0488V16.9268H65.0171V16.0488H65.8951ZM66.7732 16.0488V16.9268H65.8951V16.0488H66.7732ZM67.6512 16.0488V16.9268H66.7732V16.0488H67.6512ZM68.5292 16.0488V16.9268H67.6512V16.0488H68.5292ZM69.4073 16.0488V16.9268H68.5292V16.0488H69.4073ZM69.4073 16.9268V17.8049H68.5292V16.9268H69.4073ZM68.5292 16.9268V17.8049H67.6512V16.9268H68.5292ZM67.6512 16.9268V17.8049H66.7732V16.9268H67.6512ZM66.7732 16.9268V17.8049H65.8951V16.9268H66.7732ZM65.8951 16.9268V17.8049H65.0171V16.9268H65.8951ZM65.8951 17.8049V18.6829H65.0171V17.8049H65.8951ZM66.7732 17.8049V18.6829H65.8951V17.8049H66.7732ZM67.6512 17.8049V18.6829H66.7732V17.8049H67.6512ZM68.5292 17.8049V18.6829H67.6512V17.8049H68.5292ZM69.4073 17.8049V18.6829H68.5292V17.8049H69.4073ZM57.1146 18.6829V19.561H56.2366V18.6829H57.1146ZM57.1146 19.561V20.439H56.2366V19.561H57.1146ZM57.9927 19.561V20.439H57.1146V19.561H57.9927ZM58.8707 19.561V20.439H57.9927V19.561H58.8707ZM59.7488 19.561V20.439H58.8707V19.561H59.7488ZM60.6268 19.561V20.439H59.7488V19.561H60.6268ZM60.6268 18.6829V19.561H59.7488V18.6829H60.6268ZM59.7488 18.6829V19.561H58.8707V18.6829H59.7488ZM58.8707 18.6829V19.561H57.9927V18.6829H58.8707ZM57.9927 18.6829V19.561H57.1146V18.6829H57.9927ZM69.4073 18.6829V19.561H68.5292V18.6829H69.4073ZM69.4073 19.561V20.439H68.5292V19.561H69.4073ZM68.5292 19.561V20.439H67.6512V19.561H68.5292ZM67.6512 19.561V20.439H66.7732V19.561H67.6512ZM66.7732 19.561V20.439H65.8951V19.561H66.7732ZM65.8951 19.561V20.439H65.0171V19.561H65.8951ZM65.8951 18.6829V19.561H65.0171V18.6829H65.8951ZM66.7732 18.6829V19.561H65.8951V18.6829H66.7732ZM67.6512 18.6829V19.561H66.7732V18.6829H67.6512ZM68.5292 18.6829V19.561H67.6512V18.6829H68.5292ZM73.8138 33.6098V34.4878H72.9358V33.6098H73.8138ZM73.8138 32.7317V33.6098H72.9358V32.7317H73.8138ZM73.8138 31.8537V32.7317H72.9358V31.8537H73.8138ZM73.8138 30.9756V31.8537H72.9358V30.9756H73.8138ZM73.8138 30.0976V30.9756H72.9358V30.0976H73.8138ZM73.8138 29.2195V30.0976H72.9358V29.2195H73.8138ZM73.8138 28.3415V29.2195H72.9358V28.3415H73.8138ZM73.8138 27.4634V28.3415H72.9358V27.4634H73.8138ZM73.8138 26.5854V27.4634H72.9358V26.5854H73.8138ZM73.8138 25.7073V26.5854H72.9358V25.7073H73.8138ZM73.8138 24.8293V25.7073H72.9358V24.8293H73.8138ZM74.6919 24.8293V25.7073H73.8138V24.8293H74.6919ZM74.6919 25.7073V26.5854H73.8138V25.7073H74.6919ZM74.6919 26.5854V27.4634H73.8138V26.5854H74.6919ZM74.6919 27.4634V28.3415H73.8138V27.4634H74.6919ZM74.6919 28.3415V29.2195H73.8138V28.3415H74.6919ZM74.6919 29.2195V30.0976H73.8138V29.2195H74.6919ZM74.6919 30.0976V30.9756H73.8138V30.0976H74.6919ZM75.5699 30.9756V31.8537H74.6919V30.9756H75.5699ZM75.5699 31.8537V32.7317H74.6919V31.8537H75.5699ZM75.5699 32.7317V33.6098H74.6919V32.7317H75.5699ZM75.5699 33.6098V34.4878H74.6919V33.6098H75.5699ZM75.5699 34.4878V35.3659H74.6919V34.4878H75.5699ZM75.5699 35.3659V36.2439H74.6919V35.3659H75.5699ZM75.5699 36.2439V37.122H74.6919V36.2439H75.5699ZM77.326 37.122V38H76.448V37.122H77.326ZM77.326 36.2439V37.122H76.448V36.2439H77.326ZM77.326 35.3659V36.2439H76.448V35.3659H77.326ZM77.326 34.4878V35.3659H76.448V34.4878H77.326ZM77.326 33.6098V34.4878H76.448V33.6098H77.326ZM77.326 32.7317V33.6098H76.448V32.7317H77.326ZM77.326 31.8537V32.7317H76.448V31.8537H77.326ZM77.326 30.9756V31.8537H76.448V30.9756H77.326ZM76.448 30.9756V31.8537H75.5699V30.9756H76.448ZM76.448 30.0976V30.9756H75.5699V30.0976H76.448ZM76.448 31.8537V32.7317H75.5699V31.8537H76.448ZM76.448 32.7317V33.6098H75.5699V32.7317H76.448ZM76.448 33.6098V34.4878H75.5699V33.6098H76.448ZM76.448 34.4878V35.3659H75.5699V34.4878H76.448ZM76.448 35.3659V36.2439H75.5699V35.3659H76.448ZM76.448 36.2439V37.122H75.5699V36.2439H76.448ZM74.6919 35.3659V36.2439H73.8138V35.3659H74.6919ZM74.6919 34.4878V35.3659H73.8138V34.4878H74.6919ZM74.6919 33.6098V34.4878H73.8138V33.6098H74.6919ZM74.6919 32.7317V33.6098H73.8138V32.7317H74.6919ZM74.6919 31.8537V32.7317H73.8138V31.8537H74.6919ZM74.6919 30.9756V31.8537H73.8138V30.9756H74.6919ZM73.8138 23.9512V24.8293H72.9358V23.9512H73.8138ZM76.448 23.9512V24.8293H75.5699V23.9512H76.448ZM76.448 24.8293V25.7073H75.5699V24.8293H76.448ZM76.448 25.7073V26.5854H75.5699V25.7073H76.448ZM76.448 26.5854V27.4634H75.5699V26.5854H76.448ZM76.448 27.4634V28.3415H75.5699V27.4634H76.448ZM77.326 28.3415V29.2195H76.448V28.3415H77.326ZM77.326 29.2195V30.0976H76.448V29.2195H77.326ZM77.326 30.0976V30.9756H76.448V30.0976H77.326ZM77.326 27.4634V28.3415H76.448V27.4634H77.326ZM77.326 26.5854V27.4634H76.448V26.5854H77.326ZM77.326 25.7073V26.5854H76.448V25.7073H77.326ZM77.326 24.8293V25.7073H76.448V24.8293H77.326ZM77.326 23.9512V24.8293H76.448V23.9512H77.326ZM74.6919 23.9512V24.8293H73.8138V23.9512H74.6919ZM75.5699 23.9512V24.8293H74.6919V23.9512H75.5699ZM75.5699 24.8293V25.7073H74.6919V24.8293H75.5699ZM75.5699 25.7073V26.5854H74.6919V25.7073H75.5699ZM75.5699 26.5854V27.4634H74.6919V26.5854H75.5699ZM75.5699 27.4634V28.3415H74.6919V27.4634H75.5699ZM75.5699 28.3415V29.2195H74.6919V28.3415H75.5699ZM75.5699 29.2195V30.0976H74.6919V29.2195H75.5699ZM75.5699 30.0976V30.9756H74.6919V30.0976H75.5699ZM76.448 29.2195V30.0976H75.5699V29.2195H76.448ZM76.448 28.3415V29.2195H75.5699V28.3415H76.448ZM84.3504 37.122V38H83.4724V37.122H84.3504ZM84.3504 36.2439V37.122H83.4724V36.2439H84.3504ZM84.3504 35.3659V36.2439H83.4724V35.3659H84.3504ZM84.3504 34.4878V35.3659H83.4724V34.4878H84.3504ZM84.3504 33.6098V34.4878H83.4724V33.6098H84.3504ZM84.3504 32.7317V33.6098H83.4724V32.7317H84.3504ZM84.3504 31.8537V32.7317H83.4724V31.8537H84.3504ZM84.3504 30.9756V31.8537H83.4724V30.9756H84.3504ZM84.3504 30.0976V30.9756H83.4724V30.0976H84.3504ZM84.3504 29.2195V30.0976H83.4724V29.2195H84.3504ZM84.3504 28.3415V29.2195H83.4724V28.3415H84.3504ZM84.3504 27.4634V28.3415H83.4724V27.4634H84.3504ZM84.3504 26.5854V27.4634H83.4724V26.5854H84.3504ZM84.3504 25.7073V26.5854H83.4724V25.7073H84.3504ZM84.3504 24.8293V25.7073H83.4724V24.8293H84.3504ZM85.2285 24.8293V25.7073H84.3504V24.8293H85.2285ZM85.2285 25.7073V26.5854H84.3504V25.7073H85.2285ZM85.2285 26.5854V27.4634H84.3504V26.5854H85.2285ZM85.2285 27.4634V28.3415H84.3504V27.4634H85.2285ZM85.2285 28.3415V29.2195H84.3504V28.3415H85.2285ZM85.2285 29.2195V30.0976H84.3504V29.2195H85.2285ZM85.2285 30.0976V30.9756H84.3504V30.0976H85.2285ZM86.1065 30.9756V31.8537H85.2285V30.9756H86.1065ZM86.1065 31.8537V32.7317H85.2285V31.8537H86.1065ZM86.1065 32.7317V33.6098H85.2285V32.7317H86.1065ZM86.1065 33.6098V34.4878H85.2285V33.6098H86.1065ZM86.1065 34.4878V35.3659H85.2285V34.4878H86.1065ZM86.1065 35.3659V36.2439H85.2285V35.3659H86.1065ZM86.1065 36.2439V37.122H85.2285V36.2439H86.1065ZM87.8626 33.6098V34.4878H86.9846V33.6098H87.8626ZM87.8626 32.7317V33.6098H86.9846V32.7317H87.8626ZM87.8626 31.8537V32.7317H86.9846V31.8537H87.8626ZM87.8626 30.9756V31.8537H86.9846V30.9756H87.8626ZM86.9846 30.9756V31.8537H86.1065V30.9756H86.9846ZM86.9846 30.0976V30.9756H86.1065V30.0976H86.9846ZM86.9846 31.8537V32.7317H86.1065V31.8537H86.9846ZM86.9846 32.7317V33.6098H86.1065V32.7317H86.9846ZM86.9846 33.6098V34.4878H86.1065V33.6098H86.9846ZM86.9846 34.4878V35.3659H86.1065V34.4878H86.9846ZM86.9846 35.3659V36.2439H86.1065V35.3659H86.9846ZM85.2285 36.2439V37.122H84.3504V36.2439H85.2285ZM85.2285 35.3659V36.2439H84.3504V35.3659H85.2285ZM85.2285 34.4878V35.3659H84.3504V34.4878H85.2285ZM85.2285 33.6098V34.4878H84.3504V33.6098H85.2285ZM85.2285 32.7317V33.6098H84.3504V32.7317H85.2285ZM85.2285 31.8537V32.7317H84.3504V31.8537H85.2285ZM85.2285 30.9756V31.8537H84.3504V30.9756H85.2285ZM84.3504 23.9512V24.8293H83.4724V23.9512H84.3504ZM86.9846 23.9512V24.8293H86.1065V23.9512H86.9846ZM86.9846 24.8293V25.7073H86.1065V24.8293H86.9846ZM86.9846 25.7073V26.5854H86.1065V25.7073H86.9846ZM86.9846 26.5854V27.4634H86.1065V26.5854H86.9846ZM86.9846 27.4634V28.3415H86.1065V27.4634H86.9846ZM87.8626 28.3415V29.2195H86.9846V28.3415H87.8626ZM87.8626 29.2195V30.0976H86.9846V29.2195H87.8626ZM87.8626 30.0976V30.9756H86.9846V30.0976H87.8626ZM87.8626 27.4634V28.3415H86.9846V27.4634H87.8626ZM87.8626 26.5854V27.4634H86.9846V26.5854H87.8626ZM87.8626 25.7073V26.5854H86.9846V25.7073H87.8626ZM87.8626 24.8293V25.7073H86.9846V24.8293H87.8626ZM87.8626 23.9512V24.8293H86.9846V23.9512H87.8626ZM85.2285 23.9512V24.8293H84.3504V23.9512H85.2285ZM86.1065 23.9512V24.8293H85.2285V23.9512H86.1065ZM86.1065 24.8293V25.7073H85.2285V24.8293H86.1065ZM86.1065 25.7073V26.5854H85.2285V25.7073H86.1065ZM86.1065 26.5854V27.4634H85.2285V26.5854H86.1065ZM86.1065 27.4634V28.3415H85.2285V27.4634H86.1065ZM86.1065 28.3415V29.2195H85.2285V28.3415H86.1065ZM86.1065 29.2195V30.0976H85.2285V29.2195H86.1065ZM86.1065 30.0976V30.9756H85.2285V30.0976H86.1065ZM86.9846 29.2195V30.0976H86.1065V29.2195H86.9846ZM86.9846 28.3415V29.2195H86.1065V28.3415H86.9846ZM78.2041 37.122V38H77.326V37.122H78.2041ZM79.0821 37.122V38H78.2041V37.122H79.0821ZM79.9602 37.122V38H79.0821V37.122H79.9602ZM80.8382 37.122V38H79.9602V37.122H80.8382ZM82.5943 37.122V38H81.7163V37.122H82.5943ZM83.4724 37.122V38H82.5943V37.122H83.4724ZM83.4724 36.2439V37.122H82.5943V36.2439H83.4724ZM82.5943 36.2439V37.122H81.7163V36.2439H82.5943ZM80.8382 36.2439V37.122H79.9602V36.2439H80.8382ZM79.9602 36.2439V37.122H79.0821V36.2439H79.9602ZM79.0821 36.2439V37.122H78.2041V36.2439H79.0821ZM78.2041 36.2439V37.122H77.326V36.2439H78.2041ZM78.2041 35.3659V36.2439H77.326V35.3659H78.2041ZM79.0821 35.3659V36.2439H78.2041V35.3659H79.0821ZM79.9602 35.3659V36.2439H79.0821V35.3659H79.9602ZM80.8382 35.3659V36.2439H79.9602V35.3659H80.8382ZM82.5943 35.3659V36.2439H81.7163V35.3659H82.5943ZM83.4724 35.3659V36.2439H82.5943V35.3659H83.4724ZM83.4724 34.4878V35.3659H82.5943V34.4878H83.4724ZM82.5943 34.4878V35.3659H81.7163V34.4878H82.5943ZM80.8382 34.4878V35.3659H79.9602V34.4878H80.8382ZM79.9602 34.4878V35.3659H79.0821V34.4878H79.9602ZM79.0821 34.4878V35.3659H78.2041V34.4878H79.0821ZM78.2041 34.4878V35.3659H77.326V34.4878H78.2041ZM78.2041 33.6098V34.4878H77.326V33.6098H78.2041ZM83.4724 33.6098V34.4878H82.5943V33.6098H83.4724ZM86.9846 20.439V19.561H87.8626V20.439H86.9846ZM86.9846 21.3171V20.439H87.8626V21.3171H86.9846ZM86.9846 22.1951V21.3171H87.8626V22.1951H86.9846ZM85.2285 22.1951V21.3171H86.1065V22.1951H85.2285ZM85.2285 21.3171V20.439H86.1065V21.3171H85.2285ZM85.2285 20.439V19.561H86.1065V20.439H85.2285ZM85.2285 19.561V18.6829H86.1065V19.561H85.2285ZM85.2285 18.6829V17.8049H86.1065V18.6829H85.2285ZM85.2285 17.8049V16.9268H86.1065V17.8049H85.2285ZM83.4724 16.9268V16.0488H84.3504V16.9268H83.4724ZM83.4724 17.8049V16.9268H84.3504V17.8049H83.4724ZM83.4724 18.6829V17.8049H84.3504V18.6829H83.4724ZM83.4724 19.561V18.6829H84.3504V19.561H83.4724ZM83.4724 20.439V19.561H84.3504V20.439H83.4724ZM83.4724 21.3171V20.439H84.3504V21.3171H83.4724ZM83.4724 22.1951V21.3171H84.3504V22.1951H83.4724ZM84.3504 22.1951V21.3171H85.2285V22.1951H84.3504ZM84.3504 21.3171V20.439H85.2285V21.3171H84.3504ZM84.3504 20.439V19.561H85.2285V20.439H84.3504ZM84.3504 19.561V18.6829H85.2285V19.561H84.3504ZM84.3504 18.6829V17.8049H85.2285V18.6829H84.3504ZM84.3504 17.8049V16.9268H85.2285V17.8049H84.3504ZM86.1065 18.6829V17.8049H86.9846V18.6829H86.1065ZM86.1065 19.561V18.6829H86.9846V19.561H86.1065ZM86.1065 20.439V19.561H86.9846V20.439H86.1065ZM86.1065 21.3171V20.439H86.9846V21.3171H86.1065ZM86.1065 22.1951V21.3171H86.9846V22.1951H86.1065ZM76.448 16.9268V16.0488H77.326V16.9268H76.448ZM76.448 17.8049V16.9268H77.326V17.8049H76.448ZM76.448 18.6829V17.8049H77.326V18.6829H76.448ZM76.448 19.561V18.6829H77.326V19.561H76.448ZM76.448 20.439V19.561H77.326V20.439H76.448ZM76.448 21.3171V20.439H77.326V21.3171H76.448ZM76.448 22.1951V21.3171H77.326V22.1951H76.448ZM74.6919 22.1951V21.3171H75.5699V22.1951H74.6919ZM74.6919 21.3171V20.439H75.5699V21.3171H74.6919ZM74.6919 20.439V19.561H75.5699V20.439H74.6919ZM74.6919 19.561V18.6829H75.5699V19.561H74.6919ZM74.6919 18.6829V17.8049H75.5699V18.6829H74.6919ZM74.6919 17.8049V16.9268H75.5699V17.8049H74.6919ZM72.9358 20.439V19.561H73.8138V20.439H72.9358ZM72.9358 21.3171V20.439H73.8138V21.3171H72.9358ZM72.9358 22.1951V21.3171H73.8138V22.1951H72.9358ZM73.8138 22.1951V21.3171H74.6919V22.1951H73.8138ZM73.8138 21.3171V20.439H74.6919V21.3171H73.8138ZM73.8138 20.439V19.561H74.6919V20.439H73.8138ZM73.8138 19.561V18.6829H74.6919V19.561H73.8138ZM73.8138 18.6829V17.8049H74.6919V18.6829H73.8138ZM75.5699 17.8049V16.9268H76.448V17.8049H75.5699ZM75.5699 18.6829V17.8049H76.448V18.6829H75.5699ZM75.5699 19.561V18.6829H76.448V19.561H75.5699ZM75.5699 20.439V19.561H76.448V20.439H75.5699ZM75.5699 21.3171V20.439H76.448V21.3171H75.5699ZM75.5699 22.1951V21.3171H76.448V22.1951H75.5699ZM82.5943 16.9268V16.0488H83.4724V16.9268H82.5943ZM81.7163 16.9268V16.0488H82.5943V16.9268H81.7163ZM79.9602 16.9268V16.0488H80.8382V16.9268H79.9602ZM79.0821 16.9268V16.0488H79.9602V16.9268H79.0821ZM78.2041 16.9268V16.0488H79.0821V16.9268H78.2041ZM77.326 16.9268V16.0488H78.2041V16.9268H77.326ZM77.326 17.8049V16.9268H78.2041V17.8049H77.326ZM78.2041 17.8049V16.9268H79.0821V17.8049H78.2041ZM79.0821 17.8049V16.9268H79.9602V17.8049H79.0821ZM79.9602 17.8049V16.9268H80.8382V17.8049H79.9602ZM81.7163 17.8049V16.9268H82.5943V17.8049H81.7163ZM82.5943 17.8049V16.9268H83.4724V17.8049H82.5943ZM82.5943 18.6829V17.8049H83.4724V18.6829H82.5943ZM81.7163 18.6829V17.8049H82.5943V18.6829H81.7163ZM79.9602 18.6829V17.8049H80.8382V18.6829H79.9602ZM79.0821 18.6829V17.8049H79.9602V18.6829H79.0821ZM78.2041 18.6829V17.8049H79.0821V18.6829H78.2041ZM77.326 18.6829V17.8049H78.2041V18.6829H77.326ZM77.326 19.561V18.6829H78.2041V19.561H77.326ZM78.2041 19.561V18.6829H79.0821V19.561H78.2041ZM79.0821 19.561V18.6829H79.9602V19.561H79.0821ZM79.9602 19.561V18.6829H80.8382V19.561H79.9602ZM81.7163 19.561V18.6829H82.5943V19.561H81.7163ZM82.5943 19.561V18.6829H83.4724V19.561H82.5943ZM82.5943 20.439V19.561H83.4724V20.439H82.5943ZM77.326 20.439V19.561H78.2041V20.439H77.326ZM73.8138 23.0732V23.9512H72.9358V23.0732H73.8138ZM74.6919 23.0732V23.9512H73.8138V23.0732H74.6919ZM73.8138 22.1951V23.0732H72.9358V22.1951H73.8138ZM76.448 22.1951V23.0732H75.5699V22.1951H76.448ZM76.448 23.0732V23.9512H75.5699V23.0732H76.448ZM77.326 23.0732V23.9512H76.448V23.0732H77.326ZM77.326 22.1951V23.0732H76.448V22.1951H77.326ZM74.6919 22.1951V23.0732H73.8138V22.1951H74.6919ZM75.5699 22.1951V23.0732H74.6919V22.1951H75.5699ZM75.5699 23.0732V23.9512H74.6919V23.0732H75.5699ZM84.3504 23.0732V23.9512H83.4724V23.0732H84.3504ZM85.2285 23.0732V23.9512H84.3504V23.0732H85.2285ZM84.3504 22.1951V23.0732H83.4724V22.1951H84.3504ZM86.9846 22.1951V23.0732H86.1065V22.1951H86.9846ZM86.9846 23.0732V23.9512H86.1065V23.0732H86.9846ZM87.8626 23.0732V23.9512H86.9846V23.0732H87.8626ZM87.8626 22.1951V23.0732H86.9846V22.1951H87.8626ZM85.2285 22.1951V23.0732H84.3504V22.1951H85.2285ZM86.1065 22.1951V23.0732H85.2285V22.1951H86.1065ZM86.1065 23.0732V23.9512H85.2285V23.0732H86.1065ZM79.0821 33.6098V34.4878H78.2041V33.6098H79.0821ZM79.9602 33.6098V34.4878H79.0821V33.6098H79.9602ZM80.8382 33.6098V34.4878H79.9602V33.6098H80.8382ZM82.5943 33.6098V34.4878H81.7163V33.6098H82.5943ZM83.4724 32.7317V33.6098H82.5943V32.7317H83.4724ZM78.2041 32.7317V33.6098H77.326V32.7317H78.2041ZM79.0821 19.561V20.439H78.2041V19.561H79.0821ZM79.9602 19.561V20.439H79.0821V19.561H79.9602ZM80.8382 19.561V20.439H79.9602V19.561H80.8382ZM82.5943 19.561V20.439H81.7163V19.561H82.5943ZM83.4724 20.439V21.3171H82.5943V20.439H83.4724ZM78.2041 20.439V21.3171H77.326V20.439H78.2041ZM81.7163 16.0488V16.9268H80.8382V16.0488H81.7163ZM81.7163 16.9268V17.8049H80.8382V16.9268H81.7163ZM81.7163 17.8049V18.6829H80.8382V17.8049H81.7163ZM81.7163 18.6829V19.561H80.8382V18.6829H81.7163ZM81.7163 19.561V20.439H80.8382V19.561H81.7163ZM81.7163 33.6098V34.4878H80.8382V33.6098H81.7163ZM81.7163 34.4878V35.3659H80.8382V34.4878H81.7163ZM81.7163 35.3659V36.2439H80.8382V35.3659H81.7163ZM81.7163 36.2439V37.122H80.8382V36.2439H81.7163ZM81.7163 37.122V38H80.8382V37.122H81.7163ZM101.025 37.122V38H100.147V37.122H101.025ZM101.025 36.2439V37.122H100.147V36.2439H101.025ZM101.025 35.3659V36.2439H100.147V35.3659H101.025ZM101.025 34.4878V35.3659H100.147V34.4878H101.025ZM101.025 33.6098V34.4878H100.147V33.6098H101.025ZM101.025 32.7317V33.6098H100.147V32.7317H101.025ZM101.025 31.8537V32.7317H100.147V31.8537H101.025ZM101.025 30.9756V31.8537H100.147V30.9756H101.025ZM101.025 30.0976V30.9756H100.147V30.0976H101.025ZM101.025 29.2195V30.0976H100.147V29.2195H101.025ZM101.025 28.3415V29.2195H100.147V28.3415H101.025ZM101.025 27.4634V28.3415H100.147V27.4634H101.025ZM101.025 26.5854V27.4634H100.147V26.5854H101.025ZM101.025 25.7073V26.5854H100.147V25.7073H101.025ZM101.025 24.8293V25.7073H100.147V24.8293H101.025ZM101.903 24.8293V25.7073H101.025V24.8293H101.903ZM101.903 25.7073V26.5854H101.025V25.7073H101.903ZM101.903 26.5854V27.4634H101.025V26.5854H101.903ZM101.903 27.4634V28.3415H101.025V27.4634H101.903ZM101.903 28.3415V29.2195H101.025V28.3415H101.903ZM101.903 29.2195V30.0976H101.025V29.2195H101.903ZM101.903 30.0976V30.9756H101.025V30.0976H101.903ZM102.781 30.9756V31.8537H101.903V30.9756H102.781ZM102.781 31.8537V32.7317H101.903V31.8537H102.781ZM102.781 32.7317V33.6098H101.903V32.7317H102.781ZM102.781 33.6098V34.4878H101.903V33.6098H102.781ZM102.781 34.4878V35.3659H101.903V34.4878H102.781ZM102.781 35.3659V36.2439H101.903V35.3659H102.781ZM102.781 36.2439V37.122H101.903V36.2439H102.781ZM102.781 37.122V38H101.903V37.122H102.781ZM103.659 37.122V38H102.781V37.122H103.659ZM104.537 37.122V38H103.659V37.122H104.537ZM104.537 36.2439V37.122H103.659V36.2439H104.537ZM104.537 35.3659V36.2439H103.659V35.3659H104.537ZM104.537 34.4878V35.3659H103.659V34.4878H104.537ZM104.537 33.6098V34.4878H103.659V33.6098H104.537ZM104.537 32.7317V33.6098H103.659V32.7317H104.537ZM104.537 31.8537V32.7317H103.659V31.8537H104.537ZM104.537 30.9756V31.8537H103.659V30.9756H104.537ZM103.659 30.9756V31.8537H102.781V30.9756H103.659ZM103.659 30.0976V30.9756H102.781V30.0976H103.659ZM103.659 31.8537V32.7317H102.781V31.8537H103.659ZM103.659 32.7317V33.6098H102.781V32.7317H103.659ZM103.659 33.6098V34.4878H102.781V33.6098H103.659ZM103.659 34.4878V35.3659H102.781V34.4878H103.659ZM103.659 35.3659V36.2439H102.781V35.3659H103.659ZM103.659 36.2439V37.122H102.781V36.2439H103.659ZM101.903 37.122V38H101.025V37.122H101.903ZM101.903 36.2439V37.122H101.025V36.2439H101.903ZM101.903 35.3659V36.2439H101.025V35.3659H101.903ZM101.903 34.4878V35.3659H101.025V34.4878H101.903ZM101.903 33.6098V34.4878H101.025V33.6098H101.903ZM101.903 32.7317V33.6098H101.025V32.7317H101.903ZM101.903 31.8537V32.7317H101.025V31.8537H101.903ZM101.903 30.9756V31.8537H101.025V30.9756H101.903ZM101.025 22.1951V23.0732H100.147V22.1951H101.025ZM101.025 23.0732V23.9512H100.147V23.0732H101.025ZM101.025 23.9512V24.8293H100.147V23.9512H101.025ZM103.659 20.439V21.3171H102.781V20.439H103.659ZM103.659 22.1951V23.0732H102.781V22.1951H103.659ZM103.659 23.0732V23.9512H102.781V23.0732H103.659ZM103.659 23.9512V24.8293H102.781V23.9512H103.659ZM103.659 24.8293V25.7073H102.781V24.8293H103.659ZM103.659 25.7073V26.5854H102.781V25.7073H103.659ZM103.659 26.5854V27.4634H102.781V26.5854H103.659ZM103.659 27.4634V28.3415H102.781V27.4634H103.659ZM104.537 28.3415V29.2195H103.659V28.3415H104.537ZM104.537 29.2195V30.0976H103.659V29.2195H104.537ZM104.537 30.0976V30.9756H103.659V30.0976H104.537ZM104.537 27.4634V28.3415H103.659V27.4634H104.537ZM104.537 26.5854V27.4634H103.659V26.5854H104.537ZM104.537 25.7073V26.5854H103.659V25.7073H104.537ZM104.537 24.8293V25.7073H103.659V24.8293H104.537ZM104.537 23.9512V24.8293H103.659V23.9512H104.537ZM104.537 23.0732V23.9512H103.659V23.0732H104.537ZM104.537 22.1951V23.0732H103.659V22.1951H104.537ZM104.537 21.3171V22.1951H103.659V21.3171H104.537ZM104.537 20.439V21.3171H103.659V20.439H104.537ZM104.537 19.561V20.439H103.659V19.561H104.537ZM103.659 21.3171V22.1951H102.781V21.3171H103.659ZM104.537 18.6829V19.561H103.659V18.6829H104.537ZM104.537 17.8049V18.6829H103.659V17.8049H104.537ZM102.781 20.439V21.3171H101.903V20.439H102.781ZM102.781 21.3171V22.1951H101.903V21.3171H102.781ZM102.781 22.1951V23.0732H101.903V22.1951H102.781ZM101.903 23.0732V23.9512H101.025V23.0732H101.903ZM101.903 23.9512V24.8293H101.025V23.9512H101.903ZM101.903 22.1951V23.0732H101.025V22.1951H101.903ZM101.903 21.3171V22.1951H101.025V21.3171H101.903ZM102.781 23.0732V23.9512H101.903V23.0732H102.781ZM102.781 23.9512V24.8293H101.903V23.9512H102.781ZM102.781 24.8293V25.7073H101.903V24.8293H102.781ZM102.781 25.7073V26.5854H101.903V25.7073H102.781ZM102.781 26.5854V27.4634H101.903V26.5854H102.781ZM102.781 27.4634V28.3415H101.903V27.4634H102.781ZM102.781 28.3415V29.2195H101.903V28.3415H102.781ZM102.781 29.2195V30.0976H101.903V29.2195H102.781ZM102.781 30.0976V30.9756H101.903V30.0976H102.781ZM103.659 29.2195V30.0976H102.781V29.2195H103.659ZM103.659 28.3415V29.2195H102.781V28.3415H103.659ZM110.683 37.122V38H109.805V37.122H110.683ZM110.683 36.2439V37.122H109.805V36.2439H110.683ZM110.683 35.3659V36.2439H109.805V35.3659H110.683ZM110.683 34.4878V35.3659H109.805V34.4878H110.683ZM110.683 33.6098V34.4878H109.805V33.6098H110.683ZM110.683 32.7317V33.6098H109.805V32.7317H110.683ZM110.683 31.8537V32.7317H109.805V31.8537H110.683ZM110.683 30.9756V31.8537H109.805V30.9756H110.683ZM110.683 30.0976V30.9756H109.805V30.0976H110.683ZM110.683 29.2195V30.0976H109.805V29.2195H110.683ZM110.683 28.3415V29.2195H109.805V28.3415H110.683ZM110.683 27.4634V28.3415H109.805V27.4634H110.683ZM110.683 26.5854V27.4634H109.805V26.5854H110.683ZM110.683 25.7073V26.5854H109.805V25.7073H110.683ZM110.683 24.8293V25.7073H109.805V24.8293H110.683ZM111.561 24.8293V25.7073H110.683V24.8293H111.561ZM111.561 25.7073V26.5854H110.683V25.7073H111.561ZM111.561 26.5854V27.4634H110.683V26.5854H111.561ZM111.561 27.4634V28.3415H110.683V27.4634H111.561ZM111.561 28.3415V29.2195H110.683V28.3415H111.561ZM111.561 29.2195V30.0976H110.683V29.2195H111.561ZM111.561 30.0976V30.9756H110.683V30.0976H111.561ZM112.439 30.9756V31.8537H111.561V30.9756H112.439ZM112.439 31.8537V32.7317H111.561V31.8537H112.439ZM112.439 32.7317V33.6098H111.561V32.7317H112.439ZM112.439 33.6098V34.4878H111.561V33.6098H112.439ZM112.439 34.4878V35.3659H111.561V34.4878H112.439ZM112.439 35.3659V36.2439H111.561V35.3659H112.439ZM112.439 36.2439V37.122H111.561V36.2439H112.439ZM112.439 37.122V38H111.561V37.122H112.439ZM113.317 37.122V38H112.439V37.122H113.317ZM114.196 37.122V38H113.317V37.122H114.196ZM114.196 36.2439V37.122H113.317V36.2439H114.196ZM114.196 35.3659V36.2439H113.317V35.3659H114.196ZM114.196 34.4878V35.3659H113.317V34.4878H114.196ZM114.196 33.6098V34.4878H113.317V33.6098H114.196ZM114.196 32.7317V33.6098H113.317V32.7317H114.196ZM114.196 31.8537V32.7317H113.317V31.8537H114.196ZM114.196 30.9756V31.8537H113.317V30.9756H114.196ZM113.317 30.9756V31.8537H112.439V30.9756H113.317ZM113.317 30.0976V30.9756H112.439V30.0976H113.317ZM113.317 31.8537V32.7317H112.439V31.8537H113.317ZM113.317 32.7317V33.6098H112.439V32.7317H113.317ZM113.317 33.6098V34.4878H112.439V33.6098H113.317ZM113.317 34.4878V35.3659H112.439V34.4878H113.317ZM113.317 35.3659V36.2439H112.439V35.3659H113.317ZM113.317 36.2439V37.122H112.439V36.2439H113.317ZM111.561 37.122V38H110.683V37.122H111.561ZM111.561 36.2439V37.122H110.683V36.2439H111.561ZM111.561 35.3659V36.2439H110.683V35.3659H111.561ZM111.561 34.4878V35.3659H110.683V34.4878H111.561ZM111.561 33.6098V34.4878H110.683V33.6098H111.561ZM111.561 32.7317V33.6098H110.683V32.7317H111.561ZM111.561 31.8537V32.7317H110.683V31.8537H111.561ZM111.561 30.9756V31.8537H110.683V30.9756H111.561ZM110.683 17.8049V18.6829H109.805V17.8049H110.683ZM110.683 18.6829V19.561H109.805V18.6829H110.683ZM110.683 19.561V20.439H109.805V19.561H110.683ZM110.683 20.439V21.3171H109.805V20.439H110.683ZM110.683 21.3171V22.1951H109.805V21.3171H110.683ZM110.683 22.1951V23.0732H109.805V22.1951H110.683ZM110.683 23.0732V23.9512H109.805V23.0732H110.683ZM110.683 23.9512V24.8293H109.805V23.9512H110.683ZM113.317 20.439V21.3171H112.439V20.439H113.317ZM113.317 22.1951V23.0732H112.439V22.1951H113.317ZM113.317 23.0732V23.9512H112.439V23.0732H113.317ZM113.317 23.9512V24.8293H112.439V23.9512H113.317ZM113.317 24.8293V25.7073H112.439V24.8293H113.317ZM113.317 25.7073V26.5854H112.439V25.7073H113.317ZM113.317 26.5854V27.4634H112.439V26.5854H113.317ZM113.317 27.4634V28.3415H112.439V27.4634H113.317ZM114.196 28.3415V29.2195H113.317V28.3415H114.196ZM114.196 29.2195V30.0976H113.317V29.2195H114.196ZM114.196 30.0976V30.9756H113.317V30.0976H114.196ZM114.196 27.4634V28.3415H113.317V27.4634H114.196ZM114.196 26.5854V27.4634H113.317V26.5854H114.196ZM114.196 25.7073V26.5854H113.317V25.7073H114.196ZM114.196 24.8293V25.7073H113.317V24.8293H114.196ZM114.196 23.9512V24.8293H113.317V23.9512H114.196ZM114.196 23.0732V23.9512H113.317V23.0732H114.196ZM114.196 22.1951V23.0732H113.317V22.1951H114.196ZM114.196 21.3171V22.1951H113.317V21.3171H114.196ZM113.317 21.3171V22.1951H112.439V21.3171H113.317ZM112.439 19.561V20.439H111.561V19.561H112.439ZM112.439 20.439V21.3171H111.561V20.439H112.439ZM112.439 21.3171V22.1951H111.561V21.3171H112.439ZM112.439 22.1951V23.0732H111.561V22.1951H112.439ZM111.561 23.0732V23.9512H110.683V23.0732H111.561ZM111.561 23.9512V24.8293H110.683V23.9512H111.561ZM111.561 22.1951V23.0732H110.683V22.1951H111.561ZM111.561 21.3171V22.1951H110.683V21.3171H111.561ZM111.561 20.439V21.3171H110.683V20.439H111.561ZM111.561 19.561V20.439H110.683V19.561H111.561ZM111.561 18.6829V19.561H110.683V18.6829H111.561ZM112.439 23.0732V23.9512H111.561V23.0732H112.439ZM112.439 23.9512V24.8293H111.561V23.9512H112.439ZM112.439 24.8293V25.7073H111.561V24.8293H112.439ZM112.439 25.7073V26.5854H111.561V25.7073H112.439ZM112.439 26.5854V27.4634H111.561V26.5854H112.439ZM112.439 27.4634V28.3415H111.561V27.4634H112.439ZM112.439 28.3415V29.2195H111.561V28.3415H112.439ZM112.439 29.2195V30.0976H111.561V29.2195H112.439ZM112.439 30.0976V30.9756H111.561V30.0976H112.439ZM113.317 29.2195V30.0976H112.439V29.2195H113.317ZM113.317 28.3415V29.2195H112.439V28.3415H113.317ZM106.293 16.0488V16.9268H105.415V16.0488H106.293ZM107.171 16.0488V16.9268H106.293V16.0488H107.171ZM108.049 16.0488V16.9268H107.171V16.0488H108.049ZM108.927 16.0488V16.9268H108.049V16.0488H108.927ZM109.805 16.9268V17.8049H108.927V16.9268H109.805ZM108.927 16.9268V17.8049H108.049V16.9268H108.927ZM108.049 16.9268V17.8049H107.171V16.9268H108.049ZM107.171 16.9268V17.8049H106.293V16.9268H107.171ZM106.293 16.9268V17.8049H105.415V16.9268H106.293ZM105.415 16.9268V17.8049H104.537V16.9268H105.415ZM105.415 17.8049V18.6829H104.537V17.8049H105.415ZM105.415 18.6829V19.561H104.537V18.6829H105.415ZM106.293 17.8049V18.6829H105.415V17.8049H106.293ZM107.171 17.8049V18.6829H106.293V17.8049H107.171ZM108.049 17.8049V18.6829H107.171V17.8049H108.049ZM108.927 17.8049V18.6829H108.049V17.8049H108.927ZM109.805 17.8049V18.6829H108.927V17.8049H109.805ZM109.805 18.6829V19.561H108.927V18.6829H109.805ZM108.927 18.6829V19.561H108.049V18.6829H108.927ZM108.049 18.6829V19.561H107.171V18.6829H108.049ZM107.171 18.6829V19.561H106.293V18.6829H107.171ZM106.293 18.6829V19.561H105.415V18.6829H106.293ZM105.415 19.561V20.439H104.537V19.561H105.415ZM106.293 19.561V20.439H105.415V19.561H106.293ZM109.805 19.561V20.439H108.927V19.561H109.805ZM108.927 19.561V20.439H108.049V19.561H108.927ZM109.805 20.439V21.3171H108.927V20.439H109.805ZM105.415 20.439V21.3171H104.537V20.439H105.415ZM103.659 18.6829V19.561H102.781V18.6829H103.659ZM103.659 19.561V20.439H102.781V19.561H103.659ZM102.781 19.561V20.439H101.903V19.561H102.781ZM101.903 20.439V21.3171H101.025V20.439H101.903ZM101.025 21.3171V22.1951H100.147V21.3171H101.025ZM105.415 21.3171V22.1951H104.537V21.3171H105.415ZM106.293 20.439V21.3171H105.415V20.439H106.293ZM107.171 19.561V20.439H106.293V19.561H107.171ZM108.049 19.561V20.439H107.171V19.561H108.049ZM108.927 20.439V21.3171H108.049V20.439H108.927ZM109.805 21.3171V22.1951H108.927V21.3171H109.805ZM105.415 31.8537V32.7317H104.537V31.8537H105.415ZM106.293 31.8537V32.7317H105.415V31.8537H106.293ZM107.171 31.8537V32.7317H106.293V31.8537H107.171ZM108.049 31.8537V32.7317H107.171V31.8537H108.049ZM108.927 31.8537V32.7317H108.049V31.8537H108.927ZM109.805 31.8537V32.7317H108.927V31.8537H109.805ZM109.805 30.9756V31.8537H108.927V30.9756H109.805ZM108.927 30.9756V31.8537H108.049V30.9756H108.927ZM108.049 30.9756V31.8537H107.171V30.9756H108.049ZM107.171 30.9756V31.8537H106.293V30.9756H107.171ZM106.293 30.9756V31.8537H105.415V30.9756H106.293ZM105.415 30.9756V31.8537H104.537V30.9756H105.415ZM105.415 30.0976V30.9756H104.537V30.0976H105.415ZM106.293 30.0976V30.9756H105.415V30.0976H106.293ZM107.171 30.0976V30.9756H106.293V30.0976H107.171ZM108.049 30.0976V30.9756H107.171V30.0976H108.049ZM108.927 30.0976V30.9756H108.049V30.0976H108.927ZM109.805 30.0976V30.9756H108.927V30.0976H109.805ZM109.805 29.2195V30.0976H108.927V29.2195H109.805ZM108.927 29.2195V30.0976H108.049V29.2195H108.927ZM108.049 29.2195V30.0976H107.171V29.2195H108.049ZM107.171 29.2195V30.0976H106.293V29.2195H107.171ZM106.293 29.2195V30.0976H105.415V29.2195H106.293ZM105.415 29.2195V30.0976H104.537V29.2195H105.415ZM105.415 28.3415V29.2195H104.537V28.3415H105.415ZM106.293 28.3415V29.2195H105.415V28.3415H106.293ZM107.171 28.3415V29.2195H106.293V28.3415H107.171ZM108.049 28.3415V29.2195H107.171V28.3415H108.049ZM108.927 28.3415V29.2195H108.049V28.3415H108.927ZM109.805 28.3415V29.2195H108.927V28.3415H109.805ZM107.171 20.439V21.3171H106.293V20.439H107.171ZM108.049 20.439V21.3171H107.171V20.439H108.049ZM106.293 21.3171V22.1951H105.415V21.3171H106.293ZM105.415 22.1951V23.0732H104.537V22.1951H105.415ZM108.927 21.3171V22.1951H108.049V21.3171H108.927ZM109.805 22.1951V23.0732H108.927V22.1951H109.805ZM127.383 26.5854V27.4634H126.505V26.5854H127.383ZM128.261 26.5854V27.4634H127.383V26.5854H128.261ZM129.139 26.5854V27.4634H128.261V26.5854H129.139ZM130.018 26.5854V27.4634H129.139V26.5854H130.018ZM130.896 26.5854V27.4634H130.018V26.5854H130.896ZM130.896 25.7073V26.5854H130.018V25.7073H130.896ZM130.896 24.8293V25.7073H130.018V24.8293H130.896ZM130.018 24.8293V25.7073H129.139V24.8293H130.018ZM129.139 24.8293V25.7073H128.261V24.8293H129.139ZM128.261 24.8293V25.7073H127.383V24.8293H128.261ZM128.261 25.7073V26.5854H127.383V25.7073H128.261ZM127.383 25.7073V26.5854H126.505V25.7073H127.383ZM129.139 25.7073V26.5854H128.261V25.7073H129.139ZM130.018 25.7073V26.5854H129.139V25.7073H130.018ZM127.383 24.8293V25.7073H126.505V24.8293H127.383ZM126.505 24.8293V25.7073H125.627V24.8293H126.505ZM126.505 23.9512V24.8293H125.627V23.9512H126.505ZM127.383 23.9512V24.8293H126.505V23.9512H127.383ZM128.261 23.9512V24.8293H127.383V23.9512H128.261ZM129.139 23.9512V24.8293H128.261V23.9512H129.139ZM130.018 23.9512V24.8293H129.139V23.9512H130.018ZM130.018 23.0732V23.9512H129.139V23.0732H130.018ZM129.139 23.0732V23.9512H128.261V23.0732H129.139ZM128.261 23.0732V23.9512H127.383V23.0732H128.261ZM127.383 23.0732V23.9512H126.505V23.0732H127.383ZM126.505 23.0732V23.9512H125.627V23.0732H126.505ZM128.261 22.1951V23.0732H127.383V22.1951H128.261ZM129.139 22.1951V23.0732H128.261V22.1951H129.139ZM127.383 22.1951V23.0732H126.505V22.1951H127.383ZM127.383 21.3171V22.1951H126.505V21.3171H127.383ZM126.505 21.3171V22.1951H125.627V21.3171H126.505ZM126.505 22.1951V23.0732H125.627V22.1951H126.505ZM125.627 22.1951V23.0732H124.749V22.1951H125.627ZM125.627 21.3171V22.1951H124.749V21.3171H125.627ZM125.627 23.0732V23.9512H124.749V23.0732H125.627ZM124.749 23.0732V23.9512H123.871V23.0732H124.749ZM124.749 23.9512V24.8293H123.871V23.9512H124.749ZM125.627 23.9512V24.8293H124.749V23.9512H125.627ZM123.871 23.9512V24.8293H122.993V23.9512H123.871ZM123.871 23.0732V23.9512H122.993V23.0732H123.871ZM123.871 22.1951V23.0732H122.993V22.1951H123.871ZM123.871 21.3171V22.1951H122.993V21.3171H123.871ZM124.749 21.3171V22.1951H123.871V21.3171H124.749ZM124.749 22.1951V23.0732H123.871V22.1951H124.749ZM122.993 21.3171V22.1951H122.115V21.3171H122.993ZM122.115 21.3171V22.1951H121.237V21.3171H122.115ZM121.237 21.3171V22.1951H120.359V21.3171H121.237ZM121.237 22.1951V23.0732H120.359V22.1951H121.237ZM121.237 23.0732V23.9512H120.359V23.0732H121.237ZM121.237 23.9512V24.8293H120.359V23.9512H121.237ZM122.115 23.9512V24.8293H121.237V23.9512H122.115ZM122.993 23.9512V24.8293H122.115V23.9512H122.993ZM122.993 23.0732V23.9512H122.115V23.0732H122.993ZM122.993 22.1951V23.0732H122.115V22.1951H122.993ZM122.115 22.1951V23.0732H121.237V22.1951H122.115ZM122.115 23.0732V23.9512H121.237V23.0732H122.115ZM120.359 23.0732V23.9512H119.481V23.0732H120.359ZM120.359 22.1951V23.0732H119.481V22.1951H120.359ZM119.481 22.1951V23.0732H118.603V22.1951H119.481ZM119.481 23.0732V23.9512H118.603V23.0732H119.481ZM118.603 23.0732V23.9512H117.725V23.0732H118.603ZM118.603 23.9512V24.8293H117.725V23.9512H118.603ZM118.603 24.8293V25.7073H117.725V24.8293H118.603ZM119.481 24.8293V25.7073H118.603V24.8293H119.481ZM119.481 23.9512V24.8293H118.603V23.9512H119.481ZM120.359 23.9512V24.8293H119.481V23.9512H120.359ZM120.359 24.8293V25.7073H119.481V24.8293H120.359ZM121.237 24.8293V25.7073H120.359V24.8293H121.237ZM122.115 24.8293V25.7073H121.237V24.8293H122.115ZM117.725 24.8293V25.7073H116.847V24.8293H117.725ZM117.725 25.7073V26.5854H116.847V25.7073H117.725ZM117.725 26.5854V27.4634H116.847V26.5854H117.725ZM117.725 27.4634V28.3415H116.847V27.4634H117.725ZM117.725 28.3415V29.2195H116.847V28.3415H117.725ZM117.725 29.2195V30.0976H116.847V29.2195H117.725ZM117.725 30.0976V30.9756H116.847V30.0976H117.725ZM117.725 30.9756V31.8537H116.847V30.9756H117.725ZM117.725 31.8537V32.7317H116.847V31.8537H117.725ZM117.725 32.7317V33.6098H116.847V32.7317H117.725ZM118.603 32.7317V33.6098H117.725V32.7317H118.603ZM118.603 33.6098V34.4878H117.725V33.6098H118.603ZM117.725 33.6098V34.4878H116.847V33.6098H117.725ZM119.481 33.6098V34.4878H118.603V33.6098H119.481ZM120.359 33.6098V34.4878H119.481V33.6098H120.359ZM121.237 33.6098V34.4878H120.359V33.6098H121.237ZM122.115 33.6098V34.4878H121.237V33.6098H122.115ZM121.237 32.7317V33.6098H120.359V32.7317H121.237ZM121.237 31.8537V32.7317H120.359V31.8537H121.237ZM121.237 30.9756V31.8537H120.359V30.9756H121.237ZM121.237 30.0976V30.9756H120.359V30.0976H121.237ZM121.237 29.2195V30.0976H120.359V29.2195H121.237ZM121.237 28.3415V29.2195H120.359V28.3415H121.237ZM121.237 27.4634V28.3415H120.359V27.4634H121.237ZM121.237 26.5854V27.4634H120.359V26.5854H121.237ZM121.237 25.7073V26.5854H120.359V25.7073H121.237ZM120.359 25.7073V26.5854H119.481V25.7073H120.359ZM119.481 25.7073V26.5854H118.603V25.7073H119.481ZM118.603 25.7073V26.5854H117.725V25.7073H118.603ZM118.603 26.5854V27.4634H117.725V26.5854H118.603ZM118.603 27.4634V28.3415H117.725V27.4634H118.603ZM118.603 28.3415V29.2195H117.725V28.3415H118.603ZM118.603 29.2195V30.0976H117.725V29.2195H118.603ZM118.603 30.0976V30.9756H117.725V30.0976H118.603ZM118.603 30.9756V31.8537H117.725V30.9756H118.603ZM118.603 31.8537V32.7317H117.725V31.8537H118.603ZM119.481 32.7317V33.6098H118.603V32.7317H119.481ZM120.359 32.7317V33.6098H119.481V32.7317H120.359ZM120.359 31.8537V32.7317H119.481V31.8537H120.359ZM120.359 30.9756V31.8537H119.481V30.9756H120.359ZM120.359 30.0976V30.9756H119.481V30.0976H120.359ZM120.359 29.2195V30.0976H119.481V29.2195H120.359ZM119.481 29.2195V30.0976H118.603V29.2195H119.481ZM119.481 28.3415V29.2195H118.603V28.3415H119.481ZM119.481 27.4634V28.3415H118.603V27.4634H119.481ZM119.481 26.5854V27.4634H118.603V26.5854H119.481ZM120.359 26.5854V27.4634H119.481V26.5854H120.359ZM120.359 27.4634V28.3415H119.481V27.4634H120.359ZM120.359 28.3415V29.2195H119.481V28.3415H120.359ZM119.481 30.9756V31.8537H118.603V30.9756H119.481ZM119.481 31.8537V32.7317H118.603V31.8537H119.481ZM119.481 30.0976V30.9756H118.603V30.0976H119.481ZM127.383 31.8537V32.7317H126.505V31.8537H127.383ZM127.383 32.7317V33.6098H126.505V32.7317H127.383ZM128.261 32.7317V33.6098H127.383V32.7317H128.261ZM129.139 32.7317V33.6098H128.261V32.7317H129.139ZM130.018 32.7317V33.6098H129.139V32.7317H130.018ZM130.896 32.7317V33.6098H130.018V32.7317H130.896ZM130.896 31.8537V32.7317H130.018V31.8537H130.896ZM130.018 31.8537V32.7317H129.139V31.8537H130.018ZM129.139 31.8537V32.7317H128.261V31.8537H129.139ZM128.261 31.8537V32.7317H127.383V31.8537H128.261ZM130.896 33.6098V34.4878H130.018V33.6098H130.896ZM130.018 33.6098V34.4878H129.139V33.6098H130.018ZM129.139 33.6098V34.4878H128.261V33.6098H129.139ZM128.261 33.6098V34.4878H127.383V33.6098H128.261ZM127.383 33.6098V34.4878H126.505V33.6098H127.383ZM126.505 33.6098V34.4878H125.627V33.6098H126.505ZM126.505 34.4878V35.3659H125.627V34.4878H126.505ZM127.383 34.4878V35.3659H126.505V34.4878H127.383ZM128.261 34.4878V35.3659H127.383V34.4878H128.261ZM129.139 34.4878V35.3659H128.261V34.4878H129.139ZM129.139 35.3659V36.2439H128.261V35.3659H129.139ZM130.018 35.3659V36.2439H129.139V35.3659H130.018ZM130.018 34.4878V35.3659H129.139V34.4878H130.018ZM129.139 36.2439V37.122H128.261V36.2439H129.139ZM128.261 36.2439V37.122H127.383V36.2439H128.261ZM128.261 35.3659V36.2439H127.383V35.3659H128.261ZM127.383 35.3659V36.2439H126.505V35.3659H127.383ZM127.383 36.2439V37.122H126.505V36.2439H127.383ZM127.383 37.122V38H126.505V37.122H127.383ZM126.505 37.122V38H125.627V37.122H126.505ZM125.627 37.122V38H124.749V37.122H125.627ZM124.749 37.122V38H123.871V37.122H124.749ZM123.871 37.122V38H122.993V37.122H123.871ZM122.993 37.122V38H122.115V37.122H122.993ZM122.115 37.122V38H121.237V37.122H122.115ZM121.237 37.122V38H120.359V37.122H121.237ZM122.115 36.2439V37.122H121.237V36.2439H122.115ZM122.993 36.2439V37.122H122.115V36.2439H122.993ZM123.871 36.2439V37.122H122.993V36.2439H123.871ZM124.749 36.2439V37.122H123.871V36.2439H124.749ZM125.627 36.2439V37.122H124.749V36.2439H125.627ZM126.505 36.2439V37.122H125.627V36.2439H126.505ZM126.505 35.3659V36.2439H125.627V35.3659H126.505ZM125.627 35.3659V36.2439H124.749V35.3659H125.627ZM124.749 35.3659V36.2439H123.871V35.3659H124.749ZM123.871 35.3659V36.2439H122.993V35.3659H123.871ZM122.993 35.3659V36.2439H122.115V35.3659H122.993ZM122.115 35.3659V36.2439H121.237V35.3659H122.115ZM121.237 36.2439V37.122H120.359V36.2439H121.237ZM120.359 36.2439V37.122H119.481V36.2439H120.359ZM119.481 36.2439V37.122H118.603V36.2439H119.481ZM119.481 35.3659V36.2439H118.603V35.3659H119.481ZM118.603 35.3659V36.2439H117.725V35.3659H118.603ZM118.603 34.4878V35.3659H117.725V34.4878H118.603ZM119.481 34.4878V35.3659H118.603V34.4878H119.481ZM120.359 34.4878V35.3659H119.481V34.4878H120.359ZM121.237 34.4878V35.3659H120.359V34.4878H121.237ZM122.115 34.4878V35.3659H121.237V34.4878H122.115ZM122.993 34.4878V35.3659H122.115V34.4878H122.993ZM123.871 34.4878V35.3659H122.993V34.4878H123.871ZM124.749 34.4878V35.3659H123.871V34.4878H124.749ZM125.627 34.4878V35.3659H124.749V34.4878H125.627ZM121.237 35.3659V36.2439H120.359V35.3659H121.237ZM120.359 35.3659V36.2439H119.481V35.3659H120.359ZM143.204 26.5854V27.4634H142.326V26.5854H143.204ZM144.082 26.5854V27.4634H143.204V26.5854H144.082ZM144.96 26.5854V27.4634H144.082V26.5854H144.96ZM145.838 26.5854V27.4634H144.96V26.5854H145.838ZM146.716 26.5854V27.4634H145.838V26.5854H146.716ZM146.716 25.7073V26.5854H145.838V25.7073H146.716ZM146.716 24.8293V25.7073H145.838V24.8293H146.716ZM145.838 24.8293V25.7073H144.96V24.8293H145.838ZM144.96 24.8293V25.7073H144.082V24.8293H144.96ZM144.082 24.8293V25.7073H143.204V24.8293H144.082ZM144.082 25.7073V26.5854H143.204V25.7073H144.082ZM143.204 25.7073V26.5854H142.326V25.7073H143.204ZM144.96 25.7073V26.5854H144.082V25.7073H144.96ZM145.838 25.7073V26.5854H144.96V25.7073H145.838ZM143.204 24.8293V25.7073H142.326V24.8293H143.204ZM142.326 24.8293V25.7073H141.448V24.8293H142.326ZM142.326 23.9512V24.8293H141.448V23.9512H142.326ZM143.204 23.9512V24.8293H142.326V23.9512H143.204ZM144.082 23.9512V24.8293H143.204V23.9512H144.082ZM144.96 23.9512V24.8293H144.082V23.9512H144.96ZM145.838 23.9512V24.8293H144.96V23.9512H145.838ZM145.838 23.0732V23.9512H144.96V23.0732H145.838ZM144.96 23.0732V23.9512H144.082V23.0732H144.96ZM144.082 23.0732V23.9512H143.204V23.0732H144.082ZM143.204 23.0732V23.9512H142.326V23.0732H143.204ZM142.326 23.0732V23.9512H141.448V23.0732H142.326ZM144.082 22.1951V23.0732H143.204V22.1951H144.082ZM144.96 22.1951V23.0732H144.082V22.1951H144.96ZM143.204 22.1951V23.0732H142.326V22.1951H143.204ZM143.204 21.3171V22.1951H142.326V21.3171H143.204ZM142.326 21.3171V22.1951H141.448V21.3171H142.326ZM142.326 22.1951V23.0732H141.448V22.1951H142.326ZM141.448 22.1951V23.0732H140.57V22.1951H141.448ZM141.448 21.3171V22.1951H140.57V21.3171H141.448ZM141.448 23.0732V23.9512H140.57V23.0732H141.448ZM140.57 23.0732V23.9512H139.692V23.0732H140.57ZM140.57 23.9512V24.8293H139.692V23.9512H140.57ZM141.448 23.9512V24.8293H140.57V23.9512H141.448ZM139.692 23.9512V24.8293H138.813V23.9512H139.692ZM139.692 23.0732V23.9512H138.813V23.0732H139.692ZM139.692 22.1951V23.0732H138.813V22.1951H139.692ZM139.692 21.3171V22.1951H138.813V21.3171H139.692ZM140.57 21.3171V22.1951H139.692V21.3171H140.57ZM140.57 22.1951V23.0732H139.692V22.1951H140.57ZM138.813 21.3171V22.1951H137.935V21.3171H138.813ZM137.935 21.3171V22.1951H137.057V21.3171H137.935ZM137.057 21.3171V22.1951H136.179V21.3171H137.057ZM137.057 22.1951V23.0732H136.179V22.1951H137.057ZM137.057 23.0732V23.9512H136.179V23.0732H137.057ZM137.057 23.9512V24.8293H136.179V23.9512H137.057ZM137.935 23.9512V24.8293H137.057V23.9512H137.935ZM138.813 23.9512V24.8293H137.935V23.9512H138.813ZM138.813 23.0732V23.9512H137.935V23.0732H138.813ZM138.813 22.1951V23.0732H137.935V22.1951H138.813ZM137.935 22.1951V23.0732H137.057V22.1951H137.935ZM137.935 23.0732V23.9512H137.057V23.0732H137.935ZM136.179 23.0732V23.9512H135.301V23.0732H136.179ZM136.179 22.1951V23.0732H135.301V22.1951H136.179ZM135.301 22.1951V23.0732H134.423V22.1951H135.301ZM135.301 23.0732V23.9512H134.423V23.0732H135.301ZM134.423 23.0732V23.9512H133.545V23.0732H134.423ZM134.423 23.9512V24.8293H133.545V23.9512H134.423ZM134.423 24.8293V25.7073H133.545V24.8293H134.423ZM135.301 24.8293V25.7073H134.423V24.8293H135.301ZM135.301 23.9512V24.8293H134.423V23.9512H135.301ZM136.179 23.9512V24.8293H135.301V23.9512H136.179ZM136.179 24.8293V25.7073H135.301V24.8293H136.179ZM137.057 24.8293V25.7073H136.179V24.8293H137.057ZM137.935 24.8293V25.7073H137.057V24.8293H137.935ZM133.545 24.8293V25.7073H132.667V24.8293H133.545ZM133.545 25.7073V26.5854H132.667V25.7073H133.545ZM133.545 26.5854V27.4634H132.667V26.5854H133.545ZM133.545 27.4634V28.3415H132.667V27.4634H133.545ZM133.545 28.3415V29.2195H132.667V28.3415H133.545ZM133.545 29.2195V30.0976H132.667V29.2195H133.545ZM133.545 30.0976V30.9756H132.667V30.0976H133.545ZM133.545 30.9756V31.8537H132.667V30.9756H133.545ZM133.545 31.8537V32.7317H132.667V31.8537H133.545ZM133.545 32.7317V33.6098H132.667V32.7317H133.545ZM134.423 32.7317V33.6098H133.545V32.7317H134.423ZM134.423 33.6098V34.4878H133.545V33.6098H134.423ZM133.545 33.6098V34.4878H132.667V33.6098H133.545ZM135.301 33.6098V34.4878H134.423V33.6098H135.301ZM136.179 33.6098V34.4878H135.301V33.6098H136.179ZM137.057 33.6098V34.4878H136.179V33.6098H137.057ZM137.935 33.6098V34.4878H137.057V33.6098H137.935ZM137.057 32.7317V33.6098H136.179V32.7317H137.057ZM137.057 31.8537V32.7317H136.179V31.8537H137.057ZM137.057 30.9756V31.8537H136.179V30.9756H137.057ZM137.057 30.0976V30.9756H136.179V30.0976H137.057ZM137.057 29.2195V30.0976H136.179V29.2195H137.057ZM137.057 28.3415V29.2195H136.179V28.3415H137.057ZM137.057 27.4634V28.3415H136.179V27.4634H137.057ZM137.057 26.5854V27.4634H136.179V26.5854H137.057ZM137.057 25.7073V26.5854H136.179V25.7073H137.057ZM136.179 25.7073V26.5854H135.301V25.7073H136.179ZM135.301 25.7073V26.5854H134.423V25.7073H135.301ZM134.423 25.7073V26.5854H133.545V25.7073H134.423ZM134.423 26.5854V27.4634H133.545V26.5854H134.423ZM134.423 27.4634V28.3415H133.545V27.4634H134.423ZM134.423 28.3415V29.2195H133.545V28.3415H134.423ZM134.423 29.2195V30.0976H133.545V29.2195H134.423ZM134.423 30.0976V30.9756H133.545V30.0976H134.423ZM134.423 30.9756V31.8537H133.545V30.9756H134.423ZM134.423 31.8537V32.7317H133.545V31.8537H134.423ZM135.301 32.7317V33.6098H134.423V32.7317H135.301ZM136.179 32.7317V33.6098H135.301V32.7317H136.179ZM136.179 31.8537V32.7317H135.301V31.8537H136.179ZM136.179 30.9756V31.8537H135.301V30.9756H136.179ZM136.179 30.0976V30.9756H135.301V30.0976H136.179ZM136.179 29.2195V30.0976H135.301V29.2195H136.179ZM135.301 29.2195V30.0976H134.423V29.2195H135.301ZM135.301 28.3415V29.2195H134.423V28.3415H135.301ZM135.301 27.4634V28.3415H134.423V27.4634H135.301ZM135.301 26.5854V27.4634H134.423V26.5854H135.301ZM136.179 26.5854V27.4634H135.301V26.5854H136.179ZM136.179 27.4634V28.3415H135.301V27.4634H136.179ZM136.179 28.3415V29.2195H135.301V28.3415H136.179ZM135.301 30.9756V31.8537H134.423V30.9756H135.301ZM135.301 31.8537V32.7317H134.423V31.8537H135.301ZM135.301 30.0976V30.9756H134.423V30.0976H135.301ZM143.204 32.7317V33.6098H142.326V32.7317H143.204ZM144.082 32.7317V33.6098H143.204V32.7317H144.082ZM144.96 32.7317V33.6098H144.082V32.7317H144.96ZM145.838 32.7317V33.6098H144.96V32.7317H145.838ZM146.716 32.7317V33.6098H145.838V32.7317H146.716ZM146.716 33.6098V34.4878H145.838V33.6098H146.716ZM145.838 33.6098V34.4878H144.96V33.6098H145.838ZM144.96 33.6098V34.4878H144.082V33.6098H144.96ZM144.082 33.6098V34.4878H143.204V33.6098H144.082ZM143.204 33.6098V34.4878H142.326V33.6098H143.204ZM142.326 33.6098V34.4878H141.448V33.6098H142.326ZM142.326 34.4878V35.3659H141.448V34.4878H142.326ZM143.204 34.4878V35.3659H142.326V34.4878H143.204ZM144.082 34.4878V35.3659H143.204V34.4878H144.082ZM144.96 34.4878V35.3659H144.082V34.4878H144.96ZM144.96 35.3659V36.2439H144.082V35.3659H144.96ZM145.838 35.3659V36.2439H144.96V35.3659H145.838ZM145.838 34.4878V35.3659H144.96V34.4878H145.838ZM144.96 36.2439V37.122H144.082V36.2439H144.96ZM144.082 36.2439V37.122H143.204V36.2439H144.082ZM144.082 35.3659V36.2439H143.204V35.3659H144.082ZM143.204 35.3659V36.2439H142.326V35.3659H143.204ZM143.204 36.2439V37.122H142.326V36.2439H143.204ZM143.204 37.122V38H142.326V37.122H143.204ZM142.326 37.122V38H141.448V37.122H142.326ZM141.448 37.122V38H140.57V37.122H141.448ZM140.57 37.122V38H139.692V37.122H140.57ZM139.692 37.122V38H138.813V37.122H139.692ZM138.813 37.122V38H137.935V37.122H138.813ZM137.935 37.122V38H137.057V37.122H137.935ZM137.057 37.122V38H136.179V37.122H137.057ZM137.935 36.2439V37.122H137.057V36.2439H137.935ZM138.813 36.2439V37.122H137.935V36.2439H138.813ZM139.692 36.2439V37.122H138.813V36.2439H139.692ZM140.57 36.2439V37.122H139.692V36.2439H140.57ZM141.448 36.2439V37.122H140.57V36.2439H141.448ZM142.326 36.2439V37.122H141.448V36.2439H142.326ZM142.326 35.3659V36.2439H141.448V35.3659H142.326ZM141.448 35.3659V36.2439H140.57V35.3659H141.448ZM140.57 35.3659V36.2439H139.692V35.3659H140.57ZM139.692 35.3659V36.2439H138.813V35.3659H139.692ZM138.813 35.3659V36.2439H137.935V35.3659H138.813ZM137.935 35.3659V36.2439H137.057V35.3659H137.935ZM137.057 36.2439V37.122H136.179V36.2439H137.057ZM136.179 36.2439V37.122H135.301V36.2439H136.179ZM135.301 36.2439V37.122H134.423V36.2439H135.301ZM135.301 35.3659V36.2439H134.423V35.3659H135.301ZM134.423 35.3659V36.2439H133.545V35.3659H134.423ZM134.423 34.4878V35.3659H133.545V34.4878H134.423ZM135.301 34.4878V35.3659H134.423V34.4878H135.301ZM136.179 34.4878V35.3659H135.301V34.4878H136.179ZM137.057 34.4878V35.3659H136.179V34.4878H137.057ZM137.935 34.4878V35.3659H137.057V34.4878H137.935ZM138.813 34.4878V35.3659H137.935V34.4878H138.813ZM139.692 34.4878V35.3659H138.813V34.4878H139.692ZM140.57 34.4878V35.3659H139.692V34.4878H140.57ZM141.448 34.4878V35.3659H140.57V34.4878H141.448ZM137.057 35.3659V36.2439H136.179V35.3659H137.057ZM136.179 35.3659V36.2439H135.301V35.3659H136.179ZM146.716 27.4634V28.3415H145.838V27.4634H146.716ZM145.838 27.4634V28.3415H144.96V27.4634H145.838ZM144.96 27.4634V28.3415H144.082V27.4634H144.96ZM144.082 27.4634V28.3415H143.204V27.4634H144.082ZM143.204 27.4634V28.3415H142.326V27.4634H143.204ZM146.716 28.3415V29.2195H145.838V28.3415H146.716ZM144.96 28.3415V29.2195H144.082V28.3415H144.96ZM144.082 28.3415V29.2195H143.204V28.3415H144.082ZM142.326 28.3415V29.2195H141.448V28.3415H142.326ZM141.448 28.3415V29.2195H140.57V28.3415H141.448ZM140.57 28.3415V29.2195H139.692V28.3415H140.57ZM139.692 28.3415V29.2195H138.813V28.3415H139.692ZM138.813 28.3415V29.2195H137.935V28.3415H138.813ZM137.935 28.3415V29.2195H137.057V28.3415H137.935ZM143.204 28.3415V29.2195H142.326V28.3415H143.204ZM145.838 28.3415V29.2195H144.96V28.3415H145.838ZM146.716 29.2195V30.0976H145.838V29.2195H146.716ZM145.838 29.2195V30.0976H144.96V29.2195H145.838ZM144.96 29.2195V30.0976H144.082V29.2195H144.96ZM144.082 29.2195V30.0976H143.204V29.2195H144.082ZM143.204 29.2195V30.0976H142.326V29.2195H143.204ZM142.326 29.2195V30.0976H141.448V29.2195H142.326ZM141.448 29.2195V30.0976H140.57V29.2195H141.448ZM140.57 29.2195V30.0976H139.692V29.2195H140.57ZM139.692 29.2195V30.0976H138.813V29.2195H139.692ZM138.813 29.2195V30.0976H137.935V29.2195H138.813ZM137.935 29.2195V30.0976H137.057V29.2195H137.935ZM137.935 30.0976V30.9756H137.057V30.0976H137.935ZM138.813 30.0976V30.9756H137.935V30.0976H138.813ZM139.692 30.0976V30.9756H138.813V30.0976H139.692ZM141.448 30.0976V30.9756H140.57V30.0976H141.448ZM142.326 30.0976V30.9756H141.448V30.0976H142.326ZM143.204 30.0976V30.9756H142.326V30.0976H143.204ZM144.082 30.0976V30.9756H143.204V30.0976H144.082ZM144.96 30.0976V30.9756H144.082V30.0976H144.96ZM145.838 30.0976V30.9756H144.96V30.0976H145.838ZM146.716 30.0976V30.9756H145.838V30.0976H146.716ZM140.57 30.0976V30.9756H139.692V30.0976H140.57ZM161.658 24.8293V25.7073H160.78V24.8293H161.658ZM160.78 24.8293V25.7073H159.902V24.8293H160.78ZM159.902 24.8293V25.7073H159.024V24.8293H159.902ZM159.024 24.8293V25.7073H158.146V24.8293H159.024ZM158.146 23.9512V24.8293H157.268V23.9512H158.146ZM159.024 23.9512V24.8293H158.146V23.9512H159.024ZM159.902 23.9512V24.8293H159.024V23.9512H159.902ZM160.78 23.9512V24.8293H159.902V23.9512H160.78ZM161.658 23.9512V24.8293H160.78V23.9512H161.658ZM161.658 23.0732V23.9512H160.78V23.0732H161.658ZM160.78 23.0732V23.9512H159.902V23.0732H160.78ZM159.902 23.0732V23.9512H159.024V23.0732H159.902ZM159.024 23.0732V23.9512H158.146V23.0732H159.024ZM158.146 23.0732V23.9512H157.268V23.0732H158.146ZM159.902 22.1951V23.0732H159.024V22.1951H159.902ZM160.78 22.1951V23.0732H159.902V22.1951H160.78ZM159.024 22.1951V23.0732H158.146V22.1951H159.024ZM159.024 21.3171V22.1951H158.146V21.3171H159.024ZM158.146 21.3171V22.1951H157.268V21.3171H158.146ZM158.146 22.1951V23.0732H157.268V22.1951H158.146ZM157.268 22.1951V23.0732H156.39V22.1951H157.268ZM157.268 21.3171V22.1951H156.39V21.3171H157.268ZM157.268 23.0732V23.9512H156.39V23.0732H157.268ZM156.39 23.0732V23.9512H155.512V23.0732H156.39ZM156.39 23.9512V24.8293H155.512V23.9512H156.39ZM157.268 23.9512V24.8293H156.39V23.9512H157.268ZM155.512 23.9512V24.8293H154.634V23.9512H155.512ZM155.512 23.0732V23.9512H154.634V23.0732H155.512ZM155.512 22.1951V23.0732H154.634V22.1951H155.512ZM155.512 21.3171V22.1951H154.634V21.3171H155.512ZM156.39 21.3171V22.1951H155.512V21.3171H156.39ZM156.39 22.1951V23.0732H155.512V22.1951H156.39ZM154.634 21.3171V22.1951H153.756V21.3171H154.634ZM153.756 21.3171V22.1951H152.878V21.3171H153.756ZM152.878 21.3171V22.1951H152V21.3171H152.878ZM152.878 22.1951V23.0732H152V22.1951H152.878ZM152.878 23.0732V23.9512H152V23.0732H152.878ZM152.878 23.9512V24.8293H152V23.9512H152.878ZM153.756 23.9512V24.8293H152.878V23.9512H153.756ZM154.634 23.9512V24.8293H153.756V23.9512H154.634ZM154.634 23.0732V23.9512H153.756V23.0732H154.634ZM154.634 22.1951V23.0732H153.756V22.1951H154.634ZM153.756 22.1951V23.0732H152.878V22.1951H153.756ZM153.756 23.0732V23.9512H152.878V23.0732H153.756ZM152 23.0732V23.9512H151.122V23.0732H152ZM152 22.1951V23.0732H151.122V22.1951H152ZM151.122 22.1951V23.0732H150.244V22.1951H151.122ZM151.122 23.0732V23.9512H150.244V23.0732H151.122ZM150.244 23.0732V23.9512H149.365V23.0732H150.244ZM150.244 23.9512V24.8293H149.365V23.9512H150.244ZM150.244 24.8293V25.7073H149.365V24.8293H150.244ZM151.122 24.8293V25.7073H150.244V24.8293H151.122ZM151.122 23.9512V24.8293H150.244V23.9512H151.122ZM152 23.9512V24.8293H151.122V23.9512H152ZM152 24.8293V25.7073H151.122V24.8293H152ZM152.878 24.8293V25.7073H152V24.8293H152.878ZM153.756 24.8293V25.7073H152.878V24.8293H153.756ZM149.365 24.8293V25.7073H148.487V24.8293H149.365ZM149.365 25.7073V26.5854H148.487V25.7073H149.365ZM149.365 26.5854V27.4634H148.487V26.5854H149.365ZM149.365 32.7317V33.6098H148.487V32.7317H149.365ZM150.244 32.7317V33.6098H149.365V32.7317H150.244ZM150.244 33.6098V34.4878H149.365V33.6098H150.244ZM149.365 33.6098V34.4878H148.487V33.6098H149.365ZM151.122 33.6098V34.4878H150.244V33.6098H151.122ZM152 33.6098V34.4878H151.122V33.6098H152ZM152.878 33.6098V34.4878H152V33.6098H152.878ZM153.756 33.6098V34.4878H152.878V33.6098H153.756ZM152.878 32.7317V33.6098H152V32.7317H152.878ZM152.878 26.5854V27.4634H152V26.5854H152.878ZM152.878 25.7073V26.5854H152V25.7073H152.878ZM152 25.7073V26.5854H151.122V25.7073H152ZM151.122 25.7073V26.5854H150.244V25.7073H151.122ZM150.244 25.7073V26.5854H149.365V25.7073H150.244ZM150.244 26.5854V27.4634H149.365V26.5854H150.244ZM151.122 32.7317V33.6098H150.244V32.7317H151.122ZM152 32.7317V33.6098H151.122V32.7317H152ZM151.122 26.5854V27.4634H150.244V26.5854H151.122ZM152 26.5854V27.4634H151.122V26.5854H152ZM159.024 31.8537V32.7317H158.146V31.8537H159.024ZM159.024 32.7317V33.6098H158.146V32.7317H159.024ZM159.902 32.7317V33.6098H159.024V32.7317H159.902ZM160.78 32.7317V33.6098H159.902V32.7317H160.78ZM161.658 32.7317V33.6098H160.78V32.7317H161.658ZM162.536 32.7317V33.6098H161.658V32.7317H162.536ZM162.536 31.8537V32.7317H161.658V31.8537H162.536ZM161.658 31.8537V32.7317H160.78V31.8537H161.658ZM160.78 31.8537V32.7317H159.902V31.8537H160.78ZM159.902 31.8537V32.7317H159.024V31.8537H159.902ZM162.536 33.6098V34.4878H161.658V33.6098H162.536ZM161.658 33.6098V34.4878H160.78V33.6098H161.658ZM160.78 33.6098V34.4878H159.902V33.6098H160.78ZM159.902 33.6098V34.4878H159.024V33.6098H159.902ZM159.024 33.6098V34.4878H158.146V33.6098H159.024ZM158.146 33.6098V34.4878H157.268V33.6098H158.146ZM158.146 34.4878V35.3659H157.268V34.4878H158.146ZM159.024 34.4878V35.3659H158.146V34.4878H159.024ZM159.902 34.4878V35.3659H159.024V34.4878H159.902ZM160.78 34.4878V35.3659H159.902V34.4878H160.78ZM160.78 35.3659V36.2439H159.902V35.3659H160.78ZM161.658 35.3659V36.2439H160.78V35.3659H161.658ZM161.658 34.4878V35.3659H160.78V34.4878H161.658ZM160.78 36.2439V37.122H159.902V36.2439H160.78ZM159.902 36.2439V37.122H159.024V36.2439H159.902ZM159.902 35.3659V36.2439H159.024V35.3659H159.902ZM159.024 35.3659V36.2439H158.146V35.3659H159.024ZM159.024 36.2439V37.122H158.146V36.2439H159.024ZM159.024 37.122V38H158.146V37.122H159.024ZM158.146 37.122V38H157.268V37.122H158.146ZM157.268 37.122V38H156.39V37.122H157.268ZM156.39 37.122V38H155.512V37.122H156.39ZM155.512 37.122V38H154.634V37.122H155.512ZM154.634 37.122V38H153.756V37.122H154.634ZM153.756 37.122V38H152.878V37.122H153.756ZM152.878 37.122V38H152V37.122H152.878ZM153.756 36.2439V37.122H152.878V36.2439H153.756ZM154.634 36.2439V37.122H153.756V36.2439H154.634ZM155.512 36.2439V37.122H154.634V36.2439H155.512ZM156.39 36.2439V37.122H155.512V36.2439H156.39ZM157.268 36.2439V37.122H156.39V36.2439H157.268ZM158.146 36.2439V37.122H157.268V36.2439H158.146ZM158.146 35.3659V36.2439H157.268V35.3659H158.146ZM157.268 35.3659V36.2439H156.39V35.3659H157.268ZM156.39 35.3659V36.2439H155.512V35.3659H156.39ZM155.512 35.3659V36.2439H154.634V35.3659H155.512ZM154.634 35.3659V36.2439H153.756V35.3659H154.634ZM153.756 35.3659V36.2439H152.878V35.3659H153.756ZM152.878 36.2439V37.122H152V36.2439H152.878ZM152 36.2439V37.122H151.122V36.2439H152ZM151.122 36.2439V37.122H150.244V36.2439H151.122ZM151.122 35.3659V36.2439H150.244V35.3659H151.122ZM150.244 35.3659V36.2439H149.365V35.3659H150.244ZM150.244 34.4878V35.3659H149.365V34.4878H150.244ZM151.122 34.4878V35.3659H150.244V34.4878H151.122ZM152 34.4878V35.3659H151.122V34.4878H152ZM152.878 34.4878V35.3659H152V34.4878H152.878ZM153.756 34.4878V35.3659H152.878V34.4878H153.756ZM154.634 34.4878V35.3659H153.756V34.4878H154.634ZM155.512 34.4878V35.3659H154.634V34.4878H155.512ZM156.39 34.4878V35.3659H155.512V34.4878H156.39ZM157.268 34.4878V35.3659H156.39V34.4878H157.268ZM152.878 35.3659V36.2439H152V35.3659H152.878ZM152 35.3659V36.2439H151.122V35.3659H152ZM160.78 30.0976V30.9756H159.902V30.0976H160.78ZM162.536 30.9756V31.8537H161.658V30.9756H162.536ZM161.658 30.9756V31.8537H160.78V30.9756H161.658ZM160.78 30.9756V31.8537H159.902V30.9756H160.78ZM159.902 30.9756V31.8537H159.024V30.9756H159.902ZM159.902 30.0976V30.9756H159.024V30.0976H159.902ZM159.024 30.0976V30.9756H158.146V30.0976H159.024ZM159.024 30.9756V31.8537H158.146V30.9756H159.024ZM153.756 26.5854V27.4634H152.878V26.5854H153.756ZM150.244 27.4634V28.3415H149.365V27.4634H150.244ZM150.244 28.3415V29.2195H149.365V28.3415H150.244ZM151.122 28.3415V29.2195H150.244V28.3415H151.122ZM151.122 29.2195V30.0976H150.244V29.2195H151.122ZM152 29.2195V30.0976H151.122V29.2195H152ZM152.878 30.0976V30.9756H152V30.0976H152.878ZM152.878 29.2195V30.0976H152V29.2195H152.878ZM152.878 28.3415V29.2195H152V28.3415H152.878ZM152.878 27.4634V28.3415H152V27.4634H152.878ZM152 27.4634V28.3415H151.122V27.4634H152ZM152 28.3415V29.2195H151.122V28.3415H152ZM151.122 27.4634V28.3415H150.244V27.4634H151.122ZM153.756 30.0976V30.9756H152.878V30.0976H153.756ZM154.634 30.0976V30.9756H153.756V30.0976H154.634ZM155.512 30.0976V30.9756H154.634V30.0976H155.512ZM156.39 30.0976V30.9756H155.512V30.0976H156.39ZM156.39 29.2195V30.0976H155.512V29.2195H156.39ZM155.512 29.2195V30.0976H154.634V29.2195H155.512ZM154.634 29.2195V30.0976H153.756V29.2195H154.634ZM153.756 29.2195V30.0976H152.878V29.2195H153.756ZM153.756 28.3415V29.2195H152.878V28.3415H153.756ZM153.756 27.4634V28.3415H152.878V27.4634H153.756ZM154.634 27.4634V28.3415H153.756V27.4634H154.634ZM155.512 27.4634V28.3415H154.634V27.4634H155.512ZM156.39 27.4634V28.3415H155.512V27.4634H156.39ZM156.39 28.3415V29.2195H155.512V28.3415H156.39ZM155.512 28.3415V29.2195H154.634V28.3415H155.512ZM154.634 28.3415V29.2195H153.756V28.3415H154.634ZM157.268 27.4634V28.3415H156.39V27.4634H157.268ZM158.146 27.4634V28.3415H157.268V27.4634H158.146ZM158.146 28.3415V29.2195H157.268V28.3415H158.146ZM158.146 29.2195V30.0976H157.268V29.2195H158.146ZM158.146 30.0976V30.9756H157.268V30.0976H158.146ZM157.268 30.0976V30.9756H156.39V30.0976H157.268ZM157.268 29.2195V30.0976H156.39V29.2195H157.268ZM157.268 28.3415V29.2195H156.39V28.3415H157.268ZM158.146 30.9756V31.8537H157.268V30.9756H158.146ZM159.024 27.4634V28.3415H158.146V27.4634H159.024ZM161.658 30.0976V30.9756H160.78V30.0976H161.658ZM161.658 29.2195V30.0976H160.78V29.2195H161.658ZM160.78 28.3415V29.2195H159.902V28.3415H160.78ZM159.902 28.3415V29.2195H159.024V28.3415H159.902ZM159.024 28.3415V29.2195H158.146V28.3415H159.024ZM159.024 29.2195V30.0976H158.146V29.2195H159.024ZM159.902 29.2195V30.0976H159.024V29.2195H159.902ZM160.78 29.2195V30.0976H159.902V29.2195H160.78ZM158.146 24.8293V25.7073H157.268V24.8293H158.146ZM177.478 24.8293V25.7073H176.6V24.8293H177.478ZM176.6 24.8293V25.7073H175.722V24.8293H176.6ZM175.722 24.8293V25.7073H174.844V24.8293H175.722ZM174.844 24.8293V25.7073H173.966V24.8293H174.844ZM173.966 23.9512V24.8293H173.088V23.9512H173.966ZM174.844 23.9512V24.8293H173.966V23.9512H174.844ZM175.722 23.9512V24.8293H174.844V23.9512H175.722ZM176.6 23.9512V24.8293H175.722V23.9512H176.6ZM177.478 23.9512V24.8293H176.6V23.9512H177.478ZM177.478 23.0732V23.9512H176.6V23.0732H177.478ZM176.6 23.0732V23.9512H175.722V23.0732H176.6ZM175.722 23.0732V23.9512H174.844V23.0732H175.722ZM174.844 23.0732V23.9512H173.966V23.0732H174.844ZM173.966 23.0732V23.9512H173.088V23.0732H173.966ZM175.722 22.1951V23.0732H174.844V22.1951H175.722ZM176.6 22.1951V23.0732H175.722V22.1951H176.6ZM174.844 22.1951V23.0732H173.966V22.1951H174.844ZM174.844 21.3171V22.1951H173.966V21.3171H174.844ZM173.966 21.3171V22.1951H173.088V21.3171H173.966ZM173.966 22.1951V23.0732H173.088V22.1951H173.966ZM173.088 22.1951V23.0732H172.21V22.1951H173.088ZM173.088 21.3171V22.1951H172.21V21.3171H173.088ZM173.088 23.0732V23.9512H172.21V23.0732H173.088ZM172.21 23.0732V23.9512H171.332V23.0732H172.21ZM172.21 23.9512V24.8293H171.332V23.9512H172.21ZM173.088 23.9512V24.8293H172.21V23.9512H173.088ZM171.332 23.9512V24.8293H170.454V23.9512H171.332ZM171.332 23.0732V23.9512H170.454V23.0732H171.332ZM171.332 22.1951V23.0732H170.454V22.1951H171.332ZM171.332 21.3171V22.1951H170.454V21.3171H171.332ZM172.21 21.3171V22.1951H171.332V21.3171H172.21ZM172.21 22.1951V23.0732H171.332V22.1951H172.21ZM170.454 21.3171V22.1951H169.576V21.3171H170.454ZM169.576 21.3171V22.1951H168.698V21.3171H169.576ZM168.698 21.3171V22.1951H167.82V21.3171H168.698ZM168.698 22.1951V23.0732H167.82V22.1951H168.698ZM168.698 23.0732V23.9512H167.82V23.0732H168.698ZM168.698 23.9512V24.8293H167.82V23.9512H168.698ZM169.576 23.9512V24.8293H168.698V23.9512H169.576ZM170.454 23.9512V24.8293H169.576V23.9512H170.454ZM170.454 23.0732V23.9512H169.576V23.0732H170.454ZM170.454 22.1951V23.0732H169.576V22.1951H170.454ZM169.576 22.1951V23.0732H168.698V22.1951H169.576ZM169.576 23.0732V23.9512H168.698V23.0732H169.576ZM167.82 23.0732V23.9512H166.942V23.0732H167.82ZM167.82 22.1951V23.0732H166.942V22.1951H167.82ZM166.942 22.1951V23.0732H166.064V22.1951H166.942ZM166.942 23.0732V23.9512H166.064V23.0732H166.942ZM166.064 23.0732V23.9512H165.186V23.0732H166.064ZM166.064 23.9512V24.8293H165.186V23.9512H166.064ZM166.064 24.8293V25.7073H165.186V24.8293H166.064ZM166.942 24.8293V25.7073H166.064V24.8293H166.942ZM166.942 23.9512V24.8293H166.064V23.9512H166.942ZM167.82 23.9512V24.8293H166.942V23.9512H167.82ZM167.82 24.8293V25.7073H166.942V24.8293H167.82ZM168.698 24.8293V25.7073H167.82V24.8293H168.698ZM169.576 24.8293V25.7073H168.698V24.8293H169.576ZM165.186 24.8293V25.7073H164.308V24.8293H165.186ZM165.186 25.7073V26.5854H164.308V25.7073H165.186ZM165.186 26.5854V27.4634H164.308V26.5854H165.186ZM165.186 32.7317V33.6098H164.308V32.7317H165.186ZM166.064 32.7317V33.6098H165.186V32.7317H166.064ZM166.064 33.6098V34.4878H165.186V33.6098H166.064ZM165.186 33.6098V34.4878H164.308V33.6098H165.186ZM166.942 33.6098V34.4878H166.064V33.6098H166.942ZM167.82 33.6098V34.4878H166.942V33.6098H167.82ZM168.698 33.6098V34.4878H167.82V33.6098H168.698ZM169.576 33.6098V34.4878H168.698V33.6098H169.576ZM168.698 32.7317V33.6098H167.82V32.7317H168.698ZM168.698 26.5854V27.4634H167.82V26.5854H168.698ZM168.698 25.7073V26.5854H167.82V25.7073H168.698ZM167.82 25.7073V26.5854H166.942V25.7073H167.82ZM166.942 25.7073V26.5854H166.064V25.7073H166.942ZM166.064 25.7073V26.5854H165.186V25.7073H166.064ZM166.064 26.5854V27.4634H165.186V26.5854H166.064ZM166.942 32.7317V33.6098H166.064V32.7317H166.942ZM167.82 32.7317V33.6098H166.942V32.7317H167.82ZM166.942 26.5854V27.4634H166.064V26.5854H166.942ZM167.82 26.5854V27.4634H166.942V26.5854H167.82ZM174.844 31.8537V32.7317H173.966V31.8537H174.844ZM174.844 32.7317V33.6098H173.966V32.7317H174.844ZM175.722 32.7317V33.6098H174.844V32.7317H175.722ZM176.6 32.7317V33.6098H175.722V32.7317H176.6ZM177.478 32.7317V33.6098H176.6V32.7317H177.478ZM178.357 32.7317V33.6098H177.478V32.7317H178.357ZM178.357 31.8537V32.7317H177.478V31.8537H178.357ZM177.478 31.8537V32.7317H176.6V31.8537H177.478ZM176.6 31.8537V32.7317H175.722V31.8537H176.6ZM175.722 31.8537V32.7317H174.844V31.8537H175.722ZM178.357 33.6098V34.4878H177.478V33.6098H178.357ZM177.478 33.6098V34.4878H176.6V33.6098H177.478ZM176.6 33.6098V34.4878H175.722V33.6098H176.6ZM175.722 33.6098V34.4878H174.844V33.6098H175.722ZM174.844 33.6098V34.4878H173.966V33.6098H174.844ZM173.966 33.6098V34.4878H173.088V33.6098H173.966ZM173.966 34.4878V35.3659H173.088V34.4878H173.966ZM174.844 34.4878V35.3659H173.966V34.4878H174.844ZM175.722 34.4878V35.3659H174.844V34.4878H175.722ZM176.6 34.4878V35.3659H175.722V34.4878H176.6ZM176.6 35.3659V36.2439H175.722V35.3659H176.6ZM177.478 35.3659V36.2439H176.6V35.3659H177.478ZM177.478 34.4878V35.3659H176.6V34.4878H177.478ZM176.6 36.2439V37.122H175.722V36.2439H176.6ZM175.722 36.2439V37.122H174.844V36.2439H175.722ZM175.722 35.3659V36.2439H174.844V35.3659H175.722ZM174.844 35.3659V36.2439H173.966V35.3659H174.844ZM174.844 36.2439V37.122H173.966V36.2439H174.844ZM174.844 37.122V38H173.966V37.122H174.844ZM173.966 37.122V38H173.088V37.122H173.966ZM173.088 37.122V38H172.21V37.122H173.088ZM172.21 37.122V38H171.332V37.122H172.21ZM171.332 37.122V38H170.454V37.122H171.332ZM170.454 37.122V38H169.576V37.122H170.454ZM169.576 37.122V38H168.698V37.122H169.576ZM168.698 37.122V38H167.82V37.122H168.698ZM169.576 36.2439V37.122H168.698V36.2439H169.576ZM170.454 36.2439V37.122H169.576V36.2439H170.454ZM171.332 36.2439V37.122H170.454V36.2439H171.332ZM172.21 36.2439V37.122H171.332V36.2439H172.21ZM173.088 36.2439V37.122H172.21V36.2439H173.088ZM173.966 36.2439V37.122H173.088V36.2439H173.966ZM173.966 35.3659V36.2439H173.088V35.3659H173.966ZM173.088 35.3659V36.2439H172.21V35.3659H173.088ZM172.21 35.3659V36.2439H171.332V35.3659H172.21ZM171.332 35.3659V36.2439H170.454V35.3659H171.332ZM170.454 35.3659V36.2439H169.576V35.3659H170.454ZM169.576 35.3659V36.2439H168.698V35.3659H169.576ZM168.698 36.2439V37.122H167.82V36.2439H168.698ZM167.82 36.2439V37.122H166.942V36.2439H167.82ZM166.942 36.2439V37.122H166.064V36.2439H166.942ZM166.942 35.3659V36.2439H166.064V35.3659H166.942ZM166.064 35.3659V36.2439H165.186V35.3659H166.064ZM166.064 34.4878V35.3659H165.186V34.4878H166.064ZM166.942 34.4878V35.3659H166.064V34.4878H166.942ZM167.82 34.4878V35.3659H166.942V34.4878H167.82ZM168.698 34.4878V35.3659H167.82V34.4878H168.698ZM169.576 34.4878V35.3659H168.698V34.4878H169.576ZM170.454 34.4878V35.3659H169.576V34.4878H170.454ZM171.332 34.4878V35.3659H170.454V34.4878H171.332ZM172.21 34.4878V35.3659H171.332V34.4878H172.21ZM173.088 34.4878V35.3659H172.21V34.4878H173.088ZM168.698 35.3659V36.2439H167.82V35.3659H168.698ZM167.82 35.3659V36.2439H166.942V35.3659H167.82ZM176.6 30.0976V30.9756H175.722V30.0976H176.6ZM178.357 30.9756V31.8537H177.478V30.9756H178.357ZM177.478 30.9756V31.8537H176.6V30.9756H177.478ZM176.6 30.9756V31.8537H175.722V30.9756H176.6ZM175.722 30.9756V31.8537H174.844V30.9756H175.722ZM175.722 30.0976V30.9756H174.844V30.0976H175.722ZM174.844 30.0976V30.9756H173.966V30.0976H174.844ZM174.844 30.9756V31.8537H173.966V30.9756H174.844ZM169.576 26.5854V27.4634H168.698V26.5854H169.576ZM166.064 27.4634V28.3415H165.186V27.4634H166.064ZM166.064 28.3415V29.2195H165.186V28.3415H166.064ZM166.942 28.3415V29.2195H166.064V28.3415H166.942ZM166.942 29.2195V30.0976H166.064V29.2195H166.942ZM167.82 29.2195V30.0976H166.942V29.2195H167.82ZM168.698 30.0976V30.9756H167.82V30.0976H168.698ZM168.698 29.2195V30.0976H167.82V29.2195H168.698ZM168.698 28.3415V29.2195H167.82V28.3415H168.698ZM168.698 27.4634V28.3415H167.82V27.4634H168.698ZM167.82 27.4634V28.3415H166.942V27.4634H167.82ZM167.82 28.3415V29.2195H166.942V28.3415H167.82ZM166.942 27.4634V28.3415H166.064V27.4634H166.942ZM169.576 30.0976V30.9756H168.698V30.0976H169.576ZM170.454 30.0976V30.9756H169.576V30.0976H170.454ZM171.332 30.0976V30.9756H170.454V30.0976H171.332ZM172.21 30.0976V30.9756H171.332V30.0976H172.21ZM172.21 29.2195V30.0976H171.332V29.2195H172.21ZM171.332 29.2195V30.0976H170.454V29.2195H171.332ZM170.454 29.2195V30.0976H169.576V29.2195H170.454ZM169.576 29.2195V30.0976H168.698V29.2195H169.576ZM169.576 28.3415V29.2195H168.698V28.3415H169.576ZM169.576 27.4634V28.3415H168.698V27.4634H169.576ZM170.454 27.4634V28.3415H169.576V27.4634H170.454ZM171.332 27.4634V28.3415H170.454V27.4634H171.332ZM172.21 27.4634V28.3415H171.332V27.4634H172.21ZM172.21 28.3415V29.2195H171.332V28.3415H172.21ZM171.332 28.3415V29.2195H170.454V28.3415H171.332ZM170.454 28.3415V29.2195H169.576V28.3415H170.454ZM173.088 27.4634V28.3415H172.21V27.4634H173.088ZM173.966 27.4634V28.3415H173.088V27.4634H173.966ZM173.966 28.3415V29.2195H173.088V28.3415H173.966ZM173.966 29.2195V30.0976H173.088V29.2195H173.966ZM173.966 30.0976V30.9756H173.088V30.0976H173.966ZM173.088 30.0976V30.9756H172.21V30.0976H173.088ZM173.088 29.2195V30.0976H172.21V29.2195H173.088ZM173.088 28.3415V29.2195H172.21V28.3415H173.088ZM173.966 30.9756V31.8537H173.088V30.9756H173.966ZM174.844 27.4634V28.3415H173.966V27.4634H174.844ZM177.478 30.0976V30.9756H176.6V30.0976H177.478ZM177.478 29.2195V30.0976H176.6V29.2195H177.478ZM176.6 28.3415V29.2195H175.722V28.3415H176.6ZM175.722 28.3415V29.2195H174.844V28.3415H175.722ZM174.844 28.3415V29.2195H173.966V28.3415H174.844ZM174.844 29.2195V30.0976H173.966V29.2195H174.844ZM175.722 29.2195V30.0976H174.844V29.2195H175.722ZM176.6 29.2195V30.0976H175.722V29.2195H176.6ZM173.966 24.8293V25.7073H173.088V24.8293H173.966Z" fill="white"/>
</g>
<defs>
<clipPath id="clip0_166_13">
<rect width="210" height="55" fill="white"/>
</clipPath>
</defs>
</svg>
